/* XPM */
static char *_d141a2baf18490d9f99817e34d96434zIREbG30Ng6OtgMu[] = {
/* columns rows colors chars-per-pixel */
"64 64 214 2 ",
"   c #000000",
".  c #050804",
"X  c #090C01",
"o  c #0B0B0A",
"O  c #140E0D",
"+  c #190F0D",
"@  c #0C1200",
"#  c #141D00",
"$  c #11110D",
"%  c #0B0D16",
"&  c #0C171B",
"*  c #121312",
"=  c #1D1413",
"-  c #161917",
";  c #1D1D1D",
":  c #31180C",
">  c #221613",
",  c #271916",
"<  c #361D11",
"1  c #1A2700",
"2  c #1E2510",
"3  c #1F201E",
"4  c #212D07",
"5  c #222813",
"6  c #22241A",
"7  c #29241E",
"8  c #33221C",
"9  c #3C241A",
"0  c #303D15",
"q  c #0B1629",
"w  c #131B27",
"e  c #181F21",
"r  c #131F35",
"t  c #1C2123",
"y  c #1B2029",
"u  c #1A2233",
"i  c #232323",
"p  c #292520",
"a  c #2D2924",
"s  c #272728",
"d  c #27282A",
"f  c #2B2B2A",
"g  c #342521",
"h  c #302C26",
"j  c #3D2B27",
"k  c #2B3328",
"l  c #363729",
"z  c #363D29",
"x  c #272D33",
"c  c #272E37",
"v  c #26303D",
"b  c #2E353D",
"n  c #343434",
"m  c #3B3B32",
"M  c #3A3A3A",
"N  c #422C24",
"B  c #432E29",
"V  c #4C3127",
"C  c #44332C",
"Z  c #4B352E",
"A  c #4E3631",
"S  c #483A34",
"D  c #4D3B34",
"F  c #513C35",
"G  c #5A3E36",
"H  c #533F39",
"J  c #2C4201",
"K  c #304603",
"L  c #3C540A",
"P  c #35421C",
"I  c #374025",
"U  c #3C452C",
"Y  c #4E6C0F",
"T  c #496313",
"R  c #597818",
"E  c #485828",
"W  c #474F37",
"Q  c #55413B",
"!  c #5C443C",
"~  c #63453D",
"^  c #66483F",
"/  c #7A4A3B",
"(  c #5E6F3D",
")  c #627E2B",
"_  c #65793E",
"`  c #1A2A48",
"'  c #1C2F52",
"]  c #2D3747",
"[  c #253E68",
"{  c #24406D",
"}  c #2B4779",
"|  c #2B497B",
" . c #444444",
".. c #584B49",
"X. c #4B5141",
"o. c #634740",
"O. c #654942",
"+. c #6D4D44",
"@. c #714E45",
"#. c #745146",
"$. c #745248",
"%. c #7A554A",
"&. c #7C5449",
"*. c #6D5D58",
"=. c #5F6750",
"-. c #647543",
";. c #646B55",
":. c #6B7657",
">. c #7A6A65",
",. c #6D6F78",
"<. c #8A5748",
"1. c #845A4E",
"2. c #865C50",
"3. c #8A5E52",
"4. c #905F52",
"5. c #8D6053",
"6. c #956457",
"7. c #956659",
"8. c #976759",
"9. c #996759",
"0. c #9C6B5D",
"q. c #A56E5E",
"w. c #9E6E60",
"e. c #A16F60",
"r. c #AC7666",
"t. c #B17869",
"y. c #5F801B",
"u. c #659701",
"i. c #679A01",
"p. c #6A9D01",
"a. c #6E9C0F",
"s. c #6B9711",
"d. c #739D1E",
"f. c #6DA201",
"g. c #70A602",
"h. c #74AB02",
"j. c #78AF04",
"k. c #72A509",
"l. c #77AB0B",
"z. c #77B003",
"x. c #79B203",
"c. c #7CB20B",
"v. c #76A713",
"b. c #7AAB15",
"n. c #76A21D",
"m. c #78A41E",
"M. c #7CAB1A",
"N. c #7EB017",
"B. c #6A8A29",
"V. c #6D8A33",
"C. c #779636",
"Z. c #77A120",
"A. c #79A420",
"S. c #7DAB21",
"D. c #748C44",
"F. c #799147",
"G. c #7F9B44",
"H. c #7B9448",
"J. c #748750",
"K. c #82B31C",
"L. c #81AF21",
"P. c #8AB82B",
"I. c #86AD37",
"U. c #8BB438",
"Y. c #819D46",
"T. c #85A544",
"R. c #96BC4B",
"E. c #8EAC52",
"W. c #95B554",
"Q. c #8A996C",
"!. c #8F997B",
"~. c #949D7C",
"^. c #9CB569",
"/. c #97A775",
"(. c #A4BC71",
"). c #A0C15E",
"_. c #A8C768",
"`. c #ABC378",
"'. c #B5CF7E",
"]. c #315185",
"[. c #848488",
"{. c #908E8F",
"}. c #969599",
"|. c #A7B882",
" X c #9A98A2",
".X c #A1A1AA",
"XX c #ADA4AA",
"oX c gray67",
"OX c #B0A7AD",
"+X c #B1A8AF",
"@X c #B5B1B8",
"#X c #BDBCBF",
"$X c #BDC0BD",
"%X c #CADDA3",
"&X c #C0C3B9",
"*X c #C0BFC4",
"=X c #CABBC2",
"-X c #C3C2C6",
";X c #CBC5C7",
":X c #C5C4C9",
">X c #D5C6CC",
",X c #CDCCD2",
"<X c #D3C6D0",
"1X c #D9CBD6",
"2X c #D8D1DB",
"3X c #DDDCE6",
"4X c #DFDAE9",
"5X c #E1DFEA",
"6X c #E3E2E8",
"7X c #EBEAF2",
"8X c #EFEEFE",
"9X c #F3F3F6",
"0X c #F6F5FF",
"qX c #FFFFFF",
/* pixels */
"x.f.f.p.i.p.p.f.f.f.f.f.j.h.h.g.f.u.i.h.h.z.x.f.p.p.i.p.p.f.f.f.f.p.h.h.h.g.f.i.i.h.j.j.x.h.p.f.i.p.p.f.f.f.f.p.g.h.h.h.f.p.u.f.",
"f.f.f.g.f.f.f.f.j.g.f.g.f.f.f.p.p.f.p.f.h.N.m.n.m.m.m.n.n.m.S.S.m.A.m.m.m.n.n.n.n.d.b.j.g.f.f.g.f.p.f.f.h.j.f.g.f.f.f.f.p.p.f.p.",
"f.f.f.j.h.f.f.f.j.j.h.h.f.f.f.f.p.f.f.p.f.R #                                     @ T f.f.f.f.j.j.g.f.f.h.x.h.h.g.f.f.f.p.f.f.p.",
"p.i.f.f.f.g.p.i.f.g.f.f.f.h.j.f.f.x.h.f.v.(                                         E v.p.p.p.g.f.f.f.i.p.f.g.f.p.f.j.g.f.h.j.f.",
"p.p.f.f.p.f.f.f.f.f.p.i.f.f.h.j.j.x.g.v.).;.                                        X._.v.i.f.f.p.p.f.f.p.f.f.i.p.f.f.z.j.j.j.f.",
"g.f.h.h.g.f.x.h.g.h.f.f.f.p.p.h.h.k.R E W f i 3 ; ; ; ; ; ; ; ; ; ; ; ; ; ; ; ; 3 i f W E R l.h.h.f.h.x.f.h.g.f.f.f.i.f.h.f.p.f.",
"j.f.h.x.g.p.h.j.h.f.f.j.g.f.f.f.f.d.1     * n f f f f f f f f f f f f f f f f f f n -     1 n.x.j.f.f.j.h.h.p.h.h.f.f.f.f.i.u.g.",
"h.p.f.h.p.i.f.f.f.i.p.h.j.h.j.f.p.W..     - n f f f f f f f f f f f f f f f f f f n ;     . E.g.f.i.p.f.f.f.i.f.j.j.h.j.f.i.i.f.",
"f.f.f.f.g.f.g.h.f.f.f.p.f.g.k.S.W./.o o o ; f f f f s s f f f f f f f f f f s s f f i o o o Q.W.S.k.f.h.f.p.f.p.f.f.g.f.f.f.f.f.",
"p.f.f.f.h.h.g.f.f.g.g.p.f.f.T @   . f f f f s f f f f f f f f f f f f f s f s s f f f f f n o   X L h.f.f.f.h.f.p.f.p.f.f.h.h.g.",
"f.h.f.p.p.f.p.i.f.j.h.f.g.k.0       f f f f s s s s s s s s s s s s s s s s s s s s f f f f .     2 f.i.p.g.j.f.g.g.f.f.f.f.f.p.",
"x.h.f.f.g.f.p.f.g.g.f.f.f.j.z     o f f f t e t t t t t e e e t t t t t e e e e t e t f f f o     6 f.f.g.f.f.f.f.h.x.g.f.i.i.p.",
"j.p.p.f.x.j.g.j.f.f.p.u.p.h.I     o f f i H +.o.o.o.o.o.~ ~ ~ o.o.o.o.o.o.o.o.o.o.+.H i s f o     6 h.h.h.f.f.i.i.f.j.j.k.i.p.p.",
"f.p.i.p.f.h.j.h.i.f.f.p.p.k.z     o f s e @.q.6.6.6.6.6.6.6.6.6.6.6.6.6.6.6.6.6.6.q.%.t s f o     6 j.j.f.i.f.p.p.f.f.f.f.f.f.f.",
"f.f.g.f.p.p.f.f.f.i.p.f.f.a.z       f s t O.6.2.2.2.2.2.2.2.2.2.2.2.2.2.2.2.2.2.2.6.+.t s f .     - k.f.f.p.i.f.f.i.i.f.f.j.h.h.",
"i.f.z.j.h.f.f.f.f.p.g.l.S.(.m O O = f s t O.6.2.2.2.2.2.2.2.2.2.2.2.2.2.2.2.2.2.2.6.+.t s f - O O a `.I.v.k.f.h.h.p.p.f.f.h.h.f.",
"i.f.f.x.x.f.f.f.f.f.Z.J @   @.7.7.#.t s t O.6.2.2.2.2.2.2.2.2.2.2.2.2.2.2.2.2.2.2.6.+.t s t +.7.7.%.  X 1 C.g.h.j.h.f.p.p.f.f.i.",
"p.f.p.p.f.f.f.h.h.h.G.      @.q.9.$.t s t O.6.2.2.2.2.2.2.2.2.2.2.2.2.2.2.2.2.2.2.6.+.t i t +.9.0.&.    @ D.h.f.g.h.g.g.g.i.p.f.",
"h.g.h.f.u.f.f.f.g.g.Y.      +.7.6.+.& e & ~ 9.1.3.0.0.0.6.1.2.2.2.2.1.6.0.0.0.3.1.6.+.& e & O.9.7.%.      F.k.f.f.f.f.g.j.j.f.j.",
"g.h.j.h.p.h.h.f.f.f.G.      +.7.5.%.Q ! Q %.5.5.&.N j j ~ 7.2.2.2.2.6.O.j j j $.6.5.%.Q ! Q %.5.7.%.      F.f.f.f.f.i.p.f.x.x.h.",
"p.f.f.p.f.h.j.h.g.i.G.      +.9.1.3.9.9.9.5.1.7.@.      g e.2.2.2.2.e.C       ^ 0.1.3.9.9.9.3.1.7.%.      F.i.f.p.f.p.p.f.f.j.f.",
"h.j.f.p.f.f.f.g.g.p.G.      +.9.2.2.2.2.2.2.2.7.#.      B 0.2.2.2.2.0.F       O.9.2.2.2.2.2.2.2.7.%.      F.i.f.j.h.f.g.f.f.f.f.",
"x.f.f.p.i.p.p.f.f.f.G.      +.7.2.2.2.2.2.2.2.7.#.      B 0.2.2.2.2.0.F       O.9.2.2.2.2.2.2.2.7.%.      F.f.p.h.j.g.h.f.p.u.f.",
"g.f.f.f.p.p.p.f.h.k.Y.      +.7.2.2.2.2.2.2.2.7.#.      B 0.2.2.2.2.0.F       O.9.2.2.2.2.2.2.2.7.%.      H.f.f.f.f.g.f.p.p.p.p.",
"f.f.f.j.h.f.f.f.x.j.T.      +.7.2.2.2.2.2.2.2.7.#.      B 0.2.2.2.2.0.F       O.9.2.2.2.2.2.2.2.7.%.      G.h.h.f.f.f.f.p.p.f.p.",
"p.p.f.h.g.g.p.p.g.h.C.#     &.t.0.7.1.2.2.2.2.7.@.      j r.5.5.5.5.r.A       ^ 0.2.2.2.2.1.7.0.r.1.    # V.h.g.f.f.h.f.p.g.j.f.",
"i.i.f.p.p.f.f.p.f.f.A.) _ =.! ! F ~ 3.2.2.2.2.5.%.g 8 g F &.#.#.#.#.&.! g 8 8 $.6.2.2.2.2.5.^ H ! ! =.-.) A.f.p.p.f.h.j.h.x.x.f.",
"f.f.g.g.g.f.j.h.f.h.f.f.v.).k     O 7.3.2.2.2.1.3.0.9.e.#.j D D D D j +.e.0.0.3.1.2.2.2.3.0.>     - _.K.f.h.g.p.f.f.i.h.j.g.f.f.",
"j.f.h.x.h.p.j.j.h.g.f.j.f.v.z     = 9.5.3.3.2.2.2.3.3.7.+.S H H H H S O.6.3.3.3.2.2.3.3.3.0.,     5 b.x.h.h.f.h.h.f.p.f.f.p.i.g.",
"h.p.g.j.f.i.f.g.f.i.p.j.j.h.T @   O w.7.7.5.3.3.3.3.3.7.+.C D D D D S O.6.3.3.3.3.3.5.7.7.e.>   X K p.f.g.f.i.g.j.h.h.j.f.i.i.f.",
"f.f.f.f.f.p.f.h.f.p.p.f.g.h.b.I.^.~.> = = A +.! ! ! ! ! +.1.%.%.%.%.1.+.! ! ! ! ! +.D = = > {.&X|.I.p.g.f.p.p.p.f.g.h.g.f.f.f.f.",
"p.f.f.f.h.h.g.f.f.f.f.p.f.f.p.k.K.U.      p ! D D D D C +.0.5.5.5.5.9.#.C S D D D ! g       $X%X_.K.h.g.f.f.f.f.p.f.p.f.f.h.h.g.",
"p.g.f.p.p.f.p.i.f.j.h.f.g.f.p.k.b.U.      > V 9 N H Q S +.7.5.5.3.5.6.$.S Q Q N 9 V ,       #X%X_.M.f.i.p.g.j.f.g.f.p.f.f.f.g.f.",
"j.h.f.f.f.f.p.f.f.h.f.f.g.j.b.I.^.~.= = + ..>.>.*.H H D O.2.&.%.%.%.1.+.D H H *.>.>...+ = = {.;X|.I.p.p.f.f.g.f.g.h.j.f.f.p.p.p.",
"x.f.p.f.x.j.f.j.g.f.p.i.f.j.Y #   + 0.6./ >XqXqX5XH Z H H H H H H H D H H D C 2XqXqX2X<.4.e.>   X L k.h.j.f.f.i.i.f.j.j.k.i.p.p.",
"f.p.i.f.h.j.j.h.i.f.f.i.p.L.P     = 9.5./ ;XqXqX4XF C H H H H H H H H H H Z C 2XqXqX1X/ 3.0.,     5 P.j.f.p.f.p.i.f.g.h.f.f.f.f.",
"p.f.f.f.p.p.g.g.p.i.p.f.S._.k     O 7.2./ =XqXqX2X9 : 9 9 9 9 9 9 9 9 9 9 < : ;XqXqX<X/ 1.0.=     * '.P.f.i.p.f.f.i.i.f.f.h.g.h.",
"p.f.x.j.f.f.f.f.f.p.m.B._ ;.Q G F ~ 5.1./ =XqX0X7XOXXX+XOX+X+X+X+X+X+X+X+XXXXX6X0XqX<X/ 1.5.~ F G H ;.-.B.n.p.h.h.i.p.f.f.h.h.f.",
"i.f.h.x.x.f.f.f.f.f.C.@ .   &.t.0.7.1.1./ =XqX8X0XqXqXqXqXqXqXqXqXqXqXqXqXqXqX0X8XqX<X/ 1.1.7.0.r.1.    X V.f.h.j.g.f.p.p.f.f.i.",
"p.f.p.f.g.f.f.h.g.h.Y.      +.7.2.2.2.1./ =XqX8X8X8X8X8X8X8X8X8X8X8X8X8X8X8X8X8X8XqX<X/ 1.2.2.2.7.%.      F.h.f.h.h.g.f.f.i.p.f.",
"g.f.g.p.u.f.f.f.h.h.Y.      +.7.2.2.2.1./ =XqX8X8X8X8X8X8X8X8X8X8X8X8X8X8X8X8X8X8XqX<X/ 1.2.2.2.7.%.      H.h.f.f.f.f.g.j.g.p.j.",
"h.h.j.h.p.h.g.f.f.f.Y.      +.7.2.2.2.1./ =XqX8X8X8X8X8X8X8X8X8X8X8X8X8X8X8X8X8X8XqX<X/ 1.2.2.2.7.%.      F.f.f.f.f.i.p.g.x.j.j.",
"p.f.f.f.f.h.j.h.f.p.G.      +.7.2.2.2.1./ =XqX8X8X8X8X8X8X8X8X8X8X8X8X8X8X8X8X8X8XqX<X/ 1.2.2.2.7.%.      F.p.f.p.f.p.p.f.g.j.f.",
"f.h.f.p.f.g.g.g.h.i.C.@ .   &.t.0.0.0.0.<.>XqX0X0X0X0X0X0X0X0X0X0X0X0X0X0X0X0X0X0XqX2X<.9.0.0.0.r.3.    # V.i.f.h.g.f.f.f.f.f.f.",
"x.g.f.p.p.p.f.f.f.f.n.B.D.:.Q F A A A Z N XX9X3X3X3X3X3X3X3X3X3X3X3X3X3X3X3X3X3X3X9X@XN Z A A A F H :.D.B.n.f.p.j.j.f.h.f.p.u.f.",
"h.f.f.p.p.p.p.f.g.f.f.f.L._.k             ,.5X#X#X#X#X#X#X#X#X#X#X#X#X#X#X#X#X#X#X3X[.            - _.S.k.g.f.f.f.g.h.g.f.p.i.f.",
"f.f.f.j.g.f.f.f.x.j.g.h.f.M.P             [.7X,X,X,X,X,X:X*X-X-X-X-X*X:X,X,X,X,X,X7X}.            4 S.f.h.x.f.h.f.f.f.f.p.p.f.p.",
"f.p.f.j.h.g.p.p.h.j.h.h.f.g.R 1 .         [.6X:X:X:X:X:X:X:X:X:X:X:X:X:X:X:X:X:X:X6X{.        . # Y f.p.f.j.h.h.f.f.g.f.p.f.h.f.",
"i.i.f.f.p.f.f.p.f.f.f.p.f.g.j.M.R./.      s  .M M M M - {.0X7X7X7X7X0X.X3 M M M M  .f       !.`.I.k.f.p.p.f.f.p.p.f.h.j.g.j.x.f.",
"f.f.f.f.f.f.j.g.f.h.p.p.f.p.f.x.j.U.      $ ; - - - -   [.qX0X0X0X0XqX X  - - - - ; *       W.b.f.f.h.h.f.f.f.p.f.f.i.j.j.h.g.f.",
"h.f.h.x.h.p.j.j.h.h.f.h.f.p.p.f.f.d.      - h 7 7 7 7   }.qXqXqXqXqXqX@X  7 7 7 7 a =       T.c.j.f.g.x.h.h.f.h.g.f.p.f.f.p.i.f.",
"h.p.g.x.f.p.f.g.g.p.f.j.j.g.h.g.f.d.      y ] v v v v w ,.oX.X.X.X.XoX,.w v v v v ] u       T.j.h.p.p.g.h.f.i.h.j.h.g.h.f.i.i.f.",
"f.f.f.f.f.i.f.g.f.p.p.f.h.h.h.f.p.m.      ` | { { { { ].q             % ].{ { { { | '       T.f.f.p.p.g.f.p.p.p.h.h.h.h.p.p.f.p.",
"f.f.f.f.h.g.g.g.f.f.f.p.f.f.f.f.g.U.      ` } [ [ [ [ | r             q | [ [ [ [ } '       E.f.g.h.g.g.f.f.f.f.p.f.f.f.f.g.h.g.",
"p.f.f.f.f.h.f.i.f.j.h.f.f.p.p.l.U.(.      ` | [ [ [ [ | u             w | [ [ [ [ | '       |.R.b.f.g.i.p.g.j.f.f.f.p.f.f.g.h.f.",
"h.h.f.f.p.p.p.p.f.h.g.f.g.h.B.E U l i i i d c x x x x b -             * b x x x x c x 3 i s n U E y.p.i.f.f.h.f.g.h.h.f.f.p.p.p.",
"x.f.f.f.x.h.f.h.h.f.p.i.f.j.2 .     n f f a 7 p p p p h *             $ h p p p p 7 p f f n       X f.g.j.f.f.i.p.g.x.j.k.i.p.p.",
"f.p.i.f.j.x.j.j.p.f.f.i.p.k.z     o n f f f f f f f f n .               n f f f f f f f f n *     6 j.j.f.p.f.p.i.f.h.h.f.p.f.p.",
"p.p.p.f.p.f.h.g.i.p.p.f.f.p.z     o s i i i i i i i i s f U U U U U U f s i i i i i i i i s o     6 k.h.f.i.p.f.f.p.p.f.f.h.f.h.",
"p.f.j.h.f.p.p.f.f.i.f.h.f.i.z                           J.f.g.p.p.h.k.Q.                          6 f.f.f.p.p.f.f.i.i.f.f.j.h.g.",
"i.f.j.x.x.g.f.f.f.f.g.j.g.f.I                         @ C.f.f.f.f.j.h.C.@                         5 f.f.f.f.f.h.j.f.f.f.p.f.g.i.",
"p.f.f.h.h.f.f.h.f.g.f.h.j.h.0 @                       J s.g.g.f.g.g.j.v.K                         4 f.f.h.f.g.f.j.h.g.f.f.i.p.p.",
"f.f.f.p.i.f.f.g.h.h.g.f.f.f.n.M.A.d.n.L.S.n.A.A.Z.Z.d.n.f.f.h.h.h.f.f.k.n.S.S.d.d.L.S.n.A.A.n.A.d.n.f.f.h.h.h.f.f.f.f.g.j.f.p.j.",
"h.h.j.h.i.g.f.f.f.f.f.f.f.p.p.f.z.j.h.x.g.p.h.h.j.j.i.f.g.f.f.f.f.f.f.p.p.f.j.x.h.x.h.f.f.h.h.j.p.f.h.f.f.f.f.f.f.f.p.f.h.x.h.j."
};
