/* XPM */
static char *result[] = {
/* columns rows colors chars-per-pixel */
"32 32 95 2 ",
"   c #090800",
".  c #151300",
"X  c #1A1800",
"o  c #13110C",
"O  c #1D1F0E",
"+  c #1F200F",
"@  c #2C2801",
"#  c #363101",
"$  c #3A3401",
"%  c #36350E",
"&  c #252612",
"*  c #2A2C14",
"=  c #303317",
"-  c #36391A",
";  c #3A3B19",
":  c #413B02",
">  c #423F0D",
",  c #474001",
"<  c #514901",
"1  c #5B560E",
"2  c #434214",
"3  c #4C4A14",
"4  c #44461E",
"5  c #4D4E1D",
"6  c #5C5912",
"7  c #535219",
"8  c #625D0D",
"9  c #6E6401",
"0  c #6D660D",
"q  c #756A02",
"w  c #746C0C",
"e  c #7C7102",
"r  c #7D7309",
"t  c #676117",
"y  c #444721",
"u  c #4B4E24",
"i  c #4E5126",
"p  c #525425",
"a  c #53512C",
"s  c #5C5D2C",
"d  c #5D5E31",
"f  c #5F622D",
"g  c #66682A",
"h  c #676A31",
"j  c #6D7235",
"k  c #717534",
"l  c #757739",
"z  c #767C39",
"x  c #867902",
"c  c #8B7F03",
"v  c #7C813B",
"b  c #8C8007",
"n  c #928403",
"m  c #968802",
"M  c #9C8D02",
"N  c #9F9002",
"B  c #A59502",
"V  c #AB9B02",
"C  c #B09F02",
"Z  c #B5A402",
"A  c #B8A602",
"S  c #BCAB02",
"D  c #82863E",
"F  c #848A3F",
"G  c #C1AF02",
"H  c #C5B203",
"J  c #CDB903",
"K  c #D6C103",
"L  c #DBC603",
"P  c #DEC903",
"I  c #E4CE03",
"U  c #E7D103",
"Y  c #E9D303",
"T  c #EED803",
"R  c #F3DC03",
"E  c #848A40",
"W  c #8D9344",
"Q  c #929545",
"!  c #939947",
"~  c #959B48",
"^  c #9B9E4B",
"/  c #888056",
"(  c #A09F53",
")  c #9CA44C",
"_  c #A2A64E",
"`  c #A7AF4F",
"'  c #A4A651",
"]  c #A7AF50",
"[  c #A9AD51",
"{  c #ADAC5A",
"}  c #ADB154",
"|  c #B5B45D",
" . c #A49B64",
".. c #C7BE76",
"X. c #D3C685",
/* pixels */
"X...| } } [ [ [ [ ' ` ` ] ] ] ] ] ] ] ] ] ] ] ] ] ] ] ] ] ] ] ] ",
"X...| } } [ [ [ [ ` ] ] _ ] ] ] ] ] ] ] ] ] ] ] ] ] ] ] ] ] ] ] ",
"X...| } [ [ [ [ [ ' [ [ ] ] ] ] ] ] ] ] ] ] ] ] ] ] ] ] ] ] ` ` ",
"X...| { } [ [ [ ' [ W k j j j j j E ] ] ] ] ] ] } ] ] ] ] ] ` ` ",
"X...| } ` } ` [ ' [ j + + & + + O i ) ] ] ] ] ] ] ] ` ] ` ` ` ` ",
"X...| } } ` _ D l l t : : : : > , 7 k z z ) ] ` ] ] ] ] ] ] ` ` ",
"X...| } [ [ Q 5 + & 8 C G C C A A r = & * v ` ` ] ] ] ` ] ] ` ` ",
"X...| } ` Q k 3 : : x Y Y Y Y Y Y V , $ % g F ) ] ] ] ] ` ] ` ` ",
"X...| { ' d > x V V H Y Y Y Y Y U K C V N 1 y W ] ] ` ` ] ] ` ` ",
"X...| ^ D 7 < G Y Y Y Y T R Y T Y Y Y Y P q > k ~ ] ` ` ` ] ` ` ",
"X...| l > w C K Y Y T R R R R R R T Y Y U S b 3 f ) ` ` ] ` ` ` ",
"X...| d   c Y Y Y Y R R R R R R R R T Y Y Y S # - ! ` ` ] ] ` ` ",
"X...| d   c Y Y T R R T T T T T T T R T Y Y S # - ) ` ] ] ] ] ] ",
"X...( s @ c Y Y T R T Y Y U Y U Y T R T I U S < 4 v ) ] ] ] ` ] ",
"X.( a t c H Y T R T T Y Y Y Y Y Y T T I K P K N w 5 k ` ] ] ` ` ",
"X./ o 9 T Y T R R Y Y Y Y U Y Y Y Y Y L K P Y U M + i ] ] ] ` ` ",
"X./ o 9 Y Y T R R Y Y Y Y Y Y Y Y U Y L H P Y Y M + i ` ` ` ` ` ",
"X./ o 9 Y Y Y R R Y Y U Y Y U Y Y Y Y L K P Y Y M . u ] ] ] ` ` ",
"X./ o 9 Y Y T R R T Y Y Y Y Y Y Y Y Y L H L Y Y M X u ` ] ] ` ` ",
"X./ o 9 Y Y Y R R Y Y Y Y U U Y Y Y I L K L Y Y N X u ] ` ] ` ` ",
"X. .d t e S T T T R T Y U Y Y Y Y P L K L P K m 0 p v ` ] ] ` ` ",
"X...{ f . b Y Y T R T Y Y Y Y Y Y P K L Y Y S : ; W ` ] ] ` ` ` ",
"X...| s   c Y Y T T Y P P P L L L L L P Y Y S # - ~ ] ] ` ] ` ` ",
"X...| d   b Y Y Y Y P J J J J J K K P Y Y Y S # - ~ ` ] ] ] ` ` ",
"X...| v y w N J Y Y P K K K K K K P Y U P V v 5 f ) ] ] ` ` ` ` ",
"X...| _ W 7 : Z Y U Y U P U U U I I Y Y P 9 # v ~ ` ` ] ` ` ` ` ",
"X...| | ] h 3 r M M S Y Y Y Y Y Y K N M n 6 i W ` ] ] ] ` ` ` ` ",
"X...| } } ~ v 2 @ @ e U Y Y Y Y U M # @ # g ! ) ] ] ] ` ` ` ` ` ",
"X...| } } [ ~ p = = 6 B B B B B N r - = - E ] ] ] ] ` ` ] ] ` ` ",
"X...| } } } _ W D D f # # # # # # 7 v v E ) ] ] } ] ` ` ] ` ` ` ",
"X...| | } } ] [ ] ] j & * * & & & s ` ` ] ] ] ] ] ] ` ` ] ] ` ` ",
"X...| } } [ [ [ ] ` ~ v v v v v v W ` ] ] ] ] ] ] ] } ] ] ] ] ` "
};
