/* XPM */
static char *_1078f46ab554823a42feaa2e3d55eceIUC7u7VJ4XFzx2Pt[] = {
/* columns rows colors chars-per-pixel */
"64 64 224 2 ",
"   c #38170F",
".  c #271F1E",
"X  c #2C1E1C",
"o  c #351D16",
"O  c #3C1B15",
"+  c #331D1B",
"@  c #3B1C1A",
"#  c #1F261F",
"$  c #25231E",
"%  c #2A211E",
"&  c #32201C",
"*  c #2B1F21",
"=  c #1F2623",
"-  c #232323",
";  c #2A2121",
":  c #242328",
">  c #520E0F",
",  c #51150D",
"<  c #4B1614",
"1  c #451B16",
"2  c #4C1B15",
"3  c #471719",
"4  c #431B19",
"5  c #4D1B1A",
"6  c #571413",
"7  c #541B16",
"8  c #5B1C14",
"9  c #541B19",
"0  c #591C1A",
"q  c #661614",
"w  c #631C16",
"e  c #6C1C15",
"r  c #661C1B",
"t  c #6C1C19",
"y  c #731A16",
"u  c #761A16",
"i  c #7D1D16",
"p  c #7C1D19",
"a  c #672317",
"s  c #6B241C",
"d  c #762218",
"f  c #7C221A",
"g  c #861915",
"h  c #831D1A",
"j  c #8B1D1A",
"k  c #971615",
"l  c #9C1E15",
"z  c #941E19",
"x  c #9B1D1A",
"c  c #B71C0C",
"v  c #BB1A0C",
"b  c #A41D1A",
"n  c #A81E19",
"m  c #BE1615",
"M  c #BD1E14",
"N  c #B51E1A",
"B  c #BC1D1A",
"V  c #83231C",
"C  c #8C221B",
"Z  c #8F2618",
"A  c #952017",
"S  c #93231B",
"D  c #9C2219",
"F  c #932A1B",
"G  c #9B2C1F",
"H  c #BA200F",
"J  c #A7221B",
"K  c #A9271B",
"L  c #BC2115",
"P  c #B2231B",
"I  c #B5291E",
"U  c #A7321C",
"Y  c #962721",
"T  c #9C2921",
"R  c #A22B23",
"E  c #A92923",
"W  c #BB2321",
"Q  c #B12C22",
"!  c #BA2F28",
"~  c #A63726",
"^  c #BD3223",
"/  c #B83029",
"(  c #C5150C",
")  c #CB140C",
"_  c #C11A0C",
"`  c #CB1B0E",
"'  c #D61507",
"]  c #DC1207",
"[  c #D5150C",
"{  c #DC130B",
"}  c #D41A0D",
"|  c #DB1B0E",
" . c #C41C13",
".. c #CA1C12",
"X. c #C81A16",
"o. c #C41D19",
"O. c #D41511",
"+. c #DB1411",
"@. c #DA1B14",
"#. c #E60E07",
"$. c #EA0F06",
"%. c #E60E0A",
"&. c #E90D0B",
"*. c #E31207",
"=. c #E2120B",
"-. c #EC130C",
";. c #E31B0D",
":. c #EC1C0C",
">. c #F5140E",
",. c #F9130E",
"<. c #F21A0E",
"1. c #FA1A0E",
"2. c #F70E12",
"3. c #FB0F12",
"4. c #E31513",
"5. c #EE1311",
"6. c #E71E17",
"7. c #ED1C13",
"8. c #F51511",
"9. c #FA1211",
"0. c #F41A12",
"q. c #FB1B14",
"w. c #F41419",
"e. c #F21D1A",
"r. c #FC1D19",
"t. c #C32315",
"y. c #CB2115",
"u. c #C92817",
"i. c #C4251B",
"p. c #CA231B",
"a. c #C42C1D",
"s. c #CB2B1E",
"d. c #DA2114",
"f. c #D4231B",
"g. c #D82919",
"h. c #CE371F",
"j. c #D0311B",
"k. c #E4240C",
"l. c #E9210C",
"z. c #F1200F",
"x. c #EE2214",
"c. c #E52B12",
"v. c #E82219",
"b. c #EF2A1B",
"n. c #F32214",
"m. c #FC2117",
"M. c #F4231E",
"N. c #FC2519",
"B. c #F72A19",
"V. c #FC2B1C",
"C. c #E83818",
"Z. c #F4331E",
"A. c #FB311C",
"S. c #F91F24",
"D. c #C52C24",
"F. c #CA2A26",
"G. c #CC2D24",
"H. c #D72A22",
"J. c #C53324",
"K. c #C93425",
"L. c #C73826",
"P. c #CA3329",
"I. c #D33726",
"U. c #DD3320",
"Y. c #DB3C34",
"T. c #E62923",
"R. c #F52C24",
"E. c #F32F29",
"W. c #F92929",
"Q. c #E63B26",
"!. c #F23423",
"~. c #F83924",
"^. c #F5332C",
"/. c #F9342D",
"(. c #E53C36",
"). c #FB3C33",
"_. c #FA3A35",
"`. c #E2411F",
"'. c #CC402D",
"]. c #D54123",
"[. c #DB4229",
"{. c #D74631",
"}. c #E54325",
"|. c #E74539",
" X c #F54437",
".X c #F14E33",
"XX c #FC453B",
"oX c #F54C3E",
"OX c #FA4B3D",
"+X c #F8543D",
"@X c #EE4D44",
"#X c #F64B41",
"$X c #F44E43",
"%X c #EC5749",
"&X c #F1564B",
"*X c #F55748",
"=X c #ED5D53",
"-X c #F65952",
";X c #EE664D",
":X c #FA664B",
">X c #EE655A",
",X c #F1665C",
"<X c #FA6959",
"1X c #EB715F",
"2X c #F97358",
"3X c #FC7C5D",
"4X c #FB6E64",
"5X c #FC7D60",
"6X c #F77868",
"7X c #FB7C75",
"8X c #F48365",
"9X c #FC8162",
"0X c #F38B6C",
"qX c #F88574",
"wX c #FB837A",
"eX c #F2957A",
"rX c #FD8F86",
"tX c #FF9286",
"yX c #FF988C",
"uX c #FAA78A",
"iX c #FBA394",
"pX c #FBB898",
"aX c #FCB8A5",
"sX c #FDC0AB",
/* pixels */
"- - - - - - - - - - - - - - - - - - - - - - - - - - - - - - - - - - - - - - - - - - - - - - - - - - - - - - - - - - - - - - - - ",
"- - - - - - - - - - - - - - - - - - - - - - - - - - - - - - - - - - - - - - - - - - - - - - - - - - - - - - - - - - - - - - - - ",
"- - - - - - - - - - - - - - - - - - - - - - - - - - - - - - - - - - - - - - - - - - - - - - - - - - - - - - - - - - - - - - - - ",
"- - - - - - - - - - - - - - - - - - - - - - - - - - - - - - - - - - - - - - - - - - - - - - - - - - - - - - - - - - - - - - - - ",
"- - - - - - - - - - - - - - - - - . . X . . % $ - - - - - - - - - - - - - - - - - % . X X . . $ - - - - - - - - - - - - - - - - ",
"- - - - - - - - - - - - - $ X + @ 1 2 2 2 1 O o & ; ; - - - - - - - - - - - $ X o O 2 9 9 9 4 O o X % $ - - - - - - - - - - - - ",
"- - - - - - - - - - - - X   , e h z A D A A j u 6 O ; - - - - - - - - - - % O 6 u j x J J E T C e < O X $ - - - - - - - - - - - ",
"- - - - - - - - - - $ o 2 y A P W P.Y.Y.Y.I.F.W x u 5 @ ; - - - - - - X @ 7 i b o.o.f.f.f.g.G.s.I T d 2 + % $ $ - - - - - - - - ",
"- - - - - - - - - $ o 8 Z P G.Y.=X6XwXwXwX7X>X(.H.B z q O % - - - - * 3 u b o.f.T.|.=X,X,X1X1X%X{.I.^ F 8 + $ $ - - - - - - - - ",
"- - - - - - - - ; @ w A i.Q. X&X6XtXyXyXtXrX7X-X#X(.F.b y < + - ; + < h N @.T._.-X7XrXtXyXiXaXuX5X;X{.J.T a o $ - - - - - - - - ",
"- - - - - - - ; @ w D s.(.OX$X@X>X6XqXwXqX7X,X&X4X6X|.@.N g < + + < j o.T.^. XoX-X7XtXyXyXiXsXuXeXuX0X|.I.U w + - - - - - - - - ",
"- - - - - - - + 7 A a.|.OX#XoXoX$X%X&X&X&X&X@X$X<X4X$X_.H.B g > 6 k X.v./.XXXXoX$X-X<X6X6XqXeX0XeXpXuX2X}.j.D 0 X - - - - - - - ",
"- - - - - - ; 4 h i.Q.oX#X#XOXOXOXXXXXXXXX#X#X#X#X$XoXXXE.@.m k k X.6./.XXXXXXXXXXOX$X@X%X2X5X8X8X0X0X9X:XQ.s.V @ - - - - - - - ",
"- - - - - - + r n g. XOXOXOXOXXX)./.^.^.^.E.^./._._.XXXX_.T.4.O.O.4.E.).XXXXXXXXXXXXXXOX*X2X5X5X5X9X9X9X3X.Xg.Q 0 % - - - - - - ",
"- - - - - ; 4 j p.v.!.).).)./.R.M.x.e.e.7.7.7.e.e.M.W./._.W.w.5.5.e./.XXXXXX).)./.W.R.E. XoX*X:X:X2X3X9X9X:XQ.G.V o - - - - - - ",
"- - - - - X 0 b @.x.x.x.n.n.n.0.e.0.0.8.8.8.8.8.8.9.8.r.W.S.w.2.8.8.M.R.R.R.M.e.e.w.w.e.M.R.!.!.Q..X+X:X3X:X~.T.R 2 $ - - - - - ",
"- - - - - + t N @.x.z.<.0.0.0.0.0.0.8.8.8.8.8.8.9.9.,.8.8.8.2.2.2.,.8.w.0.e.w.w.8.8.q.r.N.N.V.B.B.Z.Z.~.+X+X~.b.D.a X - - - - - ",
"- - - - - 4 h  .| x.z.<.0.0.0.0.0.0.8.,.,.,.,.9.9.,.,.9.9.9.9.9.9.9.9.9.8.w.8.9.9.8.r.N.N.N.N.N.V.V.V.A.Z.~.~.b.G.f + - - - - - ",
"- - - - ; 5 l ` | x.n.0.0.0.0.0.0.0.8.8.,.,.9.9.9.9.9.9.9.9.9.9.9.9.9.9.9.9.9.9.9.q.m.N.N.N.N.N.V.V.V.A.A.~.A.b.H.S @ - - - - - ",
"- - - - * 5 l ` | x.n.0.0.0.0.0.0.0.8.8.,.,.9.9.9.9.9.9.9.9.9.9.9.9.9.9.9.9.9.,.9.r.m.N.N.N.N.N.V.V.V.B.B.B.x.;.f.S 4 - - - - - ",
"- - - - * 5 l ` | x.n.0.0.0.0.0.0.0.>.8.,.,.9.9.9.9.9.9.9.9.9.9.9.9.9.9.9.9.,.8.r.r.r.m.m.N.N.N.m.m.n.n.z.x.;.' ..S 4 - - - - - ",
"- - - - * 5 D ` ' ;.x.0.0.0.0.0.0.0.>.>.,.,.9.9.9.9.9.9.9.9.9.9.9.9.9.9.9.,.9.9.r.r.r.r.N.N.m.q.0.0.<.<.0.x.;.[ ..z 4 - - - - - ",
"- - - - ; 5 D ` ' ;.7.0.0.0.0.0.0.8.8.>.,.,.9.9.9.9.9.9.9.9.9.9.9.9.9.9.9.9.9.r.r.r.r.r.r.q.0.<.<.<.<.0.0.7.;.[ ..z 4 - - - - - ",
"- - - - - 5 D ` ' { :.0.0.0.0.0.0.8.8.8.>.,.,.9.9.9.,.9.9.9.9.9.9.9.9.9.9.9.r.r.r.r.r.0.8.>.>.>.<.<.0.0.0.7.' [ ..z 4 - - - - - ",
"- - - - - 4 A ..[ ] ;.7.0.0.0.0.0.8.8.>.>.>.>.,.,.,.,.,.9.2.2.2.3.9.9.9.8.9.r.r.r.q.8.>.>.>.8.0.0.0.0.0.7.;.' [ o.j 4 - - - - - ",
"- - - - - 4 j  .[ ] =.7.0.0.0.0.0.8.>.>.>.>.>.,.,.,.,.,.,.9.9.9.9.9.9.9.r.r.r.q.8.8.>.>.>.>.8.0.0.0.0.0.:.{ [ O.B p @ - - - - - ",
"- - - - - @ p M [ ' { ;.7.0.0.0.0.8.>.>.>.>.>.,.,.,.,.,.,.,.9.9.,.9.8.r.r.r.q.8.,.,.,.>.>.>.8.0.0.0.0.7.;.] [ O.N r + - - - - - ",
"- - - - - + t P ) ' ] ] ;.7.e.0.8.8.>.>.>.>.,.,.,.,.,.,.,.,.,.,.,.,.0.r.q.8.8.,.8.8.8.8.8.8.8.0.0.0.7.;.{ ' [ O.J 0 X - - - - - ",
"- - - - - X 8 J ) ' ] ] *.;.0.0.0.8.>.>.>.>.>.,.,.,.,.,.,.,.,.,.,.q.q.0.8.8.8.,.8.8.8.8.8.8.8.0.0.e.-.{ ] ' [ ..z 1 $ - - - - - ",
"- - - - - . 1 z ` ' ] ] ] *.-.0.0.8.>.>.>.>.>.,.,.,.,.,.,.,.,.,.0.q.0.>.,.,.8.8.9.8.8.8.8.8.8.0.0.-.=.] ] ] [  .h @ - - - - - - ",
"- - - - - - @ i M [ ] ] ] ] *.-.-.8.>.>.>.>.>.>.,.,.,.,.,.,.1.1.1.1.>.,.,.,.,.,.>.>.,.>.8.0.0.-.-.=.*.] ] { O.N t & - - - - - - ",
"- - - - - - + w n ..' ' ] ] *.#.#.-.>.>.>.>.>.>.>.,.,.,.,.1.1.1.1.>.,.,.,.,.,.,.>.>.>.8.0.5.-.;.*.*.] ] ] [ ..x 9 ; - - - - - - ",
"- - - - - - . 5 C  .[ ' ] ] *.#.#.#.$.-.>.>.>.>.>.>.>.0.q.q.r.0.>.,.,.,.,.,.,.,.8.8.8.>.-.-.=.*.] ] ] { [ [ M p @ - - - - - - - ",
"- - - - - - - + r P ` [ ' ] { *.=.#.$.$.-.-.-.>.>.8.q.r.r.r.0.>.>.>.,.,.8.8.8.>.>.-.-.-.=.=.=.*.] ] ] { [ ..b 8 % - - - - - - - ",
"- - - - - - - . 2 S t.} [ [ { =.*.=.=.=.-.$.#.$.>.0.q.q.0.8.8.>.>.>.>.>.>.&.&.&.&.&.%.#.=.=.=.{ ] ' ' [ [ M h 4 ; - - - - - - - ",
"- - - - - - - $ O e P d.| [ { { =.*.*.=.=.#.$.-.8.8.8.8.-.&.&.&.$.$.$.$.&.$.$.&.&.&.%.=.=.=.{ { ' ' ' [ ` J 8 + - - - - - - - - ",
"- - - - - - # - % 2 C i.d.+.[ { ] *.*.=.-.-.-.0.0.8.-.-.$.$.&.&.$.$.&.%.%.&.&.&.%.%.%.=.=.{ +.+.{ ] ' [ M i @ ; - - - - - - - - ",
"- - - - - - # - - + w K g.d.' { { ;.*.:.:.<.<.<.0.8.-.&.$.$.&.&.$.$.%.%.%.&.&.%.%.%.=.=.4.+.+.+.{ ] [ ..A 7 % - - - - - - - - - ",
"- - - - - - - - - - @ f a.U.c.;.:.:.:.:.:.<.<.<.0.5.$.#.#.#.#.#.#.#.%.%.%.%.%.%.%.=.=.=.=.=.+.{ ' [ ` P e o - : - - - - - - - - ",
"- - - - - - - - : - * 7 F h.Q.c.l.:.:.:.:.<.<.<.<.-.#.#.#.#.#.#.#.#.%.%.%.%.=.=.=.=.*.*.{ 4.+.[ [ } L h 1 $ - - - - - - - - - - ",
"- - - - - - - - - : ; + 8 U ].C.k.l.l.l.:.:.<.:.-.=.#.%.#.#.#.#.#.#.#.%.%.=.=.=.=.=.] ] { +.+.[ }  .z 9 X $ - - - - - - - - - - ",
"- - - - - - - - - - - % O a U [.C.k.l.l.l.:.:.-.*.*.*.*.*.*.*.*.*.*.*.*.*.=.=.=.*.{ ] ] ] { [ } t.A 8 + $ $ $ - - - - - - - - - ",
"- - - - - - - - - - - - % O f ^ }.C.k.k.l.:.:.*.*.*.*.*.*.*.*.*.*.*.] ] ] ] { =.*.{ { { { { } y.J e o . - $ $ - - - - - - - - - ",
"- - - - - - - - - - - - - * 7 F L.`.g.k.l.:.;.*.] *.*.*.=.{ ] ] { { ] ] ] { { { { { { { [ } y.P y 4 . - - - - - - - - - - - - - ",
"- - - - - - - - - - - - - - + 8 F L.}.g.k.k.| ] { { { { ] ] ] ] { { { { { { { +.{ [ [ } } y.P p 1 X - - - - - - - - - - - - - - ",
"- - - - - - - - - - - - - - % o 8 U ].Q.g.d.} [ { { { { { ] ] { { { { { { +.+.+.[ [ [ ` u.I V 5 X $ - - - - - - - - - - - - - - ",
"- - - - - - - - - - - - - - - % O a ~ {.[.g.( ) ) [ [ [ [ { { { [ [ [ [ [ [ O.O.) ) ` u.I V 9 + - - - - - - - - - - - - - - - - ",
"- - - - - - - - - - - - ; - - - % O s ~ {.I. .( ) ) ) ) ) ) [ [ ) ) ) ) ) ) ) ) ( y.s.I C 9 & - - $ $ - - - - - - - - - - - - - ",
"- - - - - - - - - - - - - - - - - % @ s ~ '.s. .( ( ( ( ( ) ) ) ) ) ) ( ( ( ( ( p.G.I C 0 + - $ $ $ $ - - - - - - - - - - - - - ",
"- - - - - - - - - - - - - - - - - - % @ s ~ J.s. .( ( ( ( ( ( ( ( ( ( ( ( ( _ p.G.I S 8 + - - - - - - - - - - - - - - - - - - - ",
"- - - - - - - - - - - - - - - - - - - - @ s G ^ G.o. ._ _ _ _ _ ( _ _ _ _ M a.J.Q C 8 & ; - - - - - - - - - - - - - - - - - - - ",
"- - - - - - - - - - - - - - - - - - - - % @ w S ! P.i._ v _ _ _ _ v v v t.J.J.K C 8 @ ; - - - - - - - - - - - - - - - - - - - - ",
"- - - - - - - - - - - - - - - - - - - - ; ; @ 8 C Q P.D.L v v v v v v i.P.J.K f 7 + ; : : - - - - - - - - - - - - - - - - - - - ",
"- - - - - - - - - - - - - - - - - - - - - - ; + 7 V E P.P.i.H c v L J.J./ R f 2 + % - - : - - - - - - - - - - - - - - - - - - - ",
"- - - - - - - - - - - - - - - - - - - - - - - ; + 2 p R ^ K.K.a.a.K.J.Q Y s 4 + ; - - - - - - - - - - - - - - - - - - - - - - - ",
"- - - - - - - - - - - - - - - - - - - - - - - - - X 4 r C Q J.P.K.^ K V 8 O % - - - - - - - - - - - - - - - - - - - - - - - - - ",
"- - - - - - - - - - - - - - - - - - - - - - - - - - * @ 0 f Y R R F d 2 o $ - - - - - - - - - - - - - - - - - - - - - - - - - - ",
"- - - - - - - - - - - - - - - - - - - - - - - - - - - * + 4 5 0 9 5 @ % ; - - - - - - - - - - - - - - - - - - - - - - - - - - - ",
"- - - - - - - - - - - - - - - - - - - - - - - - - - - - - ; X X X . - - - - - - - - - - - - - - - - - - - - - - - - - - - - - - ",
"- - - - - - - - - - - - - - - - - - - - - - - - - - - - - - - - - - - - - - - - - - - - - - - - - - - - - - - - - - - - - - - - ",
"- - - - - - - - - - - - - - - - - - - - - - - = - - - - $ $ $ - - - - - - - - - - - - - - - - - - - - - - - - - - - - - - - - - ",
"- - - - - - - - - - - - - - - - - - - - - - - = - - - - - $ $ - - - - - - - - - - - - - - - - - - - - - - - - - - - - - - - - - ",
"- - - - - - - - - - - - - - - - - - - - - - - - - - - - - - - - - - - - - - - - - - - - - - - - - - - - - - - - - - - - - - - - ",
"- - - - - - - - - - - - - - - - - - - - - - - - - - - - - - - - - - - - - - - - - - - - - - - - - - - - - - - - - - - - - - - - "
};
