/* XPM */
static char *result[] = {
/* columns rows colors chars-per-pixel */
"32 32 83 1 ",
"  c #3B3706",
". c #3F3C0B",
"X c #323211",
"o c #32351B",
"O c #383C1D",
"+ c #413F0E",
"@ c #3F431F",
"# c #3F4320",
"$ c #484100",
"% c #4E4907",
"& c #44420D",
"* c #4D490A",
"= c #5B5200",
"- c #5B550B",
"; c #5F590D",
": c #444211",
"> c #494610",
", c #44461B",
"< c #525117",
"1 c #5B5917",
"2 c #51511A",
"3 c #5B5C1E",
"4 c #635A00",
"5 c #605B0D",
"6 c #67610B",
"7 c #796D01",
"8 c #736C0B",
"9 c #7D750C",
"0 c #66661F",
"q c #404420",
"w c #454A23",
"e c #494E25",
"r c #5B5B20",
"t c #575C2B",
"y c #686925",
"u c #6B6E2E",
"i c #6C702F",
"p c #71742F",
"a c #636830",
"s c #717532",
"d c #757A34",
"f c #877A01",
"g c #7B8036",
"h c #7C8139",
"j c #8E8206",
"k c #918405",
"l c #978A04",
"z c #998B04",
"x c #9F9004",
"c c #A19303",
"v c #AD9E03",
"b c #B09F02",
"n c #B6A402",
"m c #BBAA02",
"M c #81863D",
"N c #82893F",
"B c #888E3F",
"V c #C2AF03",
"C c #C5B202",
"Z c #CAB702",
"A c #CDBA03",
"S c #D2BE03",
"D c #D6C203",
"F c #D9C403",
"G c #DEC903",
"H c #E2CD03",
"J c #E6D103",
"K c #EAD403",
"L c #EFD903",
"P c #F3DC03",
"I c #858C40",
"U c #888F41",
"Y c #8E9443",
"T c #909745",
"R c #939A46",
"E c #969D48",
"W c #9DA54B",
"Q c #A0A74C",
"! c #A7AF4F",
"~ c #A7B04F",
"^ c #A8B04F",
"/ c #A7AF50",
"( c #AAB250",
/* pixels */
"//!^!!^!~~~(((((((((/!!!!!!^!^!!",
"//!!/!!!~(/WRUIhIhITWW!~!~/!!!(!",
"//!^^!^!(((RawOooooegW!~~!!!!!!!",
"//!!!~/!(WRhr>.    >yMRQ!!!~~!!!",
"//!^!!!((Rar9jzxxxxj13hWQ^/!!!!!",
"//!!!^!((Uw:jmDGGGGb=:iTQ(^!^/!^",
"//!~!!!((U#&jmHLLPLm=@iTQ(^!!!!!",
"///!!!(QRg2;xDKPPPLC7-0gRQ!!^/!^",
"//!^!((Ta38xZJKLLKHAnk5rMRQ^^~!!",
"//!!!((Iw>jCJPLLKHFDFb-:sTQ^^~!~",
"///!^(^Iq&jCJPLLKHDDHn=+iTQ^^!^!",
"//!^^((Iq&kZKPLKKHDFHn=+iYQ^^^!!",
"//^/!((Iq&kZKPLKKHDFHn=+iTW^^!^!",
"//!!!((N#&kZKPLKKHDDHn=:iYQ^^!!!",
"//!!!((Iq&jZKPLKKHDDHn=+iYQ^^!^!",
"//!^!((I#&kZKPLKKHDDHn=+iYQ^^^!!",
"//!!!(^I,&kZJPLKKHSFHn=+pYQ^^/!!",
"//^~!((I#+kZJPLLKHDFHn=+uTQ^^/!^",
"//!!!((I#&kZLPLJKHSFHn=+iYQ^^!!!",
"//!!!((I@+kZLPLLKHFFHn=+uYQ^^!/^",
"//!!!((I@+kAJPPLKHSFHm=+uYW^^!!!",
"//^!!(^Yt<fvFJJJHHFSCx5<dRQ^!^!^",
"//!!^^!WIs16vSFFSFFVf5ypTQ!!!!/!",
"/^!/!!!!!N,*lZDFFFKm4>uBW!!!^!^!",
"//!!(!!(^I@+kZGJHJLV=&uYW^!!!!!!",
"//!^!!!(^Yt<fcvnnnnz-<dRQ^^!^/!^",
"///!!!!^!WBp1%$$$++%0sTW!!!!!!!!",
"//!!^!!!!!!Yt,XXX X,sYW!^!^!^/!^",
"//^!/!^!!!!EUddsssdhTW!!!!!!!^!!",
"//!/!!!!^!^!!WWWWWWWQ!!!/^!^!!!/",
"//!!!^^!!!!^!!!!Q!!!/!!^!^!!!!^!",
"//^!!!!/^!!!!!^^^^!!^!!!!!/!^!^!"
};
