/* XPM */
static char *result[] = {
/* columns rows colors chars-per-pixel */
"64 64 228 2 ",
"   c #2D1B16",
".  c #261F1C",
"X  c #2D1D1D",
"o  c #351615",
"O  c #3D1615",
"+  c #341A15",
"@  c #3B1914",
"#  c #321C1C",
"$  c #3A1A1A",
"%  c #1F201C",
"&  c #24231E",
"*  c #2A211D",
"=  c #2F2016",
"-  c #261F23",
";  c #2C1E21",
":  c #321E21",
">  c #1F2424",
",  c #232323",
"<  c #2A2122",
"1  c #242328",
"2  c #332021",
"3  c #4C120E",
"4  c #461A0F",
"5  c #59150E",
"6  c #431614",
"7  c #4C1513",
"8  c #421A15",
"9  c #4C1A16",
"0  c #421B1B",
"q  c #4B1A19",
"w  c #41171B",
"e  c #541413",
"r  c #5B1413",
"t  c #541915",
"y  c #5B1B15",
"u  c #531919",
"i  c #5B1C1A",
"p  c #651515",
"a  c #6B1516",
"s  c #621C15",
"d  c #6B1A15",
"f  c #631D19",
"g  c #6D1B1A",
"h  c #6B1718",
"j  c #7B1C17",
"k  c #7E1E1D",
"l  c #751816",
"z  c #6C1010",
"x  c #6C211C",
"c  c #6A2319",
"v  c #7B241C",
"b  c #762519",
"n  c #7D2321",
"m  c #772622",
"M  c #88170E",
"N  c #8C1C1A",
"B  c #831A18",
"V  c #9C1D1A",
"C  c #951C18",
"Z  c #AF1A0B",
"A  c #B41806",
"S  c #BA1907",
"D  c #B4150A",
"F  c #BD170B",
"G  c #B4190D",
"H  c #BC190C",
"J  c #B41705",
"K  c #A51C17",
"L  c #A51D1B",
"P  c #AB1E1C",
"I  c #AB1B16",
"U  c #B41B12",
"Y  c #BB1C13",
"T  c #B51E1A",
"R  c #BD1C18",
"E  c #8B241D",
"W  c #84261E",
"Q  c #9B211B",
"!  c #95251A",
"~  c #A4211C",
"^  c #AA261C",
"/  c #B42215",
"(  c #B5241B",
")  c #BC251C",
"_  c #BD2A1B",
"`  c #B42B1D",
"'  c #AE1E20",
"]  c #862420",
"[  c #8C2A24",
"{  c #892823",
"}  c #992621",
"|  c #952A24",
" . c #9C3623",
".. c #A42C23",
"X. c #AB2D25",
"o. c #AA2926",
"O. c #BB2D23",
"+. c #BA2F29",
"@. c #B32C25",
"#. c #AC312B",
"$. c #A63327",
"%. c #B2332C",
"&. c #BD3329",
"*. c #B63726",
"=. c #B53F3D",
"-. c #DD0B06",
";. c #DC0E09",
":. c #D60D06",
">. c #CC1406",
",. c #C3160A",
"<. c #CC150B",
"1. c #C3190C",
"2. c #CB190C",
"3. c #C61606",
"4. c #DB1106",
"5. c #D31A07",
"6. c #D4130B",
"7. c #DB120A",
"8. c #D2180B",
"9. c #DB1C0D",
"0. c #D61206",
"q. c #CA1A15",
"w. c #CC1B19",
"e. c #C61915",
"r. c #D31615",
"t. c #DD1211",
"y. c #D31C14",
"u. c #DC1C14",
"i. c #D31B1A",
"p. c #DA1B18",
"a. c #D21618",
"s. c #E30D06",
"d. c #EB0E06",
"f. c #E40E0A",
"g. c #EB0D0B",
"h. c #F20E0D",
"j. c #FA0F0F",
"k. c #E31104",
"l. c #EA1206",
"z. c #E3130B",
"x. c #EC140C",
"c. c #E51C0D",
"v. c #ED1C0E",
"b. c #F4130D",
"n. c #F9120E",
"m. c #F11A0E",
"M. c #F11207",
"N. c #FA0F10",
"B. c #E51513",
"V. c #EC1413",
"C. c #E41B14",
"Z. c #ED1C12",
"A. c #EB1D1A",
"S. c #F51312",
"D. c #FA1212",
"F. c #F11A12",
"G. c #F21C19",
"H. c #FA1A18",
"J. c #F81816",
"K. c #C6250B",
"L. c #DC240B",
"P. c #D52C0E",
"I. c #C6251B",
"U. c #DE2419",
"Y. c #DC2A1C",
"T. c #DA2915",
"R. c #D7371B",
"E. c #E3230C",
"W. c #EA210D",
"Q. c #E4280C",
"!. c #E72106",
"~. c #E42414",
"^. c #EB2112",
"/. c #E2241B",
"(. c #E3291E",
"). c #EE251F",
"_. c #F2231E",
"`. c #C72923",
"'. c #D52C23",
"]. c #C13126",
"[. c #C4352A",
"{. c #CB3A2C",
"}. c #CB3626",
"|. c #D63628",
" X c #DC3C32",
".X c #D93D39",
"XX c #CB3E30",
"oX c #EB2E25",
"OX c #F32622",
"+X c #F92C26",
"@X c #F72A25",
"#X c #E7352B",
"$X c #FC332D",
"%X c #F3352E",
"&X c #E33D34",
"*X c #EB3D33",
"=X c #EF3F39",
"-X c #FD3C35",
";X c #FD3E39",
":X c #F83732",
">X c #C54227",
",X c #DB4337",
"<X c #D0442D",
"1X c #E64338",
"2X c #F3453D",
"3X c #FD443C",
"4X c #FC493C",
"5X c #F2473B",
"6X c #DC4B43",
"7X c #DA5146",
"8X c #E74B43",
"9X c #FD4641",
"0X c #F24744",
"qX c #E7544A",
"wX c #F2534A",
"eX c #F35D56",
"rX c #E15B58",
"tX c #F7695B",
"yX c #F46B61",
"uX c #F96D64",
"iX c #FC766C",
"pX c #FD7D73",
"aX c #EE6F67",
"sX c #FD8B7B",
"dX c #FB8674",
"fX c #FC947E",
"gX c #FF8C85",
"hX c #FF9384",
/* pixels */
", , , , , , , , , , , , > , , , , , , , , , , , , , , , , , , , , , , , , > 1 , , , , , , , , , , , , , , , , , , , , , , , , , ",
", , , , , , , , , , , > , > , > & , , > > , , , , > , , , 1 , 1 , , 1 > > - > 1 , , & , * , , , , , , , , , , , , , , , , , , , ",
", , , , , , & , , , , > , > > , , , > , , , , , , , , , , , 1 , 1 - , , , , 1 - , , * , , , , , , , , , , , , , , , , , , , , , ",
", , , , , , , , , , & & & & > & , , * X X # X X # : ; # X : X X ; X ; # ; X X X # # X ; * , , > , , - , , , , , , , , , , , , , ",
", , , , , , , , , , , & % & & * # @ 7 y p a p r r r e e e r e p p p h h h p h p r e 7 6 + X . & & & * & , , , , , , , , , , , , ",
", , , , , , , , , , , , % . + O e l N ~ P ' ' ' ' ..V V V L ' ' ' ' P ^ ' ' L L ' V E v x i 4 o     & * , , , , , , - , - , , , ",
", , , , , , , , , , , , -   7 g } @.I.i.r.6.a.a.a.r.r.a.r.a.a.q.I.`.{.{.XX}.) R Y R R R / X.[ g 7 + * , , , , , > , > , , , , , ",
", , , , , , , , , , , < # 7 n =.rXeX=XC.7.:.:.-.;.t.f.g.V.A.oX*XeXiXdXdXdXdXyX1X'.w.,.,.<.1.I.%.| c 8   , , , > , > > , , , , , ",
", , , , , > > > , , ; $ t v =.aXgXgXiX0Xp.;.:.-.-.f.c.v._.%X5XtXsXhXfXfXfXhXfXaX,X X'.e.<.6.u.Y.}.$.g 6 - > , 1 > > - > , - , , ",
", , , > , > - - , , # 3 j #.6XuXgXgXpXwX#Xu.-.s.f.z.Z._.3X4X5XwXyXdXdXsXsXdXaX7X7XyXuX1Xw.6.9.~.oX}.$.x o ; , 1 > 1 > , , , , , ",
", , , , , , - > , X O l o..X8XwXuXiXeX0X2XoX-.;.f.B.oX3X4X4X4X2X0X8XqXqXqX,X,X,X6XiXiXqX Xr.L.~.U./.'.| i o X , - > , , , , , , ",
", > > , > , % - X # 7 N `.=X0X0X0X0X0X0X9X@XB.-.z.).:X3X3X3X3X9X2X3X1X1X,X,X,X X,X,X6X1X&X#X(.^.^.^.Y.+.] 3 $ < 1 1 > , & & , , ",
", , % , > > > - : O p ' '.;X9X9X3X3X9X9X9X$XA.z.C.$X;X3X9X9X;X-X;X;X-X%X%X*X&X1X1X1X X&X&X*X(.^.^.^.~.'...d 8 * , , , & > & , , ",
", , & > > 1 - - $ u k ' #X;X;X;X-X-X;X3X9X;XOXz.).-X;X-X:X+XOXG.G.G.V.B.B.B.u.oXoX*X*X*X*X*XoX^.Z.^.~.'.&.E 6 X * * & , > , , , ",
", , , > 1 > - : w p C `.oX-X:X@X_._.@X+X$X$X@XJ.+X$X+X_.H.V.V.S.J.S.V.V.g.;.-.:.5.u.U.U.U./.C.^.m.^.^.(.`...t + * * & , > , , , ",
", , & , 1 1 - : w z ' i.OX$XH.S.S.S.J.J.S.J.J.H.H.H.D.D.S.D.J.J.J.S.h.g.g.f.f.;.4.4.;.;.-.z.Z.Z.^.Z.W.~.P.` s @ . & * , > , , , ",
", & & , > , , ; 7 B ' a.S.H.S.H.D.H.D.J.S.S.S.D.J.S.N.D.D.D.D.D.J.D.S.g.g.f.f.s.-.;.;.f.z.v.Z.^.F.m.^.^.Y.` x 4   & & , , , , , ",
", , , , , , - # 3 N e.p.V.N.D.S.D.N.N.S.S.N.N.N.D.D.D.D.D.S.J.D.S.D.V.g.g.f.f.-.f.-.f.f.x.G.G.F.F.W.^.~.Y.O.v 6   * & , > , , , ",
", , & & , , , # e V w.p.h.N.S.D.D.D.S.D.N.J.D.J.D.D.D.D.J.D.J.D.J.D.b.g.z.g.f.s.-.-.-.f.V.F.F.F.F.F.v.Z.U.].{ q + X & > > , , , ",
", , > , , & - o r V a.t.N.N.D.D.D.D.D.D.J.D.N.N.D.D.D.D.D.D.N.D.J.D.S.g.g.f.z.-.-.-.f.V.F.F.F.F.m.m.Z.^./.].[ u o . , > > > , , ",
", , , , - < * o r I 6.g.D.N.D.D.D.D.D.D.D.D.D.D.D.D.D.D.D.J.D.D.D.F.h.g.g.f.f.s.s.-.g.V.S.F.F.F.F.m.v.Z.U.) { e o X , % > - > , ",
", 1 < , , , , o r I a.g.N.N.N.N.D.D.D.N.N.D.D.D.D.D.D.D.D.D.D.D.D.D.h.g.g.f.f.s.s.f.g.S.F.F.F.Z.F.^.v.C.y.T B e o X & > > > , , ",
", , - , , , , o r I a.V.S.N.D.D.D.D.D.D.N.D.N.N.D.D.n.D.D.D.n.D.N.S.h.g.g.g.f.s.-.g.V.F.F.F.Z.Z.W.c.9.0.<.I W 7 o - , , > , , , ",
", , 1 < , , , o r L a.V.S.N.N.D.D.N.N.D.D.N.D.N.n.D.D.D.n.D.D.D.D.S.h.g.g.g.s.s.f.x.F.F.Z.Z.Z.Z.v.4.0.6.e.I n u # ; , > & > , , ",
", - 1 , , - < # r L q.B.S.N.N.D.N.N.D.N.j.n.D.n.D.n.D.n.n.D.n.D.D.h.g.g.g.f.f.d.V.V.F.A.F.A.V.z.;.0.0.<.F / v 9 o < , , , , , , ",
", , 1 , , , , # i V q.t.h.N.N.N.N.N.N.D.n.n.n.j.n.j.n.n.n.J.D.D.S.h.h.g.d.g.g.g.S.F.A.S.A.V.B.0.0.0.6.>.F ~ g 6 o < , , 1 , , , ",
", 1 , , 1 < , # e C e.t.g.N.D.S.N.N.D.D.n.j.n.n.n.n.n.n.n.n.D.D.S.h.g.g.g.g.g.h.S.V.A.V.V.z.4.6.0.6.8.<.H V g 9 # 1 , , , 1 , , ",
", , , , 1 - , X 3 M R t.g.N.D.N.N.N.D.N.n.n.j.j.n.n.n.D.n.n.D.S.S.V.g.g.g.g.V.S.J.G.F.B.z.z.7.7.6.6.<.2.S Q g 8 ; < 1 , , 1 , , ",
", , , , , , , # 7 z P r.g.h.N.N.D.D.b.j.b.j.j.b.n.n.n.n.n.n.D.S.D.g.g.g.g.g.F.F.F.F.V.z.;.;.t.:.6.6.<.,.D ! s $ = 1 > > > , , , ",
", , % , , , < : 7 z ' q.g.h.N.N.D.D.j.j.b.b.n.b.n.n.n.n.n.J.D.b.h.h.g.g.S.F.F.x.v.z.t.7.t.t.:.<.6.6.<.F Z ! i o & > > , , > 1 , ",
", , , , , 1 < < 6 r V e.t.h.h.h.D.N.N.S.n.n.b.n.n.n.n.n.n.J.n.b.g.g.g.b.S.F.x.x.z.z.t.;.;.6.:.6.6.<.<.F / W y 2 , , > > , , , , ",
", , % , , , 1 2 $ 3 B R t.h.h.h.N.S.S.S.b.n.j.b.n.n.b.n.n.b.n.b.d.g.x.b.V.v.c.k.4.;.;.;.;.6.<.:.<.<.,.Y ^ v q 2 , 1 , , , 1 , , ",
", , > , > , 1 < # 6 a I r.g.g.h.D.j.b.b.b.b.n.M.b.n.n.m.M.n.n.d.d.h.F.F.F.v.z.s.0.;.7.;.r.6.6.<.>.>.F T ! d O ; 1 1 , , , 1 , , ",
", , , > > , , , X $ r V y.f.V.h.b.n.b.b.M.b.m.b.b.m.n.n.M.M.M.M.M.b.m.F.V.z.z.;.;.6.7.6.6.6.6.<.<.>.S I E r o 1 1 1 1 1 1 1 , , ",
", > > , , > > , , # 3 C e.z.g.g.g.h.b.b.m.b.M.n.b.b.m.n.b.M.l.M.m.m.J.F.x.;.-.;.;.t.6.6.:.6.<.<.<.,.H Q v 7 : 1 1 1 , , , 1 , < ",
", , , > , , , , , X 6 j T p.t.f.d.g.x.x.b.m.m.b.b.m.n.m.n.M.b.b.m.m.v.x.z.;.;.;.t.;.6.6.6.6.<.>.3.1.U ! f w : 1 1 1 1 , < 1 , < ",
", , > , , > , , , , $ p V w.t.f.s.s.d.f.x.x.M.M.b.M.m.m.b.b.m.F.F.G.V.z.4.;.t.;.t.6.<.6.6.6.>.>.3.F ( n q : < 1 1 1 , 1 1 , , 1 ",
", , , , , , , , , , # 7 j T r.f.d.s.s.s.s.l.l.d.M.l.M.b.m.b.F.F.F.x.z.z.4.;.t.t.6.6.:.6.<.6.>.3.F U Q g w : < , & 1 > , 1 1 , 1 ",
", , , , , , , , , , X O p V w.7.s.k.s.s.k.s.l.l.l.l.M.m.m.m.v.F.v.z.4.z.t.:.6.6.6.t.6.6.6.<.>.F Y P B r $ ; , , , , , 1 1 , 1 , ",
", , , , , , , , , , X o 6 j ) u.7.k.k.l.s.l.l.l.v.v.m.m.m.m.F.Z.x.z.f.4.;.6.:.t.6.6.6.6.<.3.3.Y @.} g q ; - , , , 1 , , 1 1 , 1 ",
", , & , , , , , , , , ; o p ~ K.9.c.l.x.l.l.v.v.m.W.m.m.m.Z.v.z.z.z.k.0.;.6.6.r.6.<.r.>.3.1.S / $.m c = & > 1 > > , , 1 1 & 1 1 ",
", , , , , , , , , , , , X 7 M _ T.E.v.v.m.v.v.v.F.W.m.^.F.^.v.z.4.4.4.7.6.0.6.6.6.<.<.,.1.S H ( ! c 0 2 & & & > , , , 1 1 1 , , ",
", , , , , , , , , , , , ; @ 5 ! I.T.v.v.v.v.!.m.v.Z.v.Z.^.Z.z.z.z.7.7.7.0.6.<.<.<.<.e.1.A G ` ^ b 4 = < 1 & & > , , , , , , , , ",
", , , , , , , , , , , 1 , # 4 d ^ R.E.E.!.v.W.W.v.W.C.Z.F.Z.z.7.4.4.9.6.8.8.<.<.,.1.1.S A ^ ^ E s @ * 1 & 1 , , , , , , , & 1 , ",
", , , , , , , , , , , , , * # 7 E }.T.!.!.!.!.W.v.^.Z.Z.c.c.7.7.0.7.6.6.8.<.3.2.e.1.F D G ` ! c 4   & % 1 & > , & 1 > & , , , , ",
", , & , , , , , , , > > , , < + r Q {.R.Q.!.!.W.v.E.~.c.4.7.7.7.9.6.8.8.2.2.2.2.1.F S G ) ..v t + = & & & 1 , , > & 1 1 , , , , ",
", , , , , , , , , , > 1 > > , < 8 x $.<XQ.Q.Q.^.E.~.~.c.9.9.9.9.6.8.8.<.2.2.H 1.F S H / X.! i + & & , , & > & 1 1 & 1 & , , , , ",
", , , , , , , , , , , > > > 1 , # q b *.R.P.L.Q.Q.~.9.5.6.0.8.6.y.2.2.2.2.1.S S S J U @.| g 8 X & & & , 1 & 1 > & 1 , , , , , , ",
", , , , , , , , , , , > > > > , * = y ! >XR.P.P.Q.L.5.5.8.8.8.2.2.1.<.1.1.S S J J G ( ..n u $ X & & , , , , , , , , , , , , , , ",
", , , , , , , , , & , % > > , , & & @ c  .>X>XP.P.K.3.3.1.1.<.1.1.1.1.F H H D G G @.o.] i 0 < , > , & > , , , , , , , , , , , , ",
", , , , , , , , , , > > > , , , & & = 4 c  .>XR.K.K.H K.1.1.1.1.1.H H H D F G D ( #.| g 0 2 < , > > > > , , , , , , , , , , , , ",
", , , , , , , , , , , > , , , < & & & = 4 b *.<X}.K.H H 1.H F H 1.F H H U U U T +.| x q $ < ; , , & > % , , , , , , & , , , , , ",
", , , , & , , , , , , , > , , < & & % & + t [ %.>XI.Y Y Y 1.H 1.H H H G G G T +.$.m q $ X < , , , , & , , , , , , , , , , , , , ",
", , , , , , , > , 1 , 1 , , , , , & > & = @ i { #.[.) U Y 1.1.F H S A G G / +.#.k u $ ; * ; ; - < & , & , , , , , , , , , , , , ",
", , , , , , , - , , 1 , < , , < , & , , , * O i [ X.].) D H 1.H G A A Z / O.X.W r O ; - < < , < , < , , , , , , , , , , , , , , ",
", , , , , , , , , , < , , , , , , , , 1 1 , ; O y [ %.`.I.H Y U G Z J / ` $.E y @   - - , - , , , , , , , , , , , , & , , , , , ",
", , , , , , , , , , , - , - , , & , , , , 1 - X 6 s E @.[._ G Z Z U U O.#.[ s 8 ; - < , , , , , & , , , , , , , , , , , , , , , ",
", , , , , , , , , , , , , , , , , , , , , , , ; # 6 s [ #.[._ ) ( O.[.X.{ f 6 # < 1 , , , , , , , , , , , , , , , , , , , , , , ",
", , , , , * , , , , , , , , , , , , , , , , , , *   8 i { $.&.].&.*...] s w : ; 1 , , , , , , , , , , , , - , , , , , , , , , , ",
", , , , , , , , , , , , , , , , , , , , , , & & , * # O i v | #.$.| v u O # - - , > , , , , , , , , , , , , , , , , , , , , , & ",
", , , , , , , , , , , , , , , , , , , , , & & & , * , # $ u x m b c q + X - , , > > , , , , , , , , , , , , , , , , , , , , , , ",
", , , , , , - , , , , , , , , , , , , , , , & , , , , , ; : : 0 0 + = & - , 1 , > > , , , , , , , , , , , , , , , , , , , , , , ",
", , , , , , , , , , , , , , , , , , , , , * , < , - , , , 1 - , & & , % , > > , % , , , , , , , , , , , , , , , , , , , , , , , ",
", , , , , , , , , , , , , , , , , , , , , , < - 1 , , , , , , , , , , % > , , , , , & , , , , , , , , , , , & , , , , , , , , , "
};
