/* XPM */
static char *_8686cd6ddfc4683e3879f0cb76b551brucN2OhdbArRzkFL[] = {
/* columns rows colors chars-per-pixel */
"64 64 241 2 ",
"   c #1F1F1E",
".  c #37150E",
"X  c #2D1A16",
"o  c #2C1D1B",
"O  c #2A191A",
"+  c #351514",
"@  c #3B1514",
"#  c #331A13",
"$  c #3D1A15",
"%  c #331719",
"&  c #3C1619",
"*  c #331B1A",
"=  c #3B1919",
"-  c #2E190F",
";  c #24231E",
":  c #2A211D",
">  c #34231D",
",  c #261F23",
"<  c #2A1E21",
"1  c #331D20",
"2  c #1F2421",
"3  c #232323",
"4  c #2A2222",
"5  c #252429",
"6  c #332124",
"7  c #490D0B",
"8  c #43140D",
"9  c #46160E",
"0  c #58120C",
"q  c #421513",
"w  c #4B1412",
"e  c #431912",
"r  c #4A1914",
"t  c #471C1A",
"y  c #531613",
"u  c #551915",
"i  c #5C1B13",
"p  c #5C1A19",
"a  c #591615",
"s  c #530D09",
"d  c #65150E",
"f  c #631311",
"g  c #641B14",
"h  c #611619",
"j  c #6B1C1C",
"k  c #6C1A15",
"l  c #7C1412",
"z  c #741C19",
"x  c #7C1D1B",
"c  c #731915",
"v  c #74211C",
"b  c #792418",
"n  c #692214",
"m  c #7F2423",
"M  c #8D1A16",
"N  c #821C19",
"B  c #8C1D1A",
"V  c #811913",
"C  c #961C16",
"Z  c #90150E",
"A  c #BD180E",
"S  c #AA1D1B",
"D  c #A41D19",
"F  c #BC1C12",
"G  c #B31D1A",
"H  c #B61D19",
"J  c #84221B",
"K  c #8D231D",
"L  c #83291C",
"P  c #93221D",
"I  c #9D231C",
"U  c #9C2E1D",
"Y  c #AC231C",
"T  c #A4271D",
"R  c #B4221C",
"E  c #BA231C",
"W  c #B7281A",
"Q  c #AF321F",
"!  c #801F20",
"~  c #8C2322",
"^  c #922222",
"/  c #9F282A",
"(  c #A32421",
")  c #AA2924",
"_  c #B22221",
"`  c #B72A24",
"'  c #BA3427",
"]  c #A83322",
"[  c #CD0E0B",
"{  c #C60B07",
"}  c #D20F0B",
"|  c #DC0E0B",
" . c #D40708",
".. c #C5130B",
"X. c #CB130C",
"o. c #C4190C",
"O. c #CD190A",
"+. c #C91605",
"@. c #DB1307",
"#. c #D3140A",
"$. c #DC120B",
"%. c #D2190B",
"&. c #DD1C0B",
"*. c #D21406",
"=. c #C51611",
"-. c #CC1510",
";. c #C31C14",
":. c #CB1B14",
">. c #CC1D18",
",. c #C41E1B",
"<. c #DC1512",
"1. c #D21B16",
"2. c #D11E1A",
"3. c #DC1D1B",
"4. c #D61613",
"5. c #E50D06",
"6. c #EA0C07",
"7. c #E50E0A",
"8. c #EB0C0A",
"9. c #F30F0D",
"0. c #F90F0D",
"q. c #E21207",
"w. c #E3110B",
"e. c #EC140D",
"r. c #E31B0B",
"t. c #ED1B0C",
"y. c #EB1007",
"u. c #F6130E",
"i. c #F9120E",
"p. c #F5190D",
"a. c #F91B0E",
"s. c #F01307",
"d. c #EE0F12",
"f. c #E30E11",
"g. c #F70E11",
"h. c #E21311",
"j. c #ED1514",
"k. c #EE1A12",
"l. c #EA1A19",
"z. c #F51411",
"x. c #FA1411",
"c. c #F41A12",
"v. c #FC1A15",
"b. c #F21E1B",
"n. c #FC1D19",
"m. c #DD210A",
"M. c #C4231D",
"N. c #C92619",
"B. c #D52114",
"V. c #DB2311",
"C. c #D5231B",
"Z. c #D7291C",
"A. c #C7321C",
"S. c #D6341D",
"D. c #E6210D",
"F. c #E9200C",
"G. c #EE2214",
"H. c #EE231C",
"J. c #E32B1C",
"K. c #E52316",
"L. c #F22013",
"P. c #F2241D",
"I. c #FD221B",
"U. c #FC2317",
"Y. c #E7341B",
"T. c #EE1E20",
"R. c #CC2421",
"E. c #C72B26",
"W. c #D32622",
"Q. c #DB2424",
"!. c #D52C24",
"~. c #D12E28",
"^. c #DA2A27",
"/. c #C83427",
"(. c #D4342C",
"). c #DD332D",
"_. c #D63727",
"`. c #DA3633",
"'. c #D83B36",
"]. c #CA3230",
"[. c #E22A25",
"{. c #E22826",
"}. c #FF2623",
"|. c #F42A24",
" X c #F32825",
".X c #E3332B",
"XX c #E93A29",
"oX c #F6332C",
"OX c #FB332C",
"+X c #F43829",
"@X c #F63C28",
"#X c #FE3D35",
"$X c #F83836",
"%X c #E03230",
"&X c #D8473A",
"*X c #EA422A",
"=X c #EE4231",
"-X c #EA4737",
";X c #F5453C",
":X c #FE443D",
">X c #F44C3C",
",X c #FC4C3D",
"<X c #F54834",
"1X c #F9513E",
"2X c #F2422C",
"3X c #E84F43",
"4X c #FF4641",
"5X c #F34D43",
"6X c #FB4C41",
"7X c #FB4C4C",
"8X c #EB5549",
"9X c #FA5646",
"0X c #EE5D54",
"qX c #F95C58",
"wX c #EB6C5A",
"eX c #EA6252",
"rX c #F76759",
"tX c #FD735C",
"yX c #FB785E",
"uX c #ED745B",
"iX c #FF6E62",
"pX c #FF7562",
"aX c #FE7A63",
"sX c #F57A65",
"dX c #FC7C74",
"fX c #E37D65",
"gX c #F88269",
"hX c #FD8C7E",
"jX c #FB8575",
"kX c #EC9378",
"lX c #FD9384",
"zX c #FF958B",
"xX c #FE9B8C",
"cX c #FC9985",
"vX c #FC9A92",
"bX c #FFA694",
"nX c #FFB49C",
"mX c #FCBCA7",
"MX c #FFC6A8",
"NX c #FFCFB3",
"BX c #FFDDC0",
/* pixels */
"3 3 3 3 3 3 3 3 3 3 3 3 3 3 3 3 3 3 3 3 3 3 3 3 3 3 3 3 3 3 3 3 3 3 3 3 3 3 3 3 3 3 3 3 3 3 3 3 3 3 3 3 3 3 3 3 3 3 3 3 3 3 3 3 ",
"3 3 3 3 3 3 3 3 3 3 3 3 3 3 3 3 3 3 3 3 3 3 3 3 3 3 3 3 3 3 3 3 3 3 3 3 3 3 3 3 3 3 3 3 3 3 3 3 3 3 3 3 3 3 3 3 3 3 3 3 3 3 3 3 ",
"3 3 3 3 3 3 3 3 3 3 3 3 3 3 : o o X % X X o 4 4 3 3 3 3 3 3 3 3 3 3 3 3 3 3 4 4 o o % * % % X o o 4 4 3 3 3 3 3 3 3 3 3 3 3 3 3 ",
"3 3 3 3 3 3 3 3 3 3 ; o o % @ e r u p u u r @ @ * , , 4 3 3 ; ; 3 3 2 3 4 < 1 + @ e y h h p u r q + X o 6 4 3 3 3 3 3 3 3 3 3 3 ",
"3 3 3 3 3 3 3 3 3 4 * @ s c K I T Y Y Y D C M V d 7 % , 3 3 ; ; 3 3 3 4 % q f l M I S G _ E R ` ( B k 7 + 6 3 3 3 3 3 3 3 3 3 3 ",
"3 3 3 3 3 3 ; 3 o @ u z I R ;.O.O.X.C.^.).).~.M.Y B p & * : ; 3 3 3 1 & a N S ;.-.#.$.<.<.4.%.C.Z.N.` / j q * ; ; 3 3 3 3 3 3 3 ",
"3 3 3 3 3 3 3 * w x ( R ;.X.X.1.).0XdXjXhXhXjXrX&XE.Y M 0 $ :   3 o w l S ,.#.$.w.h.{.%X8X8XeXwXwX&X(.~.E.I 0 - ; 3 3 3 3 3 3 3 ",
"3 3 3 3 3 3 * y N Y ;.O.X.%.XX:XqXzXbXxXxXcXlXzXrX-XXXM.I f @ 6 + w P H -.| 7.w.P.$X7XdXzXzXzXnXNXbXpX5X^.~.) g # 3 3 3 3 3 3 3 ",
"3 3 3 3 3 o w P E F o.O.C.=X9X6X8XdXzXzXzXlXhXdX8X8XdX0XR._ l s 0 C F } | f.j.OX:X;XqXzXzXvXvXmXBXNXkXhXdX`.^.' f X 3 3 3 3 3 3 ",
"3 3 3 ; o e J E :.o.O.B.<X1X>X5X5X3XeXwXrXrX0X3X-XrXlXiX$XQ.,.Z D A { | 7.l.#X4X:X;X5XrXdXhXlXmXMXkXfXbXbXiX.XW.' w o 3 3 3 3 3 ",
"3 2 ; : # k R =.-.X.B.<X>X>X>X>X>X5X>X<X-X-X>X>X>X5X9X5X6X$X<.4.} [  .f.l.$X4X:X:X:X:X;X5X3XeXgXsXuXsXjXgXaX9XJ.!.^ q 3 3 ; 3 3 ",
"3 3 3 o u I =.-.#.X.XX1X>X>X>X,X,X,X,X,X:X:X:X:X:X;X;X;X:X:X|.h.f.7.7.j.oX4X:X:X:X:X:X:X>X-XrXtXtXtXtXyXyXyXpX,XC.~.c X 4 3 3 3 ",
"3 3 o + J _ -.#.#.#.XX1X,X,X,X:X#XoX|. X XP.H.H. XoXoX#X:X:X:Xb.d.d.f.b.:X:X:X:X:X:X:X4X:X9XtXtXtXtXpXpXpXtXtXrXJ.K.) w o 3 3 3 ",
"3 3 o w ( ;.O.#.#.&.J.+X+XOXOX|.P.b.c.c.c.c.j.j.j.c.j.b.OX#X4XI.x.g.z.}.#X:X4X#X#XOX|. XP.|.oX$X;X,X9XrXtXyXtXtX=Xr.(.c % 3 3 3 ",
"3 ; % j R ..O.#.*.r.G.G.G.b.b.c.c.c.z.z.c.z.z.z.z.z.z.z.j.b.OXn.x.z.z.z.P.|. Xb.j.c.c.z.c.b.b.b.P.P.H.XX<X9XtXaX<Xr.[.I . ; 3 3 ",
"3 ; q ~ R o.%.#.#.r.G.c.c.c.c.c.c.c.c.z.z.u.z.z.z.x.x.x.x.z.j.z.z.z.x.g.9.u.0.z.z.z.c.z.v.n.n.I.I.I.I.I.G.K.+X6X@Xc.H.E.9 o 3 3 ",
"3 ; u I F O.#.#.#.r.L.L.c.c.c.c.p.p.p.p.p.p.x.p.p.x.i.x.x.x.z.u.u.z.x.x.0.0.0.0.x.z.z.z.n.n.n.n.I.I.v.n.I.P.H.P.P.I.b.!.g X 3 3 ",
"3 o g Y =.O.#.#.@.r.G.L.c.c.c.c.p.a.z.z.z.z.z.z.z.x.x.x.x.x.x.x.x.x.x.x.x.x.x.x.x.x.z.v.n.n.n.n.n.n.n.I.I.I.I.}.}.I.c.[.x . 4 3 ",
"3 o k R =.#.#.#.@.r.L.L.c.c.c.c.c.z.z.z.z.z.z.z.z.x.x.x.x.x.x.x.x.x.x.x.x.x.x.x.x.z.v.n.n.n.n.n.n.n.I.I.I.I.I.I.I.c.e.Q.J @ 4 3 ",
"3 o z R =.#.%.#.@.r.L.c.c.c.c.c.c.z.z.z.z.z.z.z.z.x.x.x.x.x.x.x.x.x.x.x.x.x.x.x.x.v.n.n.n.n.n.n.n.n.n.v.x.x.x.v.v.e.5.2.~ & 3 3 ",
"3 X z E -.#.#.#.@.r.k.c.c.c.c.c.c.z.z.z.z.z.p.p.u.x.x.x.x.x.x.x.x.x.x.x.x.x.x.x.v.v.n.n.n.n.n.n.n.n.z.u.u.u.z.v.z.8.q.:.^ q 3 3 ",
"3 % x E -.#.#.#.@.$.t.L.c.c.c.c.c.z.z.z.z.z.p.p.u.x.x.x.x.x.x.x.x.x.x.x.x.x.x.v.v.v.n.n.n.n.v.v.v.z.z.u.u.u.u.z.z.8.w.1.^ q 3 3 ",
"4 % ! E X.#.#.#.@.@.w.k.c.c.c.c.x.z.z.z.z.z.p.p.u.x.x.x.x.x.x.x.x.x.x.x.x.x.v.v.v.v.v.v.v.v.v.x.x.x.i.i.u.p.i.i.u.7.w.1.^ @ 3 3 ",
"3 % x E o.O.#.#.$.@.q.t.c.c.c.c.z.z.z.z.z.z.u.u.u.x.x.x.x.x.x.x.x.x.x.x.x.x.v.v.v.v.v.x.z.z.z.i.u.z.u.u.z.z.z.z.u.7.w.1.~ @ 3 3 ",
"3 X k R o.O.#.#.$.@.$.w.k.c.c.c.x.z.z.z.z.z.u.u.u.u.u.u.u.u.u.u.i.u.i.i.x.v.v.v.v.x.z.i.u.u.u.u.i.i.z.z.z.z.c.c.5.w.w.1.N @ 3 3 ",
"3 o g Y o.O.#.#.@.@.$.q.e.c.c.c.x.x.z.z.z.z.z.u.u.u.u.u.u.u.u.i.i.i.i.z.v.v.v.x.z.i.i.u.u.u.u.u.i.i.z.z.z.z.z.e.7.w.w.>.z + 3 3 ",
"3 ; u I F +.%.#.@.@.$.| w.c.c.c.c.c.z.z.z.z.u.u.u.u.u.u.i.u.i.i.i.i.z.v.v.v.v.z.u.u.u.u.u.u.i.i.i.u.z.z.z.z.p.5.5.q.w.,.g X 3 3 ",
"3 ; e K F +.%.#.@.$.$.5.q.e.c.c.c.c.z.u.u.u.u.u.u.u.u.u.u.u.i.i.i.z.z.x.v.v.i.i.u.u.u.u.u.u.i.u.u.u.z.z.z.u.6.6.5.7.<.E w o 3 3 ",
"3 3 + v E O.%.@.@.@.$.$.7.q.e.c.c.c.c.u.u.u.u.u.u.u.u.u.u.u.u.u.p.v.v.v.x.i.u.u.u.u.u.u.u.u.u.u.u.u.z.z.z.8.6.6.5.7.4.D q ; , 3 ",
"3 4 X i R O.#.*.$.$.$.$.7.5.q.e.c.c.c.u.u.u.u.u.u.u.u.u.u.u.u.u.x.v.v.x.0.0.i.u.u.u.u.u.u.u.u.u.u.u.z.z.8.8.6.5.5.w.1.M & 3 3 3 ",
"3 3 o r I ;.X.#.$.$.$.$.$.q.q.w.e.k.c.z.z.u.u.u.u.u.u.u.u.u.z.x.v.v.x.i.0.0.i.z.u.u.u.u.u.u.u.u.u.u.z.8.8.8.8.5.5.h.M.c % 3 3 3 ",
"3 3 3 + J R X.#.#.$.$.$.$.$.w.w.w.e.j.z.z.u.u.u.u.c.u.u.u.x.U.v.v.x.0.i.0.i.0.g.0.u.u.u.u.z.z.u.u.u.d.7.8.8.8.5.5.<.( w o 3 ; ; ",
"3 3 3 X i T O.O.#.@.$.$.$.$.q.w.w.7.8.e.c.z.u.u.s.p.u.c.v.a.v.v.i.u.u.u.u.u.0.0.u.u.u.u.u.u.u.9.8.8.8.8.8.8.8.6.7.2.x + o 3 ; ; ",
"3 3 ; : r K ;.O.X.#.$.$.$.$.r.w.w.w.7.7.e.p.u.u.s.s.p.v.v.a.a.u.u.u.u.u.u.u.u.u.u.u.u.u.u.u.z.8.8.8.8.8.8.8.6.6.$.H f X 3 3 o ; ",
"3 3 3 ; # k _ ;...#.$.$.$.$.w.w.w.w.w.7.5.5.8.s.u.a.v.U.v.p.u.u.u.u.u.u.u.u.z.u.z.9.9.9.8.8.8.8.8.8.8.8.8.8.7.5.2.M q 3 3 3 , 3 ",
"3 3 3 3 : r P E :.*.$.$.w.w.w.w.w.w.7.7.5.6.y.s.u.p.p.p.u.s.e.u.u.u.u.u.z.u.9.9.9.8.8.8.8.8.8.8.8.8.8.8.7.7.7.$.E a X 3 3 3 , 3 ",
"3 3 3 3 3 # g Y B.*.$.<.$.$.w.w.w.w.w.7.y.e.e.s.s.s.s.e.6.6.6.8.8.8.8.8.8.8.8.8.8.8.8.8.8.8.8.8.8.8.8.8.7.7.w.1.C @ 3 3 2 ; 3 3 ",
"3 3 3 3 3 o 8 B E B.#.<.$.$.$.q.q.w.w.y.e.e.p.p.p.u.s.e.8.8.8.8.6.6.8.8.8.8.8.8.8.8.8.8.8.8.8.8.8.8.8.8.7.7.<.R d X 3 3 3 3 3 3 ",
"3 3 3 3 3 3 % h ( R.B.#.$.$.r.r.w.e.e.p.p.p.e.e.p.u.8.6.8.8.8.8.8.8.8.8.8.8.8.8.8.8.8.8.8.8.8.8.8.8.8.8.7.<.R.x & : 3 3 3 3 3 3 ",
"3 3 3 3 3 3 4 @ m E S.V.&.r.r.r.t.t.t.p.p.e.e.e.e.8.8.6.8.8.8.8.8.8.8.8.8.8.8.8.8.8.8.8.8.8.8.8.8.8.8.8.7.2.I w : 3 3 3 3 3 3 3 ",
"3 3 3 3 3 3 3 o u T A.*Xm.D.t.t.t.p.t.t.t.t.e.k.e.8.8.8.8.8.8.8.8.8.8.8.8.8.8.8.8.8.8.8.8.8.8.8.8.8.8.7.<.R a X 3 3 3 3 3 3 3 3 ",
"3 3 3 3 3 3 3 : + g ] S.@Xm.r.F.t.t.t.t.t.k.k.e.7.8.8.8.8.8.8.8.8.8.8.8.8.8.8.8.8.8.8.8.8.8.8.8.8.5.7.h.R.x + 3 3 3 3 3 3 3 3 3 ",
"3 3 3 3 3 3 3 ; : . b W XXY.m.D.F.t.t.t.t.t.e.w.7.7.7.7.7.7.7.7.7.7.7.7.7.7.7.7.7.7.7.7.7.7.7.8.7.5.h.C.M w < 3 3 3 3 3 3 3 3 3 ",
"3 3 3 3 3 3 3 3 4 > 8 L A.*XY.m.K.D.t.t.t.t.e.7.7.7.7.7.7.7.7.7.7.7.7.7.7.7.7.7.7.7.7.7.7.7.7.7.w.e.3.D 7 % , 3 3 3 3 3 3 3 3 3 ",
"3 3 3 3 3 3 3 3 3 4 X r U A.*XJ.&.K.t.t.t.w.q.q.7.7.7.7.7.7.7.7.7.7.7.7.7.7.8.8.7.7.7.7.7.7.w.h.h.3._ 0 * 4 , 3 3 3 3 3 3 3 3 3 ",
"3 3 3 3 3 3 3 3 3 3 3 * i ] _.=XB.V.t.t.t.q.$.q.7.7.7.7.7.7.7.7.7.7.7.7.7.7.8.8.7.7.7.7.w.7.| 3.Q.R g 1 4 3 3 3 2 3 3 3 3 3 3 3 ",
"3 3 3 3 3 3 3 3 3 3 3 4 # n Q _.2XV.r.r.r.@.$.$.q.7.7.7.7.7.7.7.7.7.7.7.7.7.8.7.7.7.q.w.h. .3.Q._ c $ 4 3 3 3 2 2 3 3 3 3 3 3 3 ",
"3 3 3 3 3 3 3 3 3 3 3 3 ; . n Q *X=X%.&.&.@.#.$.$.7.7.7.7.7.7.7.7.7.7.7.7.7.7.w.7.$.$.$.} 3.Q.E l @ : 3 3 3 3 3 3 3 3 3 3 3 3 3 ",
"3 3 3 3 3 3 3 3 3 3 3 3 3 : $ b Q *XXXV.%.*.#.#.| | $.w.w.w.$.7.7.7.f.f.h.h.$.| | <.#.#.Q.^.H N w o 3 3 3 3 3 3 3 3 3 3 3 3 3 3 ",
"3 3 3 3 3 3 3 3 3 3 3 3 3 3 4 e b ' -XXX+.+.X.#.} } $.$.$.$.$.$.$.$.$.$.$.$.#.} } [ X.[.W.R B y * 3 3 3 3 3 3 3 3 3 3 3 3 3 3 3 ",
"3 3 3 3 3 3 3 3 3 3 3 3 2 3 3 : e L ' -X!.o.X.X.[ [ X.#.#.#.#.} } } } } } #.} [ [ -.[.W.G J r * 4 ; 3 3 3 3 3 3 3 3 3 3 3 3 3 3 ",
"3 3 3 3 3 3 3 3 3 3 3 3 3 3 3 3 : e L ' _.!.....X.O.X.X.X.X.X.X.X.X.[ X.#.X.X...:..X!.G J 9 o 4 3 3 3 3 3 3 3 3 3 3 3 3 3 3 3 3 ",
"3 3 3 3 3 3 3 3 3 3 3 3 3 3 3 3 3 : 8 L ) E.~.=.X.O...X.X.X.X.X.X.X.[ X.#.[ ..C.).W.G K t o 4 3 3 3 3 3 3 3 3 3 3 3 3 3 3 3 3 3 ",
"3 3 3 3 3 3 3 3 3 3 3 3 3 3 3 3 3 3 o 8 b I /.(.:...=.-.X.X...X.X.X.X.X.[ X.!.).M.S J w o 3 3 3 3 3 3 3 3 3 3 3 3 3 3 3 3 3 3 3 ",
"3 3 3 3 3 3 3 3 3 3 3 3 3 3 3 3 3 3 3 o e k I /.(.>.=.=.-.X...X.X.X.X.X.-.^.).R.Y N r o 4 3 3 3 3 3 3 3 3 3 3 3 3 3 3 3 3 3 3 3 ",
"3 3 3 3 3 3 3 3 3 3 3 3 3 3 3 3 3 3 3 3 : $ g I E.`.W.=.........-.X...>.).).M.( v q * 4 3 3 3 3 3 3 3 3 3 3 3 3 3 3 3 3 3 3 3 3 ",
"3 3 3 3 3 3 3 3 3 3 3 3 3 3 3 3 3 3 3 3 3 4 & f P ` '.`.M.=.X.....=.R.(.~.E ( k @ o , 3 3 3 3 3 3 3 3 3 3 3 3 3 3 3 3 3 3 3 3 3 ",
"3 3 3 3 3 3 3 3 3 3 3 3 3 3 3 3 3 3 3 3 4 4 o * w J ) ].'.~.N.M.N.(.'.E.G P a @ : 3 3 ; 2 2 3 3 3 3 3 3 3 3 3 3 3 3 3 3 3 3 3 3 ",
"3 3 3 3 3 3 3 3 3 3 3 3 3 3 3 3 3 3 3 3 4 3 3 3 X 9 z ^ ` /._.).(.E.` I J a * 4 3 3 3 3 2 3 3 3 3 3 3 3 3 3 3 3 3 3 3 3 3 3 3 3 ",
"3 3 3 3 3 3 3 3 3 3 3 3 3 3 3 3 3 3 3 3 3 3 3 3 3 4 = p J T E.E.W Y ^ j $ o 4 3 3 3 3 3 3 3 3 3 3 3 3 3 3 3 3 3 3 3 3 3 3 3 3 3 ",
"3 3 3 3 3 3 3 3 3 3 3 3 3 3 3 3 3 3 3 3 3 3 3 3 3 5 4 % t g v J b v u & < 3 3 3 3 3 3 3 3 3 3 3 3 3 3 3 3 3 3 3 3 3 3 3 3 3 3 3 ",
"3 3 3 3 3 3 3 3 3 3 3 3 3 3 3 3 3 3 3 3 3 3 3 3 3 5 5 5 < o * t $ # o 4 3 3 3 3 3 3 3 3 3 3 3 3 3 3 3 3 3 3 3 3 3 3 3 3 3 3 3 3 ",
"3 3 3 3 3 3 3 3 3 3 3 3 3 3 3 3 3 3 3 3 3 3 3 3 3 3 3 3 3 3 4 o : : 3 3 3 3 3 3 3 3 3 3 3 3 3 3 3 3 3 3 3 3 3 3 3 3 3 3 3 3 3 3 ",
"3 3 3 3 3 3 3 3 3 3 3 3 3 3 3 3 3 3 3 3 3 3 3 3 3 3 3 3 3 3 3 3 3 3 3 3 3 3 3 3 3 3 3 3 3 3 3 3 3 3 3 3 3 3 3 3 3 3 3 3 3 3 3 3 "
};
