/* XPM */
static char *result[] = {
/* columns rows colors chars-per-pixel */
"32 32 175 2 ",
"   c #010101",
".  c #0B0B05",
"X  c #0B0C05",
"o  c #0E0E05",
"O  c #0F0F05",
"+  c #110F00",
"@  c #121000",
"#  c #191600",
"$  c #1C1D0D",
"%  c #1C1E0D",
"&  c #1F200F",
"*  c #1F210F",
"=  c #252712",
"-  c #262812",
";  c #2F3116",
":  c #303216",
">  c #323518",
",  c #333518",
"<  c #3D401D",
"1  c #494201",
"2  c #4A4301",
"3  c #4D4706",
"4  c #4E4806",
"5  c #4E4908",
"6  c #4E4909",
"7  c #564F04",
"8  c #524E0C",
"9  c #5D5504",
"0  c #5E5809",
"q  c #41441F",
"w  c #42451F",
"e  c #4F501F",
"r  c #4F511F",
"t  c #635A01",
"y  c #645A01",
"u  c #635B07",
"i  c #635B08",
"p  c #615F19",
"a  c #6C6201",
"s  c #6E6404",
"d  c #6D6406",
"f  c #6B650F",
"g  c #706601",
"h  c #7D7102",
"j  c #7D7202",
"k  c #646013",
"l  c #646014",
"z  c #61611F",
"x  c #62621F",
"c  c #474A20",
"v  c #494D23",
"b  c #4A4D23",
"n  c #515526",
"m  c #585B27",
"M  c #545828",
"N  c #5A5E29",
"B  c #5B602B",
"V  c #616120",
"C  c #666726",
"Z  c #63672F",
"A  c #63682F",
"S  c #64692F",
"D  c #666B30",
"F  c #6B7033",
"G  c #6C7133",
"H  c #707535",
"J  c #737836",
"K  c #737936",
"L  c #757A37",
"P  c #757B38",
"I  c #767C38",
"U  c #777C38",
"Y  c #787E39",
"T  c #807404",
"R  c #807504",
"E  c #847802",
"W  c #887B02",
"Q  c #897C02",
"!  c #897D02",
"~  c #8A7D02",
"^  c #7B813A",
"/  c #7F853C",
"(  c #938502",
")  c #9B8C02",
"_  c #9F9002",
"`  c #A39302",
"'  c #A29304",
"]  c #A29404",
"[  c #AD9D02",
"{  c #AE9D02",
"}  c #B5A503",
"|  c #B6A503",
" . c #B9A702",
".. c #B8A703",
"X. c #B9A802",
"o. c #B9A803",
"O. c #80863C",
"+. c #80873D",
"@. c #82883D",
"#. c #848A3E",
"$. c #848B3F",
"%. c #C1AF03",
"&. c #C7B403",
"*. c #C8B503",
"=. c #CBB703",
"-. c #CCB803",
";. c #CDB903",
":. c #CEBA03",
">. c #CFBB03",
",. c #CFBC03",
"<. c #D0BC03",
"1. c #D1BD03",
"2. c #D5C003",
"3. c #D5C103",
"4. c #D6C103",
"5. c #D6C203",
"6. c #D8C303",
"7. c #D9C403",
"8. c #DAC403",
"9. c #DAC503",
"0. c #DBC503",
"q. c #DBC603",
"w. c #DBC703",
"e. c #DDC803",
"r. c #DEC903",
"t. c #DFC903",
"y. c #E0CB03",
"u. c #E1CC03",
"i. c #E3CD03",
"p. c #E4CE03",
"a. c #E6D003",
"s. c #E7D103",
"d. c #E7D203",
"f. c #E8D203",
"g. c #E9D303",
"h. c #EAD403",
"j. c #EBD503",
"k. c #ECD603",
"l. c #EDD603",
"z. c #EDD703",
"x. c #EED703",
"c. c #EED803",
"v. c #EFD803",
"b. c #EFD903",
"n. c #F0DA03",
"m. c #F1DA03",
"M. c #F1DB03",
"N. c #F2DB03",
"B. c #F2DC03",
"V. c #F3DC03",
"C. c #F3DD03",
"Z. c #F4DE03",
"A. c #F6DF03",
"S. c #F7E003",
"D. c #888F40",
"F. c #898F41",
"G. c #8B9242",
"H. c #8C9342",
"J. c #8E9543",
"K. c #929945",
"L. c #939A45",
"P. c #949B46",
"I. c #969E47",
"U. c #979E47",
"Y. c #989F48",
"T. c #9BA249",
"R. c #9EA64B",
"E. c #9FA64B",
"W. c #A0A74C",
"Q. c #A3AB4D",
"!. c #A4AC4D",
"~. c #A4AC4E",
"^. c #A5AD4E",
"/. c #A6AE4F",
"(. c #A7AF4F",
/* pixels */
"(.(.(.(.(.(.(.(.(.(.(.(.(.(.(.(.(.(.(.(.(.(.(.(.(.(.(.(.(.(.(.(.",
"(.(.(.(.(.(.(.(.(.(.(.(.(.(.(.(.(.(.(.(.(.(.(.(.(.(.(.(.(.(.(.(.",
"(.(.(.(.(.(.(.(.(.(.T.D.O.O.O.O.O.O.#.I.(.(.(.(.(.(.(.(.(.(.(.(.",
"(.(.(.(.(.(.(.(.(.(./ q = = = = = = > H (.(.(.(.(.(.(.(.(.(.(.(.",
"(.(.(.(.(.(.(.(.P.^ C 8 2 2 2 2 2 2 4 z L J.(.(.(.(.(.(.(.(.(.(.",
"(.(.(.(.(.(.(.(.J ; 5 ] *.*.*.*.*.*.| u & Z /.(.(.(.(.(.(.(.(.(.",
"(.(.(.(.(.(.G.G x 0 ~ <.b.b.b.b.b.b.y.) 9 p S #.Q.(.(.(.(.(.(.(.",
"(.(.(.(.(.(.D $ 7 o.p.M.S.S.S.S.S.S.Z.s.1.s . M R.(.(.(.(.(.(.(.",
"(.(.(.(.@.B p d _ w.n.m.m.m.m.m.m.m.m.n.h.[ g l m Y E.(.(.(.(.(.",
"(.(.^.Q.N O y ,.c.A.C.k.g.g.g.g.g.g.h.N.S.n.g.j @ c K.~./.(.(.(.",
"(.Q.I v k R { r.c.A.C.k.g.g.g.g.g.g.h.N.S.n.g.X.! f e F Y.(.(.(.",
"(.W.n   a w.h.h.v.Z.B.k.g.g.g.g.g.g.h.m.A.x.a.s.g.W # < H.(.(.(.",
"(.W.n   a w.z.N.M.b.l.h.g.g.g.g.g.g.g.k.z.u.4.t.f.W # < H.(.(.(.",
"(.W.n   a w.b.A.V.j.g.g.g.g.g.g.g.g.g.g.d.7.=.7.s.W # < H.(.(.(.",
"(.W.n   a w.b.A.V.j.g.g.g.g.g.g.g.g.g.g.d.7.=.7.s.W # < H.(.(.(.",
"(.W.n   a w.b.A.V.j.g.g.g.g.g.g.g.g.g.g.d.7.=.7.s.W # < H.(.(.(.",
"(.W.n   a w.b.A.V.j.g.g.g.g.g.g.g.g.g.g.d.7.=.7.s.W # < H.(.(.(.",
"(.W.n   a w.z.N.M.b.l.h.g.g.g.g.g.g.f.i.r.9.4.t.f.W # < H.(.(.(.",
"(.W.n   a w.h.h.v.Z.B.k.g.g.g.g.g.g.a.9.>.0.a.s.g.W # < H.(.(.(.",
"(.Q.U b k T [ e.c.A.C.k.g.g.g.g.g.g.a.6.-.q.g. .Q f r G Y.(.(.(.",
"(.(.^.!.N o t ,.c.A.C.k.g.g.g.g.g.g.a.6.-.q.g.h + c L.^./.(.(.(.",
"(.(.(.(.@.B p d _ w.g.r.7.7.7.7.7.7.8.9.3.` g l m Y E.(.(.(.(.(.",
"(.(.(.(.(.(.D % 7 ..5.<.;.;.;.;.;.;.:.2.<.s X M R.(.(.(.(.(.(.(.",
"(.(.(.(.(.(.G.G x 0 E %.e.e.e.e.e.e.<.( 9 p S #.Q.(.(.(.(.(.(.(.",
"(.(.(.(.(.(.(.(.K : 6 ' &.&.&.&.&.&.} i * A /.(.(.(.(.(.(.(.(.(.",
"(.(.(.(.(.(.(.(.P.^ C 8 1 1 1 1 1 1 3 V P J.(.(.(.(.(.(.(.(.(.(.",
"(.(.(.(.(.(.(.(.(.(./ w - - - - - - , H (.(.(.(.(.(.(.(.(.(.(.(.",
"(.(.(.(.(.(.(.(.(.(.T.F.+.+.+.+.+.+.$.U.(.(.(.(.(.(.(.(.(.(.(.(.",
"(.(.(.(.(.(.(.(.(.(.(.(.(.(.(.(.(.(.(.(.(.(.(.(.(.(.(.(.(.(.(.(.",
"(.(.(.(.(.(.(.(.(.(.(.(.(.(.(.(.(.(.(.(.(.(.(.(.(.(.(.(.(.(.(.(.",
"(.(.(.(.(.(.(.(.(.(.(.(.(.(.(.(.(.(.(.(.(.(.(.(.(.(.(.(.(.(.(.(.",
"(.(.(.(.(.(.(.(.(.(.(.(.(.(.(.(.(.(.(.(.(.(.(.(.(.(.(.(.(.(.(.(."
};
