/* XPM */
static char *result[] = {
/* columns rows colors chars-per-pixel */
"32 32 71 1 ",
"  c #2E2900",
". c #322F06",
"X c #312F0C",
"o c #383200",
"O c #37350C",
"+ c #343617",
"@ c #363817",
"# c #3A3B15",
"$ c #413F0E",
"% c #3F4015",
"& c #3F411D",
"* c #4E4702",
"= c #4F4802",
"- c #46430E",
"; c #4A460C",
": c #544B01",
"> c #524D0C",
", c #5B5202",
"< c #56520C",
"1 c #58530C",
"2 c #454416",
"3 c #494817",
"4 c #645A02",
"5 c #665E08",
"6 c #746901",
"7 c #7E7205",
"8 c #454820",
"9 c #545725",
"0 c #565826",
"q c #5C5E26",
"w c #525728",
"e c #575C2C",
"r c #5F6026",
"t c #5B602F",
"y c #606027",
"u c #60632C",
"i c #656A31",
"p c #686D32",
"a c #717737",
"s c #797E3B",
"d c #877B05",
"f c #8B7E01",
"g c #7C803B",
"h c #8F8305",
"j c #928404",
"k c #9C8C00",
"l c #A39301",
"z c #AE9D02",
"x c #B6A402",
"c c #BDAB02",
"v c #81863E",
"b c #C1AD03",
"n c #C3B003",
"m c #CCB803",
"M c #D4BF03",
"N c #DBC603",
"B c #DEC903",
"V c #878D41",
"C c #8E9546",
"Z c #919647",
"A c #919847",
"S c #929648",
"D c #959C49",
"F c #989E4A",
"G c #97A04A",
"H c #9BA24B",
"J c #A1A54E",
"K c #A2A94F",
"L c #A7AF51",
"P c #A9AD51",
"I c #AAB152",
/* pixels */
"IIPPPPPPPPPPPPIIIILLLLLLLLLLLLLL",
"IIPPPPPPJJFFFHFFGHHLLLLLLLLLLLLL",
"IIIPPPPJFSgsssssggVDKLILLLLLLLLL",
"IIIPPPPHSsu0eyqqrtpvHLILLLLLLLLI",
"IIPPPPJFvu&X$>,$2%8pGLILLLLLLLLL",
"IIPPPPJSgeX $664=O+tAIILLLLLLLLL",
"IIPPPPJSvt$$fbxl7;#tAIILLLLLLLLL",
"IIPPPPJSdy$4lBBbj1#tAIIILLLLLLLI",
"IIIPPPJZdt&1lBBbh>&tGIILLLLLLLLL",
"IIIPPPJZvt$,lMNch>&eAIILLLLLLLLL",
"IIPPPPJZgy$4lNNch1&eALILLLLLLLLI",
"PIPPPPJZgy$,lNNch<&tAIILLLLLLLLL",
"IPPPPPJSgy$4lBNch1%tAIILLLLLLLLL",
"IIPPPPJSdy$,lBNch1&tAIILLLLLLLLL",
"IIPPPPPSvt&,lBBch<%wALILLLLLLLLL",
"IPPPPPJSvt$1fBBbh>&eGIILLILLLLLL",
"PPPPPPJZsr-,kMMxg>%tAIILLLLLLLLL",
"IPPJPPJZgq$:jmmxh:%tAIIILLLLLLLL",
"IIPPPPJZgr$*jnnl7;+tAIILLLLLILLL",
"IIPPPPJZsq$:fcbl7;%tDIILLLLLLLLL",
"IIPPPPHZgq$*fccl7>#tAIILLLLLLLLL",
"IIPPPPJZgr$*hccl7;@tAIILLLLLLLLL",
"PPPPPPJZsq$*fccl7:%tAIILLLLLLLLL",
"IPPPPPJZvr$*hnnlg=@tAIILLLLLLLLL",
"IIPPPPJvgr%=hcnlg%&tGIILLLLLLLLL",
"IPPPPPJFgr%%7zzj6%&eAIILLLLLLLLL",
"IIIPPPJvg9Oo,hd6,%&eALIILLLLLLLL",
"IIPPPPPJge%.=54,*%&iGLILLLLLILLL",
"PPPPPPJFga&%%33%%3wgGLILLLLLLLLL",
"PPPPPPJHAgpteteetiggHLLLLLLLLLLL",
"PIPPPPPJKGACCCACAAAHLLLLIILLLLLL",
"IIPPJPPPLLLIIIIIIIILLLLLLILLLLLL"
};
