/* XPM */
static char *result[] = {
/* columns rows colors chars-per-pixel */
"64 64 224 2 ",
"   c #2C1E1D",
".  c #2A1E1A",
"X  c #351715",
"o  c #3C1614",
"O  c #341B16",
"+  c #3B1916",
"@  c #331C1A",
"#  c #3A1A19",
"$  c #381719",
"%  c #3B170F",
"&  c #24231E",
"*  c #2A201D",
"=  c #37201B",
"-  c #1E1F23",
";  c #271F21",
":  c #2B1F22",
">  c #1F2426",
",  c #232323",
"<  c #292122",
"1  c #252228",
"2  c #49120F",
"3  c #431414",
"4  c #4B1513",
"5  c #431A15",
"6  c #4D1B15",
"7  c #4A171C",
"8  c #431919",
"9  c #4B1819",
"0  c #541513",
"q  c #5B1514",
"w  c #511B12",
"e  c #5B1B15",
"r  c #551B19",
"t  c #5B1B18",
"y  c #5B160C",
"u  c #651513",
"i  c #611915",
"p  c #6C1915",
"a  c #6D1718",
"s  c #641B1A",
"d  c #6C1A1A",
"f  c #6A1613",
"g  c #741615",
"h  c #791613",
"j  c #721B16",
"k  c #7E1916",
"l  c #75171B",
"z  c #741C19",
"x  c #7D1C19",
"c  c #63241D",
"v  c #6C2517",
"b  c #74231D",
"n  c #7D221E",
"m  c #782215",
"M  c #6F2020",
"N  c #7F2A21",
"B  c #712B23",
"V  c #811A15",
"C  c #841E1B",
"Z  c #8D1C1A",
"A  c #8A1815",
"S  c #9C1A16",
"D  c #941D1B",
"F  c #981B16",
"G  c #B4160A",
"H  c #BC160B",
"J  c #B6190D",
"K  c #BC1A0E",
"L  c #A41E17",
"P  c #AC1C16",
"I  c #A41C1B",
"U  c #AC1D1B",
"Y  c #BC1C12",
"T  c #B41D1A",
"R  c #BC1C19",
"E  c #B51C14",
"W  c #87221C",
"Q  c #95221E",
"!  c #9A241E",
"~  c #8E331F",
"^  c #A5231E",
"/  c #AC231C",
"(  c #BB2216",
")  c #B3221B",
"_  c #BB221A",
"`  c #BE281F",
"'  c #931D20",
"]  c #B01F20",
"[  c #8A2321",
"{  c #852823",
"}  c #942A23",
"|  c #9D2E26",
" . c #8F3623",
".. c #983428",
"X. c #993C32",
"o. c #A32423",
"O. c #AB2924",
"+. c #BB2421",
"@. c #B32B23",
"#. c #BC2A28",
"$. c #B82B23",
"%. c #A4342C",
"&. c #A7382C",
"*. c #B7352C",
"=. c #A83F35",
"-. c #BD3B32",
";. c #DD0D0B",
":. c #DE0E07",
">. c #C41506",
",. c #C2160D",
"<. c #CD150C",
"1. c #C41A0C",
"2. c #CB190B",
"3. c #C51807",
"4. c #DB1607",
"5. c #D5150B",
"6. c #DC130A",
"7. c #D11909",
"8. c #DC1B0B",
"9. c #D51606",
"0. c #CD1512",
"q. c #C21A13",
"w. c #CB1B14",
"e. c #C11B1A",
"r. c #C91B17",
"t. c #D31310",
"y. c #DB1612",
"u. c #D31A13",
"i. c #D81A17",
"p. c #EB0A07",
"a. c #E40D0A",
"s. c #EC0C0A",
"d. c #E80909",
"f. c #F20D0B",
"g. c #E3110A",
"h. c #EC120C",
"j. c #E41C0B",
"k. c #E91A0D",
"l. c #F4120C",
"z. c #F9120D",
"x. c #FA1A0F",
"c. c #E51311",
"v. c #EE1611",
"b. c #EE1C14",
"n. c #F21411",
"m. c #FB1511",
"M. c #F31A12",
"N. c #FC1C14",
"B. c #F61D19",
"V. c #D6240C",
"C. c #DA210B",
"Z. c #C3211C",
"A. c #CC201A",
"S. c #C1271A",
"D. c #D52516",
"F. c #D8321C",
"G. c #EC221B",
"H. c #F3231C",
"J. c #F9211A",
"K. c #F2281C",
"L. c #C32421",
"P. c #C32B23",
"I. c #CA2921",
"U. c #D92B24",
"Y. c #D52824",
"T. c #C43325",
"R. c #C33B2D",
"E. c #C73329",
"W. c #DC342A",
"Q. c #D23529",
"!. c #C43C33",
"~. c #DB3833",
"^. c #E82F29",
"/. c #E42A24",
"(. c #F52C26",
"). c #F9332C",
"_. c #F5352D",
"`. c #E33D31",
"'. c #ED3D34",
"]. c #FC3933",
"[. c #FC3E3A",
"{. c #F73C35",
"}. c #E0342C",
"|. c #BD4537",
" X c #B04630",
".X c #DC4029",
"XX c #C64837",
"oX c #D94C35",
"OX c #D35339",
"+X c #DB533F",
"@X c #C7513C",
"#X c #E04229",
"$X c #E44C39",
"%X c #E94638",
"&X c #F4433B",
"*X c #FC443E",
"=X c #F34A3D",
"-X c #FA4D3F",
";X c #E1593E",
":X c #ED4C46",
">X c #EA4E4A",
",X c #F54742",
"<X c #F94640",
"1X c #F14A44",
"2X c #FA4C43",
"3X c #ED5249",
"4X c #F85749",
"5X c #EE5C53",
"6X c #FB5F51",
"7X c #F35B54",
"8X c #F5635C",
"9X c #FD6859",
"0X c #FD6E62",
"qX c #F66F65",
"wX c #FE7163",
"eX c #FB7569",
"rX c #FE7B6E",
"tX c #FD7D74",
"yX c #FF867E",
"uX c #FF8575",
"iX c #FF8D84",
"pX c #FF9186",
"aX c #FF9689",
"sX c #FE998A",
/* pixels */
", , , , , , , , , , , , , , , , , , & & , , > > > > 1 1 < & ; ; : ; ; < , & < < < , > > & & & & > > > & , , , , , , , , , , , , ",
", , , , > , , , , , , , , , , , , , , < , ; 1 > > > 1 : @ + 8 7 7 7 7 8 + O O * < ; , , > > > & & & , , , , , , , , , , , , , , ",
", , , , , , , , , , , , > , , , , , , , ; 1 ; 1 , < @ 8 q f V Z ' ' ' C j e 6 5 @ : ; ; & & > > , , , , , , , , , , , , , , , , ",
", , , , , , , , , , , , , , , , , , , ; , : : 1 * + t n ! T ] R T L.L.$./ ^ Q j 0 3 # : & & & & , , , , , , , , , , , , , , , , ",
", , , , , , , , , , , , , , , , , , , , 1 : : @ 9 z D T r.D.Y.W.~.%X`.`.W.U.L.@.D l 7 $   & , , , , , , & & & & & , , > , , , , ",
", , , , , , , , , , , , , , , , , , , , , : $ q W / R Y.`.:X8XeXtXuXuXtXwX8X>X~.L.^ C 0 $ ; , , , , , , & & & & , , , , , , , , ",
", , , , , , , , , , , , , , , , , , , , ; @ 4 Z _ A./.%X7XiXpXaXsXsXsXsXpXiXtX7X%XQ.@.Z 0 @ 1 ; > & , & , & & & & , , , , , , , ",
", , , , , , , , , , , , , , , , , , , < @ 4 x ] A.^.&X=X7XtXiXpXpXpXaXaXiXyXeX4X=X=XW.*.x 9 @ ; > > , & & & & & , , , , , , , , ",
", , , , , , , , , , , , , , , , , , ; . 8 l ] Z.^.[.,X>X>X>X5X8XqXeXeXqX8X5X=X$X=X4X4XQ.O.l 7 : & , , & & & & & , , , , , , , , ",
", , , , , , , , > , , , , , , , , , < @ t o.e.Y.'.,X,X2X,X,X:X,X1X:X1X1X:X1X=X%X4X9X9X%XQ.o.s $ & , & , < & > & , , , , , , , , ",
", , ; > , > , , , , , , , , , , < ,   3 l T u.^.'.,X,X,X,X,X<X<X<X<X<X<X,X=X=X=X4X9XwX6X}.P.[ 7 * & , , , , > > , , , , , , , , ",
", , , , , , , , , , , , , , , , 1 : o i ! q.i._.[.<X<X*X*X*X*X<X*X*X*X*X*X*X,X=X4XwXwX9X'.U.o.s $ & , , , ; 1 > , , > , , , , , ",
", , , , , , , , , , , , > ; , > ; : 7 h ] 0.;./.(._.].].).).).).).).).].].[.*X-X9XwXwX9X&XG.P.{ 4 @ < , 1 , , , , , , , , , , , ",
", , , , , , , , , , , , & > , , : : q F r.y.;.;.;.c.b.B.B.n.n.n.h.h.b.M.B.B.(._.-X4X4X&X(.G.Y.o.y # < 1 1 , 1 , , , , , , , , , ",
", , , , , , , , , , , , & > , 1 : $ u P 0.;.a.s.g.p.h.l.n.n.n.m.n.l.l.l.l.f.h.M.K.K.K.b.H.H.D.] l o & , , , > , , , , , > , , , ",
", , , , , , , , , , , , , , > < : o g T t.;.s.s.p.p.h.l.z.n.z.f.z.z.M.l.n.l.l.J.N.J.x.J.J.J.(.Z.Z 3 . , > > > > , , , , & , , , ",
", , , , , , , , , < , , , > , .   3 V e.;.;.d.f.f.f.f.f.n.n.z.f.l.f.z.f.z.f.z.N.N.N.N.J.N.m.b.i.I 0 @ 1 > > , , , , , , > , , , ",
", , , , , , , , , < & < , , , <   0 A q.;.d.d.s.f.f.f.f.z.f.z.f.z.z.z.z.l.l.N.N.N.N.N.N.m.B.v.i.U q # : , , , 1 , , , , , , , , ",
", & , , , , , , < , & , , 1 , < X q D 0.;.d.d.s.f.f.f.f.z.z.z.z.z.z.z.z.z.x.B.B.J.x.N.m.x.n.v.i.T u +   < < , , , , , , , , , , ",
", > , , , , , , , , , , , , , . o s S 0.;.d.d.s.c.f.f.f.n.z.z.z.z.f.z.z.l.x.N.N.N.x.m.z.M.h.s.y.R f o @ & , , > , , , , , , , , ",
", , , , , > ; , , , > , , , ,   $ a U 0.;.;.d.d.s.s.c.s.f.z.z.z.z.z.f.z.z.m.N.N.x.m.z.z.z.m.f.c.R h 3 O & , & > , , , > , , , , ",
", , , , , , , , , , & , , , , * 3 l I 0.;.d.;.d.d.s.d.s.f.f.n.f.p.z.z.z.x.m.m.m.x.z.m.z.z.m.n.c.e.h 4 O & & & & , , , , , , , , ",
", , , , , , > , , , , , , , , * 3 l I 0.;.a.a.a.d.d.s.s.s.f.f.z.f.f.z.z.m.m.m.m.z.z.z.z.z.f.l.c.e.h 4 O & & & > , , , , , , , , ",
", , , , , , , , , , > , , , , * $ a I t.;.a.a.a.d.d.s.s.s.f.f.f.z.l.z.z.m.m.m.z.z.z.z.z.z.l.h.c.e.k 3 @ & & > & , , , , , , , , ",
", , , , , , , , , , > & , , , * 3 a I 0.;.a.a.a.s.s.s.d.f.f.f.f.l.l.z.x.x.z.z.z.z.l.l.l.l.l.l.c.Y x 2 O & & , & , , , , , , , , ",
", , , , , , , , , > > , , , & * 3 a I 0.;.a.a.a.s.s.s.s.p.f.d.f.l.z.z.z.z.z.l.l.l.l.z.l.l.l.l.g.R h 2 O & & & , , , , , , , , , ",
". > , , , , , , , , & , , , &   o a I 0.;.d.a.a.d.s.s.s.f.d.p.f.p.z.z.x.z.x.l.l.l.l.l.l.f.f.l.h.e.x 5 = & & & , , , , , , , , , ",
"> , , , , , , , , , & , , , , * o a S 0.;.;.d.d.d.d.d.s.f.f.f.p.z.x.z.z.z.l.l.l.l.f.l.f.l.l.f.g.Y g 5 * & & & & , , , , , , , > ",
", , , , , > , , , , . , , , ,   o u F 0.6.a.d.d.d.d.p.f.f.f.f.p.f.x.z.z.l.l.l.l.l.l.l.f.l.l.s.c.R g 3   , & & , & , , , , , , , ",
", , , , , , , , , , , , & > , . X q F q.;.;.a.d.d.d.p.p.p.d.f.f.f.f.h.l.l.l.l.l.f.h.l.l.l.l.h.y.T a o   1 < , & > , , , , , , , ",
", , , , , , , , , , , , , , & & X r Z Y 5.;.d.d.d.d.p.p.d.p.f.z.f.p.p.l.l.l.l.l.l.l.f.l.s.h.h.y.U s $ : 1 , , , , , , , , , , , ",
", , , , , , , , , , , > - & , &   3 V R <.;.;.a.d.d.p.p.p.f.z.z.f.f.f.f.f.h.l.l.l.n.l.l.l.h.g.u.S 0 @ : 1 ; , ; , , , , , , , , ",
", , , , , , , , , , , , & & > , . 5 g E <.;.;.a.a.p.p.p.s.f.l.l.f.p.f.f.f.p.l.l.l.l.n.l.l.s.c.w.F 2 . ; : 1 1 1 > , , , , , , , ",
", , , , > , , , , , > > > - , . ; # p U <.t.;.a.d.p.p.p.f.l.l.f.p.p.p.f.f.l.h.l.l.l.l.h.l.g.y.q.A 2 ; ; 1 , ; 1 , , , , , , , , ",
", , , , , , , , , , , , & > , , 1 @ s I R t.;.;.d.g.p.s.l.n.l.f.f.f.p.f.f.p.h.f.l.h.l.l.s.c.i.T h 3 ; ; < , , , , , , , , , , , ",
", , , , , , , , , , , , , , , , ,   q D ] 0.;.a.d.g.h.s.v.n.h.s.p.p.h.p.h.h.p.h.s.h.s.s.s.g.w.S u o : 1 1 , & & , , , , , , , , ",
", , , , , , , , , , , , > , , , ,   4 C *.w.5.;.a.g.h.h.l.h.h.h.p.f.p.s.p.s.h.p.s.h.s.p.s.6.q.Z q $ < , , , & & & , , , , , , , ",
", , , , , , , , , , , > , , , , , ; 5 z O.I.<.6.g.g.k.k.h.h.h.a.h.g.g.g.g.g.g.g.g.s.g.g.g.8.) x 4 @ < , , > & > , , , , , , , > ",
", , , , , , , , , , , , , , , , , * $ q } E.w.9.k.k.k.k.g.s.g.a.g.g.a.a.g.g.g.s.s.g.g.:.4.u.^ y # @ 1 > , > > , , , , , , , , , ",
", , , , , , , , , , , , , , , , , < O 2 { XXF.C.j.k.k.k.g.g.g.g.a.g.g.a.a.g.g.h.g.s.g.6.9.A.A w @ : , 1 > & & > , , , , , , , , ",
"> & , , , , , , , , , , , , , , , < @ 5 b |..XV.C.j.k.j.h.g.g.g.g.g.:.g.g.g.g.g.s.g.g.j.8.( V 3 * < , , & > , > , , , , , , , , ",
", , , , , , , , , , , , , , , , , , < @ e  X$XF.C.j.j.j.g.g.g.6.g.g.g.g.g.g.g.g.g.g.6.i.w.L p # < , > > > & > , ; > , , , , , , ",
", , , , ; > , , , , , , , , , , , , < @ w  .+X.XV.C.j.j.9.g.4.g.g.g.g.g.a.g.g.g.g.6.4.w._ A 0 @ , , , , > & & > , > , , , , , , ",
", , , , , , , , > , , , , , , , , , , < 5 m XX$XF.V.9.9.9.4.4.4.:.4.:.:.g.g.g.g.6.6.y.r.^ p 3 * , , , > , > > , , , , , , , , , ",
", , , , , , , , , , , , , , , , , < , < + y ..OX.XV.2.9.9.9.9.4.4.4.6.6.g.g.g.6.6.t.0.Y W e X * , , , , > - & > , , , , , , , , ",
", , , , , > , , , , , , , , , , , , , & @ 2 N OX$XF.3.3.7.7.9.9.4.9.4.4.6.6.6.5.u.u.r.@.j 5   & , , , , , , , , , , , , , , , , ",
", , , , , , , , , , , , , , , , , , , , * + c  X;X.XK >.2.2.7.7.9.5.5.5.5.5.t.u.w.e.L.! e O & , , , , , , , , , , , , , , , , , ",
", , , , , , , , , , , , , , , , , > > , < @ 4 ~ OXoXS.H 3.2.2.7.<.9.5.9.9.<.0.0.r.R @.k 2 * * < , , , , , , , , , , , , , > , , ",
", , , , , , , , > , , , , , , , , , > > 1 = = v  XOXT.( H 3.1.2.2.9.<.<.2.2.2.1.S.) ! u + & , , , , , , , , , , , , , , , > , , ",
", , > , , , , , , , , , , , , , , > , > > > & v  .@XT.( G J K 1.,.,.,.,.,.,.,.H S.^ m 9 @ , , , , , , , , , , , , , , , , , , , ",
", , . > , , , , , , , , , , , , , , , , > > = = v  XXXT.J G J 1.q.,.,.K K H H S.` ! e + * , , , , , , > , , , , , , , , , , , , ",
", , , , , , , , , , , , , , , , , , , , > , , = 5 m  XT.( G H Y q.,.,.,.K K Y ` @.n 4 @ & , > , , , , , , , , , , , , , , , , , ",
", , , , , , , , , , , , , ; > , , , , 1 , , 1 = O e } |.T.G J 1.q.,.q.K K Y S.*.} q # * , , > , , , , , , , > , , , , , , , , , ",
", , , , , , , , , , , , , , , , , , , , , > > , * 5 b %.R.( K K K K q.K K ( #.| v 3 * , , , , , , , , , , , , , , > , , , , , , ",
", , , > , , , , , , , , , , , , , , , , 1 , 1 , * = e { *.T.( J K q.K K ( S.@.W 9 @ < < , 1 , , , , , , , , , , , , , , , , , , ",
", , , , , , , , , , , , , , & > , , , 1 1 , , , & = 5 s ..XXP.( J Y K Y S.*.} i $ * 1 , , , , , , , , , , , , , , , , , , , , , ",
", , , , , , , , , , , , , , , , , , , , 1 , & , , 1 @ 8 b %.R.T.( G J P.!.%.M 3 * * & , , , > , 1 , , , , < ; , , , , , , , , , ",
", , , , , , , , , , , , , , , , , , , 1 , , 1 , , , < @ w { %.-.#.) $.!.%.M 7 $ & & , , > 1 1 , < ; , ; , 1 , , , , , , , , ; , ",
", , , , , , , , , > ; > , , , , , , , 1 , , , , , , , * O r { &.-.-.|.=.n w O   & & ; , , > > , , , < , ; , < , , , , , , , > , ",
", , , , , , > , , , , , , , , , , , , , 1 , 1 , , , < <   + c n .. XX.B 6 + . & & - < , , > , , < 1 , , < 1 , ; , , , , , , , , ",
", , , , , , , , , > , , , , , , , , , , & , , 1 , , , , <   O 6 c B M 8 = * & & & & , & & , , , , , , < , < , , , , , , , , , , ",
", , . > , , , , , ; , , , , , , , , , , , 1 , 1 , , , , & & . . = =   ; < & & & & , < , ; & , < ; , , , , , , , , , , , > , , , ",
", , > , , , , , , , , , , , , , , , , , , , , , , , , , & - & & & - > , - , < , & ; & , , < ; , & , , , > ; , , , , , , , , , , ",
", , , , , , , , , , & > , , , , , , , 1 , , , , , 1 , 1 > & & & > & ; > , , < < 1 ; , , , , , , , , , , , , , , , , , , , , , , "
};
