/* XPM */
static char *result[] = {
/* columns rows colors chars-per-pixel */
"32 32 101 2 ",
"   c #020100",
".  c #0A0A06",
"X  c #101209",
"o  c #242204",
"O  c #2C2A08",
"+  c #312C00",
"@  c #312F0B",
"#  c #373305",
"$  c #3A3708",
"%  c #252813",
"&  c #3A3E1E",
"*  c #3D411E",
"=  c #45430F",
"-  c #5E5707",
";  c #504F18",
":  c #4E501F",
">  c #595611",
",  c #5B5915",
"<  c #5B5A1A",
"1  c #665D06",
"2  c #625C0C",
"3  c #615C10",
"4  c #686007",
"5  c #66610E",
"6  c #6B640B",
"7  c #746A04",
"8  c #7C6F00",
"9  c #746C0B",
"0  c #7C7000",
"q  c #7E750B",
"w  c #646217",
"e  c #6F6A12",
"r  c #63621B",
"t  c #686519",
"y  c #68681F",
"u  c #746E11",
"i  c #434722",
"p  c #484C24",
"a  c #4F5221",
"s  c #535623",
"d  c #565925",
"f  c #5A5E25",
"g  c #565B2B",
"h  c #6A6B23",
"j  c #676C2E",
"k  c #6B6D2B",
"l  c #6D712D",
"z  c #71742D",
"x  c #656B32",
"c  c #696E31",
"v  c #6D7335",
"b  c #707634",
"n  c #747934",
"m  c #747B3A",
"M  c #817706",
"N  c #857A06",
"B  c #897C04",
"V  c #897E09",
"C  c #7C8137",
"Z  c #7E843A",
"A  c #8E8105",
"S  c #928403",
"D  c #968802",
"F  c #9B8C01",
"G  c #A39404",
"H  c #AD9D02",
"J  c #B09F01",
"K  c #B6A402",
"L  c #B8A602",
"P  c #BFAC02",
"I  c #82873C",
"U  c #83893F",
"Y  c #888E3F",
"T  c #C2AF03",
"R  c #C7B402",
"E  c #C9B603",
"W  c #CDB903",
"Q  c #D2BE03",
"!  c #D6C202",
"~  c #DAC503",
"^  c #DDC803",
"/  c #E2CC03",
"(  c #E6D003",
")  c #EBD403",
"_  c #EFD903",
"`  c #F3DC03",
"'  c #F7E003",
"]  c #F9E203",
"[  c #868D42",
"{  c #888F42",
"}  c #8C9343",
"|  c #909745",
" . c #949C46",
".. c #979F48",
"X. c #9CA44A",
"o. c #A0A74C",
"O. c #A7AF4F",
"+. c #A7B04F",
"@. c #A8B04F",
"#. c #A7AF50",
"$. c #A9B150",
/* pixels */
"#.#.#.#.#.#.#.#.+.+.+.#.#.#.#.#.#.#.#.#.#.#.#.#.#.#.#.#.#.#.#.#.",
"#.#.#.#.#.#.#.#.+.+.$.#.$.$.$.$.$.$.$.$.#.#.#.#.#.#.#.#.#.#.#.#.",
"O.@.O.@.O.O.O.#.+.+.+.+.$.$.$.$.$.$.$.$.#.#.#.#.#.O.O.O.#.O.O.O.",
"O.O.O.O.@.O.@.O.@.@.X.X.| } } { } [ } ..X.O.#.#.#.#.O.#.O.O.@.O.",
"O.#.#.#.O.$.O.@.@.+.| b g i & & & & p x [ ..#.$.O.@.O.#.@.O.@.O.",
"O.#.#.#.O.O.O.O.o.X.C d * O o o o o @ ; c { X.#.O.O.O.@.O.O.@.O.",
"@.O.#.#.@.@.$.o.} n k 6 7 7 0 0 8 8 9 2 t b [ ..O.O.O.O.O.O.O.#.",
"O.O.O.+.+.$.$.X.C d , q G R ! ! ! ! T N 2 3 c { O.@.@.@.O.@.O.O.",
"@.O.@.O.O.+.$.X.m a > M H ! ( / ( ) W B - < c { O.O.#.O.O.@.O.O.",
"O.#.O.O.O.O.+.X.n s 3 B H W ~ ! ! ^ E S 4 < k U o.O.#.#.O.O.#.@.",
"O.#.@.O.@.O. .Z k w q G P W ~ ~ ^ / ~ L D u h b Y ..O.#.O.O.O.O.",
"@.O.#.@.@.X.m f w q G R ! ~ ^ / ( ) ) ( E S 2 r z { o.#.@.O.@.O.",
"O.O.#.@.@.X.v : - B J W ^ ^ ^ ( ) ` ` ` ^ F 1 , j U o.@.@.O.#.O.",
"O.@.#.@.@.X.v : 3 B H W ~ ^ / ( ) ` ` ' ~ F 1 , j U o.@.@.@.@.O.",
"O.O.#.@.@.X.v : 3 B H W ~ ^ / ( ) ` ` ` ~ F 1 , j U o.@.@.#.O.O.",
"O.@.O.@.@.X.v : 3 B H W ~ ^ / ( ) ` ` ` ~ F 1 , j U o.@.@.O.O.@.",
"O.O.O.$.@.X.v a 3 N H W ~ ^ ^ ( ) ` ` ` ~ F 1 < j U X.$.$.#.#.#.",
"O.O.O.+.$.X.v a 3 V H W ~ ^ / ( ) ` ` ` ! F 1 , j U o.$.#.#.#.#.",
"O.@.O.$.$.X.v a 3 B H W ~ ^ / ( ) ` ` ` ~ F 1 < j I X.$.@.#.#.#.",
"#.O.O.+.@.X.v : , B H W ^ ^ / ( ) ` ` ` ! F 1 , j [ o.$.@.O.O.#.",
"O.O.O.$.@.X.v s 3 B H W ~ ^ / ( ) ` ` ` ^ F 1 < k U o.@.@.O.O.@.",
"O.@.O.$.@.X.v a 3 B H W ~ ^ / ( ) ` ` ` ^ F 1 , j U o.@.@.O.O.O.",
"O.O.O.$.@.X.v : , B H W ~ ^ / ( ) _ ` ' ~ F 1 < j U o.@.@.O.O.@.",
"O.O.O.#.@.X.v : 2 B K W ~ ^ / ( ) ` ` ` ^ F 1 , j U o.@.@.O.#.O.",
"@.O.#.$.@.X.n s w q G R ! ^ / ( ) _ ` _ Q D 4 < k [ o.$.$.O.O.O.",
"O.#.O.@.$.o.} n h e A H W ^ ) _ ` ` ( R G q t l I  .o.O.O.+.O.$.",
"O.O.O.#.$.+.o. .b < 5 A L ^ ` ' ' ` ! F 9 w k I X.#.#.O.#.#.O.O.",
"@.O.@.O.O.$.$.X.n a , M K ^ ] ] ' ' ! A - < c [ o.$.O.O.#.#.O.O.",
"O.O.#.O.#.@.$.o.m s , q H ! ( ( ) ( W A 2 < v [ o.@.@.O.#.#.O.@.",
"@.@.O.O.O.@.$.o.Y v y 9 M S F F F F A 9 t h C  .O.@.O.@.#.#.O.O.",
"O.O.O.@.O.O.@.O.o.| n f = # + + + + $ ; k I X.o.O.O.O.O.O.O.@.O.",
"@.O.O.O.@.+.+.@.$.o.U a % .         X * v | o.@.+.O.@.O.#.@.O.O."
};
