/* XPM */
static char *result[] = {
/* columns rows colors chars-per-pixel */
"64 64 235 2 ",
"   c #261E1E",
".  c #2C1D1C",
"X  c #2F1A17",
"o  c #351616",
"O  c #3C1614",
"+  c #351B15",
"@  c #3B1915",
"#  c #331C1B",
"$  c #3B1A1A",
"%  c #3B1718",
"&  c #25231E",
"*  c #2A201D",
"=  c #261F21",
"-  c #2B1F21",
";  c #311D20",
":  c #1F2424",
">  c #232323",
",  c #292121",
"<  c #272228",
"1  c #59170D",
"2  c #441514",
"3  c #4B1513",
"4  c #431913",
"5  c #4C1B15",
"6  c #461A19",
"7  c #491B19",
"8  c #541413",
"9  c #5C1515",
"0  c #551A14",
"q  c #5D1914",
"w  c #581719",
"e  c #53110E",
"r  c #69150E",
"t  c #75140C",
"y  c #6C1A14",
"u  c #631D1B",
"i  c #6D1E1A",
"p  c #651914",
"a  c #711717",
"s  c #7A1C16",
"d  c #731C1A",
"f  c #7B1D1B",
"g  c #761A15",
"h  c #5A2319",
"j  c #682218",
"k  c #73211A",
"l  c #7C221B",
"z  c #79281A",
"x  c #5A2620",
"c  c #6D2B24",
"v  c #7D2621",
"b  c #831A15",
"n  c #8C1E1A",
"m  c #871C17",
"M  c #941D1B",
"N  c #991D18",
"B  c #BB160C",
"V  c #BA190C",
"C  c #B41A0C",
"Z  c #AD1D15",
"A  c #A21B1B",
"S  c #AB1D1C",
"D  c #A71E16",
"F  c #B61C14",
"G  c #BC1B13",
"H  c #B21E19",
"J  c #BB1B15",
"K  c #AE1D0B",
"L  c #85221B",
"P  c #8D241B",
"I  c #84271A",
"U  c #98251C",
"Y  c #94331D",
"T  c #A2231C",
"R  c #AB221B",
"E  c #A92B1F",
"W  c #BC2315",
"Q  c #B5221B",
"!  c #BB231A",
"~  c #B52717",
"^  c #B1351E",
"/  c #AB1C20",
"(  c #882821",
")  c #942622",
"_  c #982C26",
"`  c #993425",
"'  c #A52B24",
"]  c #A82921",
"[  c #B32D23",
"{  c #BB2D23",
"}  c #B52C28",
"|  c #A83427",
" . c #BC3324",
".. c #B73727",
"X. c #B03A34",
"o. c #D70F0D",
"O. c #DD0E0A",
"+. c #D70B07",
"@. c #C5150C",
"#. c #CD150C",
"$. c #C3190D",
"%. c #CC1A0D",
"&. c #CD1807",
"*. c #D51206",
"=. c #DB1206",
"-. c #D4130B",
";. c #DB130B",
":. c #D3190C",
">. c #DD1A0A",
",. c #D71907",
"<. c #C51611",
"1. c #C41A13",
"2. c #CB1B13",
"3. c #C31D19",
"4. c #CB1B19",
"5. c #CC1613",
"6. c #D41614",
"7. c #DC1412",
"8. c #D21B13",
"9. c #DD1C1A",
"0. c #DA1717",
"q. c #E60E07",
"w. c #E30D0A",
"e. c #EA0D0A",
"r. c #EC0D07",
"t. c #F30F0D",
"y. c #FA0E0E",
"u. c #E21107",
"i. c #E3110A",
"p. c #ED120C",
"a. c #E41B0B",
"s. c #EB1D0D",
"d. c #EB1007",
"f. c #F4130E",
"g. c #F9120E",
"h. c #F3190E",
"j. c #FA1D0F",
"k. c #E40F10",
"l. c #E31512",
"z. c #EC1213",
"x. c #ED1A10",
"c. c #E21E1D",
"v. c #EB1B1A",
"b. c #E61A15",
"n. c #F51411",
"m. c #FA1311",
"M. c #F41911",
"N. c #FD1B15",
"B. c #F31C1A",
"V. c #FD1C19",
"C. c #CB240E",
"Z. c #C0220E",
"A. c #DC250E",
"S. c #D5250F",
"D. c #C4231A",
"F. c #CA221D",
"G. c #C22B1E",
"H. c #C72913",
"J. c #D42411",
"K. c #DC2612",
"L. c #DE2811",
"P. c #D6241A",
"I. c #CA331C",
"U. c #CC351B",
"Y. c #E5220D",
"T. c #E9210C",
"R. c #E32311",
"E. c #EC221D",
"W. c #E5231B",
"Q. c #FA211E",
"!. c #F62119",
"~. c #C32B22",
"^. c #CA2D29",
"/. c #DD2520",
"(. c #DA2C25",
"). c #C63825",
"_. c #DE362B",
"`. c #D73129",
"'. c #DA3931",
"]. c #CF3B33",
"[. c #EB2522",
"{. c #E52B25",
"}. c #F52220",
"|. c #F32D2A",
" X c #F92925",
".X c #E7372C",
"XX c #F6342C",
"oX c #F9332F",
"OX c #EA3C35",
"+X c #FC3632",
"@X c #FC3E38",
"#X c #F73B35",
"$X c #B24230",
"%X c #C74029",
"&X c #C44336",
"*X c #DF4137",
"=X c #DA443B",
"-X c #D0412A",
";X c #E34037",
":X c #E24138",
">X c #EA4139",
",X c #E94237",
"<X c #FC433C",
"1X c #F5463C",
"2X c #A75147",
"3X c #DB4C43",
"4X c #DE5348",
"5X c #CE554D",
"6X c #E84C41",
"7X c #F54D42",
"8X c #FA4943",
"9X c #E35449",
"0X c #EA5549",
"qX c #F85449",
"wX c #EC5A52",
"eX c #ED6559",
"rX c #FE6C5C",
"tX c #F86358",
"yX c #FE6D62",
"uX c #F26C64",
"iX c #FF7363",
"pX c #FF7369",
"aX c #F57267",
"sX c #F97E73",
"dX c #EA6E61",
"fX c #DA8779",
"gX c #F68375",
"hX c #FC8879",
"jX c #FF8E84",
"kX c #FE9384",
"lX c #FE9589",
"zX c #F79385",
"xX c #F29388",
"cX c #FFBCAA",
"vX c #FFC4B5",
/* pixels */
"> > > > > > > > > > > > > & > > > & , < > > = > - - . . . * # - . , - - - - - - ; ; - ; . = & > > > > > > > > > > > > > > > > > ",
"> > > > > > > > > > > > > > & & & & , < < < - . # $ % % @ 4 6 2 4 % $ $ $ ; ; $ ; % % O O o . . & > : > > > > : : > > > > > > > ",
"> > > > : > > > > > > > > > > & & & * * # O 2 8 u d f l s s ( m l f f d a a a f a b L n m f q 5 @ .   < > : : > > > > > > > > > ",
"> > > > > > > > > > > > , > > > > & X O e g m T S H W Q Q Q ! ! D.3.4.3.4.3.1.<.3.4.4.5.5.D.[ U p 4 # - > > : > > > > > : > > > ",
"> > > > > > > > > > > > > > > , * # 5 r m R W J J 4.F.].3X9X9X6X*X(.8.;.;.a.;.7.;.o.O.w.;.0.).=X$Xc 6 , , > > > > > > > > > > > ",
"> > > > > > > > > > > > > > > . + 4 z T F 1.$.5.~.`.wXsXjXlXkXjXhXeXOX[.b.l.i.l.k.O.+.O.l.`.eXlXxX2Xc 6 ; , > > > > > > > > > > ",
"> > > > > > > > > > > > > & & + 3 s T W $.&.2.(..X].uXjXlXxXxXlXlXsXwX7X#X[.l.a.i.O.+.;.[.6XhXvXvXfX2Xc 6 - = < < > > > > > > > ",
"> > > > > > > > > > > , & & * 4 g R V @.&.%._.,XOX3X9XdXsXgXgXgXaXeX9XaXpX8Xc.l.w.O.+.b.|.0XgXvXcXxX2X| 9 $ - < : > > > > > > > ",
"> > > > > > > > > > > & , * @ q U G $.&.J._.;X;X'.3X].3X3X4X9X9X6X6X6XyXpXqXoXc.k.k.o.c.#X1XeXhXjXsXuX&Xv 6 X < < : > > > > > > ",
"> > > > > > > > > > > > * $ 3 s Q $.&.J.`.'.*X:XOXOX6XOXOX'.OXOX7X7X7XqX8X<X@X|.l.k.k.|.8X7X0XrXpXpXyX3X) 8 o - > > > > > > > > ",
"> > > > > > > > > > > >   o q U ! %.&.P..X:X=X:X6XOXOX>XOXOXOX#X@X8X8X@X@X<X<X@X[.k.c.oX<X<X7XyXyXpXyX9XX.i 2 - > > > > > > > > ",
"> > > > > > > > > > > > * 4 a U J %.#.P..X>X,X>XOXOX.X(.9.9.c.c.[.[.[.|.oX@X@X<X|.l.}.+X8X@X8XtXyXyXyX0XX.n 8 o < > > > > > > > ",
"> > > > > > > > > > > > X 4 b R 1.#.#.5.4././.c./.9.0.k.O.k.k.k.z.B.B.B.B.B. X@X+Xv.B.+X@XoX|.+X1XqXrXwX].] y % < > > > > > : > ",
"> > > > > > > > > > > , X 8 M G <.6.-.#.6.o.o.o.o.O.O.O.w.w.e.z.z.B.B.n.n.n.B.}.}.B.B.B.}.B.B.}.E.E.1X7X_.H g O > > > > > > > > ",
"> > > > > > > > > > > & + q U V <.#.6.o.o.o.O.k.w.w.k.w.w.w.k.t.n.B.n.n.z.n.n.m.m.m.m.m.n.m.V.V.Q.!. XXX{.F.M 4 > > > > > > > > ",
"> > > > > > > > > > > * @ y D $.#.5.o.o.O.O.w.O.O.O.w.w.w.e.e.t.n.n.n.n.m.n.m.m.y.y.m.m.m.m.V.V.Q.Q.!.!.E.9.U 5 * , > > > > > > ",
"> > > > > > > > > > > . 7 f Z <.#.o.#.+.o.O.O.O.w.+.q.w.q.w.e.t.n.m.m.m.m.m.m.m.y.y.n.n.n.V.V.V.Q.N.Q.N.B.9./ 8 . = > > > > > > ",
"> > > > > > > > > > = # 7 f H @.#.o.o.o.o.O.O.=.w.+.w.w.+.r.e.t.m.m.m.m.m.m.m.y.m.n.y.N.V.V.V.N.N.N.N.Q.B.c./ 8 o - > > > > > > ",
"> > > > > > > > > > = # 7 f H <.#.*.o.o.O.O.O.O.q.w.w.w.w.r.r.t.m.m.m.m.y.m.m.m.y.m.y.n.V.N.V.V.V.N.N.V.B.c./ e . - = : > > > > ",
"> > > > > > > : > < = . 6 f H @.#.o.o.o.;.O.O.=.+.w.+.w.w.r.r.t.m.n.m.m.m.y.y.m.m.y.y.N.N.V.N.V.V.V.N.N.B.k./ e ; - = = > > > > ",
"> > > > > > > > > > < . 6 f H @.#.-.7.o.O.O.;.O.+.w.w.w.w.w.e.t.n.n.m.m.m.y.m.y.m.m.m.V.N.N.N.N.N.N.N.n.z.0./ w ; - > > > > > > ",
": > > > > > > > > > > X 6 f H @.#.-.o.o.-.O.=.O.+.w.+.w.w.e.e.t.y.n.y.m.m.m.m.y.y.m.m.V.V.N.N.N.V.m.n.n.z.0./ w # - > > > > > > ",
"> > > > > > > > > > = X 6 f Z @.-.-.*.-.o.*.O.+.O.+.O.O.w.e.e.t.n.n.m.m.m.m.m.m.m.m.V.V.N.V.N.N.m.m.m.n.z.0./ w ; - > > > > > > ",
"> > > > > > > > > < = X 6 d S @.#.-.*.*.O.O.;.;.O.O.w.w.w.w.e.t.y.y.n.y.y.y.m.m.m.V.V.m.V.V.m.g.m.m.n.t.k.0.A 8 ; - > > > > > : ",
"> > > > > > > > > > < & 4 d S @.#.o.*.*.*.;.O.O.O.O.w.O.O.w.e.e.t.z.y.n.y.g.g.g.N.N.N.N.N.m.g.g.y.g.n.t.k.6.A 3 # = > > > > > > ",
"> > > > > > : > > > , . @ i T B #.#.*.*.+.;.;.o.;.o.O.w.w.k.e.e.z.y.n.y.y.g.g.N.N.N.N.N.N.N.g.y.f.n.g.z.k.5.N e # > > > > > > > ",
"> > > > > > > > > > < & $ i ] B #.#.o.*.*.;.-.O.O.O.O.O.O.w.w.e.e.t.y.n.g.g.g.j.N.N.N.N.m.g.y.g.y.n.t.e.O.4.N e ; , > > > > > > ",
"> > > > > > > > > > > & # w A F <.#.#.*.+.-.;.;.O.O.O.O.O.w.e.e.e.t.t.n.f.g.N.N.N.N.N.m.g.g.g.g.y.t.n.e.;.J b 4 , < > > > > > > ",
"> > > > > > > > > > & > + 0 N J <.#.o.o.o.o.o.O.o.w.O.O.w.w.e.e.r.f.f.f.h.m.N.N.N.N.m.h.f.g.y.m.t.t.z.w.6.G t 2 , , > > > > > > ",
"> > > : > > > > > > > >   8 n F J #.#.#.-.o.;.o.o.O.o.k.O.w.w.e.q.d.p.f.j.j.Q.N.N.M.g.g.g.g.f.g.t.t.n.i.8.R t O , > > > > > > > ",
"> > > > > > > > > > > >   3 b R J @.o.o.*.*.+.;.O.O.O.O.O.w.k.w.q.e.p.h.j.!.j.j.m.g.g.g.f.y.f.y.y.t.e.i.4.A r + , > > > > > > > ",
"> > > > > > > > > > > < & 4 y U F <.#.o.o.o.-.-.;.o.O.O.k.w.w.e.r.q.f.j.j.j.j.g.M.g.g.f.g.f.g.f.n.t.e.w.J n 3 $ < > > > > > > > ",
"> > > > : > > > > > > > * + p P Z @.@.+.*.o.-.o.*.O.O.o.o.w.w.e.e.e.f.N.!.j.j.m.f.f.f.f.f.f.f.f.f.p.e.i.H a 2 ; - , > > > > > > ",
"> > > > > > > > > > > & * + 5 I R G @.+.-.-.-.-.-.o.;.;.O.w.e.e.p.M.h.h.j.j.j.h.f.f.f.f.f.h.f.M.e.e.e.0.A p % ; , < > > > > > > ",
"> > > > > > > > > > > > > # 4 k T F @.@.-.-.*.-.-.o.o.O.;.w.i.p.n.M.f.f.h.j.j.h.z.M.f.M.M.f.f.f.e.a.l.4.M 8 # . < > > > > > > < ",
"> > > > > > > > > > > > * * + 1 U F @.@.#.#.#.*.*.-.-.-.;.i.p.p.f.M.s.f.d.p.p.h.n.M.M.M.z.f.d.i.w.i.7.J b 2 . = < > > > > > > > ",
"> > > > > > > > > > > > & & * 1 n Q B @.-.&.-.#.-.-.-.7.7.a.M.z.h.h.M.h.d.r.p.p.p.p.M.p.d.w.r.q.e.i.8.Z r O   > : > > > > > > > ",
"> > > > > > > > > > : & & & * 4 f R J $.@.&.&.*.*.-.-.;.a.a.M.h.s.h.M.p.d.u.u.d.q.r.q.q.q.q.q.q.i.;.3.N 1 o   > : : > > > > > > ",
"> > > > > > > > > > > & & & * @ q ) R J $.@.&.,.*.>.>.>.a.a.s.p.M.x.p.d.q.e.r.i.d.i.d.q.q.q.q.q.u.8.S a 2 . > > & > > > > > > > ",
"> > : > > > > > > > > : & & & * 3 v ' W $.%.J.,.>.a.a.Y.Y.s.s.s.x.p.i.i.w.i.w.i.w.i.i.i.q.q.u.u.=.2.P w O . > > > : > > > > > > ",
"> > > > > > > > > > > : > : & * O j ` U.C.C.S.A.L.Y.Y.Y.Y.s.s.s.x.a.i.w.w.i.w.i.w.u.i.u.u.u.u.i.6.J s 2 o > & : : : > > > > > > ",
"> > > > > > > > > > : : : : : < X 6 P  .H.C.J.P.R.R.R.s.T.T.s.s.a.i.i.=.;.i.i.;.i.i.i.u.u.u.i.:.4.S 9 o . & & : : & > > > > > > ",
"> > > > > > > > > > > : : : : : - o y `  .H.C.A.K.Y.Y.Y.T.T.T.a.i.=.O.i.i.i.i.;.;.i.=.i.=.i.>.8.[ b 2 X > > > > > > > > > > > : ",
"> > > > > : > > > > > > < : : < < # 0 I ..).C.S.K.Y.Y.Y.T.T.T.a.=.i.=.=.=.;.;.;.;.;.>.;.;.;.7.F.M 9 % - = & & < > > > > > > > > ",
"> > > > > > > > > > > > > > : > & * @ j ` %XH.S.S.L.Y.Y.T.T.a.,.,.=.=.=.=.;.;.;.>.;.;.;.:.;.:.! a 6 X = > > > - < > > > > > > > ",
"> > > > > > > > > > > > > > > : & * * 4 I $XU.C.S.L.L.Y.Y.A.,.,.,.>.:.,.;.;.>.;.=.>.>.7.:.8.D.U w # = : < - = > > > > > > > > > ",
"> : > > > > > > > > > > > > : > & & & * j Y %XU.C.S.A.A.L.S.&.&.,.:.:.,.:.;.,.>.7.;.8.;.6.D.] y @ = = > > > > > > > > > > > > > ",
"> > > > > > > > > > > > > > > : > : & + 4 z $X-XC.C.S.S.A.C.&.&.&.%.-.-.:.:.:.;.:.>.;.:.8.{ L 8 # > > > > > > > > > > > > > > > ",
"> > > > > > > : > > > > > : > : > > > & + 1 Y %XU.H.C.C.C.&.&.%.%.#.&.%.:.:.:.:.:.:.:.5.! U u % . > > > > > > > > > > > > > > > ",
"> > > > > > > > > > > > > > > > > > > & X 4 j $X%XH.H.C.$.$.Z.&.%.%.2.%.#.2.%.%.2.@.1.~.[ f % - , < > > > > > > > > > > > : > > ",
"> > > > > > > > > > > > > > > > > > > > & X 5 ( $X%XU.Z.$.B B B 1.$.1.5.5.$.$.@.@.$.G.[ ( w ; < > > > > > > > : > > > > > > > > ",
"> > > > > > > > > > > > > > > > > > > > > * @ p | %XU.V V B B V V $.$.$.$.@.@.$.$.H.[ _ j $ - > > > > > > > > > > > > > > > > > ",
"> > : > > > > > > > : > > > > > > > > > > & X 4 z $X%XW K V V V V B B V B $.B G D.{ ] k 4 . = > > > > > > > > > > > > > > > > > ",
"> > > > > > > > > > > > > > > > > > > > & & * + 5 I $X^ K K V V V C V V V V 1.3.^.} P 0 #   > : > > > > > > > > > > > > > > > > ",
"> > > > > > > > > > > > > > > > > > > > > & & & + j Y ^ ~ C C V F V V V V G J ^.} ) p 4   & = : > > > > > > > > > > > : > > > > ",
"> > > > > > > > > > > > > > > > > > > > > > & & * 4 j Y ^ W C V V V 1.V B J ~.} ' d 4 o     : > > > > > > > > > > > > > > > > > ",
"> > > > > > > > > > > > > > > > > > > > > > > > * # 4 k ' [ ~ F C V G B J ~.} ' f 8 # . = > > > > > > > > > : > > > > > > > : > ",
": > > > > > : > > > > > > > > > > > > > > > > : > * # 5 z _  .! F C C F { ~.' ( 0 o - = , > & > > > > > > > > > > > > > > > > > ",
"> > > > > > > > > > > > : > > > > > > > > > > > > & , + 0 v |  .! H F {  .[ P w $ . * > > > > & > > > > > > > > > > > > > > > > ",
"> > > > > > > > > > > : > > > > > > > > > : < > > > > & + h I E  .{ { ).[ U p 6 , , , > > > > > > > > > > > > > > > > > > > > > ",
"> > > > > > > > > > > > > > > > > > > > > > > > > > > > . @ q I E .. .E P j 4 + < < > < : < : > > > > > > > > > > > > : > > > > ",
"> > > > > > > > > > > > > > > > > > > > > > > > > > > > > . 6 0 z U Y I 1 4 # & > > > > : : > > > > : > > > > > > > > > > > > > ",
": > > > > > > > > > < : > > > > > > > > > > > > > > > > >   & $ 6 h x 5 @ . > > > > > > > > > > > > > > > > > > > > > > > > > > ",
"< > > > > > : > > > : > > > > > > > > > > > > > > > > > > :   < . . . * * & & > > > > > > > > > > > > > > > > > > > > > > > > > "
};
