/* XPM */
static char *result[] = {
/* columns rows colors chars-per-pixel */
"32 32 173 2 ",
"   c #161300",
".  c #1E1C04",
"X  c #1D1D0B",
"o  c #2E2901",
"O  c #29280A",
"+  c #302B01",
"@  c #332F01",
"#  c #342F01",
"$  c #353001",
"%  c #363101",
"&  c #393301",
"*  c #3A3401",
"=  c #3B3501",
"-  c #3B3601",
";  c #3C3601",
":  c #34320B",
">  c #282A14",
",  c #292B14",
"<  c #2A2B15",
"1  c #2A2C15",
"2  c #2A2D15",
"3  c #2B2D16",
"4  c #2B2E16",
"5  c #2C2E14",
"6  c #2D2F14",
"7  c #2E3014",
"8  c #2F3014",
"9  c #323415",
"0  c #333415",
"q  c #313318",
"w  c #323418",
"e  c #3B3E1D",
"r  c #3C3F1D",
"t  c #443D00",
"y  c #453F04",
"u  c #645A00",
"i  c #605805",
"p  c #4B4E24",
"a  c #4C4F24",
"s  c #5D612C",
"d  c #5D612D",
"f  c #5E632C",
"g  c #5F632C",
"h  c #61652D",
"j  c #6D7437",
"k  c #6F7436",
"l  c #6F7536",
"z  c #6E7437",
"x  c #707637",
"c  c #717737",
"v  c #777B3B",
"b  c #777C3B",
"n  c #777B3C",
"m  c #777C3C",
"M  c #777D3C",
"N  c #777E3C",
"B  c #787D3B",
"V  c #797F3B",
"C  c #797D3C",
"Z  c #787E3C",
"A  c #797F3C",
"S  c #837601",
"D  c #857801",
"F  c #7C813D",
"G  c #7C823D",
"H  c #938401",
"J  c #938501",
"K  c #948501",
"L  c #958601",
"P  c #978701",
"I  c #9A8B01",
"U  c #A19201",
"Y  c #A49401",
"T  c #A89801",
"R  c #A99901",
"E  c #AA9901",
"W  c #AA9A01",
"Q  c #BAA802",
"!  c #BBAA03",
"~  c #80853E",
"^  c #81873E",
"/  c #81873F",
"(  c #D0BB03",
")  c #D0BC03",
"_  c #D1BC03",
"`  c #D2BE03",
"'  c #D5C003",
"]  c #DAC503",
"[  c #E4CF03",
"{  c #E7D103",
"}  c #EDD703",
"|  c #EFD803",
" . c #EFD903",
".. c #868B41",
"X. c #878D41",
"o. c #939847",
"O. c #939A47",
"+. c #939A48",
"@. c #939B48",
"#. c #989F49",
"$. c #999F4A",
"%. c #99A04A",
"&. c #9AA14A",
"*. c #A1A74E",
"=. c #A2A94F",
"-. c #A2AB4F",
";. c #A3AB4F",
":. c #A3AC4F",
">. c #A2AB50",
",. c #A3AB50",
"<. c #A3AC50",
"1. c #A4AC50",
"2. c #A5AC50",
"3. c #A4AD50",
"4. c #A5AD50",
"5. c #A6AC50",
"6. c #A7AC50",
"7. c #A6AD50",
"8. c #A7AC51",
"9. c #A6AD51",
"0. c #A7AD51",
"q. c #A6AE50",
"w. c #A7AF50",
"e. c #A6AE51",
"r. c #A7AE51",
"t. c #A6AF51",
"y. c #A7AF51",
"u. c #A8AB51",
"i. c #A8AC51",
"p. c #A9AC51",
"a. c #A8AD51",
"s. c #A9AD51",
"d. c #AAAD51",
"f. c #A9AE51",
"g. c #A9AF51",
"h. c #AAAE51",
"j. c #AAAF51",
"k. c #A9AC52",
"l. c #A8AD52",
"z. c #A9AD52",
"x. c #A8AE52",
"c. c #A9AE52",
"v. c #AAAE52",
"b. c #ABAE52",
"n. c #ABAF53",
"m. c #ACAF53",
"M. c #A8B051",
"N. c #AAB051",
"B. c #ABB051",
"V. c #A8B052",
"C. c #A9B152",
"Z. c #AAB052",
"A. c #A9B252",
"S. c #A9B253",
"D. c #AAB252",
"F. c #AAB253",
"G. c #ACB152",
"H. c #ACB153",
"J. c #ADB253",
"K. c #ADB254",
"L. c #AFB157",
"P. c #B0B157",
"I. c #B0B258",
"U. c #B0B358",
"Y. c #BAB765",
"T. c #BBB765",
"R. c #BBB866",
"E. c #CAC179",
"W. c #CAC07A",
"Q. c #CAC17A",
"!. c #D3C684",
"~. c #D3C685",
"^. c #D3C686",
/* pixels */
"!.Q.R.U.J.G.Z.v.k.k.0.0.q.q.t.t.y.y.y.y.y.y.y.y.y.y.y.y.y.y.w.w.",
"!.Q.R.U.J.G.Z.v.k.k.0.r.M.C.A.S.F.F.F.C.M.y.y.y.y.y.y.y.y.y.w.w.",
"!.Q.R.U.J.G.Z.v.k.k.0.9.2.:.<.1.3.3.4.4.y.y.y.y.y.y.y.y.y.y.w.w.",
"!.Q.R.U.J.G.Z.v.k.z.a.$.~ x j j z z c ^ &.y.M.y.y.y.y.y.y.y.w.w.",
"!.Q.R.U.J.G.Z.v.z.n.c...p 5 7 9 0 8 6 a X.V.C.y.y.y.y.y.y.y.w.w.",
"!.Q.R.U.J.G.Z.v.k.n.x.F q . y i i y . w G V.D.y.y.y.y.y.y.y.w.w.",
"!.Q.R.U.J.G.Z.v.k.n.c.C 3 + D ! ! D + 4 A V.D.y.y.y.y.y.y.y.w.w.",
"!.E.R.I.K.G.N.v.z.m.z.m < & U [ [ U & 1 M V.D.y.y.y.y.y.y.y.w.w.",
"~.E.T.I.J.G.j.d.k.n.l.n < = T } } T = 1 M V.D.y.y.y.y.y.y.y.w.w.",
"~.Q.Y.P.H.B.h.s.p.n.a.v < ; W  . .E ; 1 M V.D.y.y.y.y.y.y.y.w.w.",
"^.W.Y.L.G.B.h.s.i.b.a.b < - R | | R - 1 M V.D.y.y.y.y.y.y.y.w.w.",
"^.W.Y.L.H.B.f.s.u.v.a.b 1 - R | | R - 1 M V.D.y.y.y.y.y.y.y.w.w.",
"^.W.Y.L.H.B.g.s.u.v.a.b 1 - R | | R - 1 M V.D.y.y.y.y.y.y.y.w.w.",
"^.W.Y.L.H.B.g.s.u.v.a.b 1 - R | | R - 1 M V.D.y.y.y.y.y.y.y.w.w.",
"^.W.Y.L.H.B.g.s.u.v.a.b < ; E  . .E ; 1 M V.D.y.y.y.y.y.y.y.w.w.",
"^.W.Y.L.H.B.g.s.u.v.a.b < ; E | | E ; 1 M V.D.y.y.y.y.y.y.y.w.w.",
"^.W.Y.L.H.B.g.s.u.v.a.b 1 * Y { { Y * 1 N V.D.y.y.y.y.y.y.y.w.w.",
"^.W.Y.L.H.B.g.s.u.v.a.b < % I ] ] I % 1 Z V.D.y.y.y.y.y.y.y.w.w.",
"^.W.Y.L.H.B.g.s.u.v.a.b < # L ` ` L # 2 Z V.D.y.y.y.y.y.y.y.w.w.",
"^.W.Y.L.H.B.g.s.u.v.a.b 1 # J ) ) J # 2 Z V.D.y.y.y.y.y.y.y.w.w.",
"^.W.Y.L.H.B.g.s.u.v.a.b 1 @ H ( ( H # 2 Z V.D.y.y.y.y.y.y.y.w.w.",
"^.W.Y.L.H.B.g.s.u.v.a.b 1 @ H ( ( H # 2 Z V.D.y.y.y.y.y.y.y.w.w.",
"^.W.Y.L.H.B.g.s.u.v.a.b 1 @ H ( ( H # 2 Z V.D.y.y.y.y.y.y.y.w.w.",
"^.W.Y.L.H.B.g.s.u.v.a.b 1 # K _ _ K # 2 Z V.D.y.y.y.y.y.y.y.w.w.",
"^.W.Y.L.H.B.g.s.u.v.a.b < $ P ' ' P $ 1 Z V.D.y.y.y.y.y.y.y.w.w.",
"^.W.Y.L.H.B.g.s.u.v.a.b , o S Q Q S o 1 Z V.D.y.y.y.y.y.y.y.w.w.",
"^.W.Y.L.H.B.g.s.u.v.a.B >   t u u t   > V V.D.y.y.y.y.y.y.y.w.w.",
"^.W.Y.L.H.B.g.s.i.v.0.~ e X O : : O X r / V.D.y.y.y.y.y.y.y.w.w.",
"^.W.Y.L.H.B.g.s.u.s.8.o.k s g h h f d l +.y.V.y.y.y.y.y.y.y.w.w.",
"^.W.Y.L.H.B.g.s.u.u.6.*.#.O.O.@.@.+.+.%.=.y.y.y.y.y.y.y.y.y.w.w.",
"^.W.Y.L.H.B.g.s.u.u.5.2.;.;.-.>.,.,.,.1.e.y.y.y.y.y.y.y.y.y.w.w.",
"^.W.Y.L.H.B.g.s.u.u.5.7.q.q.t.y.y.y.y.y.y.y.y.y.y.y.y.y.y.y.w.w."
};
