/* XPM */
static char *_d29926f4f2f4801d9c36563e989ec09GnpUnO4jk9CFS7Tr[] = {
/* columns rows colors chars-per-pixel */
"64 64 235 2 ",
"   c #261E1E",
".  c #2C1D1C",
"X  c #2F1A17",
"o  c #351616",
"O  c #3C1614",
"+  c #351B15",
"@  c #3B1915",
"#  c #331C1B",
"$  c #3B1A1A",
"%  c #3B1718",
"&  c #25231E",
"*  c #2A201D",
"=  c #261F21",
"-  c #2B1F21",
";  c #311D20",
":  c #1F2424",
">  c #232323",
",  c #292121",
"<  c #272228",
"1  c #59170D",
"2  c #441514",
"3  c #4B1513",
"4  c #431913",
"5  c #4C1B15",
"6  c #461A19",
"7  c #491B19",
"8  c #541413",
"9  c #5C1515",
"0  c #551A14",
"q  c #5D1914",
"w  c #581719",
"e  c #53110E",
"r  c #69150E",
"t  c #75140C",
"y  c #6C1A14",
"u  c #631D1B",
"i  c #6D1E1A",
"p  c #651914",
"a  c #711717",
"s  c #7A1C16",
"d  c #731C1A",
"f  c #7B1D1B",
"g  c #761A15",
"h  c #5A2319",
"j  c #682218",
"k  c #73211A",
"l  c #7C221B",
"z  c #79281A",
"x  c #5A2620",
"c  c #6D2B24",
"v  c #7D2621",
"b  c #831A15",
"n  c #8C1E1A",
"m  c #871C17",
"M  c #941D1B",
"N  c #991D18",
"B  c #BB160C",
"V  c #BA190C",
"C  c #B41A0C",
"Z  c #AD1D15",
"A  c #A21B1B",
"S  c #AB1D1C",
"D  c #A71E16",
"F  c #B61C14",
"G  c #BC1B13",
"H  c #B21E19",
"J  c #BB1B15",
"K  c #AE1D0B",
"L  c #85221B",
"P  c #8D241B",
"I  c #84271A",
"U  c #98251C",
"Y  c #94331D",
"T  c #A2231C",
"R  c #AB221B",
"E  c #A92B1F",
"W  c #BC2315",
"Q  c #B5221B",
"!  c #BB231A",
"~  c #B52717",
"^  c #B1351E",
"/  c #AB1C20",
"(  c #882821",
")  c #942622",
"_  c #982C26",
"`  c #993425",
"'  c #A52B24",
"]  c #A82921",
"[  c #B32D23",
"{  c #BB2D23",
"}  c #B52C28",
"|  c #A83427",
" . c #BC3324",
".. c #B73727",
"X. c #B03A34",
"o. c #D70F0D",
"O. c #DD0E0A",
"+. c #D70B07",
"@. c #C5150C",
"#. c #CD150C",
"$. c #C3190D",
"%. c #CC1A0D",
"&. c #CD1807",
"*. c #D51206",
"=. c #DB1206",
"-. c #D4130B",
";. c #DB130B",
":. c #D3190C",
">. c #DD1A0A",
",. c #D71907",
"<. c #C51611",
"1. c #C41A13",
"2. c #CB1B13",
"3. c #C31D19",
"4. c #CB1B19",
"5. c #CC1613",
"6. c #D41614",
"7. c #DC1412",
"8. c #D21B13",
"9. c #DD1C1A",
"0. c #DA1717",
"q. c #E60E07",
"w. c #E30D0A",
"e. c #EA0D0A",
"r. c #EC0D07",
"t. c #F30F0D",
"y. c #FA0E0E",
"u. c #E21107",
"i. c #E3110A",
"p. c #ED120C",
"a. c #E41B0B",
"s. c #EB1D0D",
"d. c #EB1007",
"f. c #F4130E",
"g. c #F9120E",
"h. c #F3190E",
"j. c #FA1D0F",
"k. c #E40F10",
"l. c #E31512",
"z. c #EC1213",
"x. c #ED1A10",
"c. c #E21E1D",
"v. c #EB1B1A",
"b. c #E61A15",
"n. c #F51411",
"m. c #FA1311",
"M. c #F41911",
"N. c #FD1B15",
"B. c #F31C1A",
"V. c #FD1C19",
"C. c #CB240E",
"Z. c #C0220E",
"A. c #DC250E",
"S. c #D5250F",
"D. c #C4231A",
"F. c #CA221D",
"G. c #C22B1E",
"H. c #C72913",
"J. c #D42411",
"K. c #DC2612",
"L. c #DE2811",
"P. c #D6241A",
"I. c #CA331C",
"U. c #CC351B",
"Y. c #E5220D",
"T. c #E9210C",
"R. c #E32311",
"E. c #EC221D",
"W. c #E5231B",
"Q. c #FA211E",
"!. c #F62119",
"~. c #C32B22",
"^. c #CA2D29",
"/. c #DD2520",
"(. c #DA2C25",
"). c #C63825",
"_. c #DE362B",
"`. c #D73129",
"'. c #DA3931",
"]. c #CF3B33",
"[. c #EB2522",
"{. c #E52B25",
"}. c #F52220",
"|. c #F32D2A",
" X c #F92925",
".X c #E7372C",
"XX c #F6342C",
"oX c #F9332F",
"OX c #EA3C35",
"+X c #FC3632",
"@X c #FC3E38",
"#X c #F73B35",
"$X c #B24230",
"%X c #C74029",
"&X c #C44336",
"*X c #DF4137",
"=X c #DA443B",
"-X c #D0412A",
";X c #E34037",
":X c #E24138",
">X c #EA4139",
",X c #E94237",
"<X c #FC433C",
"1X c #F5463C",
"2X c #A75147",
"3X c #DB4C43",
"4X c #DE5348",
"5X c #CE554D",
"6X c #E84C41",
"7X c #F54D42",
"8X c #FA4943",
"9X c #E35449",
"0X c #EA5549",
"qX c #F85449",
"wX c #EC5A52",
"eX c #ED6559",
"rX c #FE6C5C",
"tX c #F86358",
"yX c #FE6D62",
"uX c #F26C64",
"iX c #FF7363",
"pX c #FF7369",
"aX c #F57267",
"sX c #F97E73",
"dX c #EA6E61",
"fX c #DA8779",
"gX c #F68375",
"hX c #FC8879",
"jX c #FF8E84",
"kX c #FE9384",
"lX c #FE9589",
"zX c #F79385",
"xX c #F29388",
"cX c #FFBCAA",
"vX c #FFC4B5",
/* pixels */
"> > > > > > > > > > > > > > > > > > > > > > > > , - . . . . . . . . - - - , , - - - . . . * > > > > > > > > > > > > > > > > > > ",
"> > > > > > > > > > > > > > > & & & > < < > . . # $ % O O 4 2 2 @ $ $ $ $ $ $ $ % O O O O + X . & > > > > > > > > > > > > > > > ",
"> > > > > > > > > > > > > > > > & & , - # O 2 w u d s l l f L L l l f d a a a d f f m L I l p 5 o X , > > > > > > > > > > > > > ",
"> > > > > > > > > > > > > > > > > , # O e t n T R H J ! ~ Q ! ! ! 3.3.3.3.3.1.1.3.4.4.5.2.D.[ ) p 4 # - > > > > > > > > > > > > ",
"> > > > > > > > > > > > > > > > , + 5 r m R Q J 1.3.F.].3X9X9X6X*X(.8.;.;.a.;.;.;.O.+.O.;.6.^.5XX.c 6 # , > > > > > > > > > > > ",
"> > > > > > > > > > > > > > > * + 3 s T F 1.@.<.F.`.wXsXkXkXkXjXhXeXOXW.b.a.i.l.i.O.+.O.7.(.eXlXxX2Xc 6 # , > > > > > > > > > > ",
"> > > > > > > > > > > > > > & + 3 s T G $.@.2.(.'.=XuXjXlXzXzXlXlXsXwX7X#X[.l.i.i.O.+.;.W.6XhXcXvXfX2Xj 2 - > > > > > > > > > > ",
"> > > > > > > > > > > > , * * 4 g T G @.&.2._.,X:X=X4XdXsXgXgXgXaXeX0XaXpX8Xc.i.i.O.+.b.|.qXhXcXvXxX5X_ 9 # , > > > > > > > > > ",
"> > > > > > > > > > > > , . o q U F $.&.J._.OX:X:X=X=X=X3X4X9X9X6X6X0XyXpXqXXXv.w.w.O.E.#X6XeXkXkXgXeX&Xv 2 . > > > > > > > > > ",
"> > > > > > > > > > > > * # 3 s R $.%.J.(.;X*X:X:X:X:X:X:X;X;X>X1X7X7X7X7X1X@X|.l.k.l.|.<X7X0XrXpXpXyX3X_ 0 o , > > > > > > > > ",
"> > > > > > > > > > > > . O q ) ! %.%.P..X;X:X:X>X>X>X>XOXOXOX#X1X8X<X<X<X<X<X@X[.;.v.+X<X1X7XrXiXiXyX9X| i 2 . > > > > > > > > ",
"> > > > > > > > > > > > * 4 y T J %.#.P..X>X>X>XOX.X{.{.9.0.9.c.[.[.[.|.oX@X<X<X|.l.}.@X<X<X8XtXrXiXyX0X..( 8 # > > > > > > > > ",
"> > > > > > > > > > > > . 3 m R 3.%.%.%.8./././.W.9.7.7.O.w.k.z.v.B.B.B.B.}. X@X+Xv.B.+X@XXX|.XX1XqXrXwX].] a o > > > > > > > > ",
"> > > > > > > > > > > > X 8 M F <.%.-.-.-.-.o.;.O.O.O.w.w.w.e.z.n.n.n.n.n.n.B.Q. XB.B.Q.!.B.B.}.E.{.1X7X_.Q s O , > > > > > > > ",
"> > > > > > > > > > > & + q N G @.%.-.-.;.;.O.w.w.w.w.w.w.w.e.z.B.n.M.M.M.M.n.n.m.m.m.n.n.m.N.V.Q.!. XXX{.F.M 2 & > > > > > > > ",
"> > > > > > > > > > > . $ y D 1.#.#.-.;.O.O.O.w.w.w.w.w.w.w.e.p.M.n.M.M.n.n.m.m.y.y.y.m.m.N.V.V.Q.V.B.!.E.P.N 3 . > > > > > > > ",
"> > > > > > > > > > > . 6 s Z @.#.-.-.o.O.O.O.O.O.O.w.w.w.w.e.f.m.m.m.m.m.m.m.m.m.m.m.n.m.N.V.V.V.V.V.V.B.9.S 8 # > > > > > > > ",
"> > > > > > > > > > > # 7 s H @.#.-.-.o.O.O.O.O.O.O.w.w.w.w.e.f.m.m.m.m.m.m.m.m.y.m.n.m.N.V.V.V.N.N.V.V.B.c.S e # , > > > > > > ",
"> > > > > > > > > > > . 7 s H @.#.-.-.o.O.O.O.O.O.w.w.w.w.e.e.f.m.m.m.m.m.m.m.m.y.m.n.m.V.V.N.V.N.N.N.V.B.c.S 8 # , > > > > > > ",
"> > > > > > > > > > > . 6 s H @.#.-.-.O.O.O.O.O.O.O.O.w.w.e.e.f.m.m.m.m.m.m.m.m.y.m.m.N.N.N.N.V.V.V.N.N.B.0.S 8 # , > > > > > > ",
"> > > > > > > > > > > . 6 f H @.#.-.-.O.O.O.O.O.O.O.O.w.w.w.e.t.n.n.m.m.m.m.m.m.m.m.N.N.N.N.N.N.N.N.N.n.z.0.S w # , > > > > > > ",
"> > > > > > > > > > > X 6 f H @.%.-.-.O.O.O.O.O.O.O.O.w.w.w.e.t.n.n.m.m.m.m.m.m.m.m.N.N.N.N.N.N.N.N.m.M.z.0./ w # , > > > > > > ",
"> > > > > > > > > > > X 6 f H @.%.-.-.;.O.;.;.O.O.O.O.O.w.w.e.t.m.n.m.m.m.m.m.m.m.N.N.N.N.N.N.N.N.m.m.n.z.0.S w # , > > > > > > ",
"> > > > > > > > > > > . 2 d Z @.%.-.*.*.O.;.;.O.O.O.O.w.w.w.e.t.n.n.m.g.g.g.g.g.m.N.N.N.V.N.N.g.f.m.g.t.k.6.A 8 # , > > > > > > ",
"> > > > > > > > > > > . 4 d R B #.-.*.*.*.;.;.O.O.O.O.w.w.w.e.e.t.n.f.g.g.g.g.m.N.N.N.N.N.N.m.g.f.m.f.e.e.6.A 8 # > > > > > > > ",
"> > > > > > > > > > > . @ i R B #.-.*.*.*.;.;.O.O.O.O.O.w.w.e.e.e.f.n.g.g.g.g.m.N.N.N.N.N.m.g.g.f.n.f.e.i.5.N 3 # > > > > > > > ",
"> > > > > > > > > > > . $ i T B 5.-.-.*.*.-.;.O.O.O.O.O.O.w.w.e.e.f.f.f.f.f.g.N.N.N.N.N.m.g.g.g.t.n.f.e.;.4.M 3 * , > > > > > > ",
"> > > > > > > > > > > , # q T J <.#.-.-.-.-.;.O.O.O.O.O.O.w.e.e.e.f.f.f.f.g.V.N.N.N.N.m.g.g.g.g.t.n.n.p.7.1.b 2 , > > > > > > > ",
"> > > > > > > > > > > > X w M F <.%.-.-.-.-.;.O.O.O.O.O.O.w.e.e.e.p.f.f.f.N.V.N.N.N.m.g.f.g.g.m.t.n.t.e.6.F t 2 , > > > > > > > ",
"> > > > > > > > > > > > X 8 n F 1.#.-.-.-.-.;.O.O.O.O.O.O.w.e.w.r.p.f.h.M.V.V.N.N.m.f.f.f.g.g.g.t.t.p.i.8.Z t O , > > > > > > > ",
"> > > > > > > > > > > > . 3 b R J #.#.-.-.-.;.;.;.O.O.O.O.w.e.w.r.e.p.h.N.!.N.N.m.f.f.f.f.f.g.f.f.f.e.i.2.A 1 o , > > > > > > > ",
"> > > > > > > > > > > >   4 y U F @.#.-.-.-.;.;.;.;.O.O.O.w.e.e.e.d.h.M.!.j.j.f.g.f.f.f.f.f.f.f.f.t.r.w.3.n e # , > > > > > > > ",
"> > > > > > > > > > > > & o q P Z 1.%.-.-.-.-.;.;.;.O.O.O.w.w.e.e.p.h.M.N.!.j.f.f.f.f.f.f.f.f.f.f.t.e.7.H a 2 # , > > > > > > > ",
"> > > > > > > > > > > > & + 8 L R G #.-.-.-.-.-.-.;.;.;.O.w.e.e.p.h.M.M.N.N.j.f.h.h.h.h.f.f.f.f.p.e.e.0.S p O ; , > > > > > > > ",
"> > > > > > > > > > > > > # 2 i T G @.#.-.-.-.-.-.-.;.;.O.w.e.p.h.M.h.h.h.h.h.h.h.h.h.h.M.M.f.f.e.i.i.4.M 8 # - > > > > > > > > ",
"> > > > > > > > > > > > & . o q U F B @.&.-.-.-.-.-.-.-.;.i.p.p.h.M.h.h.h.p.h.M.M.M.M.M.M.p.p.e.q.i.7.J b 2 . = > > > > > > > > ",
"> > > > > > > > > > > > > * + 3 n Q B @.&.&.-.-.-.-.-.;.7.l.p.h.h.h.M.h.d.d.p.p.p.p.p.p.d.e.q.q.e.i.8.Z r O   > > > > > > > > > ",
"> > > > > > > > > > > > & & * 4 f R F $.#.#.&.-.-.-.,.>.a.x.M.h.h.h.M.p.e.q.e.q.q.q.q.q.q.q.q.q.d.;.3.N 1 + > > > > > > > > > > ",
"> > > > > > > > > > > > & & * @ q ) R G $.#.:.,.*.>.a.>.a.a.s.s.x.x.p.i.w.w.w.i.i.i.i.w.q.q.q.q.q.8.S a 2 . > > > > > > > > > > ",
"> > > > > > > > > > > > > & & + 3 v ' Q $.%.:.,.>.a.a.a.a.a.s.s.x.x.i.w.w.w.w.w.i.i.i.i.q.q.q.u.*.2.M w o * > > > > > > > > > > ",
"> > > > > > > > > > > > > : & . % j ' G.C.%.J.L.R.Y.s.T.T.T.s.s.s.i.i.i.w.w.w.i.u.i.i.i.u.q.q.;.:.! s 2 X , > > > > > > > > > > ",
"> > > > > > > > > > > > : : > & X 5 I  .I.C.J.K.R.R.Y.Y.T.T.s.s.s.i.i.i.i.i.i.i.i.i.i.i.u.u.;.;.4.A p o . > > > > > > > > > > > ",
"> > > > > > > > > > > > : : > > , % j |  .H.C.J.L.R.Y.Y.T.T.T.a.u.=.;.;.;.;.;.i.;.i.i.;.;.;.;.8.Q f 3 X > > > > > > > > > > > > ",
"> > > > > > > > > > > > > > : > > # 0 I ..).C.J.K.Y.Y.Y.T.T.s.a.=.>.;.;.;.;.;.;.>.>.>.>.;.>.;.F.U 9 $ - > > > > > > > > > > > > ",
"> > > > > > > > > > > > > > > > > X O j ` ).H.C.K.A.Y.Y.T.T.a.=.=.>.;.;.;.;.;.>.>.;.;.;.;.;.8.! d 4 X = > > > > > > > > > > > > ",
"> > > > > > > > > > > > > > > > > , X 6 z ..U.H.J.K.A.Y.Y.Y.,.*.*.;.;.;.;.;.;.;.;.;.;.;.;.8.D.U 0 # = > > > > > > > > > > > > > ",
"> > > > > > > > > > > > > > > > > > > # h ` ).I.C.S.A.L.L.A.&.&.:.-.,.,.,.,.>.>.;.;.;.;.6.F.E y @ , > > > > > > > > > > > > > > ",
"> > > > > > > > > > > > > > > > > > > * 4 z ..-XH.C.S.J.S.:.&.%.%.%.-.-.:.:.:.:.:.:.:.-.2.{ L 8 + > > > > > > > > > > > > > > > ",
"> > > > > > > > > > > > > > > > > > > * + 1 ` %XI.C.C.C.C.%.%.%.%.%.%.%.:.:.:.:.:.:.8.2.W U u o . > > > > > > > > > > > > > > > ",
"> > > > > > > > > > > > > > > > > > > > X 4 j X.%XH.H.C.$.$.$.%.%.%.%.%.%.%.%.%.2.#.<.G.] k 6 . > > > > > > > > > > > > > > > > ",
"> > > > > > > > > > > > > > > > > > > > & # 5 ( ..).H.Z.V B V $.$.<.<.%.2.2.%.@.$.$.D.[ ( w # > > > > > > > > > > > > > > > > > ",
"> > > > > > > > > > > > > > > > > > > > >   O p ` &XI.Z.V V B V B V $.$.@.@.@.$.$.D.{ ) u $ - > > > > > > > > > > > > > > > > > ",
"> > > > > > > > > > > > > > > > > > > > > & X 4 z $X%XW C V V V B B B V V $.$.1.D.~.] k 6 X > > > > > > > > > > > > > > > > > > ",
"> > > > > > > > > > > > > > > > > > > > > & * + 5 ( ..~ K C V V V V V V V V G 3.^.} P 0 # & > : > > > > > > > > > > > > > > > > ",
"> > > > > > > > > > > > > > > > > > > > > > & * + j ` | ~ C C V V V V V V V J ~.} ) p 2 . > > > > > > > > > > > > > > > > > > > ",
"> > > > > > > > > > > > > > > > > > > > > > & & X 4 j ` [ ~ C V V V G V V W ~.{ ' d 2 o . > > > > > > > > > > > > > > > > > > > ",
"> > > > > > > > > > > > > > > > > > > > > > > & * # 4 k _ [ ~ F G V G V F ~. .' f 3 # . > > > > > > > > > > > > > > > > > > > > ",
"> > > > > > > > > > > > > > > > > > > > > > > > > , # 5 l ' ..! F C F F G.).' ( w o . > > > > > > > > > > > > > > > > > > > > > ",
"> > > > > > > > > > > > > > > > > > > > > > > > > > , + 0 v |  .! F F ! ~.[ P q $ . , > > > > > > > > > > > > > > > > > > > > > ",
"> > > > > > > > > > > > > > > > > > > > > > > > > > > * + 0 I E  .{ {  . .U y $ , , , > > > > > > > > > > > > > > > > > > > > > ",
"> > > > > > > > > > > > > > > > > > > > > > > > > > > > . @ q I '  .[ E P p 4 # > > > > > > > > > > > > > > > > > > > > > > > > ",
"> > > > > > > > > > > > > > > > > > > > > > > > > > > > > . $ 0 l U Y I 1 O # > > > > > > > > > > > > > > > > > > > > > > > > > ",
"> > > > > > > > > > > > > > > > > > > > > > > > > > > > > > . $ 7 h x 7 + X , > > > > > > > > > > > > > > > > > > > > > > > > > ",
"> > > > > > > > > > > > > > > > > > > > > > > > > > > > > >   , . . . * , > > > > > > > > > > > > > > > > > > > > > > > > > > > "
};
