/* XPM */
static char *result[] = {
/* columns rows colors chars-per-pixel */
"32 32 227 2 ",
"   c #0C0000",
".  c #130400",
"X  c #1A0700",
"o  c #2A1E05",
"O  c #29230B",
"+  c #3C2B0D",
"@  c #3B2F11",
"#  c #3E3C14",
"$  c #3D3108",
"%  c #453E0E",
"&  c #433608",
"*  c #413E18",
"=  c #3F4019",
"-  c #49430C",
";  c #4C4607",
":  c #524B05",
">  c #564C0C",
",  c #5B5502",
"<  c #5E5901",
"1  c #57540B",
"2  c #45401F",
"3  c #514A12",
"4  c #5E5A12",
"5  c #5B5719",
"6  c #615B02",
"7  c #615B0A",
"8  c #675C08",
"9  c #645C17",
"0  c #676606",
"q  c #776C08",
"w  c #6F700F",
"e  c #78770B",
"r  c #747309",
"t  c #6C6415",
"y  c #6B6B14",
"u  c #666319",
"i  c #6C631B",
"p  c #6C6B1B",
"a  c #636013",
"s  c #736815",
"d  c #726A18",
"f  c #767314",
"g  c #7E741A",
"h  c #7A7916",
"j  c #4D4820",
"k  c #565921",
"l  c #615520",
"z  c #6C6621",
"x  c #6C6725",
"c  c #726A22",
"v  c #71672A",
"b  c #7A7628",
"n  c #726B31",
"m  c #7C7439",
"M  c #7D793A",
"N  c #7D7A43",
"B  c #867F09",
"V  c #897F1D",
"C  c #837917",
"Z  c #817E2A",
"A  c #827E31",
"S  c #847F39",
"D  c #847E49",
"F  c #817C46",
"G  c #7E822B",
"H  c #88860B",
"J  c #948A0D",
"K  c #9B9505",
"L  c #88831D",
"P  c #92891A",
"I  c #999413",
"U  c #A19C0A",
"Y  c #A99B1C",
"T  c #A1A10E",
"R  c #ABAB16",
"E  c #B5A919",
"W  c #BDB417",
"Q  c #B8B50E",
"!  c #8B8421",
"~  c #8A8C24",
"^  c #84812C",
"/  c #8B8E2C",
"(  c #958928",
")  c #9B9327",
"_  c #848137",
"`  c #8A8534",
"'  c #8C8A3B",
"]  c #898739",
"[  c #9F9431",
"{  c #9B9D3D",
"}  c #949637",
"|  c #938E38",
" . c #A49325",
".. c #AA9C28",
"X. c #A39B3D",
"o. c #9AA13C",
"O. c #9DB13C",
"+. c #B7AB2A",
"@. c #B6AB35",
"#. c #B2B130",
"$. c #CCBE03",
"%. c #CCBF0A",
"&. c #C5BC08",
"*. c #D2BF05",
"=. c #CABA16",
"-. c #C4B51F",
";. c #C8B919",
":. c #D2BB10",
">. c #CABB27",
",. c #D0BD26",
"<. c #C4B632",
"1. c #D0BE32",
"2. c #CAC104",
"3. c #CBC10B",
"4. c #C7C20D",
"5. c #D3C304",
"6. c #DDCC02",
"7. c #D2C20A",
"8. c #D4CA0E",
"9. c #DDC30A",
"0. c #DED00B",
"q. c #DAD104",
"w. c #C9C517",
"e. c #D0C511",
"r. c #D3CA13",
"t. c #D3CA1C",
"y. c #D9C819",
"u. c #D3D219",
"i. c #E4CB01",
"p. c #EBCB05",
"a. c #E3CD0A",
"s. c #EFCB0A",
"d. c #F2CE0B",
"f. c #E5D301",
"g. c #EBD302",
"h. c #EADA04",
"j. c #E3D50D",
"k. c #ECD40B",
"l. c #ECDB0B",
"z. c #E5DC07",
"x. c #F3D20A",
"c. c #F4D607",
"v. c #E6D41F",
"b. c #EEDE1C",
"n. c #E7D714",
"m. c #F0D915",
"M. c #E8E20C",
"N. c #ECE618",
"B. c #F5E316",
"V. c #CEC32B",
"C. c #D2C624",
"Z. c #D6C921",
"A. c #D5CE29",
"S. c #D8CE29",
"D. c #DAC525",
"F. c #DDD32C",
"G. c #D9D328",
"H. c #CDC334",
"J. c #CDC43B",
"K. c #D3C93D",
"L. c #D1C539",
"P. c #DDD235",
"I. c #E0D22D",
"U. c #EBDD28",
"Y. c #E2DB3A",
"T. c #EAE425",
"R. c #F5E424",
"E. c #858342",
"W. c #928F46",
"Q. c #8E9441",
"!. c #9C9C43",
"~. c #9B964E",
"^. c #9C9C4B",
"/. c #949545",
"(. c #979851",
"). c #A19F4C",
"_. c #A29E43",
"`. c #9EA142",
"'. c #9CAC43",
"]. c #9BA647",
"[. c #9FB344",
"{. c #9FB149",
"}. c #9EA553",
"|. c #9EA951",
" X c #9FA359",
".X c #A4AC44",
"XX c #A8AF44",
"oX c #A3A54B",
"OX c #A4AC4C",
"+X c #ABAD4C",
"@X c #A6A545",
"#X c #B0AE4D",
"$X c #A2B345",
"%X c #A9B144",
"&X c #A5B24C",
"*X c #ABB34C",
"=X c #A6B849",
"-X c #A9BA4B",
";X c #A6B945",
":X c #B0B74E",
">X c #A2A355",
",X c #A4AC54",
"<X c #A9AD54",
"1X c #A5A65A",
"2X c #A6AB5C",
"3X c #AAAD5B",
"4X c #B1AF59",
"5X c #A6B152",
"6X c #ABB254",
"7X c #ABB853",
"8X c #A6B159",
"9X c #ACB35B",
"0X c #AEB95C",
"qX c #B2B251",
"wX c #B2B25B",
"eX c #B3B95E",
"rX c #A6AB63",
"tX c #AAAD64",
"yX c #A9A963",
"uX c #B1AD6C",
"iX c #ADB161",
"pX c #AEB06C",
"aX c #B2B16D",
"sX c #B2B663",
"dX c #C1B447",
"fX c #CDC258",
"gX c #D3C85D",
/* pixels */
"OXOXOX&X5X5X7X-X=X[.O.;X-X=X.X6X8X<X1X,X<X4X+X.X$X=X$X$X[.[.&X&X",
"'.OX5X5X5X5X{.&X$X$X$X;X;X%X&X6X6X3X<X<X<X<XOX.X&X=X$X$X[.=X&X&X",
"|.OX6X0X0X5X'.'.$X=X=X=X=X-X7XOX,XwXwX4X<XOX+X%X=X&X$X[.{.$X&XOX",
",X,X8X0X0X{.].'.$X-X-X'.o.} Q.] ' ~.~.~.oX@X+X*X*X%X'.'.{.5X*X&X",
"tXrX2X,X|.|.&X&X-X-XOXo.G k = # * * j l _ +XqX#X*X*XOX{.5X7X&X5X",
"pXpX X}.].OX7X7X*XOX`./ z # O O O o O & z _.#X+X+X6XOX,X8X5X5X5X",
"pXtX X,X6X9X6X6X+Xo./ p 4 x m m m v z i i c ` #X+XoX<X0X0X8X5XOX",
"tX2X X3XsXeX<X@X]./ h < y !.fXgXfXdX@...g > c _.@X`.<XeX0X6X6X5X",
"2X2X,X3XiXsX3X).| d 4 f ) #.L.K.dX1.1.<. .s t Z | @X4X6X<XOX<X&X",
"oXOX9X3X1X3X3X_.^ 9 > ) H.>.W =.:.,.,.1.<.Y s > b +X#X+XoX@XOX<X",
".X+X6X3X1X>X~.A t t L +.S.r.3.$.a.y.D.1.,.+.V 8 t A !.#X<X+X+X6X",
".X+X6X3X1X~._ i 7 ( J.C.e.0.j.a.s.m.s.,.:.-.E J 8 > A <XwX9X6XOX",
"%X*X*X,X~.S p t C #.P.t.$.0.l.k.s.b.v.:.:.=.=.W H 6 d ` >XiX4X<X",
":X:X*X`.] z > g @.V.Z.%.$.6.h.g.k.s.s.i.*.*.9.t.W J 8 9 ] 1X3X<X",
"*X:X+Xo.^ 4 ; V J.S.e.5.5.f.g.k.d.p.i.i.i.6.0.n.w.U 6 % S yX3X<X",
"XXXX*XX.Z 9 : L H.t.7.6.f.g.g.c.d.p.p.d.g.h.z.j.$.U 6 % F yXtX<X",
"O.XX*X`.Z 9 : L H.t.3.i.g.g.g.x.d.p.p.c.c.h.h.z.$.K , - D uXtX<X",
"@.XX.X{ ` i : V H.Z.5.6.g.g.g.x.d.d.d.c.k.i.l.N.8.K , % D aXiX<X",
"%X+X.X{ / 9 ; L H.C.7.6.g.g.g.x.d.s.d.x.k.i.n.N.e.U , % D aXiX<X",
"OX%X+X!.Z 9 : L J.C.3.j.m.g.i.d.d.s.d.p.k.m.b.j.4.K < - F uX3X3X",
"+X*XqX!.b 1 : ~ L.C.3.n.B.h.i.k.x.d.p.i.k.B.b.r.Q T < - N yXtX<X",
"3X8X9X^.G 4 : L K.A.e.8.0.f.f.p.p.p.i.i.x.R.R.G.;.J < - M rX2X3X",
"iXtX3X}.` a 1 h #.A.t.3.2.6.M.q.g.g.g.i.m.R.U.F.R H < 4 F rX3X<X",
"tXyXrX>X!.G y f ) W u.3.2.q.h.q.f.g.k.l.b.U.F.>.H 0 p _ ~.2X2X8X",
"tXrXrX2X<X} G 0 0 I w.4.2.q.z.z.h.l.B.b.b.I.-.J 0 1 M ,X3X3X<X<X",
"2XrX8XtXiXOX} h 0 e I Q q.M.M.z.z.l.m.U.I.,.J q a b /.<X8X8X5X<X",
"2X8X8XiXiX3X`.~ e 0 0 T u.N.N.M.z.n.v.I.,. .C : b !.OXOX5X7X5XOX",
"8X8X|.tXiX9X<Xo.~ w 0 H R u.T.N.T.T.I.1.Y C t v ] <X<X&X&X5X&X&X",
"0X8X|.|.8XiX9XOX{ ~ G 0 r R A.Y.Y.Y.J.+.C 8 c W.).}.5X7X=X$X&XOX",
"8X5X|.|.2X9X0X6X@X{ P y 9 h ~ ) [ [ ( g s i S #X<X|.&X&X&X$X&X&X",
"|.8X8X8X,X5X9X8X<XOX!.] x 3 $ + + + & & l ' ).<X*XOX{.{.{.$X&X5X",
"|.|.9X8X|.<X6X0X<X2X>XW.n @ X     . X o l ).wX6X*X$X'.{.{.&X5X&X"
};
