/* XPM */
static char *f591357974c54ad4e00c21b98fd8989biG31LGoc6S8LbQfV[] = {
/* columns rows colors chars-per-pixel */
"64 64 222 2 ",
"   c #191D2D",
".  c #14162D",
"X  c #1D1C32",
"o  c #151833",
"O  c #2B1C2F",
"+  c #221C32",
"@  c #1C203B",
"#  c #282534",
"$  c #312532",
"%  c #372B3A",
"&  c #3D3333",
"*  c #3A3936",
"=  c #29352F",
"-  c #443635",
";  c #443A36",
":  c #4B3A35",
">  c #4D363B",
",  c #4C3A39",
"<  c #453A39",
"1  c #543D3A",
"2  c #5A3739",
"3  c #462E36",
"4  c #643B3C",
"5  c #2D492D",
"6  c #324B2D",
"7  c #32462F",
"8  c #33532E",
"9  c #36592D",
"0  c #395E2D",
"q  c #3C4834",
"w  c #385231",
"e  c #3D642E",
"r  c #3F682D",
"t  c #3F6230",
"y  c #4B4737",
"u  c #464835",
"i  c #5C413D",
"p  c #5A4C3B",
"a  c #485B37",
"s  c #575D3C",
"d  c #63443E",
"f  c #6C423C",
"g  c #77533F",
"h  c #714D3E",
"j  c #426D2D",
"k  c #43642F",
"l  c #44712D",
"z  c #49732F",
"x  c #4A6734",
"c  c #55683A",
"v  c #4C7331",
"b  c #537A33",
"n  c #5A7D36",
"m  c #5C7B39",
"M  c #567737",
"N  c #62673C",
"B  c #66763A",
"V  c #2A2D47",
"C  c #2D3A58",
"Z  c #33344C",
"A  c #192547",
"S  c #463740",
"D  c #3A4B6C",
"F  c #354565",
"G  c #3E5070",
"H  c #5D5A41",
"J  c #6C4942",
"K  c #684742",
"L  c #734C44",
"P  c #7B4D44",
"I  c #714B46",
"U  c #6C5643",
"Y  c #775844",
"T  c #766A48",
"R  c #6A7141",
"E  c #677240",
"W  c #767C44",
"Q  c #656941",
"!  c #435677",
"~  c #414D6B",
"^  c #645B65",
"/  c #84433D",
"(  c #83493D",
")  c #8B473E",
"_  c #904C3F",
"`  c #B7553E",
"'  c #874E43",
"]  c #924D41",
"[  c #9F4F41",
"{  c #875346",
"}  c #925245",
"|  c #9B5647",
" . c #A04F41",
".. c #A55544",
"X. c #AB5644",
"o. c #AE5845",
"O. c #A55847",
"+. c #B25644",
"@. c #B45945",
"#. c #B95B45",
"$. c #B35D4B",
"%. c #906A47",
"&. c #A66745",
"*. c #BB614B",
"=. c #B8674A",
"-. c #A66D50",
";. c #BF6F50",
":. c #AF744A",
">. c #875F60",
",. c #8F6E74",
"<. c #A96C64",
"1. c #C1654A",
"2. c #C56D49",
"3. c #C77549",
"4. c #C77451",
"5. c #D17753",
"6. c #5F8038",
"7. c #62823A",
"8. c #6B863E",
"9. c #6E8540",
"0. c #7C8245",
"q. c #748C42",
"w. c #7B8E45",
"e. c #718741",
"r. c #7D9246",
"t. c #7E8979",
"y. c #868E48",
"u. c #819447",
"i. c #8F9647",
"p. c #839548",
"a. c #8D9449",
"s. c #8E9F4A",
"d. c #90964B",
"f. c #969849",
"g. c #AB964F",
"h. c #90A04A",
"j. c #9BA24C",
"k. c #A7AF4F",
"l. c #A9AE4F",
"z. c #A8B14F",
"x. c #A5B04F",
"c. c #A7AE51",
"v. c #AAAD52",
"b. c #A7A651",
"n. c #B3AB54",
"m. c #BBA856",
"M. c #ABB251",
"N. c #A8B053",
"B. c #B2B25B",
"V. c #B4B556",
"C. c #B4856F",
"Z. c #DA9E47",
"A. c #D39B47",
"S. c #D49E5B",
"D. c #DB9C5D",
"F. c #D6935C",
"G. c #CB9351",
"H. c #E0905E",
"J. c #E29A5F",
"K. c #E28F5F",
"L. c #DEA047",
"P. c #CBA25B",
"I. c #C3A558",
"U. c #D3A15E",
"Y. c #E1A047",
"T. c #E9B35A",
"R. c #DD9B61",
"E. c #E79660",
"W. c #EB9661",
"Q. c #E49961",
"!. c #EB9962",
"~. c #F19962",
"^. c #D1A869",
"/. c #E5BC6F",
"(. c #E3BC71",
"). c #D4C266",
"_. c #EBC672",
"`. c #FFD27A",
"'. c #F9D077",
"]. c #EAC970",
"[. c #586A88",
"{. c #5E718F",
"}. c #64738D",
"|. c #667895",
" X c #6F788E",
".X c #7D869A",
"XX c #6D819E",
"oX c #778AA8",
"OX c #7E92AE",
"+X c #7F94B0",
"@X c #6E84A4",
"#X c #90918F",
"$X c #A98F91",
"%X c #9DAB99",
"&X c #99A796",
"*X c #9CAD83",
"=X c #A7A69B",
"-X c #B5A29E",
";X c #A8A984",
":X c #959DAD",
">X c #9C98A5",
",X c #879AB5",
"<X c #8B98AD",
"1X c #8EA2BC",
"2X c #93A6BE",
"3X c #98A3B7",
"4X c #A7ABB7",
"5X c #B9ACB2",
"6X c #ABA5AB",
"7X c #A49EA9",
"8X c #C59F8C",
"9X c #96A9C2",
"0X c #9BACC3",
"qX c #95A8C2",
"wX c #A2B1C5",
"eX c #ABB7C9",
"rX c #B3BECD",
"tX c #A2AEC1",
"yX c #BCC4D1",
"uX c #BBC5D2",
"iX c #B8C1CF",
"pX c #C1C9D5",
/* pixels */
"v.c.c.c.c.c.c.c.c.c.c.c.c.c.c.k.k.k.k.k.k.k.k.k.k.k.k.k.k.k.z.N.N.N.z.k.k.k.k.k.k.k.k.k.k.k.k.k.k.k.k.k.k.k.k.k.k.k.k.k.k.k.k.k.",
"v.c.c.c.c.c.c.c.c.c.c.c.c.c.c.k.k.k.k.k.k.k.z.z.z.z.k.k.k.k.d.N N c a.N.k.k.k.k.k.k.k.k.k.k.k.k.k.k.k.k.k.k.k.k.k.k.k.k.k.k.k.k.",
"v.c.c.c.c.c.c.c.c.c.c.c.c.c.c.k.k.k.k.k.N.M.j.a.a.y.Q H H H U | | O R M.k.k.k.k.k.k.k.k.k.k.k.k.k.k.k.k.k.k.k.k.k.k.k.k.k.k.k.k.",
"v.c.c.c.c.c.c.c.c.c.c.c.c.c.c.k.k.k.z.k.W R N s s T ^.(.(.(.^.2.2.$ E M.k.k.k.k.k.k.k.k.k.k.k.k.k.k.k.k.k.k.k.k.k.k.k.k.k.k.k.k.",
"v.c.c.c.c.c.c.c.c.c.c.c.c.c.c.k.k.k.d.c R R y.k.M._.`.`.`.`./.#.+.O E M.k.k.k.k.k.k.k.k.k.k.k.k.k.k.k.k.k.k.k.k.k.k.k.k.k.k.k.k.",
"v.c.c.c.c.c.c.c.c.c.c.c.c.c.c.k.N.y.* y.k.z.z.k.V.'.].].].].^.#.+.O E M.k.k.k.k.k.k.k.k.k.k.k.k.k.k.k.k.k.k.k.k.k.k.k.k.k.k.k.k.",
"v.c.c.c.c.c.c.c.c.c.c.c.c.c.c.k.M.0.+ j.N.c.V.).).).V.M.M.M.g.#.+.O E M.k.k.k.k.k.k.k.k.k.k.k.k.k.k.k.k.k.k.k.k.k.k.k.k.k.k.k.k.",
"v.c.c.c.c.c.c.c.c.c.c.c.c.c.c.k.M.0.# v.).].].`.].N.z.N.N.M.g.#.+.O E M.k.k.k.k.k.k.k.k.k.k.k.k.k.k.k.k.k.k.k.k.k.k.k.k.k.k.k.k.",
"v.c.c.c.c.c.c.c.c.c.c.c.c.c.c.k.M.0.# (.`.`.`.`.].c.W R R R T #.+.O E M.k.k.k.k.k.k.k.k.k.k.k.k.k.k.k.k.k.k.k.k.k.k.k.k.k.k.k.k.",
"v.c.c.c.c.c.c.c.c.c.c.c.c.c.c.k.M.0.# _._./.g.T T s R W W u $ +.+.O R V.N.N.z.N.z.k.k.k.k.k.k.k.k.k.k.k.k.k.k.k.k.k.k.k.k.k.k.k.",
"v.c.c.c.c.c.c.c.c.c.c.c.c.c.c.k.M.0.# g.T H W y.c N W 0.0.s % +.+.& s 0.0.W 0.W j.N.z.z.z.z.z.k.k.k.k.k.k.k.k.k.k.k.k.k.k.k.k.k.",
"v.c.c.c.c.c.N.N.N.N.N.c.c.k.k.k.c.0..   u s s a 6 6 6 6 6 5 u o.o.u 5 6 6 6 6 6 a s s s s c i.k.k.k.k.k.k.N.N.N.N.z.k.k.k.k.k.k.",
"v.c.c.c.c.c.a.y.y.y.a.0.u q q q q q 9 9 9 5 5 e j r r e 9 e v N B v e 9 0 r r j e 5 5 9 9 9 q q q q q q 0.a.y.y.y.a.k.z.z.z.k.k.",
"v.c.c.c.N.d.# = 7 7 7 6 e 5 0 e e j l l l 9 9 e e 0 0 r v 8.8.z q.r.8.v r 0 0 e e 9 9 l l l j e e 0 5 e 6 7 7 7 = # d.N.z.z.k.k.",
"v.c.c.c.N.d.  0 j j j j j 8 e l l l l j j 9 9 e e j z 7.w.p.q.v r.u.u.w.7.z j e e 9 9 j j l l l l e 8 j j j j j 0   d.N.k.k.k.k.",
"v.c.c.c.N.d.  0 l l j e e 8 e l j e e 0 0 8 0 l l n q.r.u.p.q.v r.u.u.u.r.q.n l l 0 8 0 0 e e j l e 6 e e j l l 0   d.N.k.k.k.k.",
"v.c.c.c.N.d.  8 e 0 e e e 8 9 0 e e e j j 9 9 v 7.w.r.r.r.r.9.k q.r.r.r.r.r.w.7.v 9 9 j j e e e 0 9 8 e e e 0 e 8   d.N.k.k.k.k.",
"v.c.c.c.N.d.  9 j e j l j 8 e r j l l l l k x b 6.m x M 7.m x a c m 6.6.M x m 6.b x k l l l l j r 0 8 j l j r j 9   d.N.k.k.k.k.",
"v.c.c.c.N.d.  0 l l l l j 8 e l l l l l n q.r.r.r.w.v 8.r.w.w.w.w.r.r.r.8.v w.r.r.r.q.n l l l l l e 8 j l l l l 0   d.N.k.k.k.k.",
"v.c.c.c.N.d.  0 l l j j j 8 e l j l v 8.r.u.u.u.u.q.b q.p.u.u.u.u.u.u.p.q.b q.u.u.u.u.r.8.v l l l e 8 j j j l l 0   d.N.k.k.k.k.",
"B.M.v.v.v.d.  9 e e e 0 0 6 e l v 7.r.u.u.u.u.p.r.b q.u.u.u.u.u.u.u.u.u.u.q.b w.p.u.u.u.u.w.7.v j e 6 0 0 e e e 9   d.N.c.c.c.c.",
"B.M.v.v.v.d.  8 e e e j j 8 e b 8.r.w.r.w.r.r.r.q.z q.r.r.r.w.r.r.r.r.r.r.e.t 9.r.r.r.r.w.r.r.8.b e 8 j j e e e 8   d.N.k.k.k.k.",
"B.M.v.v.v.d.  0 l l l l j a v n 7.m c a x m 6.6.n b n 6.6.m x a k k k x c c a c m M x a c m 6.6.n v a j l l l l 0   d.N.k.k.k.k.",
"B.M.v.v.v.d.  0 l l l z 7.w.r.r.r.r.q.t 9.r.r.r.r.r.r.r.r.r.E 8 m m m 8.w.w.w.w.r.r.m k w.r.r.r.r.r.w.7.z l l l 0   d.N.k.k.k.k.",
"B.M.N.v.v.d.  0 l l n q.u.u.u.u.u.u.q.b q.p.u.u.u.u.u.u.u.p.q.x r.u.u.u.u.u.u.u.u.p.8.b w.u.u.u.u.u.u.u.q.n l l 0   d.N.z.z.k.k.",
"B.M.N.v.v.d.  0 b 8.r.u.u.u.u.u.p.q.b q.u.u.u.u.u.u.u.u.u.p.q.v r.u.u.u.u.u.u.u.u.u.u.q.b r.u.u.u.u.u.u.u.r.8.b 0   d.N.z.z.k.k.",
"B.M.N.v.v.d.  x q.w.r.r.w.u.u.u.u.8.v w.w.w.w.w.w.w.w.w.w.w.9.v w.r.r.r.r.w.w.w.w.w.w.e.v q.w.w.r.r.w.w.r.r.w.e.x   i.N.k.k.k.k.",
"B.M.N.v.v.f.* u = w b v y U Y Y p u u y y y y y y y y y y y y u x x x x a y y y y y y y u y y p Y Y U y v b w = u * f.N.k.k.k.k.",
"B.M.N.v.v.c.j.j.* = z k ; ' } } f & & & & & & & & & & & & & & & & & & & & & & & & & & & & & & f } } ' ; k z = * j.j.k.k.k.k.k.k.",
"B.M.N.v.c.c.c.c.* : %.%.J X.#.#.( & : d d d 1 : d d d d , & , d d d : , d d d d : & 1 d d d - ( #.#.X.f %.%.< > D.S.S.m.v.k.k.k.",
"B.M.m.I.I.m.v.m.; 2 *.O.P o.#.#.( ; J L L K , , L L L L 1 , J L L L 1 1 L L L L , 1 L L L d - ( #.#.o.P O.*.2 < D.E.W.E.I.z.k.k.",
"B.P.J.E.E.D.v.m.; 2 #...P o.#.#.( - i L L K , , L L L L d d L L L i - 1 L L L i - : d L L d - ( #.#.o.P ..#.2 < S.E.P.I.n.k.k.k.",
"B.U.D.J.J.I.m.m.* 2 #...P o.#.#.( - J L L L 1 ; K L L J 1 1 L L L J , - i L L J : 1 J L L L < ( #.#.o.P ..#.2 , W.E.J.I.v.k.k.k.",
"B.V.v.P.E.E.E.E.> 4 2.=.P X.#.#.g ; J L L L 1 - i J L d - , L L L L , , J L J i - 1 L L L L - g #.#.X.P =.2.4 > W.E.E.E.I.z.k.k.",
"B.n.P.J.W.E.W.~.> f 5.;.{ } $.O.P 1 d d d d i i U U p p p p p p p p p p p p U p i i d d d d 1 P O.$.} { ;.5.f > ~.E.E.W.J.P.v.k.",
"B.I.J.W.W.E.E.-.$ f 5.4.+.4.4.4.4.;.;.;.;.;.;.G._.(.b.j.j.j.j.j.j.j.j.j.j.b.(._.G.;.;.;.;.;.;.4.4.4.4.+.4.5.f $ -.E.E.E.W.E.S.k.",
"B.M.n.S.W.W.H.% C >.1.*.} *.1.1.*.*.1.1.1.1.*.5.T.T.j.s.h.h.h.h.h.h.h.h.s.j.T.T.5.*.*.*.1.1.1.1.1.1.*.} *.1.>.C % H.W.E.E.W.D.k.",
"Q.I.m.S.W.W.H.$ ! ,.#...P o.#.#.#.#.#.#.#.#.+.2.Z.Z.i.r.u.u.u.u.u.u.u.u.r.i.Z.Z.2.+.#.#.#.#.#.#.#.#.o.P ..#.,.! $ H.W.E.E.W.D.k.",
"E.E.E.E.W.W.H.$ ! ,.@.[ d ..+.+.+.+.+.+.+.+.+.2.L.Z.i.r.u.u.u.u.u.u.u.u.r.i.Z.L.2.+.+.+.+.+.+.+.+.#...d [ @.>.D $ H.W.W.E.W.D.k.",
"W.W.E.E.E.W.H.$ ! ,.( f 1 f ' } } } } } } } ' &.L.Z.i.r.u.u.u.u.u.u.u.u.r.i.Z.L.&.' } } } } } } } ' f 1 f ( ,.[.$ H.W.W.E.W.D.k.",
"U.E.W.W.E.W.H.$ ! ,.X.X.X...o.o.o.o.o.o.o.o.o.=.L.Z.i.r.u.u.u.u.u.u.u.u.r.i.Z.L.=.o.o.o.o.o.o.o.o.o.......X.$X|.$ H.W.W.W.W.D.k.",
"B.D.W.W.E.W.H.$ D >.#.#.#.#.#.#.#.#.#.#.#.#.#.2.L.Z.i.r.u.u.u.u.u.u.u.u.r.i.Z.L.2.#.#.#.#.#.#.#.#.#.#.#.@.` $X|.$ H.W.W.W.W.D.k.",
"I.Q.W.E.E.W.H.$ [.$X<.<./ / _ _ ] ] _ / / / / &.L.Z.i.r.u.u.u.u.u.u.u.u.r.i.Z.L.&./ / / / _ ] ] ] _ / / <.<.$X}.$ H.W.W.W.W.D.k.",
"E.E.E.E.E.W.H.$ }.0X2X<XZ . > d i i 1   V C @ 1 Y.Z.i.r.u.u.u.u.u.u.u.u.r.i.Z.Y.1 @ C V   1 d i d > . Z XX<X,X[.$ H.W.W.W.W.D.k.",
"W.W.E.E.E.W.H.$ }.0X0X,XD o 4 { P ' J . C F A : Y.Z.i.r.u.u.u.u.u.u.u.u.u.i.Z.Y.: A F C . J ' P { 4 o D 3XeXeX X$ H.W.E.W.W.D.k.",
"W.W.W.W.E.W.H.$ }.0X9X,XG o / #.o.+.[ $ % % X : Y.Z.i.r.u.u.u.u.u.u.u.u.u.i.Z.Y.: X % % $ [ +.o.+./ o ! 4XyXpX#X$ H.W.E.E.W.D.k.",
"W.E.W.E.E.W.H.$ [.,X,XoXD o ) #.#.#...: J P 2 g Y.Z.f.u.r.u.u.u.u.u.u.r.u.f.Z.Y.g 2 P J : ..#.#.#.) o ! 4XyXpX.X$ H.W.E.E.W.D.k.",
"W.E.E.W.W.H.-.V .XrXrX3X! o ) #.#.#.o.L [ o.| %.G.Z.A.g.f.i.u.u.u.u.i.f.g.A.Z.G.%.| o.| L o.#.#.#./ o ! tXyXpX.X$ H.W.E.E.W.D.k.",
"E.W.E.W.~.F.# F :XpXyX3XZ 4 ..#.#.#...3 > ] +.} P :.A.Z.Z.A.g.p.p.g.A.Z.Z.A.:.P } +.] 2 3 ..#.#.#...2 Z <XeXwX}.$ H.W.W.W.W.D.k.",
"~.~.W.W.H.-.# D 3XyXuX:X+  .#.#.#.o./ # C Z % % % i h h :.Z.L.A.A.L.Z.:.h h 2 % V % Z C # / o.#.#.#.[ X <XiXrX X$ H.W.E.W.W.D.k.",
"{ { 4.~.:.# D G :XyXuX:X+  .#.#.#.) X F ! D D D F . . . 4 2.G.Z.Z.G.2.4 . . . F D D D G D + ) #.#.#. .X :XpXpX.X$ F.W.E.E.W.D.k.",
"}.|.^ K S o ! ! oX0XeX<XX  .#.#.#.) o F D C V V V > > > ' #.#.2.2.#.#.' > > > V V V C D F o ) #.#.#. .+ :XuXpX.X$ H.W.W.S.m.m.k.",
"#X=X$X#X^ X }.|.3XrXyX:XX  .#.#.#._ + % % 1 K K K ' { { ..#.#.#.#.#.#...{ { ' K K K 1 % % + _ #.#.#. .X :XpXpX.X$ G.S.E.I.z.k.k.",
"U.Q.!.!.-.X |.@XtXyXuX3X# O.*.$.*.| < I I { | | | $.$.$.*.} 2 4 4 2 ] $.$.$.$.| | | { I I < | *.$.*.O.# <XeXwX}.# b.n.D.D.m.v.k.",
"R.E.E.~.-.@ |.@XtXyXyXwX|.6X5X5X5X5X7X4X6X5X>X#X5X5X5X5X5X6X:X:X:X:X#X>X5X5X5X5X5X5X5X6X6X X7X5X5X5X5X:XeXrXrX.XZ :.P.D.E.E.P.k.",
"B.R.W.~.-.o ~ ~ :XyXyXrX9XrXyXyXyXyXyXyXyXyXwX0XyXyXyXyXyXyXyXyXyXyXwXwXyXyXyXyXyXyXyXyXiX9XrXyXyXyXyXyXyXyXyXtX[.# f.M.m.D.D.k.",
"B.m.S.E.F.-.-.+  XeXwX9XOX0XwXwXwXwXwXwXwXwX,X,XwXwXwXwXwXwXwXwXwXwX,X,XwXwXwXwXwXwXwXwX0XOX2XwXwXwXwXwXwXwXwX2X[.X i.N.k.v.n.k.",
"B.M.v.P.W.!.H.$ }.0X9X1X@X2X9X9X9X9X9X9X9X9X,XoX9X9X9X9X9X9X9X9X9X9XOXOX9X9X9X9X9X9X9X9X2X@X,X9X9X9X9X9X9X9X9X,X[.X i.N.n.m.m.k.",
"B.M.N.n.P.E.K.$ }.9X2X,X@X1XqX2X2X1X2X1X2XqXOXoX2X2X2X2XqX2X2X2X2X2XoXOX2X2X2X2X2X2X2X2X,X[.OX2X2X2X2X2XqX2XqX,X[.X g.n.I.E.S.k.",
"B.M.N.n.m.P.F.$ [.,XOXOXoXOX+X+XoX{.[.|.oX,XXX|.OXOXOXOXoXOX,X,X,X,X<XOXOXOXOXOXoXoX+XoX|.[.}.oX+XOXOXoXOXOXOX+X|.X f.M.v.n.n.k.",
"B.M.N.I.E.Q.G.$ }.9X2X2XqXqX2X2X2XOX{.,X2X2X2X2X2X2X2XqXOXOXwXwXwXwXwX0X2X2X2X2XoXOXqX2X1X1X1X2X2X2X1X@X,X2X2X9XoX@ i.z.k.k.k.k.",
"B.M.N.n.P.J.F.$ }.0X9X9X9X9X9X9X9X,X@XqX9X9X9X9X9X9X9X0X|.|.9X9X9X9X9X9X9X9X9X9XoX,X9X9X9X9X9X9X9X9X1X@X1X9X9X0XOXX i.N.k.k.k.k.",
"B.M.N.v.v.v.b.s t.%X%X%X%X-X-X-X-X-X#X&X%X%X=X-X-X-X-X-X X{.9X9X9X9X9X4X-X-X-X=X#X#X=X-X-X%X%X%X=X-X-X#X&X%X%X%X#Xa f.N.k.k.z.k.",
"B.M.c.c.c.c.c.c.v.v.v.v.v.m.I.R.!.!.R.v.v.v.n.P.!.!.!.!.C.C.8X8X8X;X*X^.R.I.I.v.c.c.n.P.Q.U.P.P.P.I.m.v.v.v.v.v.v.c.c.N.v.v.v.v."
};
