/* XPM */
static char *_8164298de0b46f9ef51ad2392fff37fXFKAGALaz7KrOXt0[] = {
/* columns rows colors chars-per-pixel */
"64 64 79 1 ",
"  c #4E3C2F",
". c #503E30",
"X c #554233",
"o c #5A4736",
"O c #5C4837",
"+ c #5E4A38",
"@ c #624D3B",
"# c #66513D",
"$ c #69543F",
"% c #6B583F",
"& c #79623D",
"* c #6C5541",
"= c #6E5942",
"- c #735C45",
"; c #785E47",
": c #775F48",
"> c #785F48",
", c #766147",
"< c #776048",
"1 c #7B624A",
"2 c #7E6A4A",
"3 c #80664D",
"4 c #836D4E",
"5 c #85704F",
"6 c #947B48",
"7 c #856C50",
"8 c #8A6E52",
"9 c #867050",
"0 c #8C7254",
"q c #8F7955",
"w c #917557",
"e c #917A56",
"r c #947758",
"t c #967B59",
"y c #997D5B",
"u c #968059",
"i c #9C835D",
"p c #9F895E",
"a c #A0865F",
"s c #A18A5F",
"d c #9E8560",
"f c #A18760",
"g c #A48D61",
"h c #A88E65",
"j c #A79062",
"k c #AA9464",
"l c #AC9465",
"z c #AD9467",
"x c #AE9767",
"c c #AF9867",
"v c #AE9568",
"b c #AF9868",
"n c #B09569",
"m c #B39A6A",
"M c #B39A6B",
"N c #B49A6B",
"B c #B39D6A",
"V c #B49D6B",
"C c #B49B6C",
"Z c #B59C6C",
"A c #B89F6D",
"S c #BA9F70",
"D c #B7A06C",
"F c #BAA16F",
"G c #BBA36F",
"H c #BBA270",
"J c #BCA370",
"K c #BEA671",
"L c #C1A773",
"P c #C0A774",
"I c #C1A873",
"U c #C2A874",
"Y c #C4AB75",
"T c #C5AB76",
"R c #C7AC78",
"E c #C7AE78",
"W c #C9AF79",
"Q c #CAB07A",
"! c #CCB27A",
/* pixels */
"1*@5satrrwrrrrrw711rgftrrwrrrrww713ygirrrrrrrttt71:exaytwrtrrrrr",
"1*$tZmgsssfgfsit013iZmfsssfgfsay077fFxggfssssssy03-tJNhgssssssay",
"1*%iLKxkkkkxkkgy017gPKxkkkkxkkgiw70xYAxxkkkkkkji04<iEKmkkkkkkkji",
"3=%iLKmxxxkxxkji017gPKxxxxxxxkgi030xWFxxxkxxxxxaw71fWLmxxxxxxxxi",
"3=%iUUAZZVBBVBbfr37gUUZZZZVVVVbfr30xWKVVZVBZZZNht71dWYFBZZZZZZmg",
"7*%iUWYUUUUUIIJxi77gUWUUYUUYIYKvi0qxWYLUYILLLLKni7<iE!YLLLLPLIKx",
"3$$tHULKLLLKKKAht31iSUKKPKKPKLFxi77gPULPPKJJJJHxt7-eKYLJKLLLKKJx",
"-++9ghffffffffiq3--0ghffffffffie4--rxhggffffffft3<*7xxgffggfggfr",
"+XX-771111<<<<<=$++-77111<<111-=$+@<8311111111<-*$o-0711111<13-*",
"o  @--*********$@oo$--********$$@Xo*-=$%*****$$$@@X@:-***$$$%*$@",
"o  +*=**********$+o@*=**********$++$=***********$+X@-******-=$$*",
"@X.@-<<<<<<<<<<<-@o$-111111111<<-$@%><<1111111<<-@X@<11111131--1",
"=oX-7000000000073$+-7000000000087-$-7000000000083$o*70000w000780",
"-+o<wtttyyyyyytw4*@<qtttttyytyyr7-*<ryttttyytytr7*@<ttttyytttyyt",
"-@o1tiiiiiiiiiir7-*3tiiiiiiiiiit8:-7iiiiiiiiiiiy0<*1iiyiiiiiiiiy",
"-@O1isfssaisssst7-=4iiisggfsiaiy0<<qsiisgffsissiw1*3iiiafssssgsy",
"-@+4igjjgsigjjgy7--0ipigjjjgsgsi0<<qsaifjjgfsfgi0-$4gfafggssgjgy",
"-@+4sjkkjfigkkgy7--0pfsgjjjgsggi0:-qgggjxkjsifgi7-*4ggsgjgfgjkxi",
"-@+4sjkkjfajkkgt7--0pgsgjkjgfgfy0;-qgjjkkkjgsfgi7:*4ggfgggfgjkxi",
"<@+4sjkkjggjkkgt7--0pgsgjkjjgjfi0::qgjjjkkjjgggi7>*5jjgjjgsgjkji",
"<@+4gxkkkkjkkkgt7--0sgsgjkkjjjgi0--qggsgxkkjjjji0:*4jkjjjgsgjxji",
"-@+4sjkkkxkkkkgy7--0sggjkkkxjjgi0>:qsgsgjkkjjjjs0:*4jkkkjgggjxji",
"-@+4sjkkjjgjkkgy7-=0sjjjkkjjjjfy0<<qgjjjkkjgsjji0-*4jkkkjjjjkkji",
"-@+4sjkkjjgjkkgy7-=0sjjjkkjjjjgy0;:qgjgjkkjgsgji7-%4jkkkkjjjkkji",
"-@+4skkkkjjxkkgy7--0sgfjkkkjjjgi7--qggfgxkkjjjji7-%9jkkkkjfjkkji",
"-@+4sjkkkkkkkkgy7--0sggjkkjjjjgi7--qggggjkkjjjgi0<=9jkkkkjgjkkji",
"-@+4sjkkkkkkkkgy7--0sjjxkkjggjst8><egjjjkkjggggi0<*9xkkkkjjjkkji",
":@+4sxkkxjjxkkgt7--0skkkkkjjgjgy0<1egkkkkkjgfggi0-%0xkkkkjjjjkxi",
"-@+4skxkjggjkjft7--0skkkkkkjjjgi0-<egkkkkkxjjjji7-*9jkxxjgggjkxi",
"-@+4skxxxggjkjgt7--0sxxkkkkkjjgi0-<ejkkkkkkkxxji7-*9jkkkjgfgjkxi",
"-++4skkxkjjjkkgy0-=0sggxkkkkkkgi8-<ejkkkkkkkxxji7-*5jkkkjjgjxxji",
"-@+4sjkkkxkkkkgy0-=0pggjkkkkkkgi0-<ejkkkkkkkkkji0-*4jkkkkjjjxxji",
"-@+4sjkkkkkkkkgt7-=0pjjkkkkkkkgi0-<ejxxkkkkkkkji0-*4jkkkjjgjkkxi",
"-@+4sjkkkkkkkjgt7-=0sjkkkkkkkkgi7-<tjkkkkkkkkkji0-*4jkkkjgfgkkxi",
"-++4sjkkkkkkkjgy7--0skkkkkkkkkgi7-<egkkkxkkkkkji8-*5jkkkjjgjkkki",
"-@+4skkkkkkkkkgy0--0skkkkkkkkkgi0-<qgkkkxkkkkkji8-*9jkkkkkxkkkgi",
"-@+4sjkkkkxkkkgy0--0skkkkkkkkkgi0-<qjkkkkkkkkkji7-*9jkkkkkkkkkjy",
"-@+4sjkkkkkkjxgy0--0skkkkkkkkkgi0<1qjkkxkkkkkxxi7-*9jkkxxkkxxxgy",
"-@+4sjkkkkxjgjgy7--0skkkkkkkkkgi0<<qjkkxkkkkkxxi7-*5jkkxxkkxxxhi",
"-@+4sjkkkkjgfgfy7--0skxkkkkkkkgi0<-qgkkkkkkkkkji7-*5jkkkkkkxxxxi",
"-@+4sjkkkkjjgjgy4-=0pkkkkkkkkkgi0--qgkkkkkkkkkji7-*9jkxjjjjkkxji",
"-@+4sjkkkkkjjjgy4-=0skkkkkkkkkgi0<<qgkkkkkkxkkji7-*5jkjgggjkkkji",
"-@+4sjkkkkkkkkgi7-=0skkkkkkkkkgi0:<qgkkkxjjkkkji8-*4jkjggjjkkkji",
"-@+4gjkjkkkkkkji9--0skkkkxjkkkgi8--qgkjjjggjkkji0-*4jkkjjjkkkkji",
"-@+5gxkjjkkkkkji9--0skkkkjjxxxgi0-<qgjggjggjkkja0-*9jkxjgjkkkjgi",
"-@+4gxkjjjkkxxgy7--0skkkkjgjkkji0<1qggfgjjjjkkja0-*5jkjgfgjkkkji",
"-@+4sjkjgjjjjjgy7--0skkkkjggjkgi0<<qggggjjjjkkxi7-*4jkjggjjjjjji",
"-@+4sjkjjgjgfggy7--0skkkkjjjjkgy7-<qgjjjjggjxkxi7-*4jkkjjkkjgjgi",
"-@+4skkjgjjgfggy0--0skkkkjjjkkgi8-<egjjjjgfgjkxi7-*4jkxjjjxjgggi",
"-@+4sjxjgjjggjgy0-=0skkkkjgjkkgi8-<eggggjgsgjkxi7-*4jkjggjjjjjji",
"-@+4sjjgggjggjgy0-=0skkkxgfgjkgi0-<egfsgjgsgjkxi7-$4jkjgfgjjjjji",
":@+4sjjgfgjgsggy7-=0skkkkgfgjkgi0<<qgfigjgsgjkxa7-*5jxxgfjjggjgi",
"-@O1uiiutiiteuu03-*3tiiiiituiiie3--4uteuiutuiiie4<*2ipiutiittuiq",
"+X +=-=%%==%%==$@++$====--=====*@@@$==*======-=*$@o#--=**======$",
"X. X++OOoooooOOooooOOOOoO+OoooOOoooO+OOOoO+OoOOOoXXo+OooooO++Ooo",
"@XX$--=---==--***$@%,--*-***==***@@=<--=***==--=*+O%<--=---=----",
"=+O2ut00000000743-=4ut00007000773--4ie00077000073*$4itq000000007",
"-@@qmvpiiiiiiiyq7--tvxsiiiiiidit7>1umxiiidddiiit7-*qZngiiiiiiiit",
"-@$tJFjjjjgjggst7-<iFDjjjjjjjjfy8<3fLBjjjxxxxjgi7-*tLHxjjjjjjjgy",
"-@$iKFxjkxxxxjgy7-<pFFkkkxxxxxgi0<3gYZkkkkkkxkji7-*tUJmkkkkkkkji",
":$%sYKmxccccccji0:<pKKmxxxxxxxxi0<3gYFcxxxxcbcxa03-iYLNccxcccxki",
"<$%fYYKKKKKKKFNgr<<sUYKFFFFFFFZgt13gEUFKFFFKKKFxt7-iQYLKKFKKFFZh",
"4%%iYWYWQQWYWWLvi31fUQWEEEEEEEPmi77gEQEEEEEWWYYZi7-iW!QWWYEWEYUC",
"6&#0vZCAHSAZZSCgt31yvSSSSSSSSSCxi77imHSSSSSSACmxi4-qCHSSSAZZZSZx"
};
