/* XPM */
static char *_251f0960f39429fb502bcac2b261d45Ytf0Lhk5KmGI4ELE[] = {
/* columns rows colors chars-per-pixel */
"64 64 241 2 ",
"   c #31733A",
".  c #6E4E34",
"X  c #7F633C",
"o  c #5D4F35",
"O  c #2B7B44",
"+  c #2F756C",
"@  c #78574B",
"#  c #6F5651",
"$  c #5F637E",
"%  c #696379",
"&  c #6E7066",
"*  c #5D605B",
"=  c #875E3E",
"-  c #895956",
";  c #99595D",
":  c #87574B",
">  c #9A7553",
",  c #8E6A54",
"<  c #B06F5D",
"1  c #925D68",
"2  c #A95D66",
"3  c #B75B66",
"4  c #976A68",
"5  c #987668",
"6  c #9C6A74",
"7  c #9A7574",
"8  c #8F6968",
"9  c #A46366",
"0  c #A76669",
"q  c #BD646C",
"w  c #BD6B6C",
"e  c #B56769",
"r  c #A8766C",
"t  c #A46E72",
"y  c #A86B77",
"u  c #B76D75",
"i  c #AA7475",
"p  c #AD7579",
"a  c #A7757A",
"s  c #B47679",
"d  c #C35E66",
"f  c #CD6D6C",
"g  c #C6686A",
"h  c #C7716D",
"j  c #C36B72",
"k  c #CA6C74",
"l  c #C26773",
"z  c #C67576",
"x  c #D57073",
"c  c #378547",
"v  c #479558",
"b  c #468856",
"n  c #66A15F",
"m  c #4F9367",
"M  c #78936B",
"N  c #799A7B",
"B  c #608D62",
"V  c #51A36D",
"C  c #78A279",
"Z  c #7ABC77",
"A  c #62B37C",
"S  c #69C37E",
"D  c #74C77C",
"F  c #889A7B",
"G  c #9B9C77",
"H  c #938973",
"J  c #B68A68",
"K  c #A48576",
"L  c #B5887A",
"P  c #B09A78",
"I  c #84B36F",
"U  c #99AF71",
"Y  c #AFB67A",
"T  c #C29674",
"R  c #C0A379",
"E  c #796F8D",
"W  c #547385",
"Q  c #8F7895",
"!  c #AD7882",
"~  c #B27E85",
"^  c #B77889",
"/  c #B97A92",
"(  c #AA6A82",
")  c #8376A1",
"_  c #C87B8B",
"`  c #5DAF91",
"'  c #6CA984",
"]  c #7AB884",
"[  c #6CB88E",
"{  c #7B99B8",
"}  c #78A0A1",
"|  c #69C583",
" . c #7AC485",
".. c #6AC49A",
"X. c #79C199",
"o. c #6FCBA1",
"O. c #71B3C3",
"+. c #9C8A88",
"@. c #878699",
"#. c #929393",
"$. c #AA8A88",
"%. c #B78589",
"&. c #AA9484",
"*. c #B89683",
"=. c #A58A95",
"-. c #AD9898",
";. c #BA9598",
":. c #B58B94",
">. c #8AB08D",
",. c #ABAE8F",
"<. c #9786A5",
"1. c #9191AF",
"2. c #AB97AB",
"3. c #BA99A6",
"4. c #A694B4",
"5. c #89A9A9",
"6. c #99A9AA",
"7. c #92B3BA",
"8. c #A7A9A9",
"9. c #B7A5A8",
"0. c #A9A8B8",
"q. c #BAA4B4",
"w. c #A9B3B7",
"e. c #B9B7B8",
"r. c #B7B2A7",
"t. c #C79A97",
"y. c #CA9789",
"u. c #C8B48D",
"i. c #C59BA6",
"p. c #D19DAA",
"a. c #C1B4A8",
"s. c #C4ADB6",
"d. c #C6B9BA",
"f. c #D6B7B7",
"g. c #D2ABAC",
"h. c #E3BAB8",
"j. c #85C288",
"k. c #93CC97",
"l. c #B3CE98",
"z. c #93CDB4",
"x. c #B8C8B7",
"c. c #CCDA9A",
"v. c #E2C09A",
"b. c #C7C1A9",
"n. c #C9C8BC",
"m. c #D4CDB7",
"M. c #D9EEB4",
"N. c #E8E7AE",
"B. c #E5D0BD",
"V. c #8CA5C6",
"C. c #9EBDD9",
"Z. c #ABBEC8",
"A. c #B7B9C5",
"S. c #A9B2CE",
"D. c #C6BCC8",
"F. c #CEBECE",
"G. c #8FCEC4",
"H. c #9BD7DA",
"J. c #8DD3D1",
"K. c #ACC7C9",
"L. c #BBC6C8",
"P. c #B3CDD3",
"I. c #BBC7DB",
"U. c #A6D4D8",
"Y. c #BBD7D6",
"T. c #AFD3CF",
"R. c #98E0DF",
"E. c #98DCEC",
"W. c #9BDFF2",
"Q. c #A8DCE4",
"!. c #BADBE0",
"~. c #9CE7EB",
"^. c #A4E6E8",
"/. c #A7E6F6",
"(. c #BAFFFF",
"). c #C8CAC8",
"_. c #D9C8C7",
"`. c #C7D8CA",
"'. c #D4D2C7",
"]. c #C8C9D6",
"[. c #D4D5D3",
"{. c #D7DADB",
"}. c #D1D0D9",
"|. c #EAC8C9",
" X c #F6CFD2",
".X c #E6D7D8",
"XX c #F5D8DB",
"oX c #E5D0CE",
"OX c #D9E3DE",
"+X c #CFEBC6",
"@X c #E4E2DC",
"#X c #FCF1D6",
"$X c #C9DBE9",
"%X c #D9DAE5",
"&X c #F1DBE5",
"*X c #CAE5E7",
"=X c #DBE5E5",
"-X c #DDEBF7",
";X c #DAF4F6",
":X c #DBF1EF",
">X c #E3E3E5",
",X c #EBECE6",
"<X c #E6ECEB",
"1X c #EAEBEA",
"2X c #E7E7E7",
"3X c #FDE4E2",
"4X c #FCE4EC",
"5X c #F3ECEC",
"6X c #FDEBEB",
"7X c #F8E8E6",
"8X c #E5F2EB",
"9X c #ECF2ED",
"0X c #E8F5EA",
"qX c #F3F2EE",
"wX c #FDF3EE",
"eX c #FEFEEE",
"rX c #EDEBF3",
"tX c #E8E4F0",
"yX c #F3EDF2",
"uX c #FDEEF3",
"iX c #F5EBF5",
"pX c #EDF4F3",
"aX c #EEFAF4",
"sX c #ECFEFE",
"dX c #E5F6FA",
"fX c #F5F5F5",
"gX c #FBF4F5",
"hX c #F2F9F4",
"jX c #FDFAF5",
"kX c #F6F6F9",
"lX c #F4F5FA",
"zX c #FDF2F9",
"xX c #F9F4F9",
"cX c #FDF5FB",
"vX c #F4FCFB",
"bX c #FBFBFB",
"nX c #F9F9F9",
"mX c #FAFFFF",
"MX c #FFFFFF",
"NX c #FEFDFE",
"BX c #FCFCFC",
/* pixels */
"fXfXfXfXfXnXnXnXfXfXfXfXfXfXfXfXgXgXgXgXgXfXfXfXfXhXhXaXaXaXaXaXaXaXhXhXhXhXfXfXfXfXgXgXgXgXgXgXfXfXfXfXfXfXfXfXfXfXfXfXfXfXfXfX",
"fXfXfXfXfXfXfXfXfXfXfXfXfXfXfXfXfXfXfXgXgXfXfXfXfXhXhXhXaXaXaXaXhXhXhXhXfXfXfXfXfXfXfXfXgXgXgXgXfXfXfXfXfXfXfXfXfXfXfXfXfXfXfXfX",
"fXfXfXfXfXfXfXfXfXfXfXfXfXfXfXfXfXfXfXfXfXfXfXfXfXfXfXfXfXfXfXfXfXfXfXfXgXgXgXgXgXfXfXfXfXfXfXfXfXfXfXfXfXfXfXfXfXfXfXfXfXfXfXfX",
"fXfXfXfXfXfXfXfXfXfXfXfXfXfXfXfXfXfXfXfXfXfXfXfXgXgXgXgXgXgXgXgXzXzXzXzXzXgXgXgXgXfXfXfXfXhXhXhXfXfXfXfXfXfXfXfXfXfXfXfXfXfXfXfX",
"fXfXfXfXfXfXfXfXfXfXfXfXfXfXfXfXfXhXkXfXkXfXkXkXxXxXxXzXzXzXzXzXzXzXzXzXzXzXxXgXfXfXfXhXhXhXhXhXfXfXfXfXfXfXfXfXfXfXfXfXfXfXfXfX",
"fXfXfXfXfXfXfXfXfXfXfXfXfXfXfXfXfXfXkXkXkXkXkXkXkXxXxXxXzXzXzXzXzXzXzXzXzXxXxXfXfXfXhXhXhXhXhXhXfXfXfXfXfXfXfXfXfXfXfXfXfXfXfXfX",
"fXfXfXfXfXfXfXfXfXfXfXfXfXfXfXfXfXkXkXkXkXkXkXkXkXkXkXkXfXgXgXxXxXxXxXkXkXkXkXkXhXhXhXhXhXhXhXfXfXfXfXfXfXfXfXfXfXfXfXfXfXfXfXfX",
"nXnXnXfXfXfXfXfXfXfXfXfXfXfXfXkXxXxXkXkXkXkXlXlXlXlXlXhXhXhXfXfXkXkXkXlXlXlXlXlXhXhXhXhXhXfXfXfXfXfXfXfXfXfXfXfXfXfXfXfXfXfXfXfX",
"fXfXfXfXfXfXfXfXfXfXfXfXfXfXfXxXyXcXiXNXBXpXvXpXpXaXaXaXhXvXaX8XmXlXpXpXaXvXvXaXvXpXnX9XyXnX5XcXxXfXnXfXhXnXfXnXfXgXfXfXfXfXfXfX",
"fXfXfXfXfXfXfXfXfXfXfXfXfXfXfXxXNX5XNXyXrXmX>XaXpXaXaX8X<X0XhXvX=XpXmXmXaX8XpXaX<XmX<XmXNX2XNX1XfXmX1XnXnX1XmXfXfXgXfXfXfXfXfXfX",
"fXfXfXfXfXfXfXfXfXfXfXfXfXfXfXkXuXNX2XxXBX<XmX9XpXaXhXaXaXhX9X9XNXgX,X9XvXmXvXpXpX>XmXfXfXmX5XNXcX1XmXfXfXmX1XnXfXlXgXfXfXfXfXfX",
"fXfXfXfXfXfXfXfXfXfXfXfXfXfXfXfXgX5XNXkXkXmX9XhXBXqX,XqXjXjXjX6XgXjXNXjXqXqXqXfXbXmXfXgXgX5XcXgXgXnXfXnXnXfXnXgXhXfXfXfXfXfXfXfX",
"fXfXfXfXfXfXfXfXfXfXfXfXfXfXfXfXgXyXmXfXfXfX1XfXqX5XwXjXjX6X Xh.:.g.|.3XwXgXjXNX1XfX1XfXNXgXcX5XgXnXfXnXnXfXnXgXhXhXfXfXfXfXfXfX",
"fXfXfXfXfXfXfXfXfXfXfXfXfXfXfXfXyXmX1XnXnX2XNXjXgXgX6X3X|.t.%.p 9 9 t %.f.XX6XjXNX7XmX1XfXmXyXmXBX1XmXfXfXmX1XnXlXhXfXfXfXfXfXfX",
"fXfXfXfXfXfXfXfXfXfXfXfXfXfXfXfXvX>XmX9XhXNX2XwX6XoXg.%.0 ; 2 e l j w 9 ; t ;.f.7XcX5XmXnX>XBX1XfXmX1XnXnX1XmXfXgXfXfXfXfXfXfXfX",
"fXfXfXfXfXfXfXfXfXfXfXfXfXfXfXfXfXnX1XjXjX7X.Xf.$.8 - ; 9 e e 3 3 3 q w e 9 1 - 7 -..XgXNXNXuXcXxXfXnXgXgXnXfXnXgXlXfXfXfXfXfXfX",
"fXfXfXfXfXfXfXfXfXnX1XfXnXfXmXqXwXwXjX3Xf.$.7 4 4 0 u e w z w j l j q z 2 s u i t t 7 a |.XXuXuXNXgXcXyXfXcXfXnXfXfXfXfXfXfXfXfX",
"fXfXfXfXfXfXfXfXcX1XmXfXfXmX>X5X6Xf.$.7 8 7 a a p p t 9 9 0 u u 0 e 9 e ; u u s 0 p p 4 4 8 i._..XcX1XmXmX1XmX1XfXfXfXfXfXfXfXgX",
"fXfXfXfXfXfXfXfXfXmX1XmXmX2XnX>XD.e.q.9.3.3.3.;.3.3.3.i.i.i.i.:.;.t.;.;.:.;.;.;.i.;.=.-.-.+.-.+.d.d.5X1X5XmX1XmXfXfXfXfXfXfXgXgX",
"fXfXfXfXfXfXfXfXfX1XnXfXfXNX1XlXtXiXBXtXD.2.2.2.s.q.2.2.2.2.q.q.9.9.9.9.s.s.9.-.-.-.9.d.d.d.5XqX>XyX5XnXfX1XnXhXfXfXfXfXfXfXgXgX",
"fXfXfXfXfXfXfXfXnX1XnXfXfXmXfXBXmXvXlXtX}.}.%X%XF.0.A.A.A.S.0.A.0.w.e.e.xXmXmXfX@.8.).mXfX[.fXnXmXmXfXnXnXpXnXpXhXhXfXfXfXfXgXgX",
"fXfXfXfXfXfXfXfXfXmX2XnXnX1XmXlXlXlXlX>X].D.A.A.].S.-XvXvX-XZ.$XvXdX=XA.vXvXpX].>X%X).mXkX=XpX<XfX>XnX<XpXmX<XmXhXhXfXfXfXfXgXgX",
"fXfXfXfXfXfXfXfXmX1XmX1XfXmX1XnXqXjXmX1X[.[.>X2X{.6.=XdXdX;XZ.sXsXsX-Xw.vXmXmX%XL.{.).mXmX{.tXlXnXmXfXmXmX<XmX8XhXhXfXfXfXfXgXgX",
"fXfXfXfXfXfXfXfXfXnX1XnXnXfXnXqXgXgXgX.X).).[.[.%X#.8XvXsX;X5.;XdXsXdX7.sXvXmX}.].=XA.mXmX{.tXmXfX1XmXhX9XhXpXmXhXhXfXfXfXfXgXgX",
"fXfXfXfXfXfXfXfXfXfXfXfXfXfXnXcXjXwXjX@X'.n.).w.w.6.`.=X*XY.7.Y.;X*X$XP.-X;XdX=XL.].L.mXBX%X<XlXkXhXfXpXhXhXhXpXhXhXfXfXfXfXgXgX",
"fXfXfXfXfXfXfXfXgXfXnXmXmXnXfXqX1X@X>X{.9XnXmXpX6.#.K.P.P.K.5.K.K.K.P.*XsXsX-X%XA.L.A.vXvX{.<XnXfXfXfXfXnXnXnXhXhXhXfXfXfXfXgXgX",
"fXfXfXfXfXfXfXfXfXfX1XfXfXfXfXfXmXlXlX<XlXlXvX%Xw.6.K.P.P.K.7.K.Y.Y.Y.:XsXsX=X{.#.6.L.vXmX=XpXhXxXgXgXgXxXkXfXhXfXfXfXfXfXfXfXfX",
"fXfXfXfXfXfXfXfXmXmXnXfXfXfXnXnX>X>XlXrXcXxXNXtX0.6.A.].].L.0.w.).`.).<XpXNXqXNXcXgXgXjXjX'.1XjXgXzXuXgXgXgXfXfXfXfXfXfXfXfXfXfX",
"fXfXfXfXfXfXfXfXfXfXmXmXnXfX1X5XNXuXzX7X4X4XzX4Xs.q.d.F._.F.q.s.d.f.f.XX3X6XXX6X6X6XgXjXgXoX3XgXuXuXzXzXzXgXgXgXfXfXfXfXfXfXfXfX",
"fXfXfXfXfXfXfXfX1X1XfXfXfXfXnXcXcX Xf.:.%.! %.a ~ ! ~ ~ %.~ ~ ~ s L p %.%.s t s p t a t a a g. X4XuXcXcXcXcXgXgXfXfXfXfXfXfXfXfX",
"fXfXfXfXfXfXfXfXmXnXfXfXnXxXfX7Xh.y.z 0 e e z w g g w w w w g g g j q 3 q e q l l q w u e 2 2 p f._.XX4XzXcXzXgXfXfXfXfXfXfXfXfX",
"fXfXfXfXfXfXfXfXfXuXzXcXzX.Xs.$.r < z h h e x f g f f f f g f g g f x d x f k g g d 3 k 3 k 3 u 1 ! i.|.4XuXcXNXzXgXfXfXfXhXhXhX",
"hXhXhXhXhXfXfXzXNX4XuX|.i.a ! u s e h w z z 3 l l k l q j g e f f f f f g h x k k j z q l _ j u ^ a 6 6 :.f. XcXuXgXgXfXfXhXpXaX",
"hXhXhXhXhXfXfXzX.X9.;.a y p _ p ~ a p y ^ / ( / / ^ / ^ ! / %.p s 0 9 i i i a p p y _ ^ y y 1 ! 6 %.p.i.i.i.s._.uXgXgXfXfXhXpXaX",
"fXfXfXfXfXfXfXfXuX.XXXXXuX4X3Xi.=.<.<.<.<.<.) <.4.) ) E E <.0.@.% 8.L.6.6.K.Z.@.E % Q <.Q % % @.=.f.zXzXuXuXuXNXgXgXgXfXfXfXhXhX",
"gXgXgXfXfXfXhXfXfXfXcXgXcXzX4Xq.D.].].I.I.S.V.V.C.V.{ { { V.C.7.5.z.U.G.z.G.U.P.1.% E Q E * W } e.d.gX6XgXgX5XuXgXgXgXgXgXfXfXhX",
"zXzXzXgXfXhXhXhXaXBXBX9XqX5XgXe.@X1X<X:X:XY.U.U.U.H.H.Q.^.H.7.} >.] A A [ ' ' >.H # # # & & L.sX0X).hX9XbXhX9XfXfXfXfXgXgXgXfXfX",
"zXzXzXgXfXhXhXaX8XaXaXaXmXhXhX8.[.@X{.OX*XT.U.^.H.^.~.E.^.J.` m b m v v V m B F &., 4 4 @ # n.hX=Xx.hXpXBXhX9XBXhXfXfXfXgXgXfXfX",
"zXzXzXgXfXhXhXaXvXhX8X=XaX8XaX8._.&X}.%X$XI.Q./././.W.E.E.E.O.+ m c O b b   M #XK - r s 5 # m.jX,Xx.vX0XhX0X<X1XhXhXfXfXfXfXfXfX",
"zXzXgXfXfXhXhXhX0XvXpXhXvX0XhXr._.&X.X>X=XP.Q.^.^.~./.~.~.(.H.+ O c         F #X*.: 9 r 4 @ m.eX,Xx.BXOXhXBXBXhXhXhXhXfXhXfXhXhX",
"gXgXfXfXfXfXhXhXBX9XhXNX9XhXqXr.u.c.r.l.x.k.' X.[ ....o.o.....[ [ V m ] >.M &.B.K 5 4 4 4 @ |.wX@X).qXqXfXfXfXnXfXhXhXhXhXhXhXhX",
"fXfXfXfXhXfXfXfXfXqXqXjX5XjXgXr.N.N.c.c.M.l.D k.| | | | | | S S S  .k.+X+Xb.P *.*.L K r r @ t.f.a.d.gXjXmXgXfXfXfXfXfXhXhXhXhXhX",
"fXfXfXfXhXfXfXgXgXgXgXgX6XcXjXa.Y Y U U l.I n Z  . .| S S S D D D Z I Y u.R J J T J > , > . < L &._.cXgXgX6XuXgXgXfXfXhXhXhXhXhX",
"hXhXhXfXfXfXgXgXgXcXgXgX6XcXgXr.N.N.c.M.M.l.>.k.j.j.]  . . . .j.Z I ,.N.#Xv.T T y.P > X > = J y.K _.cX7XgX6XzXcXgXfXfXfXhXhXhXhX",
"hXhXfXfXfXfXgXgX5XgXwXwX5XgX7Xa.G G G G ,.H & M F N N N N C C C C M M G ,.K 5 K K 5 @ o @ o , H H '.jX5XNXgXgX5XgXgXfXfXfXfXfXfX",
"fXfXfXfXfXfXgXgX5XnXqXnXgXgXwX'.b.b.b.m.'.).'.OX`.`.`.`.`.`.`.`.T.`.`.x.n._.m._.oXoX'._.'.n.'.[.n.2XjXqXNXqXNX1XgXgXgXgXgXgXgXgX",
"fXfXfXfXfXgXfXfXfXnXqXbXbXhXbXqXjXjXjXnXNXxXBXmXmXmXmXvXmXvXvXvXvXmXvX1XhXmXmXNXzXuXNXmXmXmXvXvXBXhXhX9XhX2XmXfXfXgXgXgXzXzXzXzX",
"gXfXfXfXfXfXfXfXnXnX1XhXhX9XhXbXqXhXfXfXcXcXlXrXlXiXrXpXpXpXpXpXpXlXlXvXmXlX1XxXcXiXcXcXrXlXsXdXvX0X9XhXmX2XmX9XfXfXgXgXgXzXzXzX",
"fXfXfXfXfXfXfXfXxXfXnXhXhXnXqXfXnXqXnXfXfXBXfXcXkXkXkXkXkXfXfXfXfXfXkXkXkXkXkXkXgXNXyXxXnXfXvXhXhXBXqXfXnXfXnXfXfXfXfXfXfXfXfXfX",
"fXfXfXfXfXfXfXfXfXmX1XnXnX1XmXfXfXmX1XnXnX1XmXfXfXfXfXfXfXfXfXfXfXfXfXfXfXfXfXfXnX1XmXfXfXmX1XnXnX1XmXfXfXmX1XnXfXfXfXfXfXfXfXfX",
"fXfXfXfXfXfXfXfXnX1XmXfXfXmX1XnXnX1XmXfXfXmX1XnXfXfXfXfXfXfXfXfXfXfXfXfXfXfXfXfXfXmX1XnXnX1XmXfXfXmX1XnXnX1XmXfXfXfXfXfXfXfXfXfX",
"fXfXfXfXfXfXfXfXgXnXfXnXnXfXnXfXfXnXfXnXnXfXnXfXfXfXfXfXfXfXfXfXfXfXfXfXfXfXfXfXnXfXnXgXgXnXfXxXnXfXnXfXfXnXfXnXfXfXfXfXfXfXfXfX",
"fXfXfXfXfXfXfXfXfXnXfXnXnXfXnXfXhXnXfXnXnXfXnXfXfXfXfXfXfXfXfXfXfXfXfXfXfXfXfXfXnXfXnXfXfXnXfXnXxXfXnXgXfXnXfXnXfXfXfXfXfXfXfXfX",
"fXfXfXfXfXfXfXfXnX1XmXfXfXmX1XnXnX1XmXfXfXmX1XnXfXfXfXfXfXfXfXfXfXfXfXfXfXfXfXfXfXmX1XnXnX1XmXfXfXmX1XnXnX1XmXfXfXfXfXfXfXfXfXfX",
"fXfXfXfXfXfXfXfXfXmX1XnXnX1XmXfXfXmX1XnXnX1XmXfXfXfXfXfXfXfXfXfXfXfXfXfXfXfXfXfXnX1XmXfXfXmX1XnXnX1XmXfXfXmX1XnXfXfXfXfXfXfXfXfX",
"fXfXfXfXfXfXfXfXnXfXnXfXfXnXfXnXnXfXnXgXgXnXfXxXfXfXfXfXfXfXfXfXfXfXfXfXfXfXfXfXfXnXfXnXnXfXnXfXfXnXfXnXnXfXnXfXfXfXfXfXfXfXfXfX",
"fXfXfXfXfXfXfXfXfXfXfXfXfXfXfXfXfXfXfXfXfXfXfXfXfXfXfXfXfXfXfXfXfXfXfXfXfXnXfXfXfXfXfXfXfXfXfXfXfXfXfXfXfXfXfXfXfXfXfXfXfXfXfXfX",
"fXfXfXfXfXfXfXfXfXfXfXfXfXfXfXfXfXfXfXfXfXfXfXfXfXfXfXfXfXfXfXfXfXfXfXfXfXnXfXfXfXfXfXfXfXfXfXfXfXfXfXfXfXfXfXfXfXfXfXfXfXfXfXfX",
"fXfXfXfXfXfXfXfXfXfXfXfXfXfXfXfXfXfXfXfXfXfXfXfXfXfXfXfXfXfXfXfXfXfXfXfXfXnXkXxXfXfXfXfXfXfXfXfXfXfXfXfXfXfXfXfXfXfXfXfXfXfXfXfX",
"fXfXfXfXfXfXfXfXfXfXfXfXfXfXfXfXfXfXfXfXfXfXfXfXfXfXfXfXfXfXfXfXfXfXfXfXfXxXfXgXfXfXfXfXfXfXfXfXfXfXfXfXfXfXfXfXfXfXfXfXfXfXfXfX",
"fXfXfXfXfXfXfXfXfXfXfXfXfXfXfXfXfXfXfXfXfXfXfXfXfXfXfXfXfXfXfXfXfXfXfXfXfXfXfXfXfXfXfXfXfXfXfXfXfXfXfXfXfXfXfXfXfXfXfXfXfXfXfXfX",
"fXfXfXfXfXfXfXfXfXfXfXfXfXfXfXfXfXfXfXfXfXfXfXfXfXfXfXfXfXfXfXfXfXfXfXfXfXfXfXfXfXfXfXfXfXfXfXfXfXfXfXfXfXfXfXfXfXfXfXfXfXfXfXfX",
"fXfXfXfXfXfXfXfXfXfXfXfXfXfXfXfXfXfXfXfXfXfXfXfXfXfXfXfXfXfXfXfXfXfXfXfXfXfXfXfXfXfXfXfXfXfXfXfXfXfXfXfXfXfXfXfXfXfXfXfXfXfXfXfX",
"fXfXfXfXfXfXfXfXfXfXfXfXfXfXfXfXfXfXfXfXfXfXfXfXfXfXfXfXfXfXfXfXfXfXfXfXfXfXfXfXfXfXfXfXfXfXfXfXfXfXfXfXfXfXfXfXfXfXfXfXfXfXfXfX"
};
