/* XPM */
static char *_3ae6208e21e482fa5bf7e4365036291UrANinoyNgel1amp[] = {
/* columns rows colors chars-per-pixel */
"64 64 174 2 ",
"   c #000102",
".  c #060900",
"X  c #090E01",
"o  c #000509",
"O  c #00090A",
"+  c #130404",
"@  c #1E0001",
"#  c #190809",
"$  c #101700",
"%  c #141F00",
"&  c #250101",
"*  c #2D0303",
"=  c #2D0809",
"-  c #340606",
";  c #3C0504",
":  c #330708",
">  c #340808",
",  c #162000",
"<  c #182301",
"1  c #1A2903",
"2  c #163512",
"3  c #193613",
"4  c #2D3202",
"5  c #293D02",
"6  c #353004",
"7  c #430403",
"8  c #4B0404",
"9  c #560405",
"0  c #5B0404",
"q  c #560708",
"w  c #5C060A",
"e  c #5D080B",
"r  c #551B07",
"t  c #630404",
"y  c #6A0506",
"u  c #610708",
"i  c #6C0609",
"p  c #680808",
"a  c #750503",
"s  c #691103",
"d  c #632314",
"f  c #6C3A37",
"g  c #723931",
"h  c #2C4102",
"j  c #2F4803",
"k  c #32490A",
"l  c #354E0B",
"z  c #3A5402",
"x  c #1F4529",
"c  c #25492B",
"v  c #33543B",
"b  c #445704",
"n  c #436401",
"m  c #466902",
"M  c #496D02",
"N  c #4B7003",
"B  c #537B01",
"V  c #4F6A1A",
"C  c #506B1A",
"Z  c #557715",
"A  c #5B5930",
"S  c #645E35",
"D  c #486528",
"F  c #597D25",
"G  c #536D3F",
"H  c #820603",
"J  c #8B0301",
"K  c #87070A",
"L  c #940201",
"P  c #960707",
"I  c #9E0201",
"U  c #9C0806",
"Y  c #95090A",
"T  c #83180D",
"R  c #A30201",
"E  c #AB0102",
"W  c #A00804",
"Q  c #A40B0C",
"!  c #AD0A09",
"~  c #B50202",
"^  c #BB0101",
"/  c #BF0806",
"(  c #BF0A09",
")  c #9D2E2B",
"_  c #A53838",
"`  c #C40202",
"'  c #CD0303",
"]  c #C40806",
"[  c #CF0806",
"{  c #C20909",
"}  c #D30303",
"|  c #DA0303",
" . c #DC060A",
".. c #E40303",
"X. c #EC0404",
"o. c #E50609",
"O. c #F50101",
"+. c #FE0100",
"@. c #FE0803",
"#. c #F9070A",
"$. c #FE0509",
"%. c #EE191C",
"&. c #F71A18",
"*. c #F1261C",
"=. c #F72321",
"-. c #EF3C3C",
";. c #F23534",
":. c #F03837",
">. c #FA3937",
",. c #824339",
"<. c #D44F50",
"1. c #D25353",
"2. c #F04041",
"3. c #EB605E",
"4. c #F2615F",
"5. c #EF6160",
"6. c #ED6568",
"7. c #F36262",
"8. c #F86566",
"9. c #FA6965",
"0. c #568100",
"q. c #598401",
"w. c #5D8C01",
"e. c #5F8517",
"r. c #5B8119",
"t. c #608A03",
"y. c #659601",
"u. c #679901",
"i. c #6A9D01",
"p. c #6A9C0B",
"a. c #61831A",
"s. c #668B1B",
"d. c #6DA201",
"f. c #70A502",
"g. c #72A902",
"h. c #73AA02",
"j. c #74AB03",
"k. c #76AE03",
"l. c #75AB04",
"z. c #76AD04",
"x. c #77AF04",
"c. c #78AF03",
"v. c #77B003",
"b. c #79B103",
"n. c #79B203",
"m. c #79B104",
"M. c #6EA115",
"N. c #73A716",
"B. c #5F8527",
"V. c #678D3B",
"C. c #6E8744",
"Z. c #788B48",
"A. c #80AE21",
"S. c #859557",
"D. c #DC807E",
"F. c #ED9997",
"G. c #F19F9F",
"H. c #EEA19F",
"J. c #F29EA1",
"K. c #EDA1A0",
"L. c #F8A2A2",
"P. c #F3B1AF",
"I. c #EEAFB5",
"U. c #EDBFBC",
"Y. c #FFC3C3",
"T. c #F1CCCA",
"R. c #FFCECE",
"E. c #F1DBD4",
"W. c #FDE0DF",
"Q. c #F8E7E7",
"!. c #F9EAEA",
"~. c #EEFFFF",
"^. c #F5FFFF",
"/. c #FDFFFF",
/* pixels */
"b.d.d.i.u.i.i.d.d.d.d.d.k.h.h.f.d.y.u.j.j.v.b.d.i.i.u.i.i.d.d.d.d.i.j.h.h.f.d.u.u.h.k.k.b.h.d.d.u.i.i.d.d.d.d.i.f.j.h.h.d.i.y.d.",
"d.d.d.f.d.d.d.d.z.f.d.f.d.d.d.i.i.d.i.d.j.k.f.d.d.f.d.i.d.d.k.h.d.f.d.d.d.d.i.i.d.i.h.k.f.d.d.f.d.i.d.d.h.z.d.f.d.d.d.d.i.i.d.i.",
"d.d.d.k.j.d.d.d.z.k.h.l.d.d.d.d.i.d.d.i.d.d.d.d.d.k.k.f.d.d.j.m.h.z.d.d.d.d.i.d.d.i.d.d.d.d.d.j.k.f.d.d.h.m.h.j.f.d.d.d.i.d.d.i.",
"i.u.d.d.d.f.i.i.d.f.d.d.d.h.k.d.d.m.h.d.d.i.i.i.i.f.d.d.d.u.d.f.f.d.d.d.k.d.d.k.k.d.i.i.i.i.i.f.d.d.d.u.i.d.f.d.i.d.k.f.d.j.k.d.",
"i.i.d.d.i.d.d.d.d.d.i.u.d.d.h.k.k.m.f.d.i.d.i.i.d.d.i.d.f.d.d.d.d.u.d.d.f.b.k.m.h.d.i.d.d.u.d.d.i.i.d.d.i.d.d.u.i.d.d.v.k.z.k.d.",
"f.d.h.j.f.d.m.h.f.h.d.d.d.i.i.h.h.d.d.d.d.d.f.f.f.h.h.d.k.k.d.j.d.d.d.i.u.h.h.d.i.d.d.d.d.f.d.h.h.d.h.m.d.h.f.d.d.d.u.d.h.d.i.d.",
"z.d.h.b.f.i.h.k.h.d.d.k.f.d.d.d.d.y.i.j.f.h.z.d.f.b.l.i.f.k.h.f.d.k.h.d.d.d.d.u.u.h.h.f.v.f.d.b.z.d.d.k.h.h.i.h.j.d.d.d.d.u.y.f.",
"h.i.d.h.i.u.d.d.d.u.i.h.k.h.k.d.i.u.i.d.k.b.j.d.d.h.d.u.i.d.d.i.i.f.k.j.j.h.i.u.i.d.k.m.k.d.d.f.d.u.i.d.d.d.u.d.k.k.h.k.d.u.u.d.",
"d.d.d.d.f.d.f.h.d.d.d.i.d.f.f.d.d.d.d.d.d.h.d.d.d.i.f.d.d.h.d.d.d.i.d.d.f.d.d.d.d.d.d.h.d.d.d.i.d.d.d.h.d.i.d.i.d.d.f.d.d.d.d.d.",
"i.d.d.d.h.j.f.d.d.f.f.i.d.i.i.d.f.h.C 5 5 5 5 5 5 k p.h.f.d.d.f.f.d.d.d.i.d.z 5 h 5 5 5 5 5 w.d.d.h.h.d.d.d.h.d.i.d.i.d.d.h.h.f.",
"d.h.d.i.i.d.i.u.d.k.j.d.f.d.d.d.d.d..               B d.i.u.i.h.k.d.f.d.d.d..               0.d.i.i.d.u.i.f.k.d.f.f.d.d.d.d.d.i.",
"b.h.d.d.f.d.i.d.f.f.d.d.d.k.k.d.d.u.,               t.d.i.d.f.d.d.d.d.h.k.f.,               q.d.f.f.i.d.f.d.d.d.d.h.b.f.d.u.u.i.",
"k.i.i.d.b.c.f.k.d.d.i.y.i.h.k.z.i.u.v               A.b.f.k.h.d.d.u.i.d.k.z.1             o y.i.j.b.h.j.j.d.d.u.u.d.k.k.f.u.i.i.",
"d.i.u.d.d.j.z.h.u.d.d.i.i.d.z 5 5 D ) R U U U U W Q A k h h w.i.d.i.z 5 5 h s L H H H H J K 6 5 5 h u.z.d.u.d.i.i.d.d.d.d.d.d.d.",
"d.d.f.d.i.i.d.d.d.u.i.d.d.y..       | +.+.+.+.+.+.@.&       B u.i.d..       ^ $.X.X.X.X.#.@.>       B d.d.i.u.d.d.u.u.d.d.k.h.h.",
"u.d.v.k.h.d.d.d.d.i.d.z.d.i.<       ( +.+.+.+.+.+.@.=       q.i.d.k.<       R X.' ' ' ' ' | :       q.d.d.d.d.h.h.i.i.d.d.h.h.d.",
"u.d.d.b.m.d.d.d.d.d.d.k.k.f.x     o ( +.+.+.+.+.+.@.#       M.d.d.j.c       L ..` ` ' ' } | #       p.d.d.d.d.h.k.h.d.i.i.d.d.u.",
"i.d.i.i.d.d.d.h.h.h.V 5 h D ) R P Y X.+.+.+.+.+.+.+.! Y U Q S l h G _ U Y Y | O.X.X.} ` } } a 0 t a S l h 5 y.d.f.h.f.f.f.u.i.d.",
"h.f.h.d.y.d.d.d.f.f..       | @.+.+.+.+.+.+.+.+.+.+.+.+.+.@.*       | @.$.+.+.+.+.+.| ` ' } ~ E ^ ^ @       B d.d.d.d.f.k.k.d.k.",
"f.h.k.h.i.h.h.d.d.d.<       ] +.+.+.+.+.+.+.+.+.+.+.+.+.+.$.-     o ' +.+.+.+.+.+.+.} ` ' ' R L I R &       0.d.d.d.u.i.d.b.b.h.",
"i.d.d.i.d.h.k.h.f.u.2   o   ` +.+.+.+.+.+.+.+.+.+.+.+.+.+.@.#     O { +.+.+.+.+.+.+.' ^ ` ' I J L I +       w.d.i.d.i.i.d.d.k.d.",
"h.k.d.i.d.d.z 5 h h T W P L D.L.J.K.=.+.+.+.+.+.+.+.+.+.+.@.! P P P o.+.+.+.+.+.+.+.X.X.X.X.` ~ ^ ^ a 9 t y 4 h h j d.f.d.d.d.d.",
"b.d.d.i.u.i..       X.+.+.+.!././.^.2.+.+.+.+.+.+.+.+.+.+.+.+.+.+.+.+.+.+.+.+.+.+.+.+.+.+.+.| ' } | ^ E ^ ^ &       f.h.d.i.y.d.",
"f.d.d.d.i.i.,       [ +.+.O.T./././.:.+.+.+.+.+.+.+.+.+.+.+.+.+.+.+.+.+.+.+.+.+.+.+.+.+.+.+.} ` ' ' R L I R @     . f.d.i.i.i.i.",
"d.d.d.k.h.d.,       [ +.+.O.T././.^.:.+.+.+.+.+.+.+.+.+.+.+.+.+.+.+.+.+.+.+.+.+.+.+.+.+.+.+.} ` ' ' R L I R @     . d.d.i.i.d.i.",
"i.i.d.h.f.f.,       [ +.+.O.T././.^.:.+.+.+.+.+.+.+.+.+.+.+.+.+.+.+.+.+.+.+.+.+.+.+.+.+.+.+.} ` ' ' R L I R @     . h.d.i.f.k.d.",
"u.u.d.i.i.d.,     o [ +.+.O.T././.^.:.+.+.+.+.+.+.+.+.+.+.+.+.+.+.+.+.+.+.+.+.+.+.+.+.+.+.+.} ` ' } R L I R @     . h.k.h.m.m.d.",
"d.d.f.f.f.d.<       [ +.+.O.T././.^.;.+.+.+.+.+.+.+.+.+.+.+.+.+.+.+.+.+.+.+.+.+.+.+.+.+.+.+.} ` ' } R L I R @     . u.h.k.f.d.d.",
"k.d.h.b.h.i.<       [ +.+.O.T././.^.%.O.O.O.+.+.+.+.+.+.+.+.+.+.+.+.+.+.+.+.+.+.+.+.+.+.+.+.} ` ' } R L I R @     . i.d.d.i.u.f.",
"h.i.f.k.d.u.,       [ +.+.O.T./././.I.F.H.K.=.+.+.+.+.+.+.+.+.+.+.+.+.+.+.+.+.+.+.+.+.+.+.+.} ` ' } R L I R @     . h.k.d.u.u.d.",
"d.d.d.d.d.i.,       [ +.+.O.T./././././././.>.+.+.+.+.+.+.+.+.+.+.+.+.+.+.+.+.+.+.+.+.+.+.+.} ` ' } R L I R @     . h.f.d.d.d.d.",
"i.d.d.d.h.h.,     o [ +.+.O.T./././././././.>.+.+.+.+.+.+.+.+.+.+.+.+.+.+.+.+.+.+.+.+.+.+.+.} ` ' ' R L R R @     . i.d.d.h.h.f.",
"i.f.d.i.i.d.X       ..$.+.+.Q.^.^.^././././.&.O.+.+.+.O.+.+.+.+.+.+.+.+.+.+.+.+.+.+.+.+.+.+.| ' } } ^ R ~ ^ &       i.d.d.d.f.d.",
"k.h.d.d.d.d.M n m a.d y t 0 1.9.5.3.E./././.P.F.G.H.*.O.+.+.+.+.+.+.+.+.+.+.+.+.+.+...| ..| ~ E ~ ~ 9 - ; 7 z n n M k.d.d.i.i.i.",
"b.d.i.d.b.k.d.k.f.d.2   o o ` +.+.+.U././././././.~.-.+.+.+.+.+.+.+.+.+.+.+.+.+.+.+.} ^ ' ' I J L I +       u.u.u.d.k.k.f.u.i.i.",
"d.i.u.d.h.c.z.l.u.d.,       ' $.+.O.T././././././.^.;.+.+.+.+.+.+.+.+.+.+.+.+.+.+.+.} ` } } R L R R &       0.i.u.d.f.h.d.d.d.d.",
"i.d.d.d.i.i.f.f.i.u.X       ..$.+.+.Q././././././.^.;.+.+.+.+.+.+.+.+.+.+.+.+.+.+.+.} ` ' } ^ R ~ ^ +       B d.d.u.u.d.d.h.f.h.",
"i.d.m.k.d.d.d.d.d.i.s.n n F g t t u 1.9.7.4.W././.^.;.+.+.+.+.+.+.+.+.+.+.+.+.+.+.+.} ` } } w ; 7 8 C.Z n n y.h.h.u.i.d.d.j.h.d.",
"u.d.h.b.m.d.d.d.d.d.d.z.j.d.3       ^ +.+.+.Y././.^.;.+.+.+.+.+.+.+.+.+.+.+.+.+.+.+.} ` } } #       p.d.d.d.d.h.z.f.d.i.i.d.d.u.",
"i.d.i.d.f.d.d.h.f.f.f.f.k.h.,       ] +.+.+.R././.^.;.+.+.+.+.+.+.+.+.+.+.+.+.+.+.+.} ` } | -       0.d.h.f.f.d.h.j.f.d.d.u.i.d.",
"f.d.f.i.y.d.d.d.h.h.f.d.d.d.X       | +.+.+.!././.~.-.+.+.+.+.+.+.+.+.+.+.+.+.+.+.+.X...O.#.-       B d.f.h.f.d.d.d.d.f.k.f.i.k.",
"h.h.k.h.i.h.f.d.d.d.d.d.d.i.M B.r.e.,.t 0 0 <.8.7.6.&.+.+.+.+.+.+.+.+.+.+.+...| ....p 8 q q b M n n i.d.d.d.d.d.d.d.u.i.f.b.k.k.",
"i.d.d.d.d.h.k.h.d.i.i.d.d.d.u.d.d.k.c       ` +.+.+.+.O.+.+.+.+.+.+.+.+.+.+.' ^ ' } +       u.d.d.d.k.j.f.d.i.d.i.d.i.i.d.f.k.d.",
"d.h.d.i.d.f.f.f.h.u.u.h.h.d.d.f.d.d.,       ' +.+.+.$.+.+.+.+.+.+.+.+.+.+.+.| ' } | *       q.i.d.d.h.f.h.d.u.d.h.f.d.d.d.d.d.d.",
"b.f.d.i.i.i.d.d.d.d.i.f.b.f.h.f.d.y.X       ..@.@.@.$.O.+.+.+.+.+.+.+.+.+.+.O.o.O.#.@       B d.i.i.i.d.d.d.d.i.k.k.d.h.d.i.y.d.",
"h.d.d.i.i.i.i.d.f.d.d.i.d.f.h.d.d.u.N n M N r p e e  .+.+.+.+.+.+.+...| ....y 7 8 w S.e.M n y.d.i.i.i.d.f.f.d.d.d.f.h.f.d.i.u.d.",
"d.d.d.k.f.d.d.d.m.k.f.l.d.d.d.d.i.d.i.i.f.d.1     O ] +.+.+.+.+.+.+.} ^ ' } +       N.f.d.d.d.h.j.d.d.d.h.m.d.j.d.d.d.d.i.i.d.i.",
"d.i.d.k.h.f.i.i.h.k.h.h.d.d.f.d.i.h.f.d.d.i.%     o } @.@.+.+.+.+.+.} ' | | *       q.i.i.d.i.h.k.f.d.i.d.k.h.h.d.d.f.d.i.d.h.d.",
"u.u.d.d.i.d.d.i.d.d.d.i.d.f.k.h.h.b.h.d.i.d.X       ..@.@.+.$.+.@.+.X...O.O.*       B i.i.u.i.d.i.d.d.i.i.d.d.i.i.d.j.k.f.z.m.d.",
"d.d.d.d.d.d.k.f.d.h.i.i.d.i.d.b.k.h.d.d.i.d.N n m r.d y u e / X.....i 8 9 0 b M n n y.d.d.d.d.d.d.d.h.j.d.d.d.i.d.d.i.k.k.j.f.d.",
"j.d.h.m.h.i.c.k.h.h.d.h.d.i.i.d.d.u.i.h.d.d.j.f.h.b.3       P | ' | +       i.u.i.f.f.d.h.h.d.c.z.d.f.b.h.j.d.h.f.d.i.d.d.i.u.d.",
"j.i.f.b.d.i.d.f.f.i.d.k.k.f.h.f.d.u.i.h.j.v.c.d.d.b.,       E X.' | *       0.u.u.f.k.k.m.d.d.k.j.i.i.f.h.d.u.h.k.h.f.h.d.u.u.d.",
"d.d.d.d.d.u.d.f.d.i.i.d.h.h.j.d.i.i.d.d.h.k.f.d.d.d.X       ^ @.#.#.@       B i.d.d.f.c.h.d.d.d.d.i.i.f.d.i.i.i.h.h.j.h.i.i.d.i.",
"d.d.d.d.h.f.f.f.d.d.d.i.d.d.d.d.f.h.h.d.i.d.d.d.d.d.s.n M V.f 9 9 0 Z.Z n n u.f.h.d.i.d.d.i.d.d.f.h.f.f.d.d.d.d.i.d.d.d.d.f.h.f.",
"i.d.d.d.d.h.d.u.d.k.h.d.d.i.i.d.d.h.d.d.d.i.i.d.d.d.d.f.d.u.2       p.d.i.d.d.f.f.d.d.i.u.d.d.d.d.d.f.u.i.f.k.d.d.d.i.d.d.f.h.d.",
"h.h.d.d.i.i.i.i.d.h.f.d.f.h.f.d.d.i.i.i.k.f.f.j.d.d.i.i.i.u.$       q.h.h.d.d.i.i.i.h.h.d.k.f.d.d.i.i.u.d.d.h.d.f.h.j.d.d.i.i.i.",
"m.d.d.d.b.h.d.j.h.d.i.u.d.k.c.l.i.u.i.i.h.b.b.f.d.d.c.k.d.h.1 . . . 0.h.b.z.d.y.i.i.f.k.b.j.d.d.k.c.d.f.k.d.d.u.i.f.b.k.f.u.i.i.",
"d.i.u.d.k.b.k.z.i.d.d.u.i.d.h.h.i.i.d.i.d.d.d.d.u.i.h.b.k.z.d.i.d.u.i.d.h.j.d.i.d.i.d.d.d.d.u.i.f.b.k.z.d.i.d.i.u.d.h.j.d.i.d.i.",
"i.i.i.d.i.d.h.f.u.i.i.d.d.i.d.d.d.f.h.h.d.i.i.d.u.d.i.d.f.h.i.u.i.d.d.i.i.d.d.h.f.h.d.i.i.d.i.i.i.d.f.h.d.u.i.d.d.i.i.d.d.h.d.h.",
"i.d.k.h.d.i.i.d.d.u.d.h.d.y.i.d.f.k.h.f.d.d.i.d.k.j.d.i.i.d.d.i.i.f.d.y.i.d.d.k.h.f.d.d.i.i.h.k.d.d.i.d.d.i.i.d.d.u.u.d.d.k.h.f.",
"u.d.k.b.m.f.d.d.d.d.f.z.f.d.d.i.d.f.d.u.d.i.y.d.h.b.b.h.d.d.d.d.d.z.j.d.d.d.d.f.d.u.i.d.y.d.f.b.b.j.d.d.d.d.d.j.z.d.d.d.i.d.f.u.",
"i.d.d.h.j.d.d.h.d.f.d.h.k.h.d.d.i.i.i.i.d.i.u.d.d.f.k.d.d.f.f.d.f.f.k.h.d.d.i.u.i.i.d.d.u.d.d.d.k.f.i.d.h.d.f.d.k.j.f.d.d.u.i.i.",
"d.d.d.i.u.d.d.f.h.h.f.d.d.d.d.k.h.i.d.b.h.d.d.d.d.d.y.d.d.d.h.h.h.d.d.d.d.h.k.i.i.b.k.d.d.d.d.d.y.i.d.d.h.h.h.d.d.d.d.f.k.d.i.k.",
"h.h.k.h.u.f.d.d.d.d.d.d.d.i.i.d.v.k.h.b.f.i.h.j.k.k.u.d.f.d.d.d.d.d.d.i.i.d.k.b.h.b.h.d.d.j.h.k.i.d.h.d.d.d.d.d.d.d.i.d.h.b.h.k."
};
