/* XPM */
static char *dfb0c0fd7f7e431ffa8c43d4427b0b5aMP1YHzcRPfDjZK6l[] = {
/* columns rows colors chars-per-pixel */
"64 64 227 2 ",
"   c #271F1E",
".  c #2C1D1D",
"X  c #3C1717",
"o  c #361A17",
"O  c #3C1A16",
"+  c #3B1718",
"@  c #331C1B",
"#  c #3B1B1A",
"$  c #2D2017",
"%  c #25221E",
"&  c #29201E",
"*  c #261F20",
"=  c #2B1F21",
"-  c #1E2423",
";  c #232323",
":  c #292121",
">  c #441615",
",  c #4B1615",
"<  c #431B15",
"1  c #4C1A16",
"2  c #421A1A",
"3  c #4B1A1A",
"4  c #501611",
"5  c #5E1616",
"6  c #551A15",
"7  c #5B1B15",
"8  c #531A19",
"9  c #5C1C19",
"0  c #6E170F",
"q  c #7C150E",
"w  c #651515",
"e  c #631B15",
"r  c #6C1C15",
"t  c #68171A",
"y  c #621D1A",
"u  c #6B1C1B",
"i  c #701816",
"p  c #791916",
"a  c #7C1B16",
"s  c #7B1C18",
"d  c #46211C",
"f  c #652019",
"g  c #6A2319",
"h  c #6C231B",
"j  c #74221B",
"k  c #7C2419",
"l  c #7D2819",
"z  c #6D2823",
"x  c #6E302B",
"c  c #841B17",
"v  c #8A1E15",
"b  c #8A1F1A",
"n  c #9F1517",
"m  c #941B17",
"M  c #9C1A16",
"N  c #931C1A",
"B  c #9C1D19",
"V  c #BC170B",
"C  c #B51B0C",
"Z  c #BB190C",
"A  c #A51B15",
"S  c #AC1E16",
"D  c #A3171A",
"F  c #A51B1A",
"G  c #AA1B1A",
"H  c #B41C14",
"J  c #BC1A12",
"K  c #BC1A17",
"L  c #B21C19",
"P  c #87261B",
"I  c #84211C",
"U  c #97251A",
"Y  c #A32016",
"T  c #A3211A",
"R  c #A9281D",
"E  c #B3231A",
"W  c #B8271A",
"Q  c #B42D18",
"!  c #B92A1E",
"~  c #852521",
"^  c #892221",
"/  c #8B2C22",
"(  c #942A21",
")  c #973425",
"_  c #A42922",
"`  c #AC2C22",
"'  c #B72721",
"]  c #BC2D23",
"[  c #A63629",
"{  c #B13222",
"}  c #B33823",
"|  c #B93E29",
" . c #A53833",
".. c #B93A34",
"X. c #D60F0C",
"o. c #DC0E0A",
"O. c #CF1907",
"+. c #C5150C",
"@. c #CC150C",
"#. c #C3190D",
"$. c #CB1A0D",
"%. c #D51206",
"&. c #DD1507",
"*. c #D71807",
"=. c #D4120B",
"-. c #DA130B",
";. c #D2190C",
":. c #DD1B0B",
">. c #CC1712",
",. c #C31B13",
"<. c #C61913",
"1. c #CD1C13",
"2. c #C41D19",
"3. c #D51513",
"4. c #DB1511",
"5. c #D21A13",
"6. c #DA1718",
"7. c #DD1B1B",
"8. c #E50F07",
"9. c #E90F07",
"0. c #E30D0A",
"q. c #EB0D0B",
"w. c #F20F0E",
"e. c #FA0F0F",
"r. c #E21007",
"t. c #E2120A",
"y. c #EC110B",
"u. c #E41C0B",
"i. c #EB1B0E",
"p. c #F4130E",
"a. c #F9120E",
"s. c #F4180F",
"d. c #F91B0F",
"f. c #E41212",
"g. c #EC1314",
"h. c #E31B13",
"j. c #ED1913",
"k. c #E71B1A",
"l. c #EC1C1A",
"z. c #F41412",
"x. c #FA1211",
"c. c #F41910",
"v. c #FD1A15",
"b. c #F41D1B",
"n. c #FC1C19",
"m. c #C4200D",
"M. c #CC230E",
"N. c #D4240F",
"B. c #DC260F",
"V. c #C42216",
"C. c #CE2610",
"Z. c #C62B15",
"A. c #CB2B14",
"S. c #C1241B",
"D. c #CB211E",
"F. c #D32312",
"G. c #DC2511",
"H. c #D5231D",
"J. c #D8241C",
"K. c #C3321C",
"L. c #CA331B",
"P. c #E5220D",
"I. c #E9210C",
"U. c #E2221D",
"Y. c #F7211D",
"T. c #C92D26",
"R. c #D92723",
"E. c #DB2F22",
"W. c #C33A23",
"Q. c #C83821",
"!. c #D8342B",
"~. c #CE3C35",
"^. c #DB3E35",
"/. c #E32521",
"(. c #EA2723",
"). c #E92A25",
"_. c #F32521",
"`. c #F62724",
"'. c #F42E2A",
"]. c #E4342E",
"[. c #E73A2F",
"{. c #F6332E",
"}. c #E23D33",
"|. c #EB3B35",
" X c #EA3D37",
".X c #FC3632",
"XX c #F73B36",
"oX c #FA3A35",
"OX c #DD433A",
"+X c #DA473B",
"@X c #E44139",
"#X c #E2453B",
"$X c #E94038",
"%X c #F5443A",
"&X c #F5443C",
"*X c #FA443C",
"=X c #A7544B",
"-X c #D44942",
";X c #DE504A",
":X c #EA4B41",
">X c #F44A41",
",X c #E3544B",
"<X c #EB564C",
"1X c #F35549",
"2X c #F5564A",
"3X c #FA5C52",
"4X c #D26156",
"5X c #ED635B",
"6X c #EA6458",
"7X c #F96153",
"8X c #FC6A5D",
"9X c #DA7F76",
"0X c #F96C63",
"qX c #ED7466",
"wX c #FF7263",
"eX c #F37469",
"rX c #F77768",
"tX c #F67B71",
"yX c #D8897C",
"uX c #ED8D7D",
"iX c #F88576",
"pX c #FB857A",
"aX c #FA897D",
"sX c #FC8C80",
"dX c #FB9285",
"fX c #FCAB98",
"gX c #FBB3A4",
/* pixels */
"; ; ; ; ; ; ; ; ; ; ; ; ; ; ; ; ; ; ; ; ; ; ; ; ; ; ; ; ; ; ; ; ; ; ; ; ; ; ; ; ; ; ; ; ; ; ; ; ; ; ; ; ; ; ; ; ; ; ; ; ; ; ; ; ",
"; ; ; ; ; ; ; ; ; ; ; ; ; ; ; ; ; ; ; ; ; ; ; ; ; ; ; ; ; ; ; ; ; ; ; ; ; ; ; ; ; ; ; ; ; ; ; ; ; ; ; ; ; ; ; ; ; ; ; ; ; ; ; ; ",
"; ; ; ; ; ; ; ; ; ; ; ; ; ; ; ; ; ; ; ; ; ; ; ; ; ; ; ; ; ; ; ; ; ; ; ; ; ; ; ; ; ; ; ; ; ; ; ; ; ; ; ; ; ; ; ; ; ; ; ; ; ; ; ; ",
"; ; ; ; ; ; ; ; ; ; ; ; ; ; ; ; ; ; ; ; ; ; ; ; ; ; ; ; ; ; ; ; ; ; ; ; ; ; ; ; ; ; ; ; ; ; ; ; ; ; ; ; ; ; ; ; ; ; ; ; ; ; ; ; ",
"; ; ; ; ; ; ; ; ; ; ; ; ; ; ; ; ; ; ; ; ; ; ; ; ; ; ; ; ; ; ; ; ; ; ; ; ; ; ; ; ; ; ; ; ; ; ; ; ; ; ; ; ; ; ; ; ; ; ; ; ; ; ; ; ",
"; ; ; ; ; ; ; ; ; ; ; ; ; ; ; ; ; ; ; ; ; * . . . . @ @ o @ . . . . = = = . . . . . . . % ; ; ; ; ; ; ; ; ; ; ; ; ; ; ; ; ; ; ; ",
"; ; ; ; ; ; ; ; ; ; ; ; ; % % ; : = = . o 2 3 8 8 8 9 9 9 9 9 8 8 8 8 1 8 8 8 8 9 5 7 1 < @ . % ; ; ; ; ; ; ; ; ; ; ; ; ; ; ; ; ",
"; ; ; ; ; ; ; ; ; ; ; ; ; ; ; & @ O 4 w s b N B T T Y Y T T T G G G F A A F G G L H S T U j 6 O . ; ; ; ; ; ; ; ; ; ; ; ; ; ; ; ",
"; ; ; ; ; ; ; ; ; ; ; ; ; : . O 4 0 v Y L K K 2.T.~.+X+X+X^.!.H.5.3.4.-.-.3.3.3.o.-.4.1.T...) z 2 @ : ; ; ; ; ; ; ; ; ; ; ; ; ; ",
"; ; ; ; ; ; ; ; ; ; ; ; & @ < e v A H ,.<.2.T.OX6XtXpXaXaXpXeX<X[.U.h.u.t.t.-.o.o.o.6.].5XuX9X=Xx d @ : ; ; ; ; ; ; ; ; ; ; ; ; ",
"; ; ; ; ; ; ; ; ; ; ; % @ < r U H #.+.1.J.!.^.,XeXsXdXdXdXdXpX0X1X>XXX(.h.t.t.o.o.4.).1XaXgXgXyX=Xz 1 @ : ; ; ; ; ; ; ; ; ; ; ; ",
"; ; ; ; ; ; ; ; ; ; & . < r U H #.$.F.E.}.@XOX-X,X6XqXqXeXqX6X<X6X0X0X&X(.f.0.o.-.U.|.1XiXfXfXuX4X .u 2 = ; ; ; ; ; ; ; ; ; ; ; ",
"; ; ; ; ; ; ; ; ; : . O 7 v H #.$.F.E.}.}.@X@XOXOXOXOX+X#X:X:X:X2X3X3X>X{.U.f.o.f.).%X>X7XrXiXrX5X-X/ 8 @ * ; ; ; ; ; ; ; ; ; ; ",
"; ; ; ; ; ; ; ; ; & o , s T ,.$.F.E.}.@X@X@X@X@X$X$X X X X%X&X>X>X*X&X*XXX'.k.f.k.{.*X&X2X8XwXwX8X;X .u 2 . ; ; ; ; ; ; ; ; ; ; ",
"; ; ; ; ; ; ; ; ; & O 7 b E <.@.5.E.}.@X@X$X X[.].)./.U./.(.).'.'.{..XoX*XoX(.k._.oX*X*X2X7X8XwX8X,X..^ 5 @ ; ; ; ; ; ; ; ; ; ; ",
"; ; ; ; ; ; ; ; ; . < r B K >.@.@.5.J.R.R./.U.7.6.4.o.0.f.g.l.b.b.b.b.`.{..X'.b._..XoX{.{.XX&X2X7X<X~._ i < & ; ; ; ; ; ; ; ; ; ",
"; ; ; ; ; ; ; ; ; . 1 a S ,.@.=.=.=.=.-.-.-.o.o.0.0.0.0.q.z.z.z.z.z.z.z.b.b.b.n.n.b.b.b.b.Y._.'.%X&X!.' c , . ; ; ; ; ; ; ; ; ; ",
"; ; ; ; ; ; ; ; ; @ 6 v H <.@.=.=.-.o.o.o.0.0.0.0.0.0.0.q.g.z.z.z.x.x.x.x.x.x.x.x.x.x.v.n.n.Y.Y._.`./.D.N 6 . ; ; ; ; ; ; ; ; ; ",
"; ; ; ; ; ; ; ; . # y m J @.@.=.=.o.o.o.o.o.0.0.0.0.0.0.q.z.z.z.x.x.x.x.x.x.e.a.x.x.x.x.n.n.n.n.n.b.l.H.F 5 o % ; ; ; ; ; ; ; ; ",
"; ; ; ; ; ; ; ; . 2 u B J @.=.=.=.o.o.o.o.o.o.0.0.0.0.q.q.p.x.x.x.x.x.x.x.x.x.x.x.x.v.n.n.n.v.v.n.n.b.7.G w + . ; ; ; ; ; ; ; ; ",
"; ; ; ; ; ; ; ; . 2 u B J @.=.=.X.o.o.o.o.o.o.0.0.0.0.q.q.p.x.x.x.x.x.x.x.x.x.x.x.v.n.n.n.v.v.v.v.n.b.7.G w + . ; ; ; ; ; ; ; ; ",
"; ; ; ; ; ; ; ; . 2 u B J @.=.=.=.o.o.o.o.o.o.o.0.0.0.q.q.p.x.x.x.x.x.x.x.x.x.x.x.v.v.v.n.v.n.v.v.v.j.7.F t O . ; ; ; ; ; ; ; ; ",
"; ; ; ; ; ; ; ; . 2 u B J @.=.=.=.-.-.o.o.o.o.o.0.0.0.q.q.p.p.x.x.x.x.x.x.x.x.x.x.v.v.v.n.v.n.v.v.z.g.6.F t # * ; ; ; ; ; ; ; ; ",
"; ; ; ; ; ; ; ; . 2 u B J @.=.=.=.-.-.o.o.o.o.o.o.0.0.q.q.p.x.x.x.x.x.x.x.x.x.x.v.v.v.v.n.v.v.x.x.z.g.6.F t # * ; ; ; ; ; ; ; ; ",
"; ; ; ; ; ; ; ; . O u B J @.=.%.%.-.-.-.o.o.o.o.o.0.0.q.q.w.x.x.x.a.a.a.x.x.x.v.v.v.v.v.v.x.x.x.x.z.f.3.D t # * ; ; ; ; ; ; ; ; ",
"; ; ; ; ; ; ; ; . O y m J +.=.%.%.%.-.-.o.o.o.o.o.0.0.0.q.w.p.x.x.a.a.a.a.x.v.v.v.v.v.v.x.a.p.p.p.q.f.3.n w @ : ; ; ; ; ; ; ; ; ",
"; ; ; ; ; ; ; ; . O y N H +.@.=.%.%.-.-.-.o.o.o.o.o.0.0.q.q.w.p.p.a.a.a.a.x.v.v.v.v.v.x.a.a.p.p.p.q.f.>.M 5 @ : ; ; ; ; ; ; ; ; ",
"; ; ; ; ; ; ; ; & @ 9 b L #.@.=.%.%.%.-.-.o.o.o.o.o.0.0.q.q.q.p.p.p.a.d.x.v.v.v.v.v.x.a.a.a.w.p.p.y.-.,.m 5 @ : ; ; ; ; ; ; ; ; ",
"; ; ; ; ; ; ; ; ; @ 8 c G J >.@.=.%.%.-.-.o.o.o.o.o.0.0.q.q.q.p.p.s.s.v.v.v.v.v.v.x.a.a.a.a.p.p.p.t.4.J c 6 @ ; ; ; ; ; ; ; ; ; ",
"; ; ; ; ; ; ; ; ; . 1 a G K >.@.=.%.%.-.-.o.o.o.o.o.0.0.0.0.q.y.p.s.d.v.n.v.v.x.x.a.p.a.x.x.w.w.y.t.5.H q , . ; ; ; ; ; ; ; ; ; ",
"; ; ; ; ; ; ; ; ; . < i B H <.@.=.%.%.%.-.-.o.o.o.o.0.0.0.0.q.q.s.s.c.c.v.v.x.x.s.p.p.a.a.p.p.w.q.t.1.A 0 > . ; ; ; ; ; ; ; ; ; ",
"; ; ; ; ; ; ; ; ;   O e b S J @.=.%.%.%.-.-.-.o.o.o.0.0.0.q.q.q.s.c.c.c.d.d.x.s.p.p.p.p.p.p.p.w.q.o.2.N 5 O : ; ; ; ; ; ; ; ; ; ",
"; ; ; ; ; ; ; ; ; ; @ 6 s T H @.=.%.%.%.%.-.-.o.o.o.o.0.0.q.q.y.c.c.c.c.d.s.s.s.s.s.p.p.p.p.p.q.q.-.L p , @ : ; ; ; ; ; ; ; ; ; ",
"; ; ; ; ; ; ; ; ; ; @ 1 r U H #.@.=.=.%.%.%.-.-.-.o.o.0.q.q.y.s.s.d.c.c.s.s.s.s.s.s.p.p.p.p.y.q.t.5.F r 2 @ : ; ; ; ; ; ; ; ; ; ",
"; ; ; ; ; ; ; ; ; ; . O 7 b S V +.@.=.=.=.=.%.=.-.-.o.0.y.y.z.s.s.s.s.s.s.s.s.s.z.z.z.p.p.y.y.t.4.2.N 6 @ . ; ; ; ; ; ; ; ; ; ; ",
"; ; ; ; ; ; ; ; ; ; & @ , s F J +.@.@.=.=.=.=.=.%.-.-.t.y.s.s.s.s.s.y.y.y.s.z.s.z.p.y.q.q.q.0.t.5.L p , . ; ; ; ; ; ; ; ; ; ; ; ",
"; ; ; ; ; ; ; ; ; ; % . < r U H J +.@.@.=.=.=.%.-.:.h.j.c.s.s.s.s.y.9.9.y.y.y.y.y.q.0.8.8.8.t.-.,.M w O . ; ; ; ; ; ; ; ; ; ; ; ",
"; ; ; ; ; ; ; ; ; % % % o 6 I T H #.@.@.;.*.-.:.:.u.u.i.i.i.i.i.y.y.0.0.0.0.0.0.0.0.8.8.8.8.t.>.S a , @ ; ; ; ; ; ; ; ; ; ; ; ; ",
"; ; ; ; ; ; ; ; ; ; % % $ < f ( E J #.$.;.:.:.u.u.u.u.i.i.i.j.t.t.t.0.0.0.t.t.t.t.0.8.8.8.8.-.,.N 5 X . ; ; ; ; ; ; ; ; ; ; ; ; ",
"; ; ; ; ; ; ; ; ; ; - % % @ 8 ~ R Z.M.M.G.G.P.P.u.I.P.i.i.i.i.t.t.t.0.0.0.t.t.t.t.t.r.r.t.&.5.L a , o . ; ; ; ; ; ; ; ; ; ; ; ; ",
"; ; ; ; ; ; ; ; ; ; - - ; . O f U ! Z.C.F.G.P.P.P.I.I.I.i.u.t.r.&.t.t.t.t.t.t.t.t.t.&.&.-.5.K N 5 + . ; ; ; ; ; ; ; ; ; ; ; ; ; ",
"; ; ; ; ; ; ; ; ; ; ; - ; ; @ 1 l ` K.A.F.G.G.P.P.I.I.I.u.t.&.&.&.&.&.&.&.-.-.-.&.&.&.&.-.2.F i > . ; ; ; ; ; ; ; ; ; ; ; ; ; ; ",
"; ; ; ; ; ; ; ; ; ; ; ; ; ; & O 7 P } L.C.N.G.P.P.P.I.u.u.&.&.&.&.-.-.-.&.&.&.&.-.-.-.-.5.E c 1 o * ; ; ; ; ; ; ; ; ; ; ; ; ; ; ",
"; ; ; ; ; ; ; ; ; ; ; ; ; ; ; . 2 h [ Q.A.C.F.B.P.P.P.:.*.*.-.-.-.-.-.-.-.-.-.-.-.-.=.5.S.U 9 # . ; ; ; ; ; ; ; ; ; ; ; ; ; ; ; ",
"; ; ; ; ; ; ; ; ; ; ; ; ; ; ; ; & d P } Q.A.C.N.B.G.B.;.O.;.;.;.=.=.=.=.-.-.-.-.-.-.5.S.T r 2 . ; ; ; ; ; ; ; ; ; ; ; ; ; ; ; ; ",
"; ; ; ; ; ; ; ; ; ; ; ; ; ; ; ; : O 7 ( | L.A.M.N.N.N.O.$.$.$.$.;.;.=.;.;.=.=.3.3.;.V.R k , @ ; ; ; ; ; ; ; ; ; ; ; ; ; ; ; ; ; ",
"; ; ; ; ; ; ; ; ; ; ; ; ; ; ; ; ; . < g ) W.L.A.M.M.$.$.$.$.$.$.$.$.;.;.;.;.;.$.1.V.E I 6 O . ; ; ; ; ; ; ; ; ; ; ; ; ; ; ; ; ; ",
"; ; ; ; ; ; ; ; ; ; ; ; ; ; ; ; ; & @ 1 l [ W.L.Z.m.#.#.#.#.#.$.$.$.$.$.$.$.#.#.V.' ( y # * ; ; ; ; ; ; ; ; ; ; ; ; ; ; ; ; ; ; ",
"; ; ; ; ; ; ; ; ; ; ; ; ; ; ; ; ; ;   o 6 / | W.Z.Z V Z V V V #.#.#.#.+.+.#.#.V.! ( h 2 = ; ; ; ; ; ; ; ; ; ; ; ; ; ; ; ; ; ; ; ",
"; ; ; ; ; ; ; ; ; ; ; ; ; ; ; ; ; ; % . O f ) | K.Z C Z Z Z V V V V V #.#.,.S.! R j 3 @ ; ; ; ; ; ; ; ; ; ; ; ; ; ; ; ; ; ; ; ; ",
"; ; ; ; ; ; ; ; ; ; ; ; ; ; ; ; ; ; ; % . O g ) { Q C C C Z Z Z Z Z Z V J S.] _ I 6 @ ; ; - ; ; ; ; ; ; ; ; ; ; ; ; ; ; ; ; ; ; ",
"; ; ; ; ; ; ; ; ; ; ; ; ; ; ; ; ; ; ; ; % . < h ( ` E C C Z Z Z V Z Z J S.] _ I 5 X . ; ; ; ; ; ; ; ; ; ; ; ; ; ; ; ; ; ; ; ; ; ",
"; ; ; ; ; ; ; ; ; ; ; ; ; ; ; ; ; ; ; ; % & @ 1 h ( ` E H Z Z J J Z H S.] _ ^ 9 X . . ; ; ; ; ; ; ; ; ; ; ; ; ; ; ; ; ; ; ; ; ; ",
"; ; ; ; ; ; ; ; ; ; ; ; ; ; ; ; ; ; ; ; ; % & @ 1 h ( ` ! W J J J K ! ] ` ~ y 2 . : ; ; ; ; ; ; ; ; ; ; ; ; ; ; ; ; ; ; ; ; ; ; ",
"; ; ; ; ; ; ; ; ; ; ; ; ; ; ; ; ; ; ; ; ; ; ; & @ 3 h ( { ! W H K ! ] ` I 9 2 @ * ; ; ; ; ; ; ; ; ; ; ; ; ; ; ; ; ; ; ; ; ; ; ; ",
"; ; ; ; ; ; ; ; ; ; ; ; ; ; ; ; ; ; ; ; ; ; ; ; ; @ < g U ` ] ] ] ] ` P e # . : : ; ; ; ; ; ; ; ; ; ; ; ; ; ; ; ; ; ; ; ; ; ; ; ",
"; ; ; ; ; ; ; ; ; ; ; ; ; ; ; ; ; ; ; ; ; ; ; ; ; : @ < f P _ { { U k 7 < . ; ; ; ; ; ; ; ; ; ; ; ; ; ; ; ; ; ; ; ; ; ; ; ; ; ; ",
"; ; ; ; ; ; ; ; ; ; ; ; ; ; ; ; ; ; ; ; ; ; ; ; ; ; : @ 2 9 j P l r 1 O & ; ; ; ; ; ; ; ; ; ; ; ; ; ; ; ; ; ; ; ; ; ; ; ; ; ; ; ",
"; ; ; ; ; ; ; ; ; ; ; ; ; ; ; ; ; ; ; ; ; ; ; ; ; ; ; * . @ # d d # . & ; ; ; ; ; ; ; ; ; ; ; ; ; ; ; ; ; ; ; ; ; ; ; ; ; ; ; ; ",
"; ; ; ; ; ; ; ; ; ; ; ; ; ; ; ; ; ; ; ; ; ; ; ; ; ; ; ; ; ; ; * : ; ; % ; ; ; ; ; ; ; ; ; ; ; ; ; ; ; ; ; ; ; ; ; ; ; ; ; ; ; ; ",
"; ; ; ; ; ; ; ; ; ; ; ; ; ; ; ; ; ; ; ; ; ; ; ; ; ; ; ; ; ; - ; ; ; ; ; ; ; ; ; ; ; ; ; ; ; ; ; ; ; ; ; ; ; ; ; ; ; ; ; ; ; ; ; ",
"; ; ; ; ; ; ; ; ; ; ; ; ; ; ; ; ; ; ; ; ; ; ; ; ; ; ; ; - - - - - ; ; ; ; ; ; ; ; ; ; ; ; ; ; ; ; ; ; ; ; ; ; ; ; ; ; ; ; ; ; ; ",
"; ; ; ; ; ; ; ; ; ; ; ; ; ; ; ; ; ; ; ; ; ; ; ; ; ; ; ; - - - - ; ; ; ; ; ; ; ; ; ; ; ; ; ; ; ; ; ; ; ; ; ; ; ; ; ; ; ; ; ; ; ; ",
"; ; ; ; ; ; ; ; ; ; ; ; ; ; ; ; ; ; ; ; ; ; ; ; ; ; ; ; ; ; ; ; ; ; ; ; ; ; ; ; ; ; ; ; ; ; ; ; ; ; ; ; ; ; ; ; ; ; ; ; ; ; ; ; "
};
