/* XPM */
static char *c23a360bc85b41ccf76c4147de29dfdeFwtwgMYsJFBXAxGM[] = {
/* columns rows colors chars-per-pixel */
"64 64 234 2 ",
"   c #291F1A",
".  c #2C1E1C",
"X  c #351D15",
"o  c #3C1C16",
"O  c #341C1A",
"+  c #3B1C1A",
"@  c #2C2116",
"#  c #25231E",
"$  c #2B211D",
"%  c #291F23",
"&  c #321E21",
"*  c #1F2523",
"=  c #232323",
"-  c #292122",
";  c #242428",
":  c #52140D",
">  c #451715",
",  c #441B15",
"<  c #4A1B15",
"1  c #421B1A",
"2  c #4D1B19",
"3  c #541B15",
"4  c #5B1B15",
"5  c #571718",
"6  c #531B19",
"7  c #5A1B1A",
"8  c #621916",
"9  c #641C16",
"0  c #6B1C15",
"q  c #6C1D19",
"w  c #731C15",
"e  c #7B1D17",
"r  c #741C19",
"t  c #7C1D19",
"y  c #4B211A",
"u  c #582218",
"i  c #692217",
"p  c #772418",
"a  c #7D241B",
"s  c #6F2220",
"d  c #841C16",
"f  c #821C1A",
"g  c #8B1F18",
"h  c #961C16",
"j  c #9C1811",
"k  c #931D19",
"l  c #9A1E19",
"z  c #BA1B09",
"x  c #BC1B0D",
"c  c #AB1D15",
"v  c #A31B1A",
"b  c #A91A1B",
"n  c #B71915",
"m  c #B41D14",
"M  c #BC1C12",
"N  c #B81C1C",
"B  c #85221A",
"V  c #8A231B",
"C  c #8D291C",
"Z  c #992116",
"A  c #94241C",
"S  c #9C231B",
"D  c #92291E",
"F  c #9B2A1E",
"G  c #9E311E",
"H  c #A22315",
"J  c #A2251B",
"K  c #AA241B",
"L  c #AC2A1D",
"P  c #BE2114",
"I  c #B42418",
"U  c #BC231A",
"Y  c #B42A1C",
"T  c #BD2A1D",
"R  c #B8331D",
"E  c #872421",
"W  c #912620",
"Q  c #9C2A23",
"!  c #A32C21",
"~  c #A82921",
"^  c #B32D23",
"/  c #BB2C24",
"(  c #B02D2A",
")  c #AC3120",
"_  c #B43221",
"`  c #BB3225",
"'  c #B9352A",
"]  c #CD0F0A",
"[  c #D30E0A",
"{  c #DC0E0B",
"}  c #CC1507",
"|  c #C21B07",
" . c #C4160B",
".. c #CC150B",
"X. c #C41A0B",
"o. c #CB190A",
"O. c #D21707",
"+. c #DD1307",
"@. c #D5150B",
"#. c #DC140C",
"$. c #D3190B",
"%. c #DA1B0C",
"&. c #CC1612",
"*. c #C41B13",
"=. c #CA1A13",
"-. c #C81917",
";. c #D41513",
":. c #DC1411",
">. c #D31C15",
",. c #DB1917",
"<. c #E50F07",
"1. c #EA0E06",
"2. c #E50E0B",
"3. c #EA0E0A",
"4. c #F60F0D",
"5. c #F80F0F",
"6. c #E31107",
"7. c #E81007",
"8. c #E3110C",
"9. c #EC130C",
"0. c #E41C0D",
"q. c #EC1A0D",
"w. c #F5130E",
"e. c #F9120F",
"r. c #F21B0E",
"t. c #F90F10",
"y. c #E31311",
"u. c #EC1512",
"i. c #E41814",
"p. c #EB1C12",
"a. c #E41E19",
"s. c #F51512",
"d. c #F91311",
"f. c #F41A12",
"g. c #FB1B14",
"h. c #F51C19",
"j. c #FA1B18",
"k. c #C2200F",
"l. c #DC220D",
"z. c #C32114",
"x. c #CD2414",
"c. c #C1261A",
"v. c #CC251C",
"b. c #C2281D",
"n. c #CB2B1D",
"m. c #DB2717",
"M. c #DC2C16",
"N. c #D22D1A",
"B. c #D5331D",
"V. c #DD3018",
"C. c #E6230D",
"Z. c #E42A0E",
"A. c #F3220F",
"S. c #E32214",
"D. c #EB2213",
"F. c #E42B13",
"G. c #EA2914",
"H. c #E4271D",
"J. c #ED261A",
"K. c #EB2919",
"L. c #F22314",
"P. c #FB2216",
"I. c #F52C17",
"U. c #FB2917",
"Y. c #F3231C",
"T. c #FE2319",
"R. c #F3291C",
"E. c #FD2C1B",
"W. c #E33216",
"Q. c #E6331A",
"!. c #EC331A",
"~. c #F3351A",
"^. c #FB331C",
"/. c #F0381C",
"(. c #FB3A1F",
"). c #C32E23",
"_. c #C92D22",
"`. c #C33223",
"'. c #CB3323",
"]. c #C6362A",
"[. c #C4352D",
"{. c #D73426",
"}. c #DE3C24",
"|. c #DA332A",
" X c #E52824",
".X c #F42A22",
"XX c #F82B25",
"oX c #EA3B2A",
"OX c #F43C23",
"+X c #FB3D27",
"@X c #F3342A",
"#X c #FA332B",
"$X c #E83F36",
"%X c #F33D35",
"&X c #FC3C33",
"*X c #D84230",
"=X c #EC4C2D",
"-X c #F3482A",
";X c #E64A3E",
":X c #F64336",
">X c #FB4436",
",X c #F4463C",
"<X c #FC453B",
"1X c #F64B3D",
"2X c #FB4B3C",
"3X c #E65033",
"4X c #F65939",
"5X c #EF4D40",
"6X c #F34D41",
"7X c #FA4B41",
"8X c #EE5647",
"9X c #EC564B",
"0X c #F35245",
"qX c #F35B4C",
"wX c #ED5E52",
"eX c #F25F52",
"rX c #EA614D",
"tX c #F8674C",
"yX c #E96453",
"uX c #F6685B",
"iX c #F67656",
"pX c #F56C60",
"aX c #FA6E65",
"sX c #EF7567",
"dX c #F57767",
"fX c #F87D71",
"gX c #F5825B",
"hX c #FC815A",
"jX c #F78A65",
"kX c #FD8879",
"lX c #FC937B",
"zX c #FF8F80",
"xX c #FF9485",
"cX c #FE9888",
/* pixels */
"= = = = = = = = = = = = = = = = = = = = = = = = = = = = = = = = = = = = = = = = = = = = = = = = = = = = = = = = = = = = = = = = ",
"= = = = = = = = = = = = = = = = = = = = = = = = = = = = = = = = = = = = = = = = = = = = = = = = = = = = = = = = = = = = = = = = ",
"= = = = = = = = = = = = ; ; = = = = = = = = = = = = = = = = = = = = = = = = = = = = = = = = = = = = = = = = = = = = = = = = = = ",
"= = = = = = = = = = ; ; ; ; ; = = = = = = = = = = = = = = = = = = = = = = = ; ; ; = = = = = = = = = = = # = = = = = = = = = = = ",
"= = = = = = = = = = ; ; ; ; = = = = = = = = = = = = = = = = = = = = = = = = = = = = = = = # # # = = = = = = = = = = = = = = = = ",
"= = = = = = = = = = = ; ; = = - = = = - % % % - = = = = = = = = = = = = # # # $ $ $ # # # # # # # # # # = = = = = = = = = = = = ",
"= = = = = = = = = = = = = $ O + > < 2 5 5 5 5 2 , + O   = = = = # $ O o , 2 6 5 6 6 2 < o X   # # = = = = = = = = = = = = = = = ",
"= = = = = = = = = = = # @ o 3 0 d k l v b b v h d r 5 1 . - = . O > 5 r B A l l l l A W a i < X . - = = = = = = = = = = = = = = ",
"= = = = = = = = = = - o 4 t S L T b.v.>.;.;.&.&.M N v f 5 + O > 0 g ~ ^ ' [.[.`.Y m m b.`._ G a 3 O = = = = = = = = = = = = = = ",
"= = = = = = = = # . o 0 S / |.;X8X8X5XoXH.y.#.@.@.@.-.N k 8 : w K v.$XwXsXsXdXsXyX*Xn.x.m.M.B.`.F 9 O # = = = = = = = = = = = = ",
"= = = = = = # # @ , w K '.;XuXkXlXxXkXaX,X Xi.{ { @.;.&.n j j m N.$XuXlXcXcXcXcXcXdX;X*X}.V.F.M.N.L i o $ = = = = = = = = = = = ",
"= = = = = = # @ , p Y |.,X0XdXxXcXcXxXfXqX0X%Xa.#.[ ..] ] &.-. X:X6XuXkXzXxXxXzXkXpXrXiXiX3XW.G.F.N.) i + = = = = = = = = = = = ",
"= = = = = = $ X 0 K {.:X2X0XeXdXfXfXdXeXwXdXtX@Xa.#.[ [ [ @. X%X7X6X0XqXuXpXpXuXwX9XyXlXlXiX=XW.Z.F.B.! 4 . = = = = = = = = = = ",
"= = = = = = O 3 h v.oX2X2X1X5X8X8X8X0X6X0XuXqX:X@Xi.{ { { i.@X<X,X1X1X1X6X0X0X6X6X0XrXjXjXgXtX-XZ.F.F.'.C , $ = = = = = = = = = ",
"= = = = = - 1 t U Q.:X2X2X2X7X7X7X,X<X<X2X1X1X>X&XJ.8.2.y..X&X<X<X<X>X>X>X>X>X>X2X2XtXhXhXgXiX=XF.F.F.V._ i O = = = = = = = = = ",
"= = = = = . 5 v >.@X2X2X2X<X>X&X&X&X&X&X>X<X<X<X>XXXu.3.h.#X>X&X#X.XR.R.L.L.J.R.R.OX4XiXhXhXtX=XF.G.F.F.N.C , $ = = = = = = = = ",
"; = = = = + r n S.&X2X>X&X#X.X.XY.Y.Y.Y..X#X#X&X&XXXs.s.j.XX#X.Xf.h.s.s.f.f.r.A.A.G.OX=X4X4X-XW.F.G.G.G.M._ u   = ; = = = = = = ",
"; ; = = $ < k *.S.&X&XXXY.h.f.f.s.s.s.s.s.f.f.h.j.s.d.d.d.j.f.s.s.s.d.g.s.s.f.r.A.I.^.(.OX-X/.F.G.G.G.G.F.'.a X ; ; ; = = = = = ",
"; = = = . 4 b >.a.R.Y.h.j.d.d.d.d.d.d.d.d.d.d.d.d.d.d.d.d.d.d.d.d.d.d.d.s.s.f.r.U.I.^.(.(.+X~.G.G.G.G.G.K.{.D o = ; * = = = = = ",
"; = = = . 0 N ,.a.f.h.f.d.d.d.d.d.d.d.d.s.s.d.d.d.d.d.d.d.d.d.d.d.d.d.d.s.s.r.L.U.^.^.(.(.(.~.G.G.J.J.J.K.V.! y - ; = = = = = = ",
"; = = = O r *.,.p.f.f.f.d.d.d.d.s.d.d.d.d.s.d.d.d.d.d.d.d.d.d.d.d.d.d.s.s.s.r.P.U.^.^.^.(.+X~.G.K.K.J.J.S.H.) u . = = = = = = = ",
"; = = # O e *.:.u.h.s.s.d.d.d.s.s.d.d.d.d.s.d.d.d.d.d.d.d.d.d.d.d.d.s.s.s.s.g.U.U.E.^.^.(.(.!.F.S.l.%.%.%.>.L u $ = = = = = = = ",
"= = = # + t =.y.s.j.f.s.d.d.d.s.s.d.d.d.d.d.d.d.d.d.d.d.d.d.d.d.d.s.s.s.s.s.P.U.E.E.^.^.^.~.Z.$.$.o...} } X.H u @ # = = = = = = ",
"= = = = + f =.:.u.f.f.s.d.d.d.d.d.d.d.d.d.d.d.d.d.d.d.d.d.e.e.e.s.s.s.s.s.P.T.U.U.E.^.^.~.G.$.O.o.o.o.o.o.| Z 3   # # = = = = = ",
"= ; ; = + f =.:.u.s.f.s.s.s.d.d.d.d.d.d.d.t.t.d.d.d.d.d.d.e.e.e.e.w.w.s.g.T.T.E.E.E.I.I.J.S.$.$.o.o.o.o.o.X.S 3   = # = = = = = ",
"= ; ; = + t *.:.y.u.f.s.s.s.d.d.d.d.d.d.t.t.t.d.d.d.d.d.d.e.e.e.e.w.w.g.P.T.T.E.U.U.L.D.J.%.O.$.o.o.o.o.X.x S 6 . = = = = = = = ",
"= = ; = O r *.:.8.9.f.s.s.s.d.d.d.d.d.d.t.t.d.d.d.d.d.d.d.e.e.e.e.w.s.g.T.T.T.P.L.L.D.D.S.%.$.$.o.o.o.o.X.M A 2 % ; = = = = = = ",
"= = = = O 0 M #.2.9.s.s.s.s.d.d.d.d.d.d.t.t.d.d.d.d.d.d.t.e.e.e.e.s.g.T.T.T.P.f.r.f.D.D.0.%.$.O.o.o.o.o.X.M V 1 % = = = = = = = ",
"= = = = . 9 m @.2.8.9.s.s.s.d.d.d.d.d.d.d.d.d.d.d.d.d.d.t.e.e.e.d.g.T.T.P.g.f.q.r.f.D.p.%.@.O.O.o.o.o.o.X.m f 1 % = = = = = = = ",
"= = ; = . 4 c ;.2.2.9.w.s.s.d.d.d.d.d.d.d.t.d.d.d.d.d.d.t.e.e.e.g.T.T.g.w.w.w.r.f.f.p.0.+.@.O.o.o.o.X.X.| m e + - = = = = = = = ",
"= = = = $ < k =.{ 2.1.9.w.s.w.e.e.e.e.e.e.e.e.5.t.t.e.e.4.4.e.d.g.g.j.s.w.w.r.f.f.p.q.+.+.@.$.o.o.X.X.X.X.H 0 O = = = = = = = = ",
"= = = = = o e *.+.2.<.7.9.w.w.e.e.e.e.e.e.e.e.e.5.5.4.e.e.d.g.g.g.g.w.w.w.w.f.f.p.q.8.+.+.$.$.o.o.X.X.X.x Z 3 . = = = = = = = = ",
"= = = = = O 9 m +.2.8.2.7.9.w.w.e.e.e.e.e.e.e.e.e.e.e.e.d.g.g.g.g.s.w.w.w.w.f.f.9.8.+.+.@.$.o.o.o.X.X.X.M d < . = = = = = = = = ",
"= = = = = $ 6 j @.8.8.8.7.7.9.w.w.e.e.e.e.e.e.e.e.e.e.d.g.g.g.w.w.w.e.w.s.f.q.9.6.6.+.+.@.$.o.o.X.X.o. .c r o # = = ; = = = = = ",
"= = = = = = o d *.#.2.8.6.7.7.9.w.e.e.e.e.e.e.e.e.w.w.g.g.g.s.w.w.w.e.s.f.9.6.8.6.+.+.@.O.o.o.X.X.X.X.M l 4 O = = = ; = = = = = ",
"= = = = = = O 9 c :.2.2.6.6.2.3.1.1.w.w.e.e.e.e.w.w.g.g.g.w.w.w.w.w.w.w.9.6.8.+.+.+.+.@.O.o.o.X.X.|  .m f , # = = = ; = = = = = ",
"= = = = = = $ < k &.8.2.2.8.2.3.3.1.1.1.1.w.e.w.s.g.g.g.s.w.w.w.w.w.9.9.6.6.8.+.+.+.+.@.O.o.o.o.X.X.M H 0 O = = = = ; = = = = = ",
"= = = = = = # O r N :.2.3.2.8.2.3.3.1.1.1.1.w.w.s.s.s.w.w.9.9.9.9.7.2.6.6.8.8.#.+.+.#.@...o.o.o.X.k.I V 2 $ = = = = ; = = = = = ",
"= = = = = = = $ 6 k &.8.2.2.8.2.3.3.1.1.1.9.w.w.w.s.9.3.3.3.3.3.2.2.2.8.8.8.#.#.#.#.#.@...o.o.X.X.z.J q O = = = = = = ; = = = = ",
"= = = = = = = = + w m #.8.8.8.2.3.3.7.7.9.w.w.w.s.9.3.3.3.3.3.2.2.8.2.8.8.8.#.#.+.#.#.@...o.X.X.z.I B < . = = = = = = = = = = = ",
"= = = = = ; ; ; . < h =.#.8.6.9.9.9.9.9.w.w.w.w.9.7.2.2.2.2.2.2.2.2.2.8.8.#.+.#.+.+.@.@...o.X.z.U S 8 O = = = = = = = = = = = = ",
"= = = = = ; ; ; = O 0 I l.0.9.9.9.q.q.q.r.w.s.9.3.2.2.2.2.2.2.2.2.8.8.8.#.#.#.#.+.@.@.@...X.*.c.L t 1 - = = = = = = = = = = = = ",
"= = = = = = ; ; ; $ , g x.0.q.q.q.q.q.q.q.r.s.9.2.2.2.2.2.2.2.8.8.+.+.#.#.#.#.@.@.@.@...X.X.z.Y V 7 O - = = = = = = = = = = = = ",
"= = = = = = = = = = . 4 H x.0.q.q.q.q.q.q.q.q.8.6.2.2.6.6.6.8.8.#.#.#.#.#.#.#.@.O.....X.*.z.T S 0 o $ = ; = ; ; = = = = = = = = ",
"= = = = = = = = = = - o 0 Y M.C.q.q.q.q.q.p.9.8.6.6.8.8.8.8.8.8.#.#.#.#.#.#.@.O.....=.X.P T L e < @ # = ; = = = = = = = = = = = ",
"= = = = = = = = = = = . > B `.F.C.q.q.q.q.q.9.6.6.8.8.8.8.8.8.#.#.#.#.#.#.#.@.$...=.*.M U L V 3 O # = - = ; = = = = = = = = = = ",
"= = = = = = = = = = = = O 3 D '.Q.C.q.q.q.9.6.8.8.8.8.8.8.8.#.#.#.#.#.#.#.@.$.o.o.*.M U / A 8 + . = = = = = = = = = = = = = = = ",
"= = = = = = = = = = = = - O 4 F {.!.C.C.0.8.8.8.8.8.8.y.y.:.#.#.#.#.@.@.$.$.o.o.| x U / ! 0 o . = = = = * = = = = = = = = = = = ",
"= = = = = = = = = = = = = = O 9 ) }.Q.l.%.+.+.+.#.#.#.#.#.#.#.#.#.;.$.$.$.o.o.| z P ).~ a < $ = = = ; = * = = = = = = = = = = = ",
"= = = = = = = = = = = = * = - o p R }.Q.l.O.@.@.@.@.@.#.#.@.@.@.;.;.....X.X.| z z T ^ V 3 O # = = = ; ; ; ; = = = = = = = = = = ",
"= = = = = = = = = = = = = = = - 1 a ` oXV.o.} ..........@.......X.X.X. . .x z x T ^ V 4 O - = = = = = = = = = = = = = = = = = = ",
"= = = = = = = = = = = = = = = = - 2 C R B.x.X. . . . ....... . . . . .x x x x b.^ D 4 + - = = = = = = = = = = = = = = = = = = = ",
"= = = = = = = = = = = = = = = = = & 6 C R '.v.X. . . . . . .X.X. . .x z z x c./ F 9 o - = = = = = = = = = = = = = = = = = = = = ",
"= = = = = = = = = = = = = = = = = - O 3 C Y n.n.*.x  . . . . . . .x x x m T ` Q q 1 % = = = = # # = = = = = = = = = = = = = = = ",
"= = = = = = = = = = = = = = = = = = - O 4 V L `.'.P x  . . . .x x x z M T ` F i > . = = = = # # # = = = = = = = = = = = = = = = ",
"= = = = = = = = = = = = = = = = = = = $ O 3 B L `.'.z.x  . .x x x z P `.` F 0 > . = = = = = = = # # = = = = = = = = = = = = = = ",
"= = = = = = = = = = = = = = = = = = = = # O 3 a J ` _.c.M x x x M U `.` F r , . = = = = = = = = = = = = = = = = = = = = = = = = ",
"= = = = = = = = = = = = = = = = = = = = = = . 2 a ! ` ]._.z.M P ).[.' A 0 > O % = = = = = = = = = = = = = = = = = = = = = = = = ",
"= = = = = = = = = = = = = = = = = = = = = = = O 2 p F / '.'.'.].[.( W 9 , $ = = # = = = = = = = = = = = = = = = = = = = = = = = ",
"= = = = = = = = = = = = = = = = = = = = = = = - . , 0 A L ` ' ' Q E 8 o @ = = = # = = = = = = = = = = = = = = = = = = = = = = = ",
"= = = = = = = = = = = = = = = = = = = = = = = = - $ > 4 a D D E s 6 +   # = = = # = = = = = = = = = = = = = = = = = = = = = = = ",
"= = = = = = = = = = = = = = = = = = = = = = = = = = - + > 3 4 6 1 O . = = = = = = = = = = = = = = = = = = = = = = = = = = = = = ",
"= = = = = = = = = = = = = = = = = = = = = = = = = ; ; - $ $ @ . . - = = = = = ; ; ; = = = = = = = = = = = = = = = = = = = = = = ",
"= = = = = = = = = = = = = = = = = = = = = = = = = = ; = = = = = = = = = = = = ; ; = = = = = = = = = = = = = = = = = = = = = = = "
};
