/* XPM */
static char *_3cb0119e9e04b08d488e41ec579dcbfprli0x7yjkjB2FqL[] = {
/* columns rows colors chars-per-pixel */
"64 64 232 2 ",
"   c #2B1F1A",
".  c #2C1E1D",
"X  c #3B1617",
"o  c #361A16",
"O  c #3B1B15",
"+  c #381719",
"@  c #331C1B",
"#  c #3B1B1A",
"$  c #25221E",
"%  c #29201E",
"&  c #271F21",
"*  c #2A1F20",
"=  c #1F2522",
"-  c #232323",
";  c #292121",
":  c #262228",
">  c #441715",
",  c #4B1614",
"<  c #431A16",
"1  c #4D1A16",
"2  c #451C1A",
"3  c #4C1B1A",
"4  c #521615",
"5  c #5D1617",
"6  c #541B15",
"7  c #5C1B15",
"8  c #541C19",
"9  c #5B1B18",
"0  c #78150F",
"q  c #641616",
"w  c #611C16",
"e  c #6A1A15",
"r  c #62171A",
"t  c #6B1718",
"y  c #641C1A",
"u  c #6C1B1A",
"i  c #791914",
"p  c #731C1A",
"a  c #7B1D1A",
"s  c #43211E",
"d  c #512117",
"f  c #612117",
"g  c #69211A",
"h  c #6B221B",
"j  c #76221B",
"k  c #75261A",
"l  c #7F281F",
"z  c #6C2F29",
"x  c #782925",
"c  c #84160E",
"v  c #831C16",
"b  c #8D1B14",
"n  c #841E1A",
"m  c #8A1C19",
"M  c #951C16",
"N  c #9B1C17",
"B  c #941D19",
"V  c #9D1E18",
"C  c #BC170A",
"Z  c #B51B0D",
"A  c #BA190C",
"S  c #A71917",
"D  c #A31D19",
"F  c #AD1A1B",
"G  c #B41C14",
"H  c #BC1A14",
"J  c #BC1B16",
"K  c #B21B1A",
"L  c #84231A",
"P  c #8E241C",
"I  c #84291C",
"U  c #97251B",
"Y  c #94251E",
"T  c #8D301F",
"R  c #92321C",
"E  c #A52119",
"W  c #A9241A",
"Q  c #A52C1F",
"!  c #B32215",
"~  c #B4221A",
"^  c #B82519",
"/  c #BA241B",
"(  c #BC281D",
")  c #A7321F",
"_  c #BA321C",
"`  c #822420",
"'  c #8E2A24",
"]  c #942A23",
"[  c #9C2B22",
"{  c #9D3728",
"}  c #A32C23",
"|  c #AC2D22",
" . c #AE2B28",
".. c #B52E25",
"X. c #BB2D23",
"o. c #A93424",
"O. c #AD3925",
"+. c #BA3625",
"@. c #AE3835",
"#. c #D60F0C",
"$. c #DC0E0A",
"%. c #C3160E",
"&. c #CD140C",
"*. c #C4190E",
"=. c #CB190D",
"-. c #D61106",
";. c #DD1406",
":. c #D11907",
">. c #D81907",
",. c #D4120B",
"<. c #DB130B",
"1. c #D2190D",
"2. c #DC1B0C",
"3. c #C41711",
"4. c #C31A13",
"5. c #CD1915",
"6. c #CB1C14",
"7. c #C21A18",
"8. c #D51611",
"9. c #DB1413",
"0. c #D11C12",
"q. c #DC1811",
"w. c #DF1E1B",
"e. c #E60E07",
"r. c #E30D0A",
"t. c #EB0D0B",
"y. c #F20F0D",
"u. c #FA0F0F",
"i. c #E11207",
"p. c #E3120A",
"a. c #ED120C",
"s. c #E41C0B",
"d. c #EB1C0E",
"f. c #F4130E",
"g. c #F9110E",
"h. c #F4190E",
"j. c #F91B0F",
"k. c #FA0F10",
"l. c #E31513",
"z. c #ED1414",
"x. c #ED1B10",
"c. c #E61C1B",
"v. c #EB191A",
"b. c #F41412",
"n. c #FA1311",
"m. c #F51A11",
"M. c #FC1A15",
"N. c #F41C1A",
"B. c #FD1C19",
"V. c #CB240E",
"C. c #D4250F",
"Z. c #DB230D",
"A. c #C42411",
"S. c #CD2611",
"D. c #C52C16",
"F. c #CB2B14",
"G. c #C2231A",
"H. c #CB2F1A",
"J. c #D42413",
"K. c #DD2611",
"L. c #D5241A",
"P. c #DD211D",
"I. c #C7331B",
"U. c #E5220D",
"Y. c #E9210C",
"T. c #E72217",
"R. c #E4221B",
"E. c #F4211D",
"W. c #F8211C",
"Q. c #CA2520",
"!. c #C12922",
"~. c #D52A25",
"^. c #C43B23",
"/. c #DE3327",
"(. c #DA3C34",
"). c #E32622",
"_. c #E12B26",
"`. c #EB2A26",
"'. c #EE2A26",
"]. c #F52320",
"[. c #F52B26",
"{. c #E4332B",
"}. c #EA372F",
"|. c #F4322E",
" X c #F0382D",
".X c #E13E34",
"XX c #E93C35",
"oX c #F73630",
"OX c #FC3633",
"+X c #FA3A35",
"@X c #FB3E37",
"#X c #A0473E",
"$X c #C4413D",
"%X c #DD443A",
"&X c #E44036",
"*X c #E34139",
"=X c #E94139",
"-X c #E8463B",
";X c #F5433C",
":X c #FA443C",
">X c #F64B3F",
",X c #AE4740",
"<X c #AF5F56",
"1X c #CD4E48",
"2X c #D94840",
"3X c #E84C45",
"4X c #F84740",
"5X c #F34C42",
"6X c #F94A41",
"7X c #E35349",
"8X c #E9564B",
"9X c #F1554C",
"0X c #E75D51",
"qX c #E95D54",
"wX c #FB5D51",
"eX c #EB6A5D",
"rX c #F56359",
"tX c #F96759",
"yX c #F96C62",
"uX c #EE7365",
"iX c #F77262",
"pX c #FF7263",
"aX c #F8756B",
"sX c #F97C72",
"dX c #D9887A",
"fX c #EC8879",
"gX c #FD8678",
"hX c #FB8E82",
"jX c #E89389",
"kX c #FA9585",
"lX c #FEAB99",
"zX c #F9B8A8",
/* pixels */
"- - - - - - - - - - - - - - - - - - - - - - - - - - - - - - - - - - - - - - - - - - - - - - - - - - - - - - - - - - - - - - - - ",
"- - - - - - - - - - - - - - - - - - - - - - - - - - - - - - - - - - - - - - - - - - - - - - - - - - - - - - - - - - - - - - - - ",
"- - - - - - - - - - - - - - - - - - - - - - - - - - - - - - - - - - - - - - - - - - - - - - - - - - - - - - - - - - - - - - - - ",
"- - - - - - - - - - - - - - - - - - - - - - - - - - - - - - - - - - - - - - - - - - - - - - - - - - - - - - - - - - - - - - - - ",
"- - - - - - - - - - - - - - - - - - : - : - - - ; ; ; ; ; ; ; - & & - & - ; ; ; - - - - - - - - - - - - - - - - - - - - - - - - ",
"- - - - - - - - - - - - - - - $ $ - : : : & . @ @ o O X X X + @ @ @ @ @ @ + X O o . % $ - - - - - - - - - - - - - - - - - - - - ",
"- - - - - - - - - - - - - - - - $ - ; @ + > 8 y u p p p a a p p p t t t p p a a j y 1 # . - - - - - - - - - - - - - - - - - - - ",
"- - - - - - - - - - - - - - - - - . o , e m U D K ~ ! ~ / / J J J J J J J 7.7.7.7.~ Y y < @ : - - - - - - - - - - - - - - - - - ",
"- - - - - - - - - - - - - - - - . # 7 v E G J 7.Q.(.7X0X0X7X(.L.q.q.2.2.<.#.#.<.q.~.1X,Xz 2 * - - - - - - - - - - - - - - - - - ",
"- - - - - - - - - - - - - - - . O w P G A *.6.~.3XaXgXhXhXhXaX3X{.T.s.p.p.$.$.$.R.8XhXjX<Xz 2 @ - - - - - - - - - - - - - - - - ",
"- - - - - - - - - - - - - - $ o 7 b G *.=.L./.(.7XsXhXhXhXhXsXrX9X4X`.l.p.$.$.l.}.iXlXzXdX#Xh # & : - - - - - - - - - - - - - - ",
"- - - - - - - - - - - - - % @ 1 m ! *.=.L.{.&X*X2X7XeXuXuXeXqX8XyXyX;XT.p.$.$.R.=XeXkXlXfX1X' 3 * : - - - - - - - - - - - - - - ",
"- - - - - - - - - - - - ; . O e E *.=.J./..X&X*X%X%X%X%X-X-X3X5XwXwX4X|.c.r.l.'.;X9XiXgXaXqX@.y @ & - - - - - - - - - - - - - - ",
"- - - - - - - - - - - - - @ 1 n G =.0./..X*X*X=X=X=X=XXX=X;X6X6X:X;X:X+X'.l.c.|.:X5XrXpXpXrX$Xx 2 . - - - - - - - - - - - - - - ",
"- - - - - - - - - - - - $ o 7 B J =.0./.&X=X=XXXXX{._.).).`.|.|.|.+X@X:X|.c.E.+X:X6XwXtXpXrX2X] 9 o - - - - - - - - - - - - - - ",
"- - - - - - - - - - - - $ O e D 4.=.=.L.~._._.).w.9.9.9.l.v.v.N.N.].[.OXoXE.].OX+XoX@X6XwXrX2X .p X - - - - - - - - - - - - - - ",
"- - - - - - - - - - - - % < i K 3.=.,.,.,.9.9.<.$.$.r.r.t.b.b.b.b.b.N.N.].N.N.].E.E.].'. X>X-X!.v < % - - - - - - - - - - - - - ",
"- - - - - - - - - - - - . 1 b G =.=.,.,.<.$.$.r.r.r.r.r.t.z.b.b.b.b.b.b.n.n.n.n.b.M.B.W.].[.'.~.B 1 % - - - - - - - - - - - - - ",
"- - - - - - - - - - - - @ 9 M J =.,.,.#.$.$.$.r.r.r.r.r.t.b.b.b.b.b.n.n.k.u.g.n.n.M.B.B.N.E.E.P.D 6 . - - - - - - - - - - - - - ",
"- - - - - - - - - - - ; # y N 4.&.,.,.#.$.$.$.$.r.r.r.r.t.b.n.n.n.n.n.n.n.n.n.n.M.B.B.B.B.B.N.c.F 5 @ - - - - - - - - - - - - - ",
"- - - - - - - - - - - ; # y V 3.&.,.#.$.$.$.$.$.r.r.r.t.t.b.n.n.n.n.n.n.n.n.n.M.B.B.B.M.M.B.B.c.K q @ - - - - - - - - - - - - - ",
"- - - - - - - - - - - & # y D 3.&.,.,.#.$.$.$.$.r.r.r.t.t.f.n.n.n.n.n.n.n.n.n.M.B.M.M.M.M.B.B.c.K q @ - - - - - - - - - - - - - ",
"- - - - - - - - - - - & + y D %.&.,.,.#.$.$.$.$.$.r.r.t.t.f.b.n.n.n.n.k.k.n.n.M.M.M.M.B.B.M.b.l.F r @ ; - - - - - - - - - - - - ",
"- - - - - - - - - - - & + y D %.&.,.,.#.$.$.$.$.$.r.r.r.t.f.b.n.n.n.n.k.k.n.M.M.M.M.M.M.M.M.b.l.F r @ ; - - - - - - - - - - - - ",
"- - - - - - - - - - - & + y D %.&.,.,.,.<.$.$.$.$.$.r.r.t.f.b.n.n.n.n.n.n.M.M.M.M.M.M.M.n.b.z.9.F r @ - - - - - - - - - - - - - ",
"- - - - - - - - - - - & @ y N %.&.,.,.<.<.$.$.$.$.$.r.r.t.y.b.n.n.g.g.g.n.M.M.M.M.M.n.n.n.b.z.9.S r @ - - - - - - - - - - - - - ",
"- - - - - - - - - - - & @ 9 N A &.,.-.-.<.$.$.$.$.$.r.r.t.y.f.b.g.g.g.g.n.M.M.M.M.M.g.f.b.f.t.9.S 5 @ - - - - - - - - - - - - - ",
"- - - - - - - - - - - - @ 9 B J &.,.-.-.,.<.$.$.$.$.r.r.t.t.y.f.g.g.g.j.M.M.M.M.M.n.g.f.f.f.t.8.S 5 @ - - - - - - - - - - - - - ",
"- - - - - - - - - - - - . 8 B J &.,.,.,.<.<.$.$.$.$.$.r.r.t.t.f.f.f.j.M.M.M.M.M.n.g.g.f.f.f.p.5.N 8 . - - - - - - - - - - - - - ",
"- - - - - - - - - - - - . 3 m G 3.&.,.,.,.<.$.$.$.$.$.r.t.t.t.f.f.f.m.M.M.M.m.n.g.g.g.f.y.t.p.3.b 1 ; - - - - - - - - - - - - - ",
"- - - - - - - - - - - - . < v K 3.&.,.,.<.<.$.$.$.$.$.r.r.t.t.f.f.j.M.M.M.M.n.f.f.g.g.y.f.t.2.4.c > % - - - - - - - - - - - - - ",
"- - - - - - - - - - - - $ < i S 4.=.,.,.,.<.<.$.$.$.$.r.r.r.t.a.f.m.M.M.m.n.f.f.f.g.g.f.y.a.q.G 0 > ; - - - - - - - - - - - - - ",
"- - - - - - - - - - - - - + e V J =.,.,.,.<.$.$.$.$.$.r.r.r.t.a.h.M.M.j.n.n.f.f.f.f.f.f.y.t.8.D q + ; : - - - - - - - - - - - - ",
"- - - - - - - - - - - - - @ 7 P G %.,.,.,.,.<.$.$.$.$.r.r.t.t.h.m.M.j.j.f.f.f.f.f.f.f.f.y.t.5.B 4 @ ; - - - - - - - - - - - - - ",
"- - - - - - - - - - - - - @ 1 L W 4.=.,.,.,.,.<.<.$.$.r.r.t.a.h.m.M.M.h.f.f.f.f.f.f.f.a.t.p.7.v , @ ; - - - - - - - - - - - - - ",
"- - - - - - - - - - - - - . < p E J %.&.,.,.,.,.<.<.$.$.t.a.b.h.h.h.h.h.h.h.h.b.b.f.h.p.p.9.K p X . ; - - - - - - - - - - - - - ",
"- - - - - - - - - - - - - % + w B G %.&.&.,.,.,.,.,.<.p.a.a.b.h.h.a.a.h.b.b.b.b.h.a.p.r.p.0.D 5 @ & : - - - - - - - - - - - - - ",
"- - - - - - - - - - - - - $ @ 6 m G %.=.&.&.,.,.,.<.2.l.a.h.h.h.h.t.t.a.a.a.a.a.t.t.e.e.2.3.b 4 . - - - - - - - - - - - - - - - ",
"- - - - - - - - - - - - $ $ % < a E J %.=.&.,.,.1.>.s.x.x.h.h.h.a.p.e.e.e.e.e.e.e.e.e.r.8.G i < . - - - - - - - - - - - - - - - ",
"- - - - - - - - - - - - - $ $ O w Y ~ *.=.:.1.>.2.s.s.s.d.d.x.a.p.r.r.r.r.r.p.p.e.e.e.;.6.B 5 @ - - - - - - - - - - - - - - - - ",
"- - - - - - - - - - - - - $ $   1 ` W A.=.1.2.2.s.s.s.s.d.d.d.p.i.r.r.r.i.p.p.p.e.e.i.>.J a > . - - - - - - - - - - - - - - - - ",
"- - - - - - - - - - - - - = - . X h Q D.S.J.K.U.U.U.Y.d.d.d.p.i.i.r.p.i.i.i.i.i.i.i.;.5.D q + . - - - - - - - - - - - - - - - - ",
"- - - - - - - - - - - - = - - - @ 8 R _ D.J.K.U.U.U.Y.Y.d.s.i.;.;.;.<.p.i.i.p.i.;.;.8.J m , . - - - - - - - - - - - - - - - - - ",
"- - - - - - - - - - - - - - - - ; < k ) I.F.J.K.U.U.Y.Y.s.i.i.;.;.;.;.<.<.2.2.;.;.2.5.D t X & - - - - - - - - - - - - - - - - - ",
"- - - - - - - - - - - - - - - - - @ 6 ' +.F.C.K.U.U.Y.s.s.;.;.;.>.<.<.<.;.;.<.>.>.2.7.n 1 . - - - - : - - - - - - - - - - - - - ",
"- - - - - - - - - - - - - - - - - . # k O.I.S.J.K.U.U.U.>.-.>.>.>.>.>.>.>.<.<.<.1.6.E y # & - - - - : - - - - - - - - - - - - - ",
"- - - - - - - - - - - - - - - - - - % d R ^.H.S.C.K.K.Z.:.:.:.1.1.1.>.<.<.<.<.<.0.~ n 3 . - - - - - - - - - - - - - - - - - - - ",
"- - - - - - - - - - - - - - - - - - - O k O.^.F.C.C.C.:.=.=.=.:.:.,.,.,.,.,.,.1.G.U w + - - - - - - - - - - - - - - - - - - - - ",
"- - - - - - - - - - - - - - - - - - - o 6 T +.H.S.V.V.=.=.=.=.=.=.,.1.1.1.1.0.6.W j 2 . - - - - - - - - - - - - - - - - - - - - ",
"- - - - - - - - - - - - - - - - - - - . O h O.^.D.A.*.*.*.*.=.=.=.5.=.=.=.=.4.( P 8 @ - - - - - - - - - - - - - - - - - - - - - ",
"- - - - - - - - - - - - - - - - - - - - . 1 I +.I.A.C C C A *.*.3.3.*.*.*.4.( [ h # ; : : - - - - - - - - - - - - - - - - - - - ",
"- - - - - - - - - - - - - - - - - - - - $ o f { ^.D.C C C C C A %.%.*.*.4.G.Q l 2 . : - - - - - - - - - - - - - - - - - - - - - ",
"- - - - - - - - - - - - - - - - - - - - $ . < k O._ Z Z C C C C C C A 4.G.X.Y 9 @ - - - - - - - - - - - - - - - - - - - - - - - ",
"- - - - - - - - - - - - - - - - - - - - - $ . d T o.! Z Z C C A A A A G.X.} p < . - - - - - - - - - - - - - - - - - - - - - - - ",
"- - - - - - - - - - - - - - - - - - - - - $ % O f ] | ! Z A A A A A / !. .` 4 o $ - - - - - - - - - - - - - - - - - - - - - - - ",
"- - - - - - - - - - - - - - - - - - - - - - $ . < h [ ~ ! G A J A J !...' 9 + . - - - - - - - - - - - - - - - - - - - - - - - - ",
"- - - - - - - - - - - - - - - - - - - - - - - - . 2 j } ../ G G J ( X.] y X . ; - - - - - - - - - - - - - - - - - - - - - - - - ",
"- - - - - - - - - - - - - - - - - - - - - - - - ; @ 8 l o.X.~ G ( X.Q p 2 @ & - - - - - - - - - - - - - - - - - - - - - - - - - ",
"- - - - - - - - - - - - - - - - - - - - - - - - - % o 7 L | X.X.X.| L 6 @ ; ; - - - - - - - - - - - - - - - - - - - - - - - - - ",
"- - - - - - - - - - - - - - - - - - - - - - - - - - % # 9 I } | U j 6 # ; - - - - - - - - - - - - - - - - - - - - - - - - - - - ",
"- - - - - - - - - - - - - - - - - - - - - - - - - - - . # 9 k l h 1 o % - - - - - - - - - - - - - - - - - - - - - - - - - - - - ",
"- - - - - - - - - - - - - - - - - - - - - - - - - - - - . @ # s # @ $ - - - - - - - - - - - - - - - - - - - - - - - - - - - - - ",
"- - - - - - - - - - - - - - - - - - - - - - - - - - - - - - & ; ; - $ - - - - - - - - - - - - - - - - - - - - - - - - - - - - - ",
"- - - - - - - - - - - - - - - - - - - - - - - - - - - - - - - - - - - - - - - - - - - - - - - - - - - - - - - - - - - - - - - - "
};
