/* XPM */
static char *_3e7cebf9e63472bdabbe3c3450edc21eS3HL4XNu5K0fwFI[] = {
/* columns rows colors chars-per-pixel */
"64 64 224 2 ",
"   c #271F1D",
".  c #2D1E1D",
"X  c #331D17",
"o  c #3C1B15",
"O  c #331C1C",
"+  c #3B1B1A",
"@  c #25231E",
"#  c #2B211D",
"$  c #33211C",
"%  c #2B1F22",
"&  c #321C20",
"*  c #1F2524",
"=  c #232323",
"-  c #292122",
";  c #491715",
":  c #451A16",
">  c #4B1A14",
",  c #431B19",
"<  c #4B1B1A",
"1  c #531715",
"2  c #5D1615",
"3  c #541B16",
"4  c #5D1B15",
"5  c #531D19",
"6  c #5B1D1A",
"7  c #661713",
"8  c #681717",
"9  c #631A14",
"0  c #6C1C15",
"q  c #641D19",
"w  c #6C1D19",
"e  c #771A16",
"r  c #751C1A",
"t  c #40201B",
"y  c #5C241D",
"u  c #632116",
"i  c #65211A",
"p  c #6E2319",
"a  c #722216",
"s  c #73221B",
"d  c #7B221B",
"f  c #591A20",
"g  c #831C16",
"h  c #851A19",
"j  c #8A1C1A",
"k  c #971C15",
"l  c #941C1B",
"z  c #9A1B19",
"x  c #BB170D",
"c  c #B71A0C",
"v  c #BC1A0C",
"b  c #AB1B15",
"n  c #A41C1A",
"m  c #AC1A1A",
"M  c #BC1710",
"N  c #B31B14",
"B  c #BA1C13",
"V  c #B41C1B",
"C  c #BD1D1A",
"Z  c #84221A",
"A  c #8C231C",
"S  c #8D2A1D",
"D  c #952419",
"F  c #9B241D",
"G  c #9B2B1E",
"H  c #99301D",
"J  c #BD200E",
"K  c #A4221A",
"L  c #A62419",
"P  c #AA221E",
"I  c #B52115",
"U  c #BC2114",
"Y  c #B5261C",
"T  c #BB241C",
"R  c #B42B1C",
"E  c #BC2A1C",
"W  c #A31F21",
"Q  c #8B2621",
"!  c #9B2B22",
"~  c #9B3021",
"^  c #A42C24",
"/  c #A92C23",
"(  c #AF2F2A",
")  c #BC2721",
"_  c #B22D24",
"`  c #B82B26",
"'  c #BC2D26",
"]  c #A83321",
"[  c #B43223",
"{  c #BC3224",
"}  c #B6312A",
"|  c #BB3429",
" . c #CF0D05",
".. c #D80D06",
"X. c #D40E09",
"o. c #DA0E0D",
"O. c #C51707",
"+. c #CD1607",
"@. c #CD1907",
"#. c #C5160B",
"$. c #CC160B",
"%. c #C4190B",
"&. c #CA190C",
"*. c #D61607",
"=. c #D3140A",
"-. c #DC130C",
";. c #D4190D",
":. c #DC1D0C",
">. c #D80F10",
",. c #C91513",
"<. c #C41C13",
"1. c #C71816",
"2. c #C41D19",
"3. c #D51412",
"4. c #DA1211",
"5. c #D21913",
"6. c #DB1913",
"7. c #E60E07",
"8. c #EA0E06",
"9. c #E50E0B",
"0. c #EA0E0B",
"q. c #F10E0D",
"w. c #E3110C",
"e. c #EB130C",
"r. c #E41C0C",
"t. c #ED1A0D",
"y. c #F4130E",
"u. c #F9120E",
"i. c #F5190D",
"p. c #FA1A0E",
"a. c #E21411",
"s. c #EE1511",
"d. c #E51A10",
"f. c #ED1D13",
"g. c #E01C1B",
"h. c #F51411",
"j. c #F91211",
"k. c #F31B14",
"l. c #FB1C12",
"z. c #F51D1A",
"x. c #FB1E19",
"c. c #DB230F",
"v. c #C32215",
"b. c #CC2416",
"n. c #C22319",
"m. c #D82815",
"M. c #DC211C",
"N. c #DA2F1B",
"B. c #CB331E",
"V. c #D8321C",
"C. c #E8230E",
"Z. c #E52312",
"A. c #EC2315",
"S. c #E52C14",
"D. c #E92A14",
"F. c #E5221A",
"G. c #E42B19",
"H. c #EA281C",
"J. c #FD2015",
"K. c #F3241A",
"L. c #FD231A",
"P. c #E3321C",
"I. c #E3391B",
"U. c #C52D22",
"Y. c #C52A25",
"T. c #D52C26",
"R. c #C43123",
"E. c #CB3323",
"W. c #C6342A",
"Q. c #C73929",
"!. c #D43121",
"~. c #D93121",
"^. c #D73829",
"/. c #C43630",
"(. c #DB3D34",
"). c #E92320",
"_. c #F42722",
"`. c #F52B24",
"'. c #FA2823",
"]. c #E83629",
"[. c #F4352C",
"{. c #F93328",
"}. c #FA342C",
"|. c #ED3A35",
" X c #FC3B31",
".X c #F03E38",
"XX c #DF422B",
"oX c #DD463A",
"OX c #DB483C",
"+X c #ED432C",
"@X c #EB4939",
"#X c #F34735",
"$X c #FE4236",
"%X c #F7453C",
"&X c #FC453A",
"*X c #F6493B",
"=X c #F9493A",
"-X c #EB5035",
";X c #F2593B",
":X c #DF4E42",
">X c #DF574C",
",X c #ED4D43",
"<X c #F64740",
"1X c #F54A42",
"2X c #E35343",
"3X c #EE554B",
"4X c #E8584A",
"5X c #F35549",
"6X c #ED5F52",
"7X c #F45C54",
"8X c #F16A4E",
"9X c #FA684C",
"0X c #ED6456",
"qX c #F86856",
"wX c #F36C5D",
"eX c #F47152",
"rX c #F87469",
"tX c #FB7C72",
"yX c #FB826F",
"uX c #FE8175",
"iX c #FD8C7C",
"pX c #FE8C82",
"aX c #FF9284",
"sX c #FF968A",
/* pixels */
"= = = = = = = = = = = = = = = = = = = = = = = = = = = = = = = = = = = = = = = = = = = = = = = = = = = = = = = = = = = = = = = = ",
"= = = = = = = = = = = = = = = = = = = = = = = = = = = = = = = = = = = = = = = = = = = = = = = = = = = = = = = = = = = = = = = = ",
"= = = = = = = = = = = = = = = = = = = = = = = = = = = = = = = = = = = = = = = = = = = = = = = = = = = = = = = = = = = = = = = = ",
"= = = = = = = = = = = = = = = = = = = * = = = = = = = = = - = = = = = = = = = = = = = = = = = = = = = = = = = = = = = = = = = = ",
"= = = = = = = = = = = = = = = = = = = = = = = - @ @ @ @ = = = = = = = @ @ @ @ @ @ = = = = = = = = = = = = = = = = = = = = = = = ",
"= = = = = = = = = = = = = = = = = = # . O + , , : : : : , , + O . # # . X o , , , , , , , + o X . # = = = = = = = = = = = = = = ",
"= = = = = = = = = = = = = = = = = . o ; q r h l z k k z l j r 8 > o o > 2 e h j l l l j j Z d 9 > + . - - = = = = = = = = = = = ",
"= = = = = = = = = = = = = = = - + > 0 Z F P C 1.,.,.,.,.1.C V n l e e A F P Y T C C C B V T R [ ! s 5 + . = = = = = = = = = = = ",
"= = = = = = = = = = = = = % . + 4 A _ Q.oX(.T.6.4.>.4.4.4.4.3.,.#.<.2.E.OX>X>X2XOX(.^.T.b.<.b.N.V.R.! 9 o # = = = = = = = = = = ",
"= = = = = = * = = = = = - & , 0 F /.4XrXuXtXqX|.g.4.o.o.o.-.X.o.o.4.].0XtXpXpXiXyX0XoX(.(.^.V.N.N.N.E./ a , . @ = = = = = = = = ",
"= = = = = * * * = = = = % , 8 K ^.,XrXpXsXsXuX7X.XF.-.X.X.X.X.o.a.).1XtXpXsXsXaXiXwX2X2X:XoX-X-XI.S.G.~.[ p o # = = = = = = = = ",
"= = = = = = = = = * * = O 2 z T..X1X7XtXpXiXrX7XqX,XM.X. . .=.-.H. X1X7XrXtXtXrXwX4X6XrX0XOX4X9X;X].S.G.~.^ 4 O = = = = = = = = ",
"= = = = = = = = * = = . > h Y.|.&X=X,X3X7X7X3X5XqX5X].6. ...-.F.[.&X=X1X5X3X3X3X,X,X5XqX4X2X6XeXeX;XP.S.G.E.S : . @ = = = = = = ",
"= = = = = = = = = = = O 8 P T.#X=X=X%X<X1X1X1X1X1X*X#XF.....d.`.$X&X&X&X&X&X%X%X%X%X1X1X@X2X8XeXeX9X+XS.D.N.[ i O @ = = = = = = ",
"= = = = = = = = * = % , j n.].&X=X&X&X&X&X&X&X&X&X&X&X`.w.9.f.}.$X$X X{.`.`.`._._.`.[.[.|.5X9XeXeX9X+XS.D.S.B.S : # = = = = = = ",
"= = = = = = = = = = & f W M.[.&X$X X}.`.'.'.`.}. X$X$X{.s.s.'. X}.`.K.k.h.h.k.k.k.k.k.f.F.].+X-X-X+XP.D.A.D.V.] u O = = = = = = ",
"= = = = = = = = = = + r V F.}. X`.K.k.k.k.k.k.k.z.'.'.z.h.h.x.'.z.k.h.h.h.h.h.h.h.h.h.k.f.A.D.G.G.G.D.A.A.D.P.R.d o = = = = = = ",
"= = = = = = = = = - : j <.d.K.K.f.e.y.h.j.j.j.j.j.h.j.j.j.h.h.h.h.h.h.h.h.h.h.h.h.h.h.x.k.k.A.A.A.A.A.A.A.D.G.!.S , @ = = = = = ",
"= = = = = = = = = . 1 z 1.r.k.k.h.h.h.j.j.j.j.j.j.h.j.h.y.h.h.h.h.h.j.h.h.h.h.h.h.h.h.L.L.k.k.f.f.f.A.A.A.D.G.~.! < . @ = = = = ",
"= = = = = = = = = . 2 n 5.e.y.h.h.j.j.j.j.j.j.j.j.j.j.u.y.j.j.h.j.j.j.h.h.h.h.h.h.h.x.L.L.k.k.f.f.f.A.A.A.D.G.~./ 6 . = = = = = ",
"= = = = = = = = = O 7 b 3.e.y.h.j.j.j.j.j.j.j.j.j.j.j.j.j.j.j.j.j.j.j.h.h.h.h.h.h.l.L.L.L.k.f.f.f.A.D.Z.c.c.c.m./ 6 O = = = = = ",
"= = = = = = = - - O 7 N =.e.y.h.j.j.h.j.j.j.j.j.j.j.j.j.j.j.j.j.j.j.j.h.j.j.h.h.y.x.L.L.L.k.f.f.f.Z.:.;.@.@.@.&.K 6 O = = = = = ",
"= = = = = = = = = O 7 N =.e.y.h.j.j.j.j.j.j.j.j.j.j.j.j.j.j.j.j.j.j.j.j.j.j.h.y.l.J.L.L.L.k.f.d.:.*.*.@.@.O.O.%.K 6 O = = = = = ",
"= = = = = = = = = O 7 N -.e.y.y.u.u.u.j.j.j.j.j.j.j.j.j.j.j.j.j.j.u.u.u.u.u.y.l.J.J.L.L.k.f.d.-.*.=.=.+.+.&.%.%.F 6 O = = = = = ",
"= = = = = = = = = . 9 N -.0.y.y.y.u.u.j.j.j.j.j.j.j.j.j.j.j.j.j.j.u.u.u.u.u.u.l.J.L.L.L.k.w.-.=.=.=.=.+.+.$.%.B D 5 . = = = = = ",
"= = = = = = = = = . 9 m 3.0.y.y.y.u.u.j.j.j.j.j.j.j.j.j.j.j.j.j.j.u.u.u.u.u.l.l.J.L.L.k.e.9.o.=.=.=.=.+.+.$.%.B D 5 . = = = = = ",
"= = = = = = = = = # 4 n 3.0.y.y.u.u.u.u.j.j.j.j.j.j.j.j.j.j.j.j.u.u.u.u.u.l.l.L.L.L.k.e.9.9.-.=.=.=.=.+.$.$.%.B j < # @ = = = = ",
"= = = = = = @ = = # 1 n 5.9.0.y.u.u.u.u.j.j.j.j.j.j.j.j.j.j.j.j.u.u.u.u.j.l.x.x.z.z.h.0.9.9.-.=.=.=.=.+.$.&.%.N g : # @ = = = = ",
"= = = = = @ @ = = . 1 z 5.w.8.y.j.u.u.u.j.j.j.j.j.j.j.j.j.j.j.j.u.u.u.u.l.x.x.x.k.k.e.9.w.w.-.=.=.=.=.+.+.&.O.I g , # @ = = = = ",
"= = = = = = @ = =   ; j 1.w.8.0.y.j.u.u.u.u.u.u.u.j.j.j.j.j.j.u.u.u.u.l.l.l.l.h.h.s.9.9.w.w.-.=.=.=.=.+.+.O.v L r + = = = = = = ",
"= = = = = = @ = = @ o e B -.8.0.y.h.j.u.u.u.u.u.u.j.j.j.j.j.y.y.y.u.p.l.l.l.h.h.h.0.9.9.-.-.-.=.=.=.=.+.$.O.v D q O = = = = = = ",
"= = = = = = = = = = X 2 b -.9.0.0.y.j.u.y.y.y.y.y.h.h.h.h.h.y.y.u.p.l.l.l.y.h.h.e.0.9.9.-.-.=.=.=.=.=.+.$.%.N A 5 % = = = = = = ",
"= = = = = = = = = = . > z 3.9.0.0.y.h.j.y.y.y.y.y.y.h.h.y.y.y.y.p.l.l.l.y.y.h.h.0.9.9.w.-.-.=.=.=.=.=.$.$.%.b d : - = = = = = = ",
"= = = = = = = = = = # , h 1.a.9.0.0.q.y.y.y.y.y.y.y.h.h.y.y.y.p.l.l.p.i.y.y.y.0.0.9.9.w.-.-.=.=.=.=.=.+.$.M K w o = = = = = = = ",
"= = = = = = = = = = = O w V 3.9.0.0.0.q.y.y.y.y.y.y.y.y.y.y.p.p.p.p.i.y.y.y.0.0.0.9.9.-.-.-.=.=.=.=.=.+.%.M k 4 O @ = = = = = = ",
"= = = = = = * * = = = % 3 z 1.-.7.0.0.0.y.y.y.y.y.y.y.y.y.i.l.l.p.i.y.y.y.e.0.0.9.9.w.-.-.=.=.=.=.=.+.+.%.N g > $ = = = = = = = ",
"= = = = = = = = = = = - , e C -.9.9.0.0.0.0.e.y.y.y.y.i.l.l.J.l.h.y.e.e.e.0.9.9.w.w.w.-.-.=.=.=.=.+.$.%.B K 0 o # = = = = = = = ",
"= = = = = = = = = = = = O 2 n 5.-.w.8.0.0.0.0.0.0.e.y.p.l.l.i.y.e.0.e.e.0.9.w.w.w.w.-.-.=.=.=.=.=.+.#.<.I Z 3 X = = = = = = = = ",
"= = = = = = = = = = = = . ; h B -.w.9.9.0.0.0.0.0.e.y.y.i.y.e.e.9.9.0.0.9.w.w.w.w.w.-.-.=.=.=.+.+.$.<.U L w o # = = = = = = = = ",
"= = = = = = = = = = = = % + 9 n 5.w.w.w.e.e.e.e.e.y.y.y.y.e.7.9.9.9.9.w.w.w.w.w.w.-.-.=.=.=.+.+.$.#.2.` A 3 X = = = = = = = = = ",
"= = = = = = = = = = = = - . : Z n.6.w.w.e.e.t.t.t.i.y.y.e.e.w.w.w.w.w.w.w.w.w.-.-.-.-.=.=.+.$.$.O.<.T ^ w o # = = = = = = = = = ",
"= = = = = = = = = = = = = - O q P m.r.e.t.t.t.t.t.t.t.e.e.w.w.w.w.w.w.w.w.w.-.-.-.-.=.=.=.+.$.O.%.n.Y Q 5 O = = = = = = = = = = ",
"= = = = = = = = = = = = = = # ; g T :.r.t.t.t.t.t.t.t.e.w.w.w.w.w.w.w.w.-.-.-.-.-.-.=.=.+.+.&.%.%.E F q + - = = = = = = = = = = ",
"= = = = = = = = = = = = = = @ X 3 F b.Z.t.t.t.t.t.t.t.r.w.w.w.w.w.w.w.-.-.-.-.-.-.-.=.+.+.O.O.v n.P d < . = = = = = = = = = = = ",
"= = = = = = = = = = = = = = @ # + w _ N.Z.C.t.t.t.t.r.w.w.w.w.w.w.w.-.-.-.-.-.-.-.*.=.+.$.O.v U R A 6 + % = = = = = = = = = = = ",
"= = = = = = = = = = = = = = = = . : d { P.C.r.t.t.r.r.-.-.-.-.-.-.-.-.-.-.-.-.=.=.=.+.$.O.%.J R G 0 + - = = = = = = = = = = = = ",
"= = = = = = = = = = = = = = = = - O 5 S E.P.Z.r.r.r.-.-.-.-.-.-.-.-.-.-.-.-.=.=.$.$.&.%.v v E L d < O - = = = = = = = = = = = = ",
"= = = = = = = = = = = = = = = = = - O u ] ^.G.Z.r.r.-.-.-.-.-.-.-.-.-.-.-.=.;.$.$.%.%.v c U R A 6 + % = = = = = = = = = = = = = ",
"= = = = = = = = = = = = = = = = = = . : a [ ^.P.c.:.*.*.*.-.-.*.=.=.3.3.3.;.5.&.#.x v c U R G i + % = = = = = = = = = = = = = = ",
"= = = = = = = = = = = = = = = = = = - O > Z | XXN.@.=.=.=.=.=.=.=.=.;.;.&.&.&.%.x M x B ' / s : . = = = = = = = = = = = = = = = ",
"= = = = = = = = = = = = = = = = = = = - O 3 S Q.^.b.O.O.O.O.$.$.$.$.O.O.%.%.v x x M B ' ( Z 3 . = = = = = = = = = = = = = = = = ",
"= = = = = = = = = = = = = = = = = = = = # o 9 H Q.B.v.%.v %.%.%.%.%.%.%.v v v v c B ) ( Q 6 + @ = = = = = = = = = = = = = = = = ",
"= = = = = = = = = = = = = = = = = = = @ @ # o u ~ { U.n.v v v v v v %.v v v v c N ) } Q 6 + # = = = = = = = = = = = = = = = = = ",
"= = = = = = = = = = = = = = = = = = = @ @ @ # , p G [ W.n.v v v v v v v v v c B ) } ! q + . = = = = = = = = = = = = = = = = = = ",
"= = = = = = = = = = = = = = = = = = = @ @ = = - , p ! | W.n.v v v v v v c c c E ' ! w , . = = = = = = = = = = = = = = = = = = = ",
"= = = = = = = = = = = = = = = = = = = = = = = = . : s ! | U.U v v v v v c c E { ^ w , . = = = = = = = = = = = = = = = = = = = = ",
"= = = = = = = = = = = = = = = = = = = = = = = = = . ; s ! { R.n.v v v N I E { G s < . = = = = = = = = = = = = = = = = = = = = = ",
"= = = = = = = = = = = = = = = = = = = = = = = = = = . ; r G { W.U.U B T ' [ G s < & % = = = = = = = = = = = = = = = = = = = = = ",
"= = = = = = = = = = = = = = = = = = = = = = = = = = = O ; s ! _ W.W.W.W.} ! s < O % = = = = = = = = = = = = = = = = = = = = = = ",
"= = = = = = = = = = = = = = = = = = = = = = = = = = = = . , w A / } } / Q w : O % = = = = = = = = = = = = = = = = = = = = = = = ",
"= = = = = = = = = = = = = = = = = = = = = = = = = = = = = . + 6 d A A d y t . = = = = = = = = = = = = = = = = = = = = = = = = = ",
"= = = = = = = = = = = = = = = = = = = = = = = = = = = * * = - + < 5 3 : $ # = = = = = = = = = = = = = = = = = = = = = = = = = = ",
"= = = = = = = = = = = = = = = = = = = = = = = = = = = * * * = = - # . . @ = = = = = = = = = = = = = = = = = = = = = = = = = = = ",
"= = = = = = = = = = = = = = = = = = = = = = = = = = = = = = = = = = = = = = = = = = = = = = = = = = = = = = = = = = = = = = = = "
};
