/* XPM */
static char *_a928ec4784c4eafced8bcd05a179da9Se8RvGY5tAjmRzdf[] = {
/* columns rows colors chars-per-pixel */
"64 64 219 2 ",
"   c #271F1E",
".  c #2D1E1D",
"X  c #341C17",
"o  c #3C1916",
"O  c #3E1719",
"+  c #331C1B",
"@  c #3B1B1A",
"#  c #24231E",
"$  c #2A201E",
"%  c #342019",
"&  c #3E211B",
"*  c #271F25",
"=  c #2B1F22",
"-  c #1F2426",
";  c #232323",
":  c #292121",
">  c #461715",
",  c #4B1615",
"<  c #421A16",
"1  c #4B1916",
"2  c #421619",
"3  c #4C1718",
"4  c #431919",
"5  c #4C1B1A",
"6  c #541614",
"7  c #5B1714",
"8  c #551A16",
"9  c #5D1915",
"0  c #551718",
"q  c #541B19",
"w  c #641614",
"e  c #6B1715",
"r  c #631A16",
"t  c #6B1A16",
"y  c #6D1718",
"u  c #641A19",
"i  c #6B1C1A",
"p  c #731614",
"a  c #7C1715",
"s  c #721A16",
"d  c #7E1917",
"f  c #721B19",
"g  c #7C1C1A",
"h  c #4D2017",
"j  c #5B2217",
"k  c #5B221B",
"l  c #63221B",
"z  c #6B211C",
"x  c #76251B",
"c  c #75231E",
"v  c #6E2A23",
"b  c #772A23",
"n  c #851A16",
"m  c #8B1A14",
"M  c #851C1B",
"N  c #8C1D1B",
"B  c #921A15",
"V  c #9C1A16",
"C  c #941B1A",
"Z  c #9B1C1A",
"A  c #B6170C",
"S  c #BC170C",
"D  c #B6180C",
"F  c #BC190E",
"G  c #A41716",
"H  c #A41A16",
"J  c #AB1A16",
"K  c #A51D1B",
"L  c #AC1A19",
"P  c #BA1715",
"I  c #B41A13",
"U  c #BC1B12",
"Y  c #B51E1B",
"T  c #BC1C1B",
"R  c #8A211D",
"E  c #83291D",
"W  c #95231D",
"Q  c #9D211C",
"!  c #9F281E",
"~  c #A5211C",
"^  c #AC241C",
"/  c #B72014",
"(  c #BB2215",
")  c #B5221C",
"_  c #BB231B",
"`  c #BA2A1E",
"'  c #8A2422",
"]  c #852D23",
"[  c #8C2B25",
"{  c #962522",
"}  c #922C25",
"|  c #9B2D26",
" . c #893226",
".. c #983627",
"X. c #A52422",
"o. c #A82B24",
"O. c #B52623",
"+. c #BB2C23",
"@. c #AC352C",
"#. c #A6392C",
"$. c #B3352C",
"%. c #B9372A",
"&. c #BD352C",
"*. c #A53D34",
"=. c #BB3D31",
"-. c #D70F0E",
";. c #DC0E0C",
":. c #C81607",
">. c #C2170C",
",. c #CC150D",
"<. c #C3190D",
"1. c #CB190B",
"2. c #D71707",
"3. c #D4150B",
"4. c #DC130A",
"5. c #D2190A",
"6. c #DB1D0B",
"7. c #C61612",
"8. c #CD1613",
"9. c #C21B13",
"0. c #CA1A14",
"q. c #C21B19",
"w. c #CA1A18",
"e. c #D21512",
"r. c #DB1511",
"t. c #D21912",
"y. c #DA1A19",
"u. c #E70A07",
"i. c #EB0A07",
"p. c #E50D0A",
"a. c #EC0C0A",
"s. c #F10D0B",
"d. c #E3110A",
"f. c #EC120D",
"g. c #E41C0B",
"h. c #E91A0D",
"j. c #F4120C",
"k. c #F8130E",
"l. c #F6180F",
"z. c #F91B0F",
"x. c #E51311",
"c. c #EA1512",
"v. c #E71B16",
"b. c #FB1611",
"n. c #F41A15",
"m. c #F21C15",
"M. c #FC1C14",
"N. c #D9220C",
"B. c #C22415",
"V. c #C3221C",
"C. c #CC231D",
"Z. c #C02B1D",
"A. c #D92911",
"S. c #D82618",
"D. c #D1331E",
"F. c #DA331C",
"G. c #E9221C",
"H. c #F3231B",
"J. c #F2291E",
"K. c #C12B23",
"L. c #C72823",
"P. c #D42924",
"I. c #D62A24",
"U. c #C13326",
"Y. c #C5332B",
"T. c #DB3B24",
"R. c #DC352D",
"E. c #D13B2A",
"W. c #DE3E34",
"Q. c #E82B26",
"!. c #F62A23",
"~. c #E5322B",
"^. c #F53329",
"/. c #E23D33",
"(. c #EC3A33",
"). c #F33C35",
"_. c #FB3C35",
"`. c #FC3F38",
"'. c #B5402E",
"]. c #AF4431",
"[. c #CA412E",
"{. c #DA442D",
"}. c #C34832",
"|. c #D94735",
" X c #D45239",
".X c #E9443A",
"XX c #EC4A3D",
"oX c #F4443D",
"OX c #FA443E",
"+X c #F24A3E",
"@X c #ED4D42",
"#X c #ED4F4A",
"$X c #F54742",
"%X c #F84641",
"&X c #F34A42",
"*X c #F94F44",
"=X c #EF5546",
"-X c #EE534D",
";X c #F35345",
":X c #F6564A",
">X c #FC5D4E",
",X c #F55C53",
"<X c #F35C54",
"1X c #FB6354",
"2X c #F4625B",
"3X c #F8655A",
"4X c #FE6B5B",
"5X c #F76E67",
"6X c #FF6F61",
"7X c #FA7267",
"8X c #F87770",
"9X c #FA7C72",
"0X c #FC8276",
"qX c #FC847A",
"wX c #FE897C",
"eX c #FF8C82",
"rX c #FF9187",
"tX c #FF9588",
"yX c #FF988A",
/* pixels */
"; ; ; ; ; ; ; ; ; ; ; ; ; ; ; ; ; ; ; ; ; ; - - - ; ; ; ; ; ; ; : * * ; ; ; : $ $ ; ; ; ; ; ; ; ; ; - ; ; ; ; ; ; ; ; ; ; ; ; ; ",
"; ; ; ; ; ; ; ; ; ; ; ; ; ; ; ; ; ; ; ; ; ; - - ; ; ; $ + + o 4 > 5 5 5 5 4 4 O X + + $ $ ; ; ; ; ; ; ; ; ; ; ; ; ; ; ; ; ; ; ; ",
"; ; ; ; ; ; ; ; ; ; ; ; ; ; ; ; ; ; ; ; ; ; ; ; : $ @ < q r s d N C C C C R g f i 9 1 < + + . : : ; # # # ; ; ; ; ; ; ; ; ; ; ; ",
"; ; ; ; ; ; ; ; ; ; ; ; ; ; ; ; ; ; ; ; : : = + O q i R W ~ ) ) _ _ V.V.K.+._ ) ^ Q N g w 6 2 @ . $ $ # # ; ; ; ; ; ; ; ; ; ; ; ",
"; ; ; ; ; ; ; ; ; ; ; ; ; ; ; ; ; ; ; ; = + O q i R ~ Y V.C.P.R./..XXX@X@XXX.X/.R.P.K.O.{ M y 0 O +   ; ; ; ; ; ; ; ; ; ; $ $ $ ",
"; ; ; ; ; ; ; ; ; ; ; ; ; ; ; ; ; ; ; . + , t N ~ _ C.P./.#X2X7X9X0XwXwXwXwX0X9X7X2X-X|.Y.+.X.M u , +   ; ; ; ; ; ; ; ; # $ $ $ ",
"; ; ; ; ; ; ; ; ; ; ; ; ; ; ; ; ; : . @ 1 s Z ) C.P.~..X:X5XqXrXtXtXtXtXyXyXtXrXeXqX7X,XXX/.E.+.W f 3 @ : ; ; ; ; ; ; # # # $ $ ",
"; ; ; ; ; ; ; ; ; ; ; ; ; ; ; ; : . O 0 g Z _ P.~.).oX&X-X<X5X8X9X0XqXwXwXwXqX0X8X3X<X;X*X+XXXW.Y.| c q @   ; ; ; ; ; # # # $ $ ",
"; ; ; ; ; ; ; ; ; ; ; ; ; ; ; ; : @ q g K _ P.~.(.oX&X&X&X#X#X-X-X<X<X2X2X<X<X<X=X@XXXXX&X:X>X;X|.Y.X.g 8 @ $ ; ; ; ; ; ; ; ; ; ",
"; ; ; ; ; ; ; ; ; ; ; ; ; ; ; $ + 5 f Z T P.Q.(.oXoX&X$X$X$X$X$X$X$X&X&X&X&X$X&X&X+X+X+X;X1X4X1X=XW.L.X.g q + $ ; ; ; ; ; ; ; ; ",
"; ; ; ; ; ; ; ; ; ; ; ; ; ; : + > u N L w.S.Q.).oXoX%X%XOXOXOXOXOXOXOXOXOXOXOXOXoX$X&X&X:X1X4X6X1X@XR.K.{ i > +   $ ; ; ; ; ; ; ",
"; ; ; ; ; ; ; ; ; ; ; ; ; ; . 4 9 M K q.e.v.Q.^._._.`.`._._._._._._._._._._._.`.OXOX%X*X>X4X6X6X1X*X(.P.O.' u 4 . $ ; ; ; ; ; ; ",
"; ; ; ; ; ; ; ; ; ; ; ; ; ; + 3 p V P 8.-.;.d.v.v.H.H.H.H.H.m.m.m.m.m.m.m.m.H.!.!.^.^.OX*X>X1X>X*X).Q.Q.L.X.g q @ $ ; ; ; ; ; ; ",
"; ; ; ; ; ; ; ; ; ; ; ; ; = @ 7 n J 7.r.p.p.p.p.p.f.f.l.l.l.l.l.l.l.j.j.j.l.l.l.l.f.m.H.!.!.^.!.J.H.H.G.P._ C r 4 . ; ; ; ; ; ; ",
"; ; ; ; ; ; ; ; ; ; ; ; : + 4 u B P e.;.p.a.a.i.i.a.j.j.l.j.j.j.j.j.j.j.j.j.j.j.j.j.l.M.M.M.M.M.M.M.M.H.G.L.K s , . ; ; ; - ; ; ",
"; ; ; ; ; ; ; ; ; ; ; ;   + , s V 7.3.p.p.a.a.a.a.a.s.s.j.j.j.j.j.j.j.j.j.j.j.j.j.j.k.M.M.M.M.M.M.M.M.n.v.y.Y M 9 @ : ; ; ; ; ; ",
"; ; ; ; ; ; ; ; ; ; ; ; . @ 6 d G 8.-.p.p.i.a.s.s.s.s.s.s.s.k.k.k.k.k.k.k.k.j.j.j.k.b.M.M.M.M.M.M.z.z.l.c.y.T C u 4 + : ; ; ; ; ",
"; ; ; ; ; ; ; ; ; ; ; $ . < 7 n J ,.;.p.p.i.a.a.s.s.s.s.s.s.k.k.k.k.k.k.k.k.j.j.k.b.M.M.M.M.M.b.b.l.l.l.c.r.q.Z e > + . ; ; ; ; ",
"; ; ; ; ; ; ; ; ; ; ;   + > u N I 3.;.p.p.p.i.a.a.a.a.s.s.k.k.s.j.j.j.j.s.j.j.k.b.M.M.M.M.b.b.b.k.l.l.l.f.x.w.H p , o . $ ; ; ; ",
"; ; ; ; ; ; ; ; ; ; ;   + 3 y C P 3.;.p.p.p.p.i.i.a.a.a.s.s.k.k.j.j.s.j.s.j.j.k.b.M.M.b.b.b.k.k.k.k.j.j.j.x.8.L a 6 o . $ # ; ; ",
"; ; ; ; ; ; ; ; ; ; ; $ + 3 y C P 3.;.p.p.p.p.p.i.i.i.a.a.s.s.s.j.j.s.s.j.j.k.k.M.M.b.b.b.b.k.k.k.k.k.j.j.c.e.L a 6 o . # # # ; ",
"; ; ; ; ; ; ; ; ; ; ; $ + 3 y C P 3.;.p.p.p.p.p.i.i.i.a.a.s.s.s.j.j.s.j.j.j.k.k.b.M.b.k.k.k.k.k.k.s.j.j.j.c.e.L a 6 o . # # # ; ",
"; ; ; ; ; ; ; ; ; ; ; $ + 3 y C P e.;.p.p.p.p.p.i.i.i.a.a.a.s.s.s.j.j.j.j.k.b.b.b.k.k.k.j.j.j.j.j.j.j.j.j.x.e.L a 6 o . # # # ; ",
"; ; ; ; ; ; ; ; ; ; ; $ + 3 y C P e.;.p.p.p.p.p.i.i.a.a.a.a.a.s.s.j.j.j.j.k.b.b.k.l.j.j.j.j.j.j.j.j.j.j.f.x.e.L a 6 o . $ # # ; ",
"; ; ; ; ; ; ; ; ; ; ; $ + , y C P e.;.p.p.p.p.p.i.i.a.a.a.a.a.a.s.s.j.j.k.k.b.k.k.j.j.j.j.j.j.j.j.j.j.j.f.x.e.L a 6 o . $ # # # ",
"; ; ; ; ; ; ; ; ; ; ; $ X , e B I ,.;.p.p.p.p.i.i.i.i.a.a.a.a.a.a.s.j.k.k.k.k.j.j.j.j.j.j.j.j.j.j.j.j.j.j.x.8.G a 6 o . $ ; ; ; ",
"; ; ; ; ; ; ; ; ; ; ; $ X > w m I ,.-.p.p.p.p.i.i.i.i.a.a.a.a.a.a.s.j.l.k.l.j.j.j.j.j.j.j.j.j.j.j.j.j.j.f.x.8.G p , @ . ; ; ; ; ",
"; ; ; ; ; ; ; ; ; ; ; $ + < 9 n J ,.;.p.p.p.p.p.i.i.i.i.a.a.a.a.s.s.s.s.j.j.j.j.j.j.j.j.j.j.j.j.j.j.j.j.f.x.0.V s , + = ; ; ; ; ",
"; ; ; ; ; ; ; ; ; ; ; $ . o 8 g G 7.3.;.p.p.p.p.i.i.i.i.i.i.s.s.j.j.s.s.a.s.j.j.j.j.j.j.j.j.j.j.j.j.j.f.f.r.9.C u > + = ; ; ; ; ",
"; ; ; ; ; ; ; ; ; ; ; ;   + 3 s V U ,.;.;.p.p.p.i.i.i.i.i.a.s.j.j.j.s.s.s.s.s.s.j.j.j.j.j.j.j.j.j.j.f.f.d.e.I m 7 O = * ; ; ; ; ",
"; ; ; ; ; ; ; ; ; ; ; ;   + 4 t B U ,.3.;.p.p.p.i.i.i.i.s.s.s.j.j.s.a.a.a.a.a.s.s.j.j.j.j.j.j.j.j.j.f.f.d.8.J a 6 + = ; ; ; ; ; ",
"; ; ; ; ; ; ; ; ; ; ; ; ; . O r m I 7.3.;.;.p.p.u.i.i.i.s.s.j.j.s.s.a.a.a.a.a.s.s.j.j.j.j.j.j.j.j.j.f.d.r.9.G p , + = ; ; ; ; ; ",
"; ; ; ; ; ; ; ; ; ; ; ; ; : + q g K P 8.-.;.p.p.p.u.u.a.j.j.j.j.s.a.a.a.a.a.a.a.a.a.f.f.f.j.j.j.s.a.f.d.t.I B w > . = ; ; ; ; ; ",
"; ; ; ; ; ; ; ; ; ; ; ; ; ; + 3 f Q Y w.e.-.;.p.p.p.f.f.f.f.j.f.a.a.a.a.a.a.a.a.a.a.a.a.a.a.f.a.a.a.d.r.q.H d 0 O . : ; ; ; ; # ",
"; ; ; ; ; ; ; ; ; ; ; ; ; ; . > u R O.V.t.3.;.d.d.f.f.f.f.f.f.f.a.a.a.a.a.a.a.a.a.a.a.a.a.a.a.a.a.d.d.t.U C t , @ = : ; ; ; ; ; ",
"; ; ; ; ; ; ; ; ; ; ; ; ; ; . @ 8 x X.+.0.5.2.d.h.f.h.f.f.f.f.f.a.p.p.p.p.p.p.p.d.d.p.p.a.a.p.d.p.d.4.0.J n 9 4 + : ; ; ; ; ; ; ",
"; ; ; ; ; ; ; ; ; ; ; ; ; ; : + > r } %.L.S.6.g.g.h.h.h.f.d.d.p.d.d.p.p.p.p.p.p.d.d.d.d.p.p.d.d.4.4.5.U V t , @ = ; ; ; ; ; ; ; ",
"; ; ; ; ; ; ; ; ; ; ; ; ; ; : . o 8 ] $.E.F.A.N.g.h.h.g.d.d.d.d.p.d.p.d.d.d.d.d.d.d.d.d.d.p.d.d.d.4.1.I m 7 o . : ; ; ; ; ; ; ; ",
"; ; ; ; ; ; ; ; ; ; ; ; ; ; ;   + 5 c #.[.T.F.N.g.g.g.g.d.d.d.d.d.d.d.d.d.d.d.d.d.d.d.d.d.d.d.d.6.t.9.H s 1 + : ; ; ; ; ; ; ; ; ",
"; ; ; ; ; ; ; ; ; ; ; ; ; ; ; : . o k  .}.{.T.A.N.g.g.g.4.4.4.4.4.4.d.d.d.d.p.p.d.d.d.d.d.d.4.4.t.q.J n r 4 . ; ; ; ; ; ; ; ; ; ",
"; ; ; ; ; ; ; ; ; ; ; ; ; ; ; ; : + 5 c #.[.{.F.A.6.6.4.4.4.2.4.4.4.4.4.d.d.d.d.d.d.d.d.d.4.4.e.w.Y B t , + : ; ; ; ; ; ; ; ; ; ",
"; ; ; ; ; ; ; ; ; ; ; ; ; ; ; ; : + < 9 E '.|.{.F.N.2.2.2.2.5.2.2.4.4.4.4.4.4.d.d.d.d.4.4.4.e.8.U Q g 8 o . ; ; ; ; ; ; ; ; ; ; ",
"; ; ; ; ; ; ; ; ; ; ; ; ; ; ; ; ;   + , z ..}.|.T.A.1.:.5.5.5.5.5.5.5.2.2.2.2.4.4.4.4.4.e.e.w.V.^ R r < + $ ; ; ; ; ; ; ; ; ; ; ",
"; ; ; ; ; ; ; ; ; ; ; ; ; ; ; ; ; ; . O q ] ]. X{.D.<.>.:.1.5.5.5.5.5.5.2.2.5.5.5.3.3.e.8.w.q.) Q s 1 X $ ; ; ; ; ; ; ; ; ; ; ; ",
"; ; ; ; ; ; ; ; ; ; ; ; ; ; ; ; ; ; : + < l ..}.|.E.B.S >.:.1.1.5.5.5.5.5.5.5.5.5.,.8.0.0.q._ ~ M 7 o . $ ; ; ; ; ; ; ; ; ; ; ; ",
"; ; ; ; ; ; ; ; ; ; ; ; ; ; ; ; ; ; ; : + h x #.'.[.Z.U A S <.<.1.,.,.,.,.,.,.1.1.<.<.<.9.) ~ R t , +   ; ; ; ; ; ; ; ; ; ; ; ; ",
"; ; ; ; ; ; ; ; ; ; ; ; ; ; ; ; ; ; ; ; : & j E #.'.U._ D D A S >.>.>.>.>.>.>.>.>.>.<.U ( ^ W i 3 @ . ; ; ; ; ; ; ; ; ; ; ; ; ; ",
"; ; ; ; ; ; ; ; ; ; ; ; ; ; ; ; ; ; ; ; ; . < j ] #.=.U.( D A A F 7.>.>.>.>.S S S S U _ ` ! x 8 o . ; ; ; ; ; ; ; ; ; ; ; ; ; ; ",
"; ; ; ; ; ; ; ; ; ; ; ; ; ; ; ; ; ; ; ; ;   + > l ] @.%.+./ D A F 9.9.>.>.<.F F F U _ +.o.R r > + $ ; ; ; ; ; ; ; ; ; ; ; ; ; ; ",
"; ; ; ; ; ; ; ; ; ; ; ; ; ; ; ; ; ; ; ; ; ; = + 5 z [ @.&.` ( D U U U F 9.9.F F U _ +.o.' i , + $ ; ; ; ; ; ; ; ; ; ; ; ; ; ; ; ",
"; ; ; ; ; ; ; ; ; ; ; ; ; ; ; ; ; ; ; ; ; ; ; $ @ q c } $.&.Z.( F D F U U U D U ( ` o.' i 5 + . ; ; ; ; ; ; ; ; ; ; ; ; ; ; ; ; ",
"; ; ; ; ; ; ; ; ; ; ; ; ; ; ; ; ; ; ; ; ; ; ; : + O q c | $.U.Z.( U U U U U U _ +.o.{ i 3 + . ; ; ; ; ; ; ; ; ; ; ; ; ; ; ; ; ; ",
"; ; ; ; ; ; ; ; ; ; ; ; ; ; ; ; ; ; ; ; ; ; ; ; : . O q c | $.&.K._ I A D U K.&.@.} z 1 @ . : ; ; ; ; ; ; ; ; ; ; ; ; ; ; ; ; ; ",
"; ; ; ; ; ; ; ; ; ; ; ; ; ; ; ; ; ; ; ; ; ; ; ; ; ; . o q c } @.&.+._ Y ) K.&.@.[ z 5 @ . $ ; ; ; ; ; ; ; ; ; ; ; ; ; ; ; ; ; ; ",
"; ; ; ; ; ; ; ; ; ; ; ; ; ; ; ; ; ; ; ; ; ; ; ; ; ; ; . @ 5 z [ @.$.&.&.=.=.#.] l , X . $ $ ; ; ; ; ; ; ; ; ; ; ; ; ; ; ; ; ; ; ",
"; ; ; ; ; ; ; ; ; ; ; ; ; ; ; ; ; ; ; ; ; ; ; ; ; ; ; : . + 5 l b } #.*.*. .b j < X $ $ $ $ ; ; ; ; ; ; ; ; ; ; ; ; ; ; ; ; ; ; ",
"; ; ; ; ; ; ; ; ; ; ; ; ; ; ; ; ; ; ; ; ; ; ; ; ; ; ; ; ;   + o 5 l v b v k 5 @ $ $ $ # $ # ; ; ; ; ; ; ; ; ; ; ; ; ; ; ; ; ; ; ",
"; ; ; ; ; ; ; ; ; ; ; ; ; ; ; ; ; ; ; ; ; ; ; ; ; ; ; ; ; ; $ . X % & & @ + = : ; ; ; ; ; ; ; ; ; ; ; ; ; ; ; ; ; ; ; ; ; ; ; ; ",
"; ; ; ; ; ; ; ; ; ; ; ; ; ; ; ; ; ; ; ; ; ; ; ; ; ; ; ; ; ; # # # # $ $ ; ; ; ; ; ; ; ; ; ; ; ; ; ; ; ; ; ; ; ; ; ; ; ; ; ; ; ; ",
"; ; ; ; ; ; ; ; ; ; ; ; ; ; ; ; ; ; ; ; ; ; ; ; ; ; ; ; ; ; ; ; ; ; ; ; ; ; ; ; ; ; ; ; ; ; ; ; ; ; ; ; ; ; ; ; ; ; ; ; ; ; ; ; ",
"; ; ; ; ; ; ; ; ; ; ; ; ; ; ; ; ; ; ; ; ; ; ; ; ; ; ; ; ; ; ; ; ; ; ; ; ; ; ; ; ; ; ; ; ; ; ; ; ; ; ; ; ; ; ; ; ; ; ; ; ; ; ; ; ",
"; ; ; ; ; ; ; ; ; ; ; ; ; ; ; ; ; ; ; ; ; ; ; ; ; ; ; ; ; ; ; ; ; ; ; ; ; ; ; ; ; ; ; ; ; ; ; ; ; ; ; ; ; ; ; ; ; ; ; ; ; ; ; ; ",
"; ; ; ; ; ; ; ; ; ; ; ; ; ; ; ; ; ; ; ; ; ; ; ; ; ; ; ; ; ; ; ; ; ; ; ; ; ; ; ; ; ; ; ; ; ; ; ; ; ; ; ; ; ; ; ; ; ; ; ; ; ; ; ; ",
"; ; ; ; ; ; ; ; ; ; ; ; ; ; ; ; ; ; ; ; ; ; ; ; ; ; ; ; ; ; ; ; ; ; ; ; ; ; ; ; ; ; ; ; ; ; ; ; ; ; ; ; ; ; ; ; ; ; ; ; ; ; ; ; "
};
