/* XPM */
static char *ba748ef3117b4447c7676b400677a7f03hth4hXTvZkTog1a[] = {
/* columns rows colors chars-per-pixel */
"91 81 244 2 ",
"   c #3D170E",
".  c #2B1D19",
"X  c #2D1E1C",
"o  c #341613",
"O  c #3D1515",
"+  c #331B15",
"@  c #3C1A14",
"#  c #391418",
"$  c #331C1B",
"%  c #3A1A1B",
"&  c #1E261F",
"*  c #24231E",
"=  c #2B211D",
"-  c #25281F",
";  c #32201C",
":  c #231F20",
">  c #2B1F21",
",  c #311D21",
"<  c #1F2523",
"1  c #232323",
"2  c #292122",
"3  c #232328",
"4  c #332121",
"5  c #510E0D",
"6  c #47160C",
"7  c #59160D",
"8  c #431613",
"9  c #4C1513",
"0  c #441A14",
"q  c #4C1914",
"w  c #481A18",
"e  c #531615",
"r  c #5B1613",
"t  c #551A15",
"y  c #5C1B14",
"u  c #5B1C19",
"i  c #6D0F0E",
"p  c #641B15",
"a  c #6B1B15",
"s  c #691917",
"d  c #641D1A",
"f  c #781512",
"g  c #731B15",
"h  c #7A1C15",
"j  c #741D1A",
"k  c #7C1E1A",
"l  c #572018",
"z  c #6A2119",
"x  c #78241A",
"c  c #7C221C",
"v  c #672221",
"b  c #782324",
"n  c #830C0D",
"m  c #871C18",
"M  c #8C1D1A",
"N  c #961B18",
"B  c #9B1E1C",
"V  c #BF170C",
"C  c #B61A0B",
"Z  c #BC1A0C",
"A  c #A31E1C",
"S  c #AC1E19",
"D  c #B91C16",
"F  c #B21E1A",
"G  c #84241B",
"H  c #8B231B",
"J  c #94231B",
"K  c #9C231C",
"L  c #932B1C",
"P  c #9E2B1D",
"I  c #A4221C",
"U  c #AC241C",
"Y  c #A82A1C",
"T  c #B02016",
"R  c #BC2315",
"E  c #B3221B",
"W  c #BC221A",
"Q  c #B32C1F",
"!  c #BB2B1D",
"~  c #AC311A",
"^  c #BD381D",
"/  c #BB1F22",
"(  c #862D21",
")  c #992922",
"_  c #963224",
"`  c #A32021",
"'  c #A32B22",
"]  c #AA2A23",
"[  c #B72B24",
"{  c #BC2D24",
"}  c #A93526",
"|  c #B83626",
" . c #DB0E0D",
".. c #C91606",
"X. c #C5150C",
"o. c #CB140C",
"O. c #C2190C",
"+. c #CB1B0D",
"@. c #D31507",
"#. c #DD1307",
"$. c #D4150B",
"%. c #DC130B",
"&. c #D3190D",
"*. c #DA1A0C",
"=. c #C51D14",
"-. c #CC1B13",
";. c #C31E1A",
":. c #C91918",
">. c #D41612",
",. c #DC1411",
"<. c #D31B15",
"1. c #DB1D14",
"2. c #D61D19",
"3. c #E60E06",
"4. c #E80E05",
"5. c #E60E0A",
"6. c #EA0D0B",
"7. c #F70F0E",
"8. c #E21206",
"9. c #EA1007",
"0. c #E2110B",
"q. c #EB130C",
"w. c #E51A0D",
"e. c #EC1C0C",
"r. c #F6140E",
"t. c #F9130E",
"y. c #F21A0E",
"u. c #FB1A0E",
"i. c #E40F10",
"p. c #F50E13",
"a. c #FB0F12",
"s. c #EE1411",
"d. c #E41D11",
"f. c #E71817",
"g. c #ED1C12",
"h. c #F51511",
"j. c #FA1211",
"k. c #F41A12",
"l. c #FB1B14",
"z. c #F71319",
"x. c #F31B19",
"c. c #FE1D19",
"v. c #CB220F",
"b. c #DB260C",
"n. c #C82315",
"m. c #C3241C",
"M. c #C9251C",
"N. c #C32B1C",
"B. c #CC2B1D",
"V. c #D22215",
"C. c #DA2619",
"Z. c #D32B1C",
"A. c #CC341C",
"S. c #D8321A",
"D. c #E5270B",
"F. c #E5240C",
"G. c #EA210D",
"H. c #F3220F",
"J. c #EE2214",
"K. c #E62619",
"L. c #ED231D",
"P. c #F12213",
"I. c #FC2117",
"U. c #F3231B",
"Y. c #FC2419",
"T. c #F32B1C",
"R. c #FC2B1C",
"E. c #E6351B",
"W. c #F3331B",
"Q. c #FB321C",
"!. c #F61B21",
"~. c #CA2821",
"^. c #D72C24",
"/. c #C33325",
"(. c #CB3323",
"). c #C5342A",
"_. c #CC352A",
"`. c #CC392A",
"'. c #D43627",
"]. c #D73931",
"[. c #E52A24",
"{. c #F32621",
"}. c #F42C24",
"|. c #F52E2A",
" X c #FA2928",
".X c #EB3825",
"XX c #FC3623",
"oX c #F6362B",
"OX c #E73B33",
"+X c #FA3833",
"@X c #FD3D35",
"#X c #FE3F3B",
"$X c #CA412E",
"%X c #DB4428",
"&X c #DA4933",
"*X c #ED4525",
"=X c #E7452A",
"-X c #F4432D",
";X c #EA4634",
":X c #F74735",
">X c #F6463D",
",X c #FD443B",
"<X c #F54C3E",
"1X c #FA4B3D",
"2X c #F7553E",
"3X c #DF4D43",
"4X c #EA4C43",
"5X c #F34D42",
"6X c #F94C40",
"7X c #F04E4A",
"8X c #EC5345",
"9X c #EC544A",
"0X c #E85A4B",
"qX c #F65746",
"wX c #F4524C",
"eX c #F65E54",
"rX c #E9684F",
"tX c #FB664A",
"yX c #EE685A",
"uX c #F86859",
"iX c #FA7258",
"pX c #FD7B5E",
"aX c #F86C64",
"sX c #FD7E61",
"dX c #F97768",
"fX c #FA7D72",
"gX c #FD7E78",
"hX c #F48263",
"jX c #FE8263",
"kX c #F5896C",
"lX c #E98F73",
"zX c #EF8E71",
"xX c #FB8577",
"cX c #FE8D83",
"vX c #FE9285",
"bX c #FF958A",
"nX c #FF9A8B",
"mX c #F79E90",
"MX c #F6A98B",
"NX c #FCA795",
"BX c #FFB599",
"VX c #FCBAA8",
"CX c #FFC4A8",
"ZX c #FFCFBA",
/* pixels */
"1 1 1 1 1 1 1 1 1 1 1 1 1 1 1 1 1 1 1 1 1 1 1 1 1 1 1 1 1 1 1 1 1 1 1 1 1 1 1 1 1 1 1 1 1 1 1 1 1 1 1 1 1 1 1 1 1 1 1 1 1 1 1 1 1 1 1 1 1 1 1 1 1 1 1 1 1 1 1 1 1 1 1 1 1 1 1 1 1 1 1 ",
"1 1 1 1 1 1 1 1 1 1 1 1 1 1 1 1 1 1 1 1 1 1 1 1 1 1 1 1 1 1 1 1 1 1 1 1 1 1 1 1 1 1 1 1 1 1 1 1 1 1 1 1 1 1 1 1 1 1 1 1 1 1 1 1 1 1 1 1 1 1 1 1 1 1 1 1 1 1 1 1 1 1 1 1 1 1 1 1 1 1 1 ",
"1 1 1 1 1 1 1 1 1 1 1 1 1 1 1 1 1 1 1 1 1 1 1 1 1 1 1 1 1 1 1 1 1 1 1 1 1 1 1 1 1 1 1 1 1 1 1 1 1 1 1 1 1 1 1 1 1 1 1 1 1 1 1 1 1 1 1 1 1 1 1 1 1 1 1 1 1 1 1 1 1 1 1 1 1 1 1 1 1 1 1 ",
"1 1 1 1 1 1 1 1 1 1 1 1 1 1 1 1 1 1 1 1 1 1 1 1 1 1 1 1 1 1 1 1 1 1 1 1 1 1 1 1 1 1 1 1 1 1 1 1 1 1 1 1 1 1 1 1 1 1 1 1 1 1 1 1 1 1 1 1 1 1 1 1 1 1 1 1 1 1 1 1 1 1 1 1 1 1 1 1 1 1 1 ",
"1 1 1 1 1 1 1 1 1 1 1 1 1 1 1 1 1 1 1 1 1 1 1 1 1 1 1 1 1 1 1 1 1 1 1 1 1 1 1 1 1 1 1 1 1 1 1 1 1 1 1 1 1 1 1 1 1 1 1 1 1 1 1 1 1 1 1 1 1 1 1 1 1 1 1 1 1 1 1 1 1 1 1 1 1 1 1 1 1 1 1 ",
"1 1 1 1 1 1 1 1 1 1 1 1 1 1 1 1 1 1 1 1 1 1 1 1 2 2 2 2 2 2 2 2 1 1 1 1 1 1 1 1 1 1 1 1 1 1 1 1 1 1 1 1 1 1 1 1 1 1 1 2 2 2 > > > 2 2 * 1 1 1 1 1 1 1 1 1 1 1 1 1 1 1 1 1 1 1 1 1 1 1 ",
"1 1 1 1 1 1 1 1 1 1 1 1 1 1 1 1 1 1 1 * - 2 . X $ o o o o o o + . = 2 2 2 1 1 1 1 1 1 1 1 < 1 1 1 1 1 1 < < 1 - 1 = . + o O O # # o X . = = 1 1 1 1 1 1 1 1 1 1 1 1 1 1 1 1 1 1 1 1 1 ",
"1 1 1 1 1 1 1 1 1 1 1 1 1 1 1 1 1 * * . + @ 8 w u d a a z z d 7 9 8 @ $ ; 2 1 1 1 1 1 1 1 1 1 1 1 1 1 1 1 1 = + o 8 9 r a j j j b v u q   o + . . = * 1 1 1 1 1 1 1 1 1 1 1 1 1 1 1 1 ",
"1 1 1 1 1 1 1 1 1 1 1 1 1 1 1 1 1 = + 6 7 f M B I U E F S U U I B m i 5 O $ 2 1 1 1 1 1 1 1 1 > 1 1 1 2 = $ @ 7 f M B S E W W W { { [ ] J g 7   + = * * 1 1 1 1 1 1 1 1 1 1 1 1 1 1 1 ",
"1 1 1 1 1 1 1 1 1 1 1 1 1 1 1 = + @ y h J U E D m.~.'.].OX'.^.M.~./ A M a 9 % , 2 1 1 1 1 1 1 1 1 2 X $ O e g J E M.<.-.<.<.<.<.V.Z.Z.B.N.[ _ x t   + = * - * * 1 1 1 1 1 1 1 1 1 1 1 ",
"1 1 1 1 1 1 1 1 1 1 1 1 1 1 = + 9 h K E W ~.].3XyXfXgXxXxXgXfXyX4X^.~.;.F N a 9 % = * 1 1 1 1 1 1 2 % r h A F ;.2.C.^.OX4X0X9X9X0X0X0X&X'.A.(./.' g 9 $ = * * - 1 1 1 1 1 1 1 1 1 1 1 ",
"1 1 1 1 1 1 1 1 1 1 1 1 2 = @ y H U m.^.OX>XeXfXcXvXbXbXbXcXcXcXfXwXOX[.:.;.A h 7 @ ; = : : 1 = X O p M F :.1.[.oX>XuXfXxXcXcXcXvXNXNXxXiXqX=XS.(.| ( t @ . * * 1 1 1 1 1 1 1 1 1 1 1 ",
"1 1 1 1 1 1 1 1 1 1 1 > $ 0 a J T M.OX>X6X5X0XdXvXbXnXnXbXbXbXcXdXwXwXeX7X^.:.D N i 8 $ 2 1 > $ 9 f A ;.2.[.oX,X>XeXxXbXbXbXbXbXmXVXZXBXzXkXkXrX%X(./.' a @ . * 1 1 1 1 1 1 1 1 1 1 1 ",
"1 1 1 1 1 1 1 1 1 1 2 $ 8 a K W ^.OX1X1X<X5X8X0XyXdXxXxXxXfXdXyX9X9XaXcXgXwX[.<.;.A f w % , % 9 f F :.2.|.@X,X>X<X9XaXxXbXbXnXnXNXVXCXMXlXMXCXMXiX=XZ.(.' p @ . 1 1 1 1 1 1 1 1 1 1 1 ",
"1 1 1 1 1 1 1 1 1 2 = @ a K ! ^.;X1X6X6X6X<X<X5X8X8X9X9X9X8X8X4X4X5XeXdXaXwX>XoXC.:.S f 5 8 r M D <.f.|.@X,X,X>X>X5XwXeXaXdXdXdXkXzXzXzXzXMXCXBXkXtX=XS.A.I p % 2 1 1 1 1 1 1 1 1 1 1 ",
"1 1 1 1 1 1 1 1 1 2 $ t H W Z.;X<X2X6X6X1X>X1X1X1X1X1X1X6X6X6X6X6X>X5X5X5X<X1X,X|.1.-.S n i N ;.>.f.|.@X,X1X1X1X1X1X1X>X5X5X8X0XyXsXhXhXhXkXzXzXhXjXtX.XS.(.L e $ 1 1 1 1 1 1 1 1 1 1 ",
"1 1 1 1 1 1 1 1 1 X w k E <.OX<X<X2X1X1X1X1X1X1X,X,X,X,X,X,X#X#X,X,X,X,X1X1X1X,X+XL.,.>.:.D :.,.f.|.@X,X,X,X,X,X,X1X1X1X1X<X5XqXiXsXsXsXsXhXhXhXhXjXpX2XE.S.| c 0 * < < 1 1 1 1 1 1 1 ",
"1 1 1 1 1 1 1 1 2 % d ` :.K.+X1X1X1X1X1X1X,X@XoX}.{.{.{.L.L.L.L.L.}.|.|.+X@X,X,X#X|.x.s.i. .i.s.{.@X,X,X,X,X,X,X,X,X,X,X,X,X1XeXiXpXpXpXpXsXsXpXpXjXjXiX;XS.'.' y . 1 < 1 1 1 1 1 1 1 ",
"1 1 1 1 1 1 1 1 X w m W 2.L.}.oX@X@X@X@XoX}.L.J.g.k.k.k.k.g.g.g.g.x.x.x.x.U. X+X#X+X!.z.z.s.s.s.}.#X,X,X,X,X,X@X+X|. X{.{.{.|.oX:X<X2XqXtXtXiXpXjXjXjXpX2XE.^./.c @ * 1 1 1 1 1 1 1 1 ",
"1 1 1 1 1 1 1 2 % p B :.d.P.J.L.J.J.P.P.P.k.k.k.k.k.k.h.h.h.h.h.h.h.h.j.j.h.x.U. X X!.z.j.p.h.h.x. X|.|.}.}.{.U.x.k.h.h.h.h.U.T.}.T.}..X.X*X:X2XtXpXsXsXtX.XK.'.) q = 1 1 1 1 1 1 1 1 ",
"1 1 1 1 1 1 1 2 0 j U -.d.P.P.y.y.k.k.k.k.k.k.k.k.h.h.h.h.h.h.h.h.h.h.j.j.j.t.h.z.z.p.p.a.a.h.h.h.h.h.k.x.x.k.h.h.h.h.h.z.l.I.Y.R.R.R.T.T.T.W.W..X-XtXiXqXXXT.[.| z @ * 1 1 1 1 1 1 1 ",
"1 1 1 1 1 1 1 X e M W &.d.P.P.y.y.k.k.k.k.k.k.k.k.t.t.t.t.h.r.r.h.r.t.j.t.7.t.h.t.7.a.a.a.a.7.t.7.j.j.z.h.h.h.z.z.h.h.h.l.Y.Y.Y.Y.Y.Y.R.R.R.R.Q.W.W..X-X-XXXT.K.).c 8 = 1 1 1 1 1 1 1 ",
"1 1 1 1 1 1 1 $ p A =.&.d.J.P.y.y.k.k.k.k.k.k.k.k.h.h.h.t.t.t.t.j.j.j.j.j.j.j.j.j.j.j.j.j.j.j.j.j.j.j.j.j.j.j.j.j.j.h.k.c.Y.Y.Y.Y.Y.Y.Y.R.R.R.R.Q.Q.Q.XXXXQ.T.K.'.J 9 . 1 1 1 2 1 1 1 ",
"1 1 1 1 1 1 2 % a T +.&.d.J.J.g.k.k.k.k.k.k.k.k.k.h.h.h.t.t.t.t.j.j.j.j.j.j.j.j.j.j.j.j.j.j.j.j.j.j.j.j.j.j.j.j.j.t.l.c.I.Y.I.Y.Y.Y.Y.R.R.R.R.R.Q.Q.Q.Q.XXXXT.K.'.] y . 1 1 1 2 1 1 1 ",
"1 1 1 1 1 1 > % g S +.&.d.J.J.g.k.k.k.k.k.k.k.k.k.h.h.h.t.t.t.t.j.j.j.j.j.j.j.j.j.j.j.j.j.j.j.j.j.j.j.j.j.j.j.j.t.l.l.c.I.Y.Y.Y.Y.Y.Y.Y.R.R.R.R.R.R.R.R.T.T.J.1.Z.] d X 1 1 1 2 1 1 1 ",
"1 1 1 1 1 1 > % g S +.$.d.J.J.g.k.k.k.k.k.k.k.k.k.h.h.h.t.t.t.t.j.j.j.j.j.j.j.j.j.j.j.j.j.j.j.j.j.j.j.j.j.j.j.t.l.l.l.c.I.Y.Y.Y.Y.Y.Y.Y.Y.Y.Y.Y.P.H.H.G.J.g.#.$.n.U d + 1 1 1 1 1 1 1 ",
"1 1 1 1 1 1 2 % j E +.$.*.g.P.P.k.k.k.k.k.k.k.k.y.h.h.h.t.t.t.t.j.j.j.j.j.j.j.j.j.j.j.j.j.j.j.j.j.j.j.j.j.j.t.t.l.l.c.c.l.l.I.I.Y.Y.Y.I.I.k.k.k.k.y.y.e.J.d.#.&.n.I p $ 1 1 1 1 1 1 1 ",
"1 1 1 1 1 1 2 % j E +.$.#.w.J.J.k.k.k.k.k.k.k.k.y.h.h.h.t.t.t.t.j.j.j.j.j.j.j.j.j.j.j.j.j.j.j.j.j.j.j.j.j.7.j.l.l.l.c.c.c.c.c.Y.Y.I.l.l.k.k.y.y.y.k.k.J.J.w.#.&.=.I a $ 1 1 1 1 1 1 1 ",
"1 1 1 1 1 1 2 % j E +.@.#.0.g.P.k.k.k.k.k.k.k.k.r.h.h.h.t.t.t.t.j.j.j.j.j.j.j.j.j.j.j.j.j.j.j.j.j.j.j.j.j.j.l.l.l.c.c.c.c.c.c.c.l.l.k.y.y.y.y.y.k.k.k.k.g.#.#.&.=.I a $ 1 1 1 1 1 1 1 ",
"1 1 1 1 1 1 2 $ j E +.$.#.#.w.J.k.k.k.k.k.k.k.k.h.h.h.h.r.t.t.t.j.j.j.j.j.j.j.j.j.j.j.j.j.j.j.j.j.j.j.j.j.h.l.l.c.c.c.c.l.l.k.h.r.r.r.r.y.y.y.y.k.k.k.k.d.#.#.$.=.I a $ 1 1 1 1 1 1 1 ",
"1 1 1 1 1 1 1 $ a U =.@.#.#.0.g.k.k.k.k.k.k.k.h.h.h.h.h.r.r.r.r.t.t.t.t.t.t.t.t.j.j.a.a.a.a.a.j.j.j.j.j.h.z.l.c.c.c.c.c.k.h.r.r.r.h.h.k.k.k.k.k.k.k.k.g.#.#.&.>.m.K r $ 1 1 1 1 1 1 1 ",
"1 1 1 1 1 1 1 $ d I =.&.#.#.#.w.g.k.k.k.k.k.k.h.h.h.h.r.r.r.r.r.t.t.t.t.t.t.t.t.t.a.a.a.a.a.a.a.j.j.j.z.l.l.l.c.l.l.k.h.h.r.r.r.r.h.h.k.k.k.k.k.k.k.k.w.#.%.&.>.m.N r $ 1 1 1 1 1 1 1 ",
"1 1 1 1 1 1 1 X u K =.$.#.#.#.0.e.k.k.k.k.k.k.k.k.h.r.r.r.r.r.r.t.t.t.t.t.t.t.t.t.t.t.t.t.7.j.j.j.j.l.l.l.l.l.l.z.h.h.r.r.r.r.r.r.h.h.k.k.k.k.k.k.g.e.#.#.%.%.>.W M q = 1 1 1 1 1 1 1 ",
"1 1 1 1 1 1 1 X t J W &.@.@.%.%.w.g.k.k.k.k.k.k.k.r.r.r.r.r.r.r.t.t.t.t.t.t.t.t.t.t.t.t.7.7.a.a.j.l.l.l.c.c.l.z.h.t.t.t.t.t.r.r.r.h.r.k.k.k.k.k.k.g.0.#.#.%.%.-.E k 0 = 1 1 1 1 1 1 1 ",
"1 1 1 1 1 1 1 . q G E +.@.@.#.#.#.w.g.k.k.k.h.h.h.r.r.r.r.r.r.r.t.t.t.t.t.t.t.t.t.t.t.t.7.7.7.7.h.l.l.l.l.h.h.h.t.h.h.h.h.h.h.h.h.h.h.k.k.k.k.k.g.w.#.#.#.%.&.:.` d @ * 1 1 1 1 1 1 1 ",
"1 1 1 1 1 1 1 2 @ a U +.@.@.#.#.#.0.w.g.k.k.k.h.k.h.r.r.r.r.r.r.t.t.t.t.t.t.t.t.t.t.t.t.7.7.t.l.l.c.l.h.h.h.t.t.t.h.h.h.h.h.h.h.h.h.h.k.k.k.k.g.w.#.#.#.#.%.$.=.J t + * 1 1 1 1 1 1 1 ",
"1 1 1 1 1 1 1 2 + y K =.$.@.#.#.#.#.8.w.g.k.k.k.k.r.r.r.r.r.r.r.t.t.t.t.t.t.t.t.t.r.r.r.r.t.l.l.l.l.k.r.r.h.h.h.h.h.h.h.h.h.h.h.h.h.h.h.k.k.k.q.0.#.#.#.#.&.&.=.m 0 . 1 1 1 1 1 1 1 1 ",
"1 1 1 1 1 1 1 1 . q m Z $.@.#.#.#.#.#.8.0.g.k.k.k.r.r.r.r.r.r.r.r.t.t.t.t.t.t.t.r.r.r.r.t.u.u.l.l.h.r.r.t.h.h.h.h.j.j.h.h.h.h.h.h.h.k.k.k.g.q.0.0.#.#.#.%.>.-.W k @ = 1 1 1 1 1 1 1 1 ",
"1 1 1 1 1 1 1 1 . @ g T -.&.#.#.#.#.#.#.0.0.q.h.k.k.r.r.r.r.r.r.r.r.r.t.t.t.t.r.r.t.t.u.u.u.u.u.t.r.t.t.t.t.t.t.t.r.r.r.t.t.r.k.k.k.k.s.q.q.0.0.#.#.#.%.%.>.;.I p $ 1 1 1 1 1 1 1 1 1 ",
"1 1 1 1 1 1 1 1 2 $ r B ;.$.$.#.#.#.#.#.0.5.5.5.q.r.r.r.r.r.r.r.r.r.r.t.t.t.t.r.r.t.u.u.u.u.u.r.r.t.t.t.t.t.t.t.t.r.r.r.r.r.r.y.g.s.q.q.w.0.0.#.#.#.#.%.,.>.F m q = 1 1 1 1 1 1 1 1 1 ",
"1 1 1 1 1 1 1 1 1 X w k E -.@.@.#.#.#.#.#.5.5.5.4.9.q.r.r.r.r.r.r.r.r.r.t.t.t.k.k.k.l.l.l.u.r.r.r.t.t.t.t.t.t.t.t.r.r.r.h.k.k.k.s.q.0.0.0.#.#.#.#.#.#.#.&.:.I a @ 2 1 1 1 1 1 1 1 1 1 ",
"1 1 1 1 1 1 1 1 : . % d K =.$.@.@.#.#.#.0.0.5.5.3.3.4.9.r.r.r.r.r.r.r.r.t.t.h.c.c.c.c.c.k.r.r.r.r.t.t.t.t.t.t.t.r.h.h.h.r.q.q.9.0.0.0.0.#.#.#.#.#.%.#.&.o.D M q $ 2 1 1 1 1 1 1 1 1 1 ",
"1 1 1 1 1 1 1 1 1 1 X 0 k E =.+.@.#.%.%.%.0.0.0.0.0.0.5.6.6.6.q.r.k.r.r.k.l.l.c.c.c.l.k.r.r.t.t.r.r.h.h.h.h.h.h.r.r.6.6.6.6.6.0.0.0.0.0.#.#.#.#.%.%.%.&.=.I a % 2 1 1 1 1 1 1 1 1 1 1 ",
"1 1 1 1 1 1 1 1 1 1 = $ p K R V.*.#.%.%.%.0.0.0.0.0.0.0.9.9.6.3.3.6.q.k.l.l.l.l.k.k.h.t.t.r.r.h.r.r.r.r.r.6.6.6.6.6.6.6.6.6.5.0.0.0.0.0.#.#.#.#.%.%.&.+.E m 9 $ 1 1 1 1 1 1 1 1 1 1 1 ",
"1 1 1 1 1 1 1 1 1 1 * $ 9 k U V.b.*.%.%.%.%.0.0.0.0.0.0.q.q.6.5.6.9.q.h.h.h.h.h.r.q.q.6.6.6.6.6.6.q.q.q.6.6.6.6.6.6.i.6.5.5.0.0.0.0.%.%.#.#.#.#.@.&.$.=.I a O 2 1 1 1 1 1 1 1 1 1 1 1 ",
"1 1 1 1 1 1 1 1 1 & * = + t H R V.1.&.%.%.%.%.0.0.0.0.0.5.5.9.9.q.s.h.k.h.r.q.q.6.4.6.6.6.6.6.6.5.5.5.5.6.6.6.6.6.6.i.i.5.0.0.0.0.%.%.%.%.#.#.#.#.$.+.E m q $ 1 1 1 1 1 1 1 1 1 1 1 1 ",
"1 1 1 1 1 1 1 1 < & 1 1 X @ a I M.C.1.&.%.%.#.#.#.8.8.w.q.q.q.y.y.k.k.k.h.s.q.6.6.6.6.6.6.6.6.6.6.5.5.5.5.6.6.6.6.6.5.5.0.0.0.0.,.,.,.,.%.%.#.#.#.o.R J y $ 2 1 1 1 1 1 1 1 1 1 1 1 1 ",
"1 1 1 1 1 1 1 1 < & < 1 1 . q c U Z.C.>.@.#.#.%.0.8.e.e.e.e.y.y.y.y.k.k.h.q.6.6.6.6.6.6.6.6.6.6.6.5.5.5.5.6.6.6.5.6.5.0.0.0.0.i.,.,.,.,.%.%.#.#.$.=.I a @ 2 1 1 1 1 1 1 1 1 1 1 1 1 1 ",
"1 1 1 1 1 1 1 1 1 * 1 1 1 1 $ t L ! S.E.b.*.w.e.w.e.e.e.e.e.y.y.y.y.k.k.s.q.5.5.5.5.5.5.5.5.5.5.5.5.5.5.5.5.5.5.5.5.0.0.0.0.0.0.0.%.%.%.%.#.@.&.=.U h 8 . 1 1 3 1 1 1 1 1 1 1 1 1 1 1 ",
"1 1 1 1 1 1 1 1 1 1 1 3 3 1 2 % p P A.=X.XD.F.G.e.e.e.e.e.e.y.y.y.y.y.k.q.5.5.5.5.5.5.5.5.5.5.5.5.5.5.5.5.5.5.5.0.0.0.0.0.0.0.0.i.i.%.%.#.@.&.-.E M t + - 1 3 3 1 1 1 1 1 1 1 1 1 1 1 ",
"1 1 1 1 1 1 1 1 1 1 1 1 3 3 2 , 8 z Y A.*X*XD.F.e.G.G.G.e.e.y.y.y.y.e.q.0.5.5.5.5.5.5.5.5.5.5.5.5.5.5.5.5.0.0.0.0.0.0.0.0.#.#.#.i.,.%.#.@.&.-.W J y @ = * 1 1 1 1 1 1 1 1 1 1 1 1 1 1 ",
"1 1 1 1 1 1 1 1 1 1 1 1 1 3 2 2 $ 6 x ~ A.=XE.D.F.G.G.G.e.e.e.e.y.e.q.0.5.5.5.5.5.5.5.5.5.5.5.5.5.5.5.5.5.0.0.0.0.0.0.0.#.#.#.%.%.,.%.@.&.-.W B a % X * * 1 1 1 1 1 1 1 1 1 1 1 1 1 1 ",
"1 1 1 1 1 1 1 1 1 1 1 1 1 1 1 2 = + 6 x ~ '.*XE.D.F.G.G.G.e.e.e.e.q.8.8.5.5.5.0.0.0.0.0.5.0.0.0.0.0.0.0.0.0.0.0.0.0.#.%.#.#.#.#.#.%.%.&.-.W J p 8 X * * * * 1 1 1 1 1 1 1 1 1 1 1 1 1 ",
"1 1 1 1 1 1 1 1 1 1 1 1 1 1 1 1 - * + q G ^ '.*XE.D.F.F.G.e.e.e.e.8.8.8.5.5.5.0.0.0.0.0.0.0.0.0.0.#.#.#.0.0.0.0.0.0.%.%.%.%.%.#.#.#.&.-.m.P a 8 X 1 1 * * = 1 1 1 1 1 1 1 1 1 1 1 1 1 ",
"1 1 1 1 1 1 1 1 1 1 1 1 1 1 1 1 1 1 * $ t L | %X*XS.b.D.F.G.e.e.w.8.8.0.0.0.0.0.0.0.#.#.%.%.%.%.#.#.#.#.#.%.%.#.#.#.%.%.%. .#.%.#.&.V.m.P j q $ X 1 1 1 1 1 1 1 1 1 1 1 1 1 1 1 1 1 1 ",
"1 1 1 1 1 1 1 1 1 1 1 1 1 1 1 1 1 1 1 2 % p L ^ %X*Xb.b.F.G.e.w.0.#.#.#.#.#.#.#.#.#.#.#.%.%.%.%.#.#.#.#.%.%.%.%.%.%.%.%.%.%.,.&.&.V.m.I j q $ X 1 1 1 1 1 1 1 1 1 1 1 1 1 1 1 1 1 1 1 ",
"1 1 1 1 1 1 1 1 1 1 1 1 1 1 1 1 1 1 1 > $ 8 y L ^ %X*XE.b.F.F.w.#.#.#.%.%.%.%.%.#.#.#.%.%.%.%.%.%.%.%.%.%.%.%.%.,.%.%.%.@.&.+.+.Z.m.I h 9 + X 1 1 1 1 1 1 1 1 1 1 1 1 1 1 1 1 1 1 1 1 ",
"1 1 1 1 1 1 1 1 1 1 1 1 1 1 1 1 1 1 1 2 . +   y L ^ %X=XS.C.C.*.@.%.%.%.%.%.%.%.%.#.#.#.#.%.%.%.%.%.%.%.%.,.,.,.,.>.&.&.$...v.B.! I k t $ * * < 1 1 1 1 1 1 1 1 1 1 1 1 1 1 1 1 1 1 1 ",
"1 1 1 1 1 1 1 1 1 1 1 1 1 1 1 1 1 1 1 1 1 = . @ z L | &X=XS.V.+.X.o.$.$.$.$.$.$.$.#.#.%.%.%.%.%.$.%.%.%.%.,.>.>.>.o.o.....V.B.! P x q $ 2 * 1 1 1 1 1 1 1 1 1 1 1 1 1 1 1 1 1 1 1 1 1 ",
"1 1 1 1 1 1 1 1 1 1 1 1 1 1 1 1 1 2 1 1 1 1 1 X @ y _ | &X;X'.O.X.o.o.o.o.o.o.o.$.$.$.@.&.$.$.$.$.$.$.$.$.$.$.>.o.o.X.+.Z.B.E P x w $ 1 1 1 1 * 1 1 1 1 1 1 1 1 1 1 1 1 1 1 1 1 1 1 1 ",
"1 1 1 1 1 1 1 1 1 1 1 1 1 1 1 1 1 2 1 1 1 1 1 1 = @ l _ | &X&XB.V X.o.o.o.o.o.o.o...o.o.o.o.o.o.o.o.o.o.o.o.o.o.X.X.n.^.~.W ) x q $ 2 1 1 1 * * * 1 1 1 1 1 1 1 1 1 1 1 1 1 1 1 1 1 1 ",
"1 1 1 1 1 1 1 1 1 1 1 1 1 1 1 1 1 1 1 1 1 1 1 1 * = % l ( | $X`.M.=.X.X.X.X.X.X.X.X.X.X.X.X.X.X.X.X.X.X.X.X.X.X.=.M.'.(.E J j w $ 2 1 * * * * * * 1 1 1 1 1 1 1 1 1 1 1 1 1 1 1 1 1 1 ",
"1 1 1 1 1 1 1 1 1 1 1 1 1 1 1 1 1 1 1 1 1 1 1 1 1 1 = $ l ( } /.(.B.=.X.X.X.X.X.X.X.X.X.X.X.X.X.X.X.X.X.X.X.V V ~._.~.U J a 8 X 1 1 1 * 1 1 1 1 1 1 1 1 1 1 1 1 1 1 1 1 1 1 1 1 1 1 1 ",
"1 1 1 1 1 1 1 1 1 1 1 1 1 1 1 1 1 1 1 1 1 1 1 1 1 1 1 * $ q b ' { _.(.=.X.X.X.X.X.X.O.O.O.O.X.X.+.+.X.X.V Z n.(._.{ U J a 0 ; 1 1 1 1 1 1 1 1 1 1 1 1 1 1 1 1 1 1 1 1 1 1 1 1 1 1 1 1 ",
"1 1 1 1 1 1 1 1 1 1 1 1 1 1 1 1 1 1 1 1 1 1 1 1 1 1 1 1 = + q z L Q ).'.M.=.O.O.O.O.O.O.O.O.O.O.O.O.O.Z R N.(.(.! Y H d w 4 2 1 1 1 1 1 1 1 1 1 1 1 1 1 1 1 1 1 1 1 1 1 1 1 1 1 1 1 1 ",
"1 1 1 1 1 1 1 1 1 1 1 1 1 1 1 1 1 1 1 1 1 1 1 1 1 1 1 1 1 2 $ 0 p H ] )._.B.=.Z V V V V Z Z O.Z V V Z Z N.`./.U K G r @ X 2 2 1 1 1 1 1 1 1 1 1 1 1 1 1 1 1 1 1 1 1 1 1 1 1 1 1 1 1 1 ",
"1 1 1 1 1 1 1 1 1 1 1 1 1 1 1 1 1 1 1 1 1 1 1 1 1 1 1 1 1 2 2 $ 0 y c ) { _._.N.D Z Z Z C C Z C C Z m._._.{ Y J g q @ = 2 1 3 3 1 1 1 1 1 1 1 1 1 1 1 1 1 1 1 1 1 1 1 1 1 1 1 1 1 1 1 ",
"1 1 1 1 1 1 1 1 1 1 1 1 1 1 1 1 1 1 1 1 1 1 1 1 1 1 1 1 1 1 1 2 = + 9 g J ] ).`.(.m.Z C C C C Z m.(.`./.[ ] ) a q $ = - 1 1 3 3 1 1 1 1 1 1 1 1 1 1 1 1 1 1 1 1 1 1 1 1 1 1 1 1 1 1 1 ",
"1 1 1 1 1 1 1 1 1 1 1 1 1 1 1 1 1 1 1 1 1 1 1 1 1 1 1 1 1 1 1 1 1 2 % w p H ' { `.`.(.N.R R R N.`.`.{ ] ) b u 8 $ 2 1 1 1 1 1 3 1 1 1 1 1 1 1 1 1 1 1 1 1 1 1 1 1 1 1 1 1 1 1 1 1 1 1 ",
"1 1 1 1 1 1 1 1 1 1 1 1 1 1 1 1 1 1 1 1 1 1 1 1 1 1 1 1 1 1 1 1 1 1 2 $ O r c K ] { `.`._.`.`.`./.Q Y ) a q % 4 2 1 1 1 1 1 1 1 1 1 1 1 1 1 1 1 1 1 1 1 1 1 1 1 1 1 1 1 1 1 1 1 1 1 1 ",
"1 1 1 1 1 1 1 1 1 1 1 1 1 1 1 1 1 1 1 1 1 1 1 1 1 1 1 1 1 1 1 1 1 1 1 1 X % w u G I Q /._._./.! Y L c y 8 $ 2 1 1 1 1 1 1 1 1 1 1 1 1 1 1 1 1 1 1 1 1 1 1 1 1 1 1 1 1 1 1 1 1 1 1 1 1 ",
"1 1 1 1 1 1 1 1 1 1 1 1 1 1 1 1 1 1 1 1 1 1 1 1 1 1 1 1 1 1 1 1 1 1 1 1 1 > , % t j H ) ' ' ' ) G d q @ = 1 1 3 1 1 1 1 1 1 1 1 1 1 1 1 1 1 1 1 1 1 1 1 1 1 1 1 1 1 1 1 1 1 1 1 1 1 1 ",
"1 1 1 1 1 1 1 1 1 1 1 1 1 1 1 1 1 1 1 1 1 1 1 1 1 1 1 1 1 1 1 1 1 1 1 1 1 1 > > % 0 q u v z d u 0 @ $ = * 1 1 < 1 1 1 1 1 1 1 1 1 1 1 1 1 1 1 1 1 1 1 1 1 1 1 1 1 1 1 1 1 1 1 1 1 1 1 ",
"1 1 1 1 1 1 1 1 1 1 1 1 1 1 1 1 1 1 1 1 1 1 1 1 1 1 1 1 1 1 1 1 1 1 1 1 1 1 1 1 2 2 = $ $ + $ $ . * 1 1 1 1 1 1 1 1 1 1 1 1 1 1 1 1 1 1 1 1 1 1 1 1 1 1 1 1 1 1 1 1 1 1 1 1 1 1 1 1 1 ",
"1 1 1 1 1 1 1 1 1 1 1 1 1 1 1 1 1 1 1 1 1 1 1 1 1 1 1 1 1 1 1 1 1 1 1 1 1 1 1 1 1 1 1 = = . > 2 1 1 1 1 1 1 1 1 1 1 1 1 1 1 1 1 1 1 1 1 1 1 1 1 1 1 1 1 1 1 1 1 1 1 1 1 1 1 1 1 1 1 1 ",
"1 1 1 1 1 1 1 1 1 1 1 1 1 1 1 1 1 1 1 1 1 1 1 1 1 1 1 1 1 1 1 1 1 1 1 1 1 1 1 1 1 1 1 1 1 1 1 1 1 1 1 1 1 1 1 1 1 1 1 1 1 1 1 1 1 1 1 1 1 1 1 1 1 1 1 1 1 1 1 1 1 1 1 1 1 1 1 1 1 1 1 ",
"1 1 1 1 1 1 1 1 1 1 1 1 1 1 1 1 1 1 1 1 1 1 1 1 1 1 1 1 1 1 1 1 < < < 1 1 1 1 1 - - - - 1 1 1 1 1 1 1 1 1 1 1 1 1 1 1 1 1 1 1 1 1 1 1 1 1 1 1 1 1 1 1 1 1 1 1 1 1 1 1 1 1 1 1 1 1 1 1 ",
"1 1 1 1 1 1 1 1 1 1 1 1 1 1 1 1 1 1 1 1 1 1 1 1 1 1 1 1 1 1 1 1 < < < 1 1 1 1 1 * - - - 1 1 1 1 1 1 1 1 1 1 1 1 1 1 1 1 1 1 1 1 1 1 1 1 1 1 1 1 1 1 1 1 1 1 1 1 1 1 1 1 1 1 1 1 1 1 1 ",
"1 1 1 1 1 1 1 1 1 1 1 1 1 1 1 1 1 1 1 1 1 1 1 1 1 1 1 1 1 1 1 1 1 1 1 1 1 1 1 1 1 1 1 1 1 1 1 1 1 1 1 1 1 1 1 1 1 1 1 1 1 1 1 1 1 1 1 1 1 1 1 1 1 1 1 1 1 1 1 1 1 1 1 1 1 1 1 1 1 1 1 ",
"1 1 1 1 1 1 1 1 1 1 1 1 1 1 1 1 1 1 1 1 1 1 1 1 1 1 1 1 1 1 1 1 1 1 1 1 1 1 1 1 1 1 1 1 1 1 1 1 1 1 1 1 1 1 1 1 1 1 1 1 1 1 1 1 1 1 1 1 1 1 1 1 1 1 1 1 1 1 1 1 1 1 1 1 1 1 1 1 1 1 1 ",
"1 1 1 1 1 1 1 1 1 1 1 1 1 1 1 1 1 1 1 1 1 1 1 1 1 1 1 1 1 1 1 1 1 1 1 1 1 1 1 1 1 1 1 1 1 1 1 1 1 1 1 1 1 1 1 1 1 1 1 1 1 1 1 1 1 1 1 1 1 1 1 1 1 1 1 1 1 1 1 1 1 1 1 1 1 1 1 1 1 1 1 "
};
