/* XPM */
static char *d3f18bf01d934b17ee4698d2c05fdebcmtgnxOFS2CzVcTaw[] = {
/* columns rows colors chars-per-pixel */
"64 64 225 2 ",
"   c #271E1A",
".  c #2C1E1D",
"X  c #331D15",
"o  c #3B1B16",
"O  c #3D171B",
"+  c #341C1B",
"@  c #3C1A1A",
"#  c #24231E",
"$  c #2A211C",
"%  c #271F24",
"&  c #2C1F21",
"*  c #341D21",
"=  c #1F2523",
"-  c #232323",
";  c #292022",
":  c #232428",
">  c #451715",
",  c #4B1616",
"<  c #441A15",
"1  c #4B1917",
"2  c #43171A",
"3  c #441A19",
"4  c #4A1B1A",
"5  c #581616",
"6  c #551A14",
"7  c #5D1A16",
"8  c #541C1B",
"9  c #5C1D1A",
"0  c #631516",
"q  c #6E1512",
"w  c #621A15",
"e  c #6B1C17",
"r  c #631D1B",
"t  c #6A1F1C",
"y  c #741615",
"u  c #7C1614",
"i  c #731A16",
"p  c #7A1917",
"a  c #741D1C",
"s  c #7B1C1A",
"d  c #562117",
"f  c #612215",
"g  c #6F2116",
"h  c #662119",
"j  c #7F2217",
"k  c #74241C",
"l  c #7C241D",
"z  c #702420",
"x  c #7F2621",
"c  c #8E1716",
"v  c #851815",
"b  c #8C1A15",
"n  c #851A1A",
"m  c #8A1D1B",
"M  c #921515",
"N  c #951A17",
"B  c #9D1C15",
"V  c #B81906",
"C  c #BA170A",
"Z  c #B51A0C",
"A  c #BD190C",
"S  c #A41D15",
"D  c #AC1C16",
"F  c #A81D1B",
"G  c #B31B14",
"H  c #BB1B12",
"J  c #B31D19",
"K  c #BD1C1A",
"L  c #84251D",
"P  c #8E2119",
"I  c #8C2A1F",
"U  c #9A2017",
"Y  c #9B231B",
"T  c #9C291F",
"R  c #8A311F",
"E  c #A3221C",
"W  c #AA2419",
"Q  c #A22B1E",
"!  c #AE291D",
"~  c #B52215",
"^  c #BB2116",
"/  c #B3241A",
"(  c #BA251D",
")  c #BC2A1F",
"_  c #842621",
"`  c #8C2520",
"'  c #8D2A21",
"]  c #9B2722",
"[  c #942923",
"{  c #9A2B24",
"}  c #A62925",
"|  c #AC2B23",
" . c #B42723",
".. c #BC2723",
"X. c #B32C24",
"o. c #BB2B23",
"O. c #A23324",
"+. c #AC3328",
"@. c #B53224",
"#. c #BE3125",
"$. c #BD3F23",
"%. c #A83937",
"&. c #DD0C06",
"*. c #DC0F0A",
"=. c #C41406",
"-. c #C91406",
";. c #C4160B",
":. c #CC150B",
">. c #C31A0C",
",. c #CB190B",
"<. c #D41207",
"1. c #DC1207",
"2. c #D4130B",
"3. c #DB120B",
"4. c #D2180B",
"5. c #DD1A0A",
"6. c #C41712",
"7. c #C91816",
"8. c #CB1816",
"9. c #C21B19",
"0. c #D31614",
"q. c #DC1411",
"w. c #D01E12",
"e. c #DC1B13",
"r. c #E40E06",
"t. c #E80F06",
"y. c #E40E09",
"u. c #EC0E0B",
"i. c #F30E0E",
"p. c #E41205",
"a. c #EA1207",
"s. c #E3130C",
"d. c #ED130C",
"f. c #E31B0C",
"g. c #ED1C0D",
"h. c #F01107",
"j. c #F5130D",
"k. c #F9120F",
"l. c #F1180E",
"z. c #E41512",
"x. c #ED1411",
"c. c #E41911",
"v. c #EC1B12",
"b. c #E41D1B",
"n. c #F51311",
"m. c #FA1212",
"M. c #F11A13",
"N. c #F41C19",
"B. c #FA1E1C",
"V. c #C8280D",
"C. c #DD230D",
"Z. c #D3280C",
"A. c #C0241A",
"S. c #C62619",
"D. c #DE2315",
"F. c #DA2D12",
"G. c #D82619",
"H. c #D32B1E",
"J. c #CC321C",
"K. c #CA371C",
"L. c #D5351A",
"P. c #E62107",
"I. c #E4230D",
"U. c #E8220C",
"Y. c #E2290D",
"T. c #E42315",
"R. c #EA2112",
"E. c #ED241C",
"W. c #E3291C",
"Q. c #E6291D",
"!. c #F9201D",
"~. c #CB2727",
"^. c #C22B22",
"/. c #CC2C23",
"(. c #D92723",
"). c #C63626",
"_. c #D5322B",
"`. c #C73330",
"'. c #EF2520",
"]. c #E42D24",
"[. c #EA2D26",
"{. c #F42723",
"}. c #F42B25",
"|. c #F92A26",
" X c #F72D2A",
".X c #E5342B",
"XX c #EB352C",
"oX c #F4332C",
"OX c #FA332D",
"+X c #E03730",
"@X c #E43D35",
"#X c #EC3B32",
"$X c #F93B37",
"%X c #FC3B34",
"&X c #DD463A",
"*X c #DE463B",
"=X c #E14135",
"-X c #EB4136",
";X c #E0453C",
":X c #F4463D",
">X c #FD443C",
",X c #F9493C",
"<X c #D44944",
"1X c #DD4E42",
"2X c #E64B42",
"3X c #F44644",
"4X c #FB4742",
"5X c #F24B44",
"6X c #E35349",
"7X c #E75348",
"8X c #F4574A",
"9X c #F45C56",
"0X c #EC6355",
"qX c #EA695B",
"wX c #F16359",
"eX c #ED705E",
"rX c #E36864",
"tX c #F66D61",
"yX c #F96B63",
"uX c #F5776B",
"iX c #FD7C71",
"pX c #FA8474",
"aX c #FC887A",
"sX c #FD917D",
"dX c #FF8982",
/* pixels */
"- - - - - - - - - - - - - - - - - - - - - - - - - - - - - - - - - - - - - - - - - - - - - - - - - - - - - - - - - - - - - - - - ",
"- - - - - - - - - - - - - - - - - - - - - - - - - - - - - - - - - - - - - - - - - - - - - - - - - - - - - - - - - - - - - - - - ",
"- - - - - - - - - - - - - - - - - - - - - - - - - - - - - - - - - - - - - - - - - - - - - - - - - - - - - - - - - - - - - - - - ",
"- - - - - - - - - - - - - - - - - - - - - - - - - - - - - - - - - - - - - - - - - - - - - - - - - - - - - - - - - - - - - - - - ",
"- - - - - - - - - - - - - - - - - - - - - - - - - - - - - - - - - - - - - - # - - - - - - - - - - - - - - - - - - - - - - - - - ",
"- - - - - - - - - - - - - - - - - - - - - - - - - - - - - - - - - - - - - - - - - - - - - - - - - - - - - - - - - - - - - - - - ",
"- - - - - - - - - - - - - - # # - - $ + @ @ @ @ @ @ @ @ @ @ @ @ 3 3 @ @ @ @ + . - - - - - - - - - - - - - - - - - - - - - - - - ",
"- - - - - - - - - - - - - - # # $ + 1 w p n n n s p y y p n n n n m n n s y w 4 @ .   $ # - - - - - - - - - - - - - - - - - - - ",
"- - - - - - - - - - - - - - -   o 7 m W K 9.9.9.K K K K K K ( ..o.o.( J J J E Y L h < X $ - - - - - - - - - - - - - - - - - - - ",
"- - - - - - - - - - - - - - ; @ t %.<X+Xe.3.<.3.3.q.z.z.b.].2X0XeXeX0X*X/.7.6.6.^ ! I 9 @ . - - - - - - - - - - - - - - - - - - ",
"- - - - - - - - - - - - - . @ t %.rXaXyX#Xe.&.&.y.s.v.'.oX8XiXsXsXsXsXuX2X_.S.,.:.G./.{ 9 + - - - - - - - - - - - - - - - - - - ",
"- - - - - - - - - - - - - + w { <XuXdXiX5X].3.&.y.c.{.%X,X8XtXpXaXpXuXqX6X0X7X(.4.e.G./.[ 8 . - - - - - - - - - - - - - - - - - ",
"- - - - - - - - - - - - . 1 n `.2X9XyX9X5XXXc.y.s.E.%X>X,X:X5X7X7X6X1X*X1XwXwX@XG.D.T.W.^.l 3 . - - - - - - - - - - - - - - - - ",
"- - - - - - - - - - - . + 7 } +X:X3X3X3X4X$Xb.s.v.OX>X>X>X>X>X:X-X@X=X=X*X*X;X@X.XQ.R.R.H.} w @ ; - - - - - - - - - - - - - - - ",
"- - - - - - - - - - - . 2 a ..#X>X>X>X>X4X%X{.c.E.%X>X%X%XOXOX X}.[.[.XX#X-X@X@X#XQ.R.R.W.^.L 3 . - - - - - - - - - - - - - - - ",
"- - - - - - - - - - - + 5 m ~.$X%XOX XOX%X%X|.E. X%XOX{.N.M.M.M.x.s.s.3.D.].].].[.E.R.v.T.H.T 8 . # - - - - - - - - - - - - - - ",
"- - - - - - - - - - % O 0 F (. X|.N.N.N.N.!.B.B.!.B.N.n.n.n.n.n.u.u.y.&.3.3.3.5.c.v.v.v.R.G.! w X $ # - - - - - - - - - - - - - ",
"- - - - - - - - - - % O y J b.N.m.m.m.m.n.n.n.m.m.n.m.m.m.m.m.n.u.u.y.y.&.*.y.s.c.v.v.v.R.D.( g o   - - - - - - - - - - - - - - ",
"- - - - - - - - - - % 2 p K z.n.m.m.m.n.m.m.m.m.n.m.m.m.m.m.m.n.u.u.y.y.&.*.y.s.v.M.M.v.v.T.) l o   - - - - - - - - - - - - - - ",
"- - - - - - - - - - . > v 9.z.n.m.m.m.m.m.m.m.m.m.m.m.m.m.m.m.n.u.u.y.y.&.&.y.v.M.M.M.M.v.T.^._ 3 . - - - - - - - - - - - - - - ",
"- - - - - - - - - - . , c 7.x.m.m.m.m.m.m.m.m.m.m.m.m.m.m.m.m.n.u.u.y.y.&.r.u.x.M.M.M.M.v.T.^.` 4 . - - - - - - - - - - - - - - ",
"- - - - - - - - - - . , M 0.x.m.m.m.m.m.m.m.m.m.m.m.m.m.m.m.m.n.u.u.y.y.&.y.d.n.M.M.M.M.v.T.A.n , . - - - - - - - - - - - - - - ",
"- - - - - - - - - - . , M 0.x.n.m.m.m.m.m.m.m.m.m.m.m.m.m.m.m.n.u.u.y.r.r.a.x.n.M.v.v.v.f.4.G s , . - - - - - - - - - - - - - - ",
"- - - - - - - - - - . , M 0.x.j.m.m.m.m.m.m.m.m.m.m.m.m.m.m.m.n.u.u.y.r.y.d.n.M.v.v.v.f.3.:.J s 4 . - - - - - - - - - - - - - - ",
"- - - - - - - - - - . 1 c 7.x.j.m.m.m.m.m.m.m.m.m.m.m.m.m.m.n.i.u.u.u.y.d.x.M.M.v.v.s.1.<.,.D s 3 . - - - - - - - - - - - - - - ",
"- - - - - - - - - - ; 4 b 7.z.i.m.m.m.m.k.k.k.k.k.k.k.k.m.m.n.i.u.u.u.u.x.n.v.v.v.s.3.<.2.;.F i < . - - - - - - - - - - - - - - ",
"- - - - - - - - - - ; 3 v 6.s.i.m.m.m.k.k.k.k.k.k.k.k.k.m.m.n.u.u.u.u.d.n.M.v.v.s.3.3.<.2.;.S e < & - - - - - - - - - - - - - - ",
"- - - - - - - - - - ; < u H z.i.m.m.m.k.k.k.k.k.k.k.k.k.m.n.n.u.u.u.d.n.M.M.v.s.3.3.<.<.:.A B e @ ; - - - - - - - - - - - - - - ",
"- - - - - - - - - - ; @ q D q.i.m.m.k.j.k.k.k.k.j.k.k.m.m.n.n.u.u.d.n.n.M.v.z.3.3.<.<.2.:.A B r + - - - - - - - - - - - - - - - ",
"- - - - - - - - - - ; @ w B 0.u.i.n.k.j.j.j.j.k.j.k.k.m.m.n.i.u.u.d.x.g.d.s.3.*.3.<.:.:.;.G N 9 + - = = - - - - - - - - - - - - ",
"- - - - - - - - - - ; + 5 b 7.u.i.n.n.j.j.j.j.j.j.k.k.k.n.j.u.u.d.n.g.s.s.3.3.*.<.2.2.:.;.J m 8 & - = - - - - - - - - - - - - - ",
"- - - - - - - - - - - & > p H s.u.n.j.j.j.j.j.j.j.j.j.j.j.i.u.d.n.M.d.s.1.3.3.3.<.2.:.-.A F s 3 ; - - - - - - - - - - - - - - - ",
"- - - - - - - - - - - ; @ e G q.d.j.j.j.j.j.j.j.j.j.j.j.h.h.d.l.M.v.s.3.3.3.3.<.2.:.:.;.A U e @ - : : - - - - - - - - - - - - - ",
"- - - - - - - - - - - - . 5 S 0.u.u.i.j.l.l.l.j.j.j.j.j.h.h.l.l.M.d.s.*.3.3.<.2.2.:.:.;.G P 7 + : : : - - - - - - - - - - - - - ",
"- - - - - - - - - - - - . 1 b 7.z.y.u.d.d.d.l.j.j.j.j.j.j.l.l.M.d.s.*.*.3.3.2.2.2.:.-.;.D s 4 & - : - - - - - - - - - - - - - - ",
"- - - - - - - - - - - - - @ p J 0.y.r.r.a.d.d.d.h.j.l.l.l.M.M.v.s.s.*.*.*.3.2.2.:.-.=.A Y t @ ; - - - - - - - - - - - - - - - - ",
"- - - - - - - - - - - - - + 5 N 7.s.r.r.r.a.t.a.a.d.l.l.l.M.v.s.s.3.3.3.3.3.2.4.2.-.;.J m 8 * - - - - - - - - - - - - - - - - - ",
"- - - - - - - - - - - - - . > p K q.p.p.r.r.a.a.d.d.l.l.M.v.d.s.3.3.3.3.3.3.2.:.:.;.H E a 3 & - - - - - - - - - - - - - - - - - ",
"- - - - - - - - - - - - - - + 7 S w.5.p.a.a.a.g.g.g.g.g.M.g.s.s.3.3.<.3.2.4.:.:.;.A / ` 9 + - - - - - - - - - - - - - - - - - - ",
"- - - - - - - - - - - - - - . 1 b A.C.g.g.g.g.g.g.g.g.v.v.s.s.3.3.3.<.2.4.:.,.;.A H E a 3 . - - - - - - - - - - - - - - - - - - ",
"- - - - - - - - - - - - - - - @ w E G.U.g.g.g.g.g.g.v.v.g.s.3.3.3.<.2.2.:.,.>.A Z W P 6 + - - - - - - - - - - - - - - - - - - - ",
"- - - - - - - - - - - - - - - . < j A.D.I.f.g.g.g.v.v.v.s.s.3.3.4.2.:.:.,.>.A Z ~ Y i < . - - - - - - - - - - - - - - - - - - - ",
"- - - - - - - - - - - - - - - - + 9 Q H.I.P.P.U.g.R.v.s.s.3.3.4.4.2.:.:.>.;.C Z W L 6 X # - - - - - - - - - - - - - - - - - - - ",
"- - - - - - - - - - - - - - - - ; @ a @.L.Y.U.U.U.R.f.3.3.3.4.4.4.,.,.>.>.C Z / T h o   # - - - - - - - - - - - - - - - - - - - ",
"- - - - - - - - - - - - - - - = - . 8 I K.F.Y.I.T.I.5.3.4.4.4.4.,.,.>.>.A A ~ } l 1   # - - - - - - - - - - - - - - - - - - - - ",
"- - - - - - - - - - - - - - = = - ; + f Q J.F.C.C.C.4.4.4.4.,.,.>.>.A V V Z / [ r @ # - - - - - - - - - - - - - - - - - - - - - ",
"- - - - - - - - - - - - - - = = - - $ < l @.L.Z.Z.,.,.,.,.,.>.>.>.A A Z Z / ] k 4 . - - - - - - - - - - - - - - - - - - - - - - ",
"- - - - - - - - - - - - - - - - - - # X d R $.K.V.>.>.>.>.>.>.A A A A Z / } _ 8 @ ; - - - - - - - - - - - - - - - - - - - - - - ",
"- - - - - - - - - - - - - - - - - - # $ X f O.).J.>.A A A A A A A Z G G  .[ r @ . - - - - - - - - - - - - - - - - - - - - - - - ",
"- - - - - - - - - - - - - - - - - - # # $ < k +.).A.H H >.A A A Z Z J  .} z 3 + ; - - - - - - - - - - - - - - - - - - - - - - - ",
"- - - - - - - - - - - - - - - - - - - - # . 1 x +.o.^ H >.A C C Z Z ( } l 1 + ; ; ; - - - - - - - - - - - - - - - - - - - - - - ",
"- - - - - - - - - - - - - - - - - - - - - ; + 8 _ | ( H A A Z Z Z ~ | L 6 o ; - - - - - - - - - - - - - - - - - - - - - - - - - ",
"- - - - - - - - - - - - - - - - - - - - - - % + 7 ` X.A.H Z Z Z ~ | [ r o . - - - - - - - - - - - - - - - - - - - - - - - - - - ",
"- - - - - - - - - - - - - - - - - - - - - - - . @ r [ @.) ~ ~ ) X.{ t 3 & - - - - - - - - - - - - - - - - - - - - - - - - - - - ",
"- - - - - - - - - - - - - - - - - - - - - - - - . < t [ @.#.#.X.] t 3 + - - - - - - - - - - - - - - - - - - - - - - - - - - - - ",
"- - - - - - - - - - - - - - - - - - - - - - - # # . 3 t ` O.O.' t > + - - - - - - - - - - - - - - - - - - - - - - - - - - - - - ",
"- - - - - - - - - - - - - - - - - - - - - - # # - - . 3 9 z k d @ . ; - = - - - - - - - - - - - - - - - - - - - - - - - - - - - ",
"- - - - - - - - - - - - - - - - - - - - - - # - - - - % * @ @ + $ - - - - - - - - - - - - - - - - - - - - - - - - - - - - - - - ",
"- - - - - - - - - - - - - - - - - - - - - - - - - - - - - - - - - - - - - - - - - - - - - - - - - - - - - - - - - - - - - - - - ",
"- - - - - - - - - - - - - - - - - - - - - - - - - - - - - - - - - - - - - - - - - - - - - - - - - - - - - - - - - - - - - - - - ",
"- - - - - - - - - - - - - - - - - - - - - - - - - - - - - - - - - - - - - - - - - - - - - - - - - - - - - - - - - - - - - - - - ",
"- - - - - - - - - - - - - - - - - - - - - - - - - - - - - - - - - - - - - - - - - - - - - - - - - - - - - - - - - - - - - - - - ",
"- - - - - - - - - - - - - - - - - - - - - - - - - - - - - - - - - - - - - - - - - - - - - - - - - - - - - - - - - - - - - - - - ",
"- - - - - - - - - - - - - - - - - - - - - - - - - - - - - - - - - - - - - - - - - - - - - - - - - - - - - - - - - - - - - - - - "
};
