/* XPM */
static char *_ac167b7a0214f089f3ebba4fcb1907eIS1IZ8zA0MOpzlw9[] = {
/* columns rows colors chars-per-pixel */
"64 64 184 2 ",
"   c #6BA100",
".  c #6BA000",
"X  c #6BA101",
"o  c #699D01",
"O  c #689A01",
"+  c #6CA000",
"@  c #6FA501",
"#  c #74AB02",
"$  c #77B002",
"%  c #73AA02",
"&  c #74AA03",
"*  c #6FA601",
"=  c #6DA200",
"-  c #6CA101",
";  c #6CA201",
":  c #6CA100",
">  c #6DA300",
",  c #6EA500",
"<  c #74AB03",
"1  c #72A802",
"2  c #6EA300",
"3  c #6EA400",
"4  c #6FA401",
"5  c #6BA001",
"6  c #6B9F01",
"7  c #679901",
"8  c #6A9E01",
"9  c #6EA301",
"0  c #77AF02",
"q  c #74AC01",
"w  c #71A802",
"e  c #72A902",
"r  c #6FA400",
"t  c #6BA002",
"y  c #699C01",
"u  c #70A601",
"i  c #6A9D01",
"p  c #6CA200",
"a  c #71A701",
"s  c #76AF01",
"d  c #76AE03",
"f  c #73AA03",
"g  c #6FA500",
"h  c #6DA201",
"j  c #6DA301",
"k  c #6CA001",
"l  c #669801",
"z  c #6B9F00",
"x  c #75AD01",
"c  c #71A702",
"v  c #75AB03",
"b  c #699C00",
"n  c #6EA401",
"m  c #699B01",
"M  c #689B00",
"N  c #74AB01",
"B  c #77AF03",
"V  c #75AD02",
"C  c #70A701",
"Z  c #6B9E01",
"A  c #72A801",
"S  c #72AA02",
"D  c #6A9C01",
"F  c #699D00",
"G  c #6FA502",
"H  c #71A800",
"J  c #70A502",
"K  c #73A902",
"L  c #6EA200",
"P  c #70A602",
"I  c #72A800",
"U  c #73AA01",
"Y  c #6A9F01",
"T  c #6A9E00",
"R  c #71A801",
"E  c #6DA101",
"W  c #70A600",
"Q  c #6A9D00",
"!  c #6C9F01",
"~  c #73A901",
"^  c #73A802",
"/  c #74AC02",
"(  c #73A903",
")  c #71A703",
"_  c #71A601",
"`  c #70A401",
"'  c #70A501",
"]  c #70A500",
"[  c #72A901",
"{  c #76AE02",
"}  c #679B01",
"|  c #6A9F00",
" . c #75AC02",
".. c #76AF02",
"X. c #72A702",
"o. c #6FA402",
"O. c #70A702",
"+. c #6DA100",
"@. c #73AB01",
"#. c #75AB04",
"$. c #76AF03",
"%. c #76AD03",
"&. c #6FA600",
"*. c #75AE03",
"=. c #75AC01",
"-. c #71A700",
";. c #74AA04",
":. c #74AD02",
">. c #78B003",
",. c #72A903",
"<. c #72AA01",
"1. c #70A700",
"2. c #689C01",
"3. c #75AC03",
"4. c #74AA01",
"5. c #74AB04",
"6. c #73AA00",
"7. c #689B01",
"8. c #6C9F00",
"9. c #76AD02",
"0. c #6B9E00",
"q. c #75AB02",
"w. c #74AA02",
"e. c #78B002",
"r. c #679A01",
"t. c #72A900",
"y. c #73A900",
"u. c #699E01",
"i. c #78B103",
"p. c #75AD03",
"a. c #77AE03",
"s. c #72A803",
"d. c #6B9F02",
"f. c #76AE04",
"g. c #73AB02",
"h. c #6EA201",
"j. c #689C00",
"k. c #699E00",
"l. c #77AF04",
"z. c #699B00",
"x. c #6FA301",
"c. c #6FA300",
"v. c #6DA302",
"b. c #78B004",
"n. c #71A803",
"m. c #74AC04",
"M. c #75AD04",
"N. c #77AE02",
"B. c #76AF04",
"V. c #75AC04",
"C. c #76AE01",
"Z. c #73AB03",
"A. c #77B004",
"S. c #75AE01",
"D. c #6CA002",
"F. c #73AA04",
"G. c #72A701",
"H. c #6CA102",
"J. c #6EA302",
"K. c #6FA403",
"L. c #6DA202",
"P. c #6DA001",
"I. c #76AD01",
"U. c #77AF01",
"Y. c #689A00",
"T. c #75AC00",
"R. c #72A904",
"E. c #78AF03",
"W. c #76AC01",
"Q. c #6DA102",
"!. c #72A804",
"~. c #74AC03",
"^. c #6EA202",
"/. c #699B02",
"(. c #679A02",
"). c #76AD04",
"_. c #6FA302",
"`. c #679902",
"'. c #669901",
"]. c #679A00",
"[. c #77B003",
"{. c #71A901",
"}. c #6EA501",
"|. c white",
/* pixels */
"  . X o O + @ # $ % & * = - ; : > , < 1 2 : : - - 3 @ 4 : . 5 6 7 8 9 1 0 q & w > : ; : = 3 e & r = : ; X > @ @ = . 5 t O y = u ",
"i 6 p y 7 p 3 a s d f g : h j : h 3 e < g 2 = - k h j h i 8 : 6 l z 3 @ x 0 < u = - j ; : 3 c v a 3 > h k h h j 8 i . - 7 b > n ",
"m 5 > i M = 2 3 N B c = - n g ; j 3 * V C g 2 : X   - 5 m Z > 5 7 . 3 2 A 0 f 2 : j g j - 3 n # S g 3 = 5 : . - y D : = O F 3 2 ",
"+ = 3 5 o : = = @ 1 G : h u H n c J n q A K L : : o o k k : 2 p o . h : 4 a P h - n I g G c j U U K 4 + : Y b k k + > > 8 T h : ",
"u R 3 E 6 ; : : k 6 h h > W U u K J 9 R u e h 3 g T Q : @ R , h ! - p + - 6 - h > g ~ w c ^ h a u 1 4 = W + F + 3 a u > k k h + ",
"# / 9 - - n h h - M . 3 3 3 ( ) _ ` h 9 E n j a U g : = a V * ; - n j = h b T 3 3 2 c ( ' a E 9 h 9 j @ N W = : ] V [ h - j n : ",
"{ x n > @ 1 3 c G } | 2 > ; P @ @ 4 : = + h p ' %  .u 3 # ..u j 9 1 @ ' X.o y = 3 p o.O.n @ +.= + ; p 3 [  .1 > [ 0 [ 9 j c a 2 ",
"B @.3 > c #.u N A i 6 g 2 : j 2 9 h : = : + z 2 R $./ a %.x &.> @ #.w [  .6 i n r : h 9 2 j : p - : z = W *.d a # ..H 2 2 ( ( u ",
"=.-.= : @ ;.K q ~ E 9 [ g > = = = k E 2 = 8 y > &.:.>.% =.[ 3 : 9 ,.& <.=.9 h A 1.> > p = + - > > . 2.: , <.>.3.4.N g : = c 5.R ",
"a = z : h u a A a h 3 6.A 3 > : + + h : = Z 7.p j a 0 % a n . . - @ a a [ 9 > I U @ 2 E + 8.h : p - O 5 h @ V 9.a ' : . : 9 c u ",
"+.z T - k h h j h : > R  .u @ - 0.k > T = - 2.: - j ~ R = + Q : k ; h j h : = g  .a @ j z 6 > Y . > y 5 - h -.U > : Q . k - h h ",
"p 5 : h k j 9 6 8 E 2 a # R e 2 T 8 h : 2 h | > 2 2 u * = 5 . = k h 9 - i k j g q.A K @ z y - : = 2 6 p > 9 @ C > : 5 = k : j j ",
"h : h h - @ ' 6 T E 2 W [ a K 9 b y j u g > : 3 2 > 3 j j : h h - n u : o k j g [ C ( @ | M - * @ 3 : > 3 > 3 3 j ; p h - h u r ",
"9 2 : = n 1 e h - + h , , j @ ; M T 4 < u 3 > 3 = p > : h 2 p : n u % n - : - 3 g > @ 9 F b = ( e 3 > 3 2 : > = - 9 > + 2 @ % a ",
"@ C p g % w.a j h Z - j > E h h z - n  .# g * R 2 k 6 T > a j > [ w.K n h z 6 h > h E h . 6 h ~ V u , R r E 6 T : C @ p R % w.u ",
"-.6.-.N e.% n - + y 6 z ; j = 3 2 j +.~ d u 1 ~ 3 k r.b 3 6.H A e. .@ E + i i z X j +.2 2 9 +._ B 1 C % g = y r.= t.y.-.{ 0 a j ",
"g ~ q.0 0 u E z + y T 2.5 j 2 3 = = : u  .P f 4 = + O Q 3 R q.9.>.[ 9 6 + i Q F u.j 2 3 > +.+.2  .c ( _ 2 : o O > W #  .i.q.4 - ",
"j [ %.B # 4 h + : o 6 o 6 h @ u = = : 9 a @ K = E + o Y h u p.a.{ u j + : 8 8 8 8 ; n u 2 = = : a @ e 4 E : T o h 3 # %.0 A 9 - ",
"5 a # N W 3 j > n k - - p - s.f 4 3 3 h h n @ = k . 5 k d.@ # # R 3 9 > 3 h - h p : J < P 3 3 h - j @ 2 k . 5 k d.h U # [ g 9 j ",
"8 g u @ = h h 3 1 G j ; j h K f.w g ,.G p > = h Y u.p ; u.> C u 2 h h 3 a c 9 h h = u d f g w ) ; > = = - u.. j 8 5 W u 4 h h j ",
"8 = j - - h - n < 1 u = h 3 R B g.a 5.P j > - 3 5 8 = j 8 : 9 ; - h E h e # u 9 ; 9 u *.d C & s.j > - j h o : 2 6 z j h - h +.h ",
"k - h - > 2 : h.N f < G - 3 @  .% ( c 9 : > j 3 h = 3 3 : 5 h - = 2 = : A # f w - j 3 %  .1 ( 9 p = j 3 2 p > 3 = 5 ; h : 2 > + ",
"j : h . . p z = A P s.@ 5 5 h R a 1 @ h h @ -.3 j 3 a u 9 - h - z p 5 + C a ) a - 6 - u A c c h h 9 a g h 9 u a 3 h : E z : X z ",
"3 : + z b F b : n : - j . 2.5 3 3 3 h = 2 C 3.@ h @ %.% 3 = . : j.T M z 9 p 5 h ; 2.8 > 3 3 j h > @ < a j n < %., > . : F k.j.Q ",
"j Y 8 - | F Q = h - : h ; . : = 3 - i | > @ ( # 1 e l.K 2 5 o - z T z.: h - : : h . + p 3 > 8 8 = n s.# % c f.3.3 ; o 5 5 | z.z ",
"h d.8 h - 0.+ 3 h h = 9 P 3 h h 3 k o z > h @ {  .g.%.' j k 8 - h z z > j h j = P @ > h 3 h i T = j 9 g...e d 1 j ; 8 . h + 0.= ",
"j h - E +.= > 3 n 3 : @ < g 3 n 3 - : j > + E U N U a + p j E h +.= > 3 3 n = h < a 3 n 3 h + = j : + C x [ ~ E : j h - E +.> 3 ",
"j h j h 2 W 3 C -.R x.' d e 3 C a = > 3 ; z Z u R u L + h h j j = W g g a a ' h.3.< @ * R 2 = 3 h + i n [ u r + p h h j h g &.3 ",
"9 j 2 4 A A , w.3.5.J c.d f.C # [ 3 ' 3 : 5 o 2 3 +.T : n v.9 3 C ~ @ R %.< s.L 4.b.w e # g @ @ = : o : 3 = z z 2 j 9 3 @ ~ C , ",
"P s.n c < ' 3 U B f o.+.U V e ^ 9 9 % a 9 j - 3 = : 2.6 @ s.@ @ < a 3 a B #.P +.u d e ( ' = A e n 9 - 2 2 : k.o n n.c 3 f K r 3 ",
"c # w m.M.2 h a N.c - + * A c J 0.+.% % e g @ c j : 7.o @ # e ,.B.' h 4 9.% h + 2 [ c ) k z A # e u 3 c n = i r.j e % w f.e h j ",
"n % V.l. .n ; 9 U r z z 2 n j 9 8 6 P q C.u w f 9 ; 7.y = a 3.f.B u h = [ a . z = r h n . i n U s A u Z.@ h 8 r.: @  .V.A.A 9 - ",
"= 1 %.{ A 9 h > u 9 k Q > 2 = = z 6 9 <.S.R f e E z 8 6 : u 3.{ N 9 j = @ 4 - Q : 3 = j . Z h a S.[ e f n 6 Y 8 : 2 # %.x ' h.= ",
": @ ~ 6.r E 9 j : h : F 3 W 9 k k D.h @ % c F.n 6 o - h p n [ 6.W E h 9 p E h T : W r E k - E n e c F.P - o . h = = w U I = h 9 ",
"= h n g j ; h ; : 4 9 : ' G.2 + - H.k = 3 J.K.h h 9 = 9 > = 9 g 3 h E h : 9 4 : 9 1 @ : 5 E k : 3 9 K.v.p h L j 3 p h r r h : h ",
"9 : : > p : : : 2 e [ u J x.3 = h - | : : ; 5 j g 1 u a u p : > = : : : = a % W P x.2 > p h 6 + : - k h 3 R a u c = : = = : : : ",
"j + : h : z E - = u U A ,.h j 2 @ h - h : : o > 2 c 1 K P + + = h . k h : 4 e A ( 4 h j 4 n - h : : u.: 3 @ ( 1 e - + +.h + + h ",
"+.= : k 5 . > : - h @ u 9 T - = 1 a 9 E = h 6 2 = 9 P u 9 = = k 5 z = = + ; n u ' | 5 p _ 1 9 L.E > 6 = 2 = P u 4 +.= : 5 6 : 2 ",
". 4 n z . > @ h : k : 2 6 7.+ = 4.[ 9 J.h.h.P.h h h 9 h k > @ + z : @ j : : k > E 7.z +.R N n J.h.9 E h 2 E 9 j - : @ = z . 3 @ ",
"8 C K h n a a 9 - : 8 : i 7.: = t.-.h.c x.4 J.+.j L.k k 8 9 w.9 j u A n E : | 5 6 r.. : -.y.h.P ' 9 o.E = L.- k 6 k % u h @ R u ",
"6 u 9.c < U W = : = 5 : | Y h > W 4 h a g U K h - 5 T z Y 9 9.1 % # R 2 : = k - . T ; = @ u h u ' H # n : - 8 z 6 - N w.1 # [ g ",
"5 g I.N >.% g : = u u 2 - n @ 3 3 E k j g x C.4 J.i M z 5 h q N B 9.W = : g u 4 - j @ 4 3 9 k = 3 6.U.a J.k Y.T z k [ =.9.B a 3 ",
"u.2 t.N B C 3 : 2  .a.C 9 a K n 3 h o z = A T.K R.i M . o : H U B e 3 = +.~ E.[ 9 @ % @ 3 9 8 8 : g W.~ ;.Q.O z 8 6 W 6.9.3.g > ",
"8 2 u [ < n - . = q.b.% u % R - 9 E O 8 - @ % f !.Z Q : 8 : * R ~.C ; . : A b.3.u 1 % > h j y 7.k 9 % % F.Q.o + 6 . g a g.e j . ",
"+ > j n @ = y o : u { %.K 3.L.F E k O F h n R A ^.k ; j + = j n @ 3 8 2.+ 3 / B K 3.P o k - y 7.- 9 u [ o.- : j : : j J.@ n k 7.",
": . : : | h /.m : = [ =.( V.Z o : : 6 T : 2 g ] = : h 3 =   : : T ; 8 (.+ : W I.^ )._.7.: : 6 8 . > 3 W > : - 3 > : + = | . - `.",
"n + + z F = o y h   9 G.P f Z o . : h + k - > 3 j 2 9 3 @ - + + b : 5 7.k : h G.J ;.L.2.. . h : + k = 3 j 9 9 3 @ j . : F | - 7.",
"% n : . + : + +.9 5 6 8.- 4 - 0.y | : = k 7.z ; - I H @ % u = . + : - + 9 ; 6 8.k n h Z Q F : : = 7.i h - u t.g e 1 > + + + - + ",
"1 g = : : : c.a P ; k z - 3 > 8.y 6 ; > 6 `.5 h = R g.u a ' 2 - : : L _ c j k 6 5 j 2 + i i h = : (.i h p W @.c u a 3 ; : : +.r ",
"h j j - 6 : a d % 4 9 - h 2 9 k z = @ n 8 7.: 9 j @ v P +.j j h 6 k 4 p.3.@ n h h 9 3 E z + n @ k 7.z 2 j 3 % f +.h j j 5 5 L K ",
": 5 - 8 m k P p.d A ( 4 = ; h : = 3 f c +.6 : h ; 3 c @ : . - 5 7.6 n < B U ,.P j p h : = > w ,.2 5 . h - > u c =   X - y i h c ",
"z z - y 7 : n [ U.V < @ = - h : > , f % r > p - - j n > z | X 6 '.| 3 C C.{ < a > : h : = 3 1 v u 2 p ; k j 9 9 . | . k 7 b > @ ",
"/.6 > y ].= 3 g x B 1 2 - j n - ; 3 C 3.u 3 2 - k : - k 7.i = 6 7 . 3 3 6.$ < 3 : h 3 h - 3 @ # e 3 3 h 5 p - - y y - +.7 F 3 3 ",
"Q : 2 6 b p > > R # P : - @ 1.j @ @ @  .R a 2 : : | Y k i 8.> : 7.. j = u # 1 = - n -.n 9 u 9 @.U a r : : 5 T k Z 0.= > y T j = ",
"3 @ 3 - Z : : : h h 9 - j W U @ ( P 9 U R % h = > F b : 2 @ 3 h Z + p + h h 9 h h g U C c s.h [ A % 4 : 3 z M z 2 4 , > k z ; + ",
"e @.j - k j - +.k b : 3 3 g ( c G.' h @ 9 @ j a t.= z +.u / * ; k h h : E y | > 3 3 1 ( u G.E 4 9 @ n 4 6.3 + + g # R h - - j + ",
"V V n = 9 _ > G 9 } z 3 2 j c P ' 4 +.h + j = a N ~ n > U { u = h u n n J b F > 3 = P s.4 P E = : = = @ U U u = a { [ h h @ ' = ",
"[.q 3 2 c & @ % c 2.8 3 > - n n n j : = + : . 3 [ B % u %.{ W 2 @ < u R # 8 y j 3 : j 4 n n : : : : . = a d  .@ % [.{.2 2 ( 1 g ",
"{ t.2 = u 5.1 q ~ k h a 3 = = = = : : > +.z o > 1.*.B e  .N g = n F.( <.=.E D.u W = > = > : : > = + o : g / B % N x 1.= > s.5.a ",
"~ 4 : : 9 1 e U A j @ 6.C 3 = : : 8.h = = 8 7.> n U >.# ~ u = . = c K [ N 9 9 t.I 3 2 : +.8.- > = k O   3 a 0 d [ A > k : @ % R ",
"9 . T - k 9 9 @ n : > A # @ n - z : > 8 = 5 7.: E n N [ 2 - Q : k h 9 n @ h = W  .C n h z 8.> 6 . = 7.5 - j A q 3 h T . - E 9 9 ",
": 6 . h k h h 5 6 : j a  .a a > T 6 = z > E 8 = = j a C = . | = k p h ; 6 : h g  .A w 4 z 8 p . : 2 8 : = j @ R > : Y : k : h h ",
"; X h h k n 4 Y i E 3 W U 1 K n F D h n 3 = + 2 2 3 , n j X ; j k j @ - y k 9 g 4.R & ' z m - n 3 2 + = 3 2 3 }.j - - j - E 4 3 ",
"j = E h h c a - . - j g u @ c = j.Q n e @ 2 = 3 > = 3 = h > = h h @ 1 9 z : h 3 C r c n T M = w c 3 = 2 2 = 3 > h j = - = n 1 u "
};
