/* XPM */
static char *_fe53feeda0a4b33a26dd41263275fcfsjw3uYtDQQo2WmNi[] = {
/* columns rows colors chars-per-pixel */
"64 64 244 2 ",
"   c #070504",
".  c #0A0B0F",
"X  c #190907",
"o  c #1A1916",
"O  c #2A0D0E",
"+  c #261818",
"@  c #1A2405",
"#  c #282C12",
"$  c #0E1535",
"%  c #1D2130",
"&  c #2B2223",
"*  c #342A2B",
"=  c #332D35",
"-  c #383437",
";  c #550F16",
":  c #690315",
">  c #660A13",
",  c #4E281D",
"<  c #791523",
"1  c #4B3634",
"2  c #752E2F",
"3  c #3A4922",
"4  c #4F6816",
"5  c #4C4C35",
"6  c #745B21",
"7  c #774334",
"8  c #56692E",
"9  c #0B164F",
"0  c #163842",
"q  c #172555",
"w  c #2B2F51",
"e  c #1B2866",
"r  c #293770",
"t  c #4D3F42",
"y  c #33596B",
"u  c #484744",
"i  c #58474B",
"p  c #545549",
"a  c #564956",
"s  c #4F5251",
"d  c #70504D",
"f  c #665A5A",
"g  c #55634C",
"h  c #687650",
"j  c #514F73",
"k  c #665A6B",
"l  c #745D63",
"z  c #726F6C",
"x  c #786869",
"c  c #6C7467",
"v  c #8A0118",
"b  c #AB0C14",
"n  c #B82C1E",
"m  c #971228",
"M  c #B11129",
"N  c #8E2D35",
"B  c #AD302A",
"V  c #C80C29",
"C  c #D30B2B",
"Z  c #DA213D",
"A  c #924A39",
"S  c #AE503A",
"D  c #956D36",
"F  c #9A7638",
"G  c #A46F3B",
"H  c #C54E39",
"J  c #8F3042",
"K  c #A23547",
"L  c #D02B45",
"P  c #E82F4B",
"I  c #8B4F4A",
"U  c #9B5646",
"Y  c #AE5343",
"T  c #966C4E",
"R  c #A86748",
"E  c #A77644",
"W  c #B46C50",
"Q  c #B97657",
"!  c #83676B",
"~  c #986560",
"^  c #896D73",
"/  c #8B7477",
"(  c #957779",
")  c #95797D",
"_  c #B2766D",
"`  c #C85A46",
"'  c #D45D4A",
"]  c #C7624D",
"[  c #CA6855",
"{  c #D26854",
"}  c #D96A56",
"|  c #D1725F",
" . c #DD715D",
".. c #E06E59",
"X. c #E0735E",
"o. c #CC7A65",
"O. c #D87663",
"+. c #E37661",
"@. c #E67B68",
"#. c #659601",
"$. c #679901",
"%. c #6A9D01",
"&. c #69990B",
"*. c #719F17",
"=. c #6DA201",
"-. c #70A602",
";. c #74AB02",
":. c #78AF04",
">. c #72A40C",
",. c #77AB0D",
"<. c #79B203",
"1. c #79B107",
"2. c #75A513",
"3. c #79AA16",
"4. c #78A618",
"5. c #7BAB1A",
"6. c #7EB016",
"7. c #769535",
"8. c #7EAA23",
"9. c #798C52",
"0. c #6A867F",
"q. c #80AE1F",
"w. c #82B41B",
"e. c #84B719",
"r. c #8C902F",
"t. c #82AC26",
"y. c #83AD2C",
"u. c #83B124",
"i. c #89B72B",
"p. c #88AA38",
"a. c #8CB537",
"s. c #91B93C",
"d. c #95C238",
"f. c #8E954F",
"g. c #AB8D50",
"h. c #8EAA45",
"j. c #8FB347",
"k. c #92B543",
"l. c #96BA49",
"z. c #8DA757",
"x. c #93AB57",
"c. c #97B756",
"v. c #A3A955",
"b. c #A4B85C",
"n. c #8B9873",
"m. c #B4936D",
"M. c #94A26C",
"N. c #98B766",
"B. c #8DA675",
"V. c #94A872",
"C. c #99B578",
"Z. c #A9AA62",
"A. c #ADB670",
"S. c #C38359",
"D. c #CE916D",
"F. c #C99675",
"G. c #E88774",
"H. c #ED8F76",
"J. c #F48B77",
"K. c #D2A87B",
"L. c #EAA47F",
"P. c #9AC246",
"I. c #9DC059",
"U. c #A2C45B",
"Y. c #A9C868",
"T. c #AFC979",
"R. c #344984",
"E. c #427887",
"W. c #6D6E85",
"Q. c #8C7982",
"!. c #957C82",
"~. c #9C7E83",
"^. c #B67D84",
"/. c #608A8F",
"(. c #7E91A8",
"). c #6AC9E1",
"_. c #9B8487",
"`. c #8F938D",
"'. c #A2848A",
"]. c #A5898E",
"[. c #A88989",
"{. c #A79A8D",
"}. c #A88D92",
"|. c #AD9499",
" X c #B59698",
".X c #B49A9D",
"XX c #96AB88",
"oX c #99AB92",
"OX c #B0B191",
"+X c #8B98AD",
"@X c #B69DA1",
"#X c #B99EA3",
"$X c #B29EB0",
"%X c #96AAAA",
"&X c #99AAB6",
"*X c #A8ADAF",
"=X c #BBA2A5",
"-X c #BEA4A9",
";X c #A5B7B5",
":X c #C69B85",
">X c #DA9C85",
",X c #FF9D8B",
"<X c #D3B192",
"1X c #E9A585",
"2X c #EDB08F",
"3X c #F8B596",
"4X c #C4A8AD",
"5X c #CBAAAD",
"6X c #C7B9A9",
"7X c #D9BCA3",
"8X c #E4B8A2",
"9X c #F9BFA1",
"0X c #B9D086",
"qX c #C5D798",
"wX c #D2C5B1",
"eX c #E7C6A9",
"rX c #F9C8AA",
"tX c #EAD4B9",
"yX c #F7D1B4",
"uX c #AAB8C8",
"iX c #ABB4D2",
"pX c #98DBDC",
"aX c #B8C5CB",
"sX c #BAC4DD",
"dX c #8ED9E9",
"fX c #B9C4E5",
"gX c #CCD5DD",
"hX c #E3D4C4",
"jX c #F5DDC5",
"kX c #EEE5CF",
"lX c #F9E5C9",
"zX c #FBE6CD",
"xX c #FDEBD2",
"cX c #F9EAD4",
"vX c #FFF0D7",
"bX c #FEF4DC",
"nX c #C3CBE3",
"mX c #CBD5E5",
"MX c #D9DEF3",
"NX c #DAE7ED",
"BX c #DCE2F8",
"VX c #E6EDEF",
"CX c #FDFBE5",
"ZX c #FAFCF7",
/* pixels */
"<.=.=.%.$.%.%.=.=.=.=.=.:.;.;.-.=.#.$.;.;.:.<.=.%.%.$.%.%.=.=.=.=.%.;.;.;.-.=.$.$.;.:.:.<.;.=.=.$.$.%.=.=.=.=.%.-.;.;.;.=.%.#.=.",
"=.=.=.-.=.=.=.=.:.-.=.-.=.=.=.%.%.=.%.=.;.:.-.=.=.-.=.%.=.=.:.;.=.-.=.=.=.=.%.%.=.%.,.u.u.t.t.u.5.%.=.=.;.;.=.-.=.=.=.=.%.%.=.%.",
"=.=.=.:.;.=.=.=.:.:.;.;.=.=.=.=.%.=.=.%.=.=.=.=.=.:.:.-.=.=.;.<.;.:.=.=.=.=.%.=.=.=.h.N N 2 2 < 7 h.>.=.;.<.;.;.-.=.=.=.%.=.=.%.",
"%.$.=.=.=.-.%.$.=.-.=.=.=.;.:.=.=.<.;.=.=.%.%.%.%.-.=.=.=.$.=.-.>.=.>.3.6.>.>.1.w.r.< : : b V V b 6 4.$.%.=.-.=.%.=.:.-.=.;.:.=.",
"%.%.=.=.%.=.=.=.=.=.%.$.=.=.;.:.:.<.-.=.%.=.%.%.=.%.%.=.>.=.=.5.2.7.# & & o p w.I < v V V C Z L 7 p.>.=.%.=.=.$.%.=.=.:.:.:.:.=.",
"-.=.;.;.-.=.<.;.-.;.=.=.=.%.%.;.;.=.=.=.=.=.-.-.-.;.;.=.w.t.3 4 & o + W O.2 X +   : M V C P M 2 T.-.;.<.=.;.-.=.=.=.$.=.;.=.%.=.",
":.=.;.<.-.%.;.:.;.=.=.:.-.=.=.=.=.#.%.;.-.;.:.=.-.<.:.4.7.# + W [ | G.J.J.O.{ ] & + O O b L m 2 w.=.=.:.;.;.%.;.;.=.=.=.=.$.#.-.",
";.%.=.;.%.$.=.=.=.$.%.;.:.;.:.=.%.$.%.=.:.<.;.=.=.;.>.8 7  .G.J.J.J.J.J.+.X.+.+. .O.I X O O X * T.y.%.=.=.=.$.=.:.:.;.:.=.$.$.=.",
"=.=.=.=.-.=.-.;.=.=.=.%.=.-.-.=.=.=.=.=.=.;.=.=.=.4.4 Y G.J.J.+. .O.O. . . . . .+.+. .{ [ S N ; 2 A.c.u.>.%.=.%.=.=.-.=.=.=.=.=.",
"%.=.=.=.;.;.-.=.=.-.-.%.=.%.%.=.-.;.-.=.%.%.%.=.=.p.* o.J.G. . . . . . . . .} ` }  .X...' < : m L N > D k.>.;.=.=.=.%.=.=.;.;.-.",
"=.;.=.%.%.=.%.$.=.:.;.=.-.=.=.=.=.=.%.=.;.=.=.i.7., O.J.@. . . . . . .}  . . . .` { X. .+., ; M P P m : 2 p.:.=.-.-.=.=.=.=.=.%.",
"<.;.=.=.-.=.%.=.-.-.=.=.=.:.:.=.=.$.%.%.:.:.1.8 , +.J.G.+. . . .} { { [ } } X.@.H ' +. . .@.2 O C V M m > 6 2.%.=.;.<.-.=.$.$.%.",
":.%.%.=.<.:.-.:.=.=.%.#.%.;.:.:.%.%.4.8.t.i.1.4 , J. .` { +. .} { ] | jX| ' } H ] { }  . .J.d X M v : < T s.-.$.$.=.:.:.>.$.%.%.",
"=.%.$.%.=.;.:.;.$.=.=.%.%.=.=.=.8.l.r.G G g.k.&.7 O.H } X. .} ` 8XbXxXxX| ' @.| zX>X` }  .J.I   : J N g.l.%.=.%.%.=.=.=.=.=.=.=.",
"=.=.-.=.%.%.=.=.=.$.%.=.=.#.=.t.b.g.K.K.D.D.F =.h.O S .. .` ` jXtX6XwXzX{ H o.6X6XkX3XH } O.d - I wXY.u.=.$.$.=.=.$.$.=.=.:.;.;.",
"$.=.:.:.;.=.=.=.=.%.=.:.=.%.>.p.F <XeX:XW Q G 5.:.X ` ..{ ` R 6Xz = u kXD.2XwX1 = `.<X] S , `.0XY.U.t.-.=.=.=.;.;.%.%.=.=.;.;.=.",
"$.=.=.<.<.=.=.=.=.=.=.:.:.-.=.y.g.<Xm.7XbXjXT OX*.X @.H G.1XD 1 {.cXcXbXvXvXbXcXkXz x 6XX oX5.6.P.l.b.k.5.-.=.;.:.;.=.%.%.=.=.$.",
"%.=.%.%.=.=.=.;.;.;.-.=.;.-.=.;.s.f.<XeXtXwX/ ! f 1 A Y D.D.R 1XlXjX8X8X8X8X8X8XlXbXeXU 5 h.Y.6XQ Q E g.b.i.;.=.-.;.-.-.-.$.%.=.",
";.-.;.=.#.=.=.=.-.-.=.=.=.=.=.;.<.l.g.D I ^ ~.! 4XNXo [  .W [ 1XyX>Xn n n b b S jXzX:XT q.P.6XS L.L.3XK.E b.u.-.=.=.=.-.:.:.=.:.",
"-.;.:.;.%.;.;.=.=.=.=.=.=.%.$.=.;.<.Y.c & '.~.! ].*X1 A Y Y U A _ 1XL.J.,X .[ eXtXD.A 5 M.q.<XQ Q Q <XeX2XF y.>.=.=.$.%.=.<.<.;.",
"%.=.=.%.=.;.:.;.-.$.%.=.=.=.%.=.=.;.i.c & '.~.( 1 X U 1 * * * + 2 S Y 1XeXtX7XR 7 ]  .I u d Q 2XrXzX<XF.<Xf.8.=.%.=.%.%.=.=.:.=.",
";.:.=.%.=.=.=.-.-.$.%.;.:.=.=.-.=.=.5.c & '.~./ i o * }.=X#X.X_.N b M S U R _ ) * 7 I c t.{.l _.wXxXtXK.f.k.$.=.:.;.=.-.=.=.=.=.",
"<.=.=.%.$.%.%.=.=.=.=.=.:.-.;.-.=.#.4.c & '.~./ ! ^ @X=X#X=X.X^.K B Y m J ) @X!.'.t s k.d.|.) .X/ OXm.Z.k.=.=.%.;.:.-.;.=.%.#.=.",
"-.=.=.=.%.%.%.=.;.=.=.=.=.-.-.%.=.%.5.h + ].~.~.) ) @X=X|.|. XK I ~ W ! J _ |.! ~.'.l - *X!.) -X.X+ n.U.;.;.=.=.=.=.-.=.%.%.%.%.",
"=.=.=.:.;.=.=.=.<.:.;.;.=.=.=.=.%.=.>.f.p x ) _.|.4X-X.X_.!.=X-X_.~ U ( |.=X|.( ) ~.'./ & f ].-X=X+ n.u.;.<.;.:.=.=.=.=.%.%.=.%.",
"%.%.=.;.-.-.%.%.-.;.-.=.=.-.;.=.=.:.;.s.M.. !.4X}.x / !.}.=X.Xm. X].! @X@X@X#X-X! / _.~.! }.=X.X) p x.2.=.;.;.=.=.=.;.=.%.-.:.=.",
"$.$.=.%.%.=.=.%.=.=.%.$.=.=.:.:.;.<.;.=.p.8 x x l u   ! }.@X.Xg.m.].! .X-X4X|.x ^ ~.'.~.) }.-X) o OXk.=.%.=.=.$.%.=.;.:.;.<.<.=.",
"=.=.-.-.-.=.:.;.=.;.=.=.=.%.%.:.;.=.=.=.=.I.h 8 7.8.1 ^ ~._.|.|.#X'.! }.^ x z s i i l ].|..X4X_.. x.6.:.=.;.=.%.=.=.$.;.:.-.=.=.",
":.=.;.<.;.%.:.:.;.-.=.:.=.=.%.=.=.#.%.;.-.>.1.3.9.= ~.~.~.( T ( ].~.^ ~.t   u k.h p s f ~..X_.f h y.>.<.;.;.=.;.;.=.%.=.=.%.$.-.",
";.%.-.:.=.$.=.-.=.$.%.:.:.;.;.-.%.$.%.;.:.P.x.5 i ].].].'.( F [.^ ^ ].~. X1 - y.k.U.T.g i i p 9.P.%.%.=.-.=.$.-.:.;.;.:.=.$.$.=.",
"=.=.=.=.=.%.=.;.=.%.%.=.-.;.;.=.%.=.=.=.s.M.* ! |.}.=X=Xm.T '.4X) ( #X].#Xx s z.3.>.,.P.h p z.s.>.=.%.-.=.%.%.%.=.-.;.-.=.=.=.=.",
"%.=.=.=.;.;.-.=.=.=.=.%.=.=.%.=.-.;.;.4.h 9 j _..X@X@X#Xm.g.|.! / }.@X@X@X4X!.@ w.,.%.=.>.5.>.=.-.;.;.-.=.=.=.=.%.=.%.=.=.;.;.-.",
"%.-.=.%.%.=.%.$.=.:.;.=.-.=.%.=.=.-.=.2.g q e - x 4X@X#X.X'.l % u _.4X#X@X5X_.o T.4.=.=.$.=.-.=.%.=.=.$.%.-.:.=.-.=.%.=.=.=.-.=.",
":.;.=.=.=.=.%.=.=.;.=.=.-.:.;.=.=.$.%.=.N.= 9 $ = / =X XQ.a $ R.q - ^ -X5X_.f % n.h.;.;.;.:.-.=.=.=.%.%.=.=.-.=.-.;.:.=.=.%.%.%.",
"<.=.%.=.<.:.=.:.-.=.%.$.=.;.:.:.%.$.%.%.k.R l e 9 % l k r R.R.r R.r % f x - $ r $ 9.,.;.<.;.%.%.:.<.=.;.:.=.=.$.$.=.:.:.>.$.%.%.",
"=.%.$.=.;.:.:.;.$.=.=.$.%.=.-.-.=.=.=.=.y.G 2X].j 9 . 9 9 q e e r R.r % . $ 9 9 c j.>.=.=.=.$.%.=.:.:.:.=.%.=.%.$.=.-.;.=.=.=.=.",
"%.=.=.=.%.%.-.-.%.$.%.=.=.$.%.=.-.;.-.;.y.G L.xXwXk z W.a a W.q 9 9 9 e j W.k i qXa.=.=.%.=.%.=.%.%.=.-.=.$.%.=.=.$.$.=.=.;.-.;.",
"%.=.<.:.=.=.=.=.=.%.=.;.=.$.=.=.=.;.-.=.t.D 1XrXjXbXbXCXF.F.a.+Xa f W.W.hXCXyXR 0X5.=.=.%.%.;.<.-.=.=.=.=.%.%.;.;.$.%.=.=.;.;.=.",
"$.=.;.<.<.=.=.=.=.=.=.:.;.=.=.%.%.=.%.$.3.v.D.L.rXcXzXxX7X:XOXU.:XF.CXbXxXxXtXF.A.p.=.=.#.=.=.:.<.;.=.=.=.=.=.;.:.-.=.%.%.=.=.$.",
"%.=.%.=.-.=.=.;.-.-.-.-.:.;.=.=.%.$.%.=.-.U.E D.yXxXzXzXbXeXF a. XF.xXzXzXzXxXlXG v.5.=.%.=.=.=.-.=.=.=.;.-.-.=.;.;.-.=.=.$.%.=.",
"-.=.-.%.#.=.=.=.;.;.-.=.=.=.=.:.:.=.=.<.:.y.F D.rXyXzXzXvX8Xq.,.m.D.CXxXzXzXzXjXR A.P.=.-.-.=.-.#.%.=.=.-.;.-.=.=.=.=.-.:.-.%.:.",
";.;.:.;.%.;.-.=.=.=.=.=.=.%.%.=.:.<.:.:.=.4.Z.D.H.3XzXzXxX8XF =.b.:X7XlXzXzXzXlXW m.Y.a.>.;.;.:.=.=.;.=.=.=.=.=.=.=.$.%.-.<.:.:.",
"%.=.=.=.=.;.:.;.=.%.%.=.=.=.$.=.=.:.;.%.%.>.0Xg.W 9XzXzXxX8XR %.2.6XR jXxXzXzXlXW W m.C.a.=.=.=.=.=.:.;.-.=.%.=.%.=.%.%.=.-.:.=.",
"=.;.=.%.=.-.-.-.;.$.$.;.;.=.=.=.=.=.=.=.3.c.A.m.D.9XcXzXbX7XG >.$.A.G lXxXzXxXzXF.L.5X(.C.a.>.%.=.=.;.-.;.=.$.=.;.-.=.=.=.=.=.=.",
"<.-.=.%.%.%.=.=.=.=.%.-.<.-.;.-.=.$.4.s.N.OXm.L.3X3XyXxXeXF.A.5.>.b.Z.m.tXbXlXyX3X3X5X(.&XC.a.=.%.%.%.=.=.=.=.%.:.:.=.;.=.%.#.=.",
";.=.=.%.%.%.%.=.-.=.=.%.=.-.;.=.=.y.x.XX%X+X3X3X3X3X3XyXg.g.U.,.=.5.l.Z.m.8XyX3X3X<X$XfXNX+XV.a.%.%.%.=.-.-.=.=.=.-.;.-.=.%.$.=.",
"=.=.=.:.-.=.=.=.<.:.-.;.=.=.=.=.p.V.oXaXmXiX$X2X3X1XS.Q m.c.w.<.-.:.=.a.Z.g.Q S. XiXfXBXBXsX*XN.w.=.=.=.;.<.=.;.=.=.=.=.%.%.=.%.",
"=.%.=.:.;.-.%.%.;.:.;.;.=.=.>.p.B.%XmXBXBXBXfX$X|.{.A.v.l.8.;.:.;.;.=.>.i.l.x.Z.OX%XuXNXBXBXuX`.P.;.=.%.=.:.;.;.=.=.-.=.%.=.;.=.",
"$.$.=.=.%.=.=.%.=.=.=.%.=.;.i.C.(.nXMXBXBXMXuX(.`.N.k.8.>.%.%.=.=.$.=.=.:.,.5.i.d.N.XX&XmXBXnX;XC.t.=.%.%.=.=.%.%.=.;.:.-.:.<.=.",
"=.=.=.=.=.=.:.-.=.;.=.%.=.4.N.*XiXnXNXaX%X%XXXN.a.5.>.=.;.;.=.;.=.%.=.=.%.:.:.;.>.3.k.C.%XsXBXnX(.N.w.:.=.=.=.%.=.=.%.:.:.;.=.=.",
";.=.;.<.;.%.:.:.;.;.=.;.=.l.`.+XmXmX&XoXC.x.s.5.;.<.;.%.;.:.;.;.=.;.=.%.%.=.=.$.%.-.>.a.C.&XiXmXuXXXc.i.;.;.=.;.-.=.%.=.=.%.$.=.",
";.%.-.<.=.%.=.-.-.%.=.:.P.XX&XuXaX%XC.l.i.6.<.=.=.<.-.%.=.=.;.=.%.;.:.;.;.;.=.$.$.-.:.:.d.B.&XmXmX;XXXN.i.>.$.;.:.;.-.;.=.$.$.=.",
"=.=.=.=.=.$.=.-.=.=.5.c.XX&XaX;XoXN.a.=.;.:.-.=.=.=.=.%.%.-.=.%.%.=.;.;.;.-.%.%.=.=.=.:.;.c.;XiXfXmXuX`.7.2.%.%.;.;.;.;.%.%.=.%.",
"=.=.=.=.;.-.-.-.=.>.9.c uXsX&X;X0XP.,.=.%.=.=.=.=.=.;.;.-.-.=.=.=.=.=.=.=.=.=.-.;.=.%.=.=.Y.XXw sXnXVXoX@ 8.=.=.%.=.=.=.=.-.;.=.",
"%.=.=.=.=.;.=.$.=.w.u u VXnXfX`.n.T.a.>.=.%.%.=.=.=.=.-.=.$.=.;.:.=.=.=.%.=.=.-.=.=.=.%.8.f.c oXVXVXZXOXo u.:.=.=.=.%.=.=.-.;.=.",
";.;.=.=.%.%.%.%.=.w.u s ZXVXz o   g g x.i.;.-.;.=.=.%.%.%.$.=.;.;.=.-.;.;.=.=.%.%.%.;.;.U.5 o k z gXZXoXo t.;.=.-.;.;.=.=.%.%.%.",
"<.=.=.=.<.;.=.;.;.,.8 u ZXZX/.y E./.{.c f.1.<.-.=.=.:.:.=.;.;.=.=.$.%.;.<.:.=.#.%.%.-.w.9.0.oX`.y gXZXOX@ 8.=.$.%.-.<.:.>.$.%.%.",
"=.%.$.=.:.<.:.:.%.=.p.9.f VXVXdX).).pXu 8 ,.=.=.$.%.;.<.:.:.=.%.=.$.%.=.;.;.=.%.=.%.=.8.# /.dXdX).VXn.h x.>.-.%.$.=.;.;.=.%.=.%.",
"%.%.%.=.%.=.;.-.$.$.%.k.f.g f s 0 0 0 h p.=.%.=.$.=.%.=.-.;.%.$.%.=.=.%.%.=.=.;.-.;.=.4.z.s 0 0 0 s 9.x.i.%.%.=.=.%.%.=.=.;.=.;.",
"%.=.:.;.=.%.%.=.=.$.=.;.a.f.n.M.M.M.z.s.=.=.%.=.:.;.=.=.%.=.=.%.%.-.=.#.%.=.=.:.;.-.=.=.t.x.M.M.M.f.k.5.>.%.%.=.=.$.$.=.=.:.;.-.",
"$.=.:.<.<.-.=.=.=.=.-.:.;.>.3.5.5.6.>.$.=.%.#.=.;.<.<.;.=.=.=.=.=.:.;.=.=.=.=.-.=.$.%.=.$.>.6.e.e.6.=.=.=.=.=.;.:.=.=.=.%.=.-.$.",
"%.=.=.;.;.=.=.;.=.-.=.;.:.;.=.=.%.%.%.%.=.%.$.=.=.-.:.=.%.-.-.=.-.-.:.;.=.=.%.$.%.%.=.=.$.=.=.=.;.>.=.=.;.=.-.=.:.;.-.=.=.$.%.%.",
"=.=.=.%.$.=.=.-.;.;.-.=.=.=.=.:.;.%.=.<.;.=.=.=.=.=.#.=.=.=.;.;.;.=.=.=.=.;.:.%.%.<.:.=.=.=.=.=.#.%.=.=.;.;.;.=.=.=.=.-.:.=.%.:.",
";.;.:.;.$.-.=.=.=.=.=.=.=.%.%.=.:.:.;.<.-.%.;.;.:.:.$.=.=.=.=.=.=.=.=.%.%.=.:.<.;.<.;.=.=.;.;.:.%.=.;.=.=.=.=.=.=.=.%.=.;.<.;.:."
};
