/* XPM */
static char *efb9d34c3e1c473f957d5f1fbc2fc407VYf3ltl6mlDe0V0o[] = {
/* columns rows colors chars-per-pixel */
"64 64 232 2 ",
"   c None",
".  c #151314",
"X  c #181516",
"o  c #1C1919",
"O  c #211E1D",
"+  c #221F21",
"@  c #2B2928",
"#  c #342C2B",
"$  c #3A312E",
"%  c #3D3533",
"&  c #3E3834",
"*  c #443A36",
"=  c #453D3B",
"-  c #4A3E3B",
";  c #443835",
":  c #5A3431",
">  c #6C3C34",
",  c #613D3A",
"<  c #763C32",
"1  c #63342E",
"2  c #4C423D",
"3  c #56433D",
"4  c #79443A",
"5  c #4C4542",
"6  c #534541",
"7  c #5A4742",
"8  c #544A45",
"9  c #5B4B46",
"0  c #5A4D49",
"q  c #5D514B",
"w  c #56524F",
"e  c #5D5754",
"r  c #6B4A45",
"t  c #644E4A",
"y  c #6B4D49",
"u  c #664944",
"i  c #734E4A",
"p  c #784D44",
"a  c #63534C",
"s  c #6B544D",
"d  c #6C564C",
"f  c #73534D",
"g  c #78574D",
"h  c #655651",
"j  c #675953",
"k  c #6C5A54",
"l  c #6A5B55",
"z  c #735C53",
"x  c #7B5B54",
"c  c #735F59",
"v  c #7D5E59",
"b  c #785752",
"n  c #766055",
"m  c #7A6356",
"M  c #74635B",
"N  c #7B645A",
"B  c #7F6A5C",
"V  c #6C625D",
"C  c #7D6A63",
"Z  c #756C67",
"A  c #7D726A",
"S  c #787676",
"D  c #696766",
"F  c #86473E",
"G  c #835B54",
"H  c #885C55",
"J  c #885349",
"K  c #84645B",
"L  c #8D635C",
"P  c #836B5C",
"I  c #866659",
"U  c #9B6B5A",
"Y  c #956758",
"T  c #A56E5B",
"R  c #AD765D",
"E  c #B0765D",
"W  c #B0785F",
"Q  c #846C64",
"!  c #8C6C63",
"~  c #866660",
"^  c #926D64",
"/  c #956D65",
"(  c #8D7364",
")  c #8D746B",
"_  c #88766A",
"`  c #937365",
"'  c #94756B",
"]  c #9D756B",
"[  c #94796B",
"{  c #9B7C6C",
"}  c #997465",
"|  c #867B72",
" . c #8B7B73",
".. c #847B76",
"X. c #947D73",
"o. c #9C7D73",
"O. c #967770",
"+. c #A67867",
"@. c #B37B63",
"#. c #B17761",
"$. c #A37E73",
"%. c #AB7F72",
"&. c #9C816E",
"*. c #93806F",
"=. c #8E847C",
"-. c #9C8475",
";. c #9D857B",
":. c #978778",
">. c #A5826E",
",. c #B6836C",
"<. c #A28374",
"1. c #AB8476",
"2. c #A58976",
"3. c #A2867B",
"4. c #A48B7B",
"5. c #AB8C7B",
"6. c #AA8778",
"7. c #B68A78",
"8. c #AC927D",
"9. c #A5937E",
"0. c #B5927D",
"q. c #C6957C",
"w. c #9A8D83",
"e. c #948D87",
"r. c #9E958A",
"t. c #9C9086",
"y. c #8B8884",
"u. c #A48E83",
"i. c #AA8D83",
"p. c #B38D82",
"a. c #A49385",
"s. c #AC9485",
"d. c #A69A8D",
"f. c #AB9A8B",
"g. c #A79589",
"h. c #B39483",
"j. c #B59A85",
"k. c #BB9789",
"l. c #B59C8A",
"z. c #BC9B8B",
"x. c #B89886",
"c. c #A59E94",
"v. c #A99E94",
"b. c #B89E92",
"n. c #BBA38C",
"m. c #B9A58C",
"M. c #AEA295",
"N. c #ADA49B",
"B. c #B3A294",
"V. c #BCA392",
"C. c #BDAA93",
"Z. c #B2A69C",
"A. c #B5A99D",
"S. c #BAAB9B",
"D. c #B6ACA2",
"F. c #BAADA3",
"G. c #BAAFA9",
"H. c #BDB1A4",
"J. c #BDB4AA",
"K. c #BBB4A9",
"L. c #CB9B83",
"P. c #C29D8B",
"I. c #C39F91",
"U. c #C7A38C",
"Y. c #D2A58E",
"T. c #C3A592",
"R. c #C3AB94",
"E. c #C8AB97",
"W. c #D4AC97",
"Q. c #C6B29B",
"!. c #CBB49C",
"~. c #CAB499",
"^. c #D7B59D",
"/. c #E0B49B",
"(. c #C3B3A5",
"). c #CCBAA4",
"_. c #C2B6AB",
"`. c #C4B9AD",
"'. c #CBBEAE",
"]. c #CAB6A1",
"[. c #D3BCA4",
"{. c #D9BCA5",
"}. c #C6BCB1",
"|. c #C9BEB3",
" X c #C2B7B2",
".X c #D0BBB3",
"XX c #E4BBA4",
"oX c #CFC1AA",
"OX c #D3C1A5",
"+X c #D4C3AB",
"@X c #DCC5AB",
"#X c #DBC6AA",
"$X c #CCC1B5",
"%X c #CDC5BA",
"&X c #CFC8BD",
"*X c #DDCCB3",
"=X c #D1C7BA",
"-X c #D3CABE",
";X c #D8C8B6",
":X c #DED1BB",
">X c #E1CBAE",
",X c #E5C3AB",
"<X c #E3CBB3",
"1X c #ECCDB4",
"2X c #E3C6B0",
"3X c #E5D1B7",
"4X c #ECD4BC",
"5X c #E7D6BA",
"6X c #F2D5BD",
"7X c #F6D7BD",
"8X c #F0CEB4",
"9X c #D5CDC2",
"0X c #D9CEC2",
"qX c #DBD2C4",
"wX c #DCD5CA",
"eX c #DBD5C9",
"rX c #D6D4D3",
"tX c #E3DACD",
"yX c #E5D9C4",
"uX c #F4DBC1",
"iX c #E4DDD2",
"pX c #E9DFD3",
"aX c #F2E3CC",
"sX c #EAE2D4",
"dX c #EBE4D9",
"fX c #E6E0D8",
"gX c #F1EADD",
"hX c #F0E6DA",
"jX c #EAE9E5",
"kX c #F5EEE2",
"lX c #F7F1E6",
"zX c #FDFDF4",
/* pixels */
"                                                                                                                                ",
"                                                4     s.C.].+X).#X5X*X5X;X).C.j.L   4 E.                                        ",
"                                          +XyX} < +.!.yX*X*X*XOX5XuX5X+XyX:X+X].T.L < T.3X).                                    ",
"                                        +X*XyXj.2.@XyXyX5X+X).;XaXaXaX+X+XqXyX*X#X[.6.).*XQ.m.                                  ",
"                                      l.C.*X#XC.~.>X[.>XQ.l.8.Q.@X#X>X^.>.!.m.Q.U.@X!.E.!.8.2.-.                                ",
"                                      2.T.OXn.j.j.#XR.R.{ s.2.0.j.T.E.h.h.5.8.2.0.!.R.j.j.2.>.-.                                ",
"                                      -.2.&.6.} 8.[.9.P d M _ V.h.j.z.k.f.C k N h.E.2.&.{ } } -.                                ",
"                                          ( { -.&.n.h.<.a.X.-.@X4X<X<X<XV.X.| _ h.5.[ [ P ` {                                   ",
"                                          8.~.+X-.m.!.x.XX,X1X6X4X4X6X6X1XXXW.x.j.5.` [ m.'                                     ",
"                                          [.5X3Xf.l.[.Q.l.[.2X1X4X4X6X1X<X@Xh.<.l.4.P l.*XS.                                    ",
"                                        [.>X5X!.4.P 2.-.u.  Y ,.q.Y.L.7.      s.( ! m m.3X@X                                    ",
"                                      C.OX*X[.9.P K m s 7 A l.7.@.#.,.` Z h 9 N m I K ` m.*X*X                                  ",
"                                    Q.#XQ.f.o.` z 7 * ; ; Z dXiXB.w.S.=.V = % * 3 y f K P 4.).[.[.                              ",
"                                '.oX+Xs.(.H.w.;. .C M k a a w. XD.d.M.=.h a f v C Q Q (  .| M.+X[.                              ",
"          h.5.              '.).).C.*.B.gXwXwXwXD.C u i b x C C Q C Q ) ~ K v b s k | v.&X%X|.S.Q.3X                            ",
"          P.          +XoX].R.R.s._ :.-XgX0XD.N.iXiXF./ J J 4 > 1 > : 1 > 4 p p ) G.D.r.J.eX9X`. .9.[.<X                        ",
"          #XC.  *X*X@XS.9.-.C.-.  B.a.-XlXdXD.c.lXlXzXlXdX.XL < > x > < G (.0XtXjXfX9Xc.v.0XwXJ. .Q 2.R.>X[.E.      !.          ",
"          OX+X+X).C.  l.<.9.l.    :.d.A.eXgX_.|.dXiXkXkXiX] 4 4 ;.wXb.4 F -.sXgXdXtXiX%Xr.wX$XD.v. .[ <.C.#X[.R.    3X).        ",
"        !.Q.      !.Q.      a.    A M.v.M.sX$Xt.`.F.'.$Xf.g ` B.%X-X$X[ J G A.H.A.A.Z.=.D.hXtXD.w._ ) ! { 5.l.Q.T.-.V.B.        ",
"      a.        #X[.C.            c.M.M.D.iX-Xw.w.B.B.S.B.g.M.B.f.9.f.d.d.d.B.M.f.B.=.A Z.9XgX-Xc.v.    I } } &.!.T.-.-.        ",
"                !.).              }.}.=XtXlXgX%X=.D.'.=X0X-X'._.D.S.B.D.`.`.}.$X}.A.A | A.tXsX0X|.H.        ( ` 2.[.Q.V.+X      ",
"                R.[.            r.`.wXiX&XeXwXJ.`.9XeX-XeXpXiXtX&X-X-X-XqXqX-X9X=X|.J.D.t.H.D.H._.r.=.          { Q.[.C.).@XS.  ",
"                [.[.            d.-XsXkX-XA.r.| w.:.d.d.d.Z.(.`.S.A.`.}.$X_.A.M.M.d.r.| e.-X}.9XtXeX`.            ~.!.~.m.~.m.  ",
"            [.[.!.            N.D.J.eXiX=Xv.    t z X.X.;.u.a._._.S.B.(.H.X.! ) o.-.c h w.=X$X-XgXlXsXD.        T.n.C.OXm.4.8.-.",
"    &.#XOX!.R.              D.|.}.D.dXpXN.    ~ ) N i.;. .i.X.u.i.l.<.u.l.O.K o.[ 3.l.;.C w.}.-XsXlXpXA.        j.8.Q.[.m.  <.8.",
"      #XR.                  G.|.J.=XkX`.c y I ' i ! ! y f / f v K ] p s ! x : v z K [ ~ u c a.eXgXgXtXA.t.    n.4.l.#XQ.9.Q )   ",
"      +X3X                  Z.`.|.9X`.C y K ' G I 6.K b o.h.! ) $.k.! ' l.h.v ' s.' x.s.;.)  .| }.pXsXH.a.C P -.*.!.C.s.        ",
"      ).5XQ.              v.$XwXwX}.C z o.5.L x ] L u f ^ ] r y / +.i v <.1.i y ] I ^ $.[ f v c k J.tXZ.| V     u.              ",
"      +X<X                D.D.=X%X .h ) k.$.^ ( k.] ) $.h.z.( ) b.P.o.3.b.T.' P h.p.) s.V.3.~ ) v a w.v.=...l                   ",
"      {.[.                0XeXZ.l c Q i.} g y ! Y p i ] ] o.x b 6.1.L G O.6.G u ! $.Q b $.` i , ~ X.M a.B.;.C                   ",
"                        E.!.l.j a z [ $.G ^ ` z.$.G ^ z.h.p.` ! z.k.^ ) 3.h.` f ! h.i.d h.T.l.[ N g.Q 7 6.0.{                   ",
"                      @X1X1Xs.t s Q p.H i r / $.G , / 1.` ^ v v p.%.H ~ ' 6.L u f $.$.s K h.5./ u d I y 3 $.6.[                 ",
"                    R.,Xh.E.Q 6 h g.E.+.} Y P.P.] K k.z.5.$.O.! P.1.L ^ <.z.$.b v h.I.) r k.V.1.g u I t   v { [                 ",
"                      x.2.<.          Y Y U T R T U +.+.+.+.+.I ! N d G } %.+.U Y +.>.+.Y +.+.U                                 ",
"                          ^             @.@.@.#.W E E E E E E Y         T W #.@.W W #.@.@.@.#.U                                 ",
"                                        Y./.^.W.W.Y.U.L.q.7.#.          #.,.q.L.L.Y.W.^.{.^.L.U                                 ",
"                                        Y.,X1X6X6X7X6X6X6X1XY.          ,./.1X6X6XuXuX6X6X1X^.+.                                ",
"                                        0.XX8X6X6X7XuX7X7X7XW.          ,.XX1X6XuXuXuX7X6X1XY.                                  ",
"                                          -.T.!.{.2X2X[.!.E.<.          g <.j.T.!.[.!.T.l.3.b                                   ",
"                                          2 a z m [ -.m n z u             a s z B ( m z z 7                                     ",
"                                            9 k z N ( m m n 9             k m N B P N n z 3                                     ",
"                                            - h z N N m m z 7             k N N N N m z s *                                     ",
"                                              t k z m n n d -             k N N N m z z t                                       ",
"                                              7 a z n z z a               a z m N N m d a                                       ",
"                                              2 9 M z k a 7               2 9 d M N N a a 8                                     ",
"                                            q a 8 a a a 7 -                 = 3 a k k a a a                                     ",
"                                            k k a k a q 2                     * q a l a h k 0                                   ",
"                                          q k k k M k h 5                       q k c k k k h -                                 ",
"                                          q k k k k k h -                       a k l k k k h -                                 ",
"                                          8 h j j j j a                         e k k j j a a =                                 ",
"                                          - q a a a a 0                         8 a a a a a 0 =                                 ",
"                                            6 0 0 9 0 6                           9 9 0 9 9 6                                   ",
"                                            % 5 6 6 6 =                           2 7 6 6 5 =                                   ",
"                                              % - - - ;                           % - - - = #                                   ",
"                                                ; * * %                           # * * * %                                     ",
"                                                # $ $ #                             $ % % @                                     ",
"                                                % w 8 &                           l e 2 & #                                     ",
"                                              Z D iXy.5                           e.y.w = & 8                                   ",
"                                              rXe.jXS +                           ..e @ O O O                                   ",
"                                              S 9XjXS o                           e = O O o O                                   ",
"                                              o Z jXD o                             X o o o                                     ",
"                                                o 5 @ . X . X                                                                   ",
"                                                . . . . X X .                                                                   ",
"                                                                                                                                "
};
